<svg width="135" height="32" fill="none" xmlns="http://www.w3.org/2000/svg"><path fill-rule="evenodd" clip-rule="evenodd" d="M62.977 8.051c-.572 0-1.072-.214-1.501-.643-.429-.429-.572-.929-.572-1.5 0-.573.215-1.073.572-1.502.429-.428.93-.643 1.5-.643.573 0 1.073.215 1.502.643.428.43.643.93.643 1.501 0 .572-.215 1.072-.643 1.501-.43.429-.93.643-1.501.643z" fill="#fff"/><path d="M43.678 24.632h-3.645V7.765h-6.432V4.763H50.04v3.074h-6.432v16.795h.071zm15.364-11.649h-.286c-1.072 0-2.001.143-2.859.5-.786.357-1.429.786-1.93 1.5v9.65h-3.501V10.194h2.93l.357 2.002h.072c.429-.715 1-1.287 1.715-1.716.715-.428 1.572-.643 2.644-.643.358 0 .644 0 .93.072v3.073h-.072zm2.22-2.788h3.502v14.437h-3.502V10.195zM75.91 24.99c-.786 0-1.5-.143-2.072-.43a5.091 5.091 0 01-1.573-1.071h-.071v8.075h-3.502V10.195h3.073l.143 1.644h.071a4.857 4.857 0 011.716-1.43 5.222 5.222 0 012.358-.57c.786 0 1.572.142 2.287.428.786.286 1.43.715 2.001 1.358.572.572 1.072 1.358 1.43 2.287.357.929.5 2 .5 3.287 0 1.358-.215 2.502-.572 3.502s-.858 1.787-1.5 2.43c-.644.643-1.287 1.144-2.073 1.43-.644.285-1.43.428-2.216.428zm-.429-12.293c-.643 0-1.215.143-1.786.429-.572.286-1.072.714-1.501 1.215v6.432l.5.5c.215.143.429.357.715.429.286.143.572.286.857.357.286.072.644.143 1.001.143.572 0 1-.143 1.43-.357.428-.215.785-.572 1.071-1 .286-.43.5-.93.644-1.502.142-.571.214-1.215.214-2 0-.787-.072-1.43-.214-2.073-.143-.572-.358-1.072-.644-1.43-.285-.357-.643-.714-1-.857-.358-.215-.858-.286-1.287-.286zm16.369 7.719c0-.286-.072-.572-.287-.787-.142-.214-.428-.357-.714-.5-.286-.143-.644-.214-1-.357-.358-.072-.787-.215-1.144-.286-.5-.143-1-.286-1.501-.5-.5-.215-.93-.43-1.287-.715a2.843 2.843 0 01-.857-1.144c-.215-.428-.286-1-.286-1.643 0-.787.143-1.501.429-2.073.286-.572.643-1.072 1.143-1.43a6.425 6.425 0 011.715-.857c.644-.214 1.358-.286 2.073-.286.858 0 1.715.072 2.501.215.787.142 1.501.357 2.073.571v2.859a5.268 5.268 0 00-1-.286l-1.073-.214c-.357-.072-.714-.143-1.143-.143-.357-.072-.715-.072-1.072-.072-.429 0-.786.072-1.072.143-.286.072-.5.215-.715.286-.143.143-.286.286-.357.429a1.346 1.346 0 00-.143.572c0 .357.071.572.286.786.143.214.429.357.715.5.285.143.643.214 1 .286.357.072.643.143 1 .214l1.501.43c.5.142.93.428 1.358.714.43.286.715.715 1 1.143.287.5.358 1.072.358 1.859 0 .786-.143 1.5-.429 2.144-.285.571-.714 1.143-1.286 1.5a4.612 4.612 0 01-2.001.858c-.786.214-1.644.286-2.502.286-.929 0-1.715-.072-2.43-.214-.714-.143-1.357-.358-1.786-.572v-2.859c.786.286 1.5.5 2.144.572.643.071 1.286.143 1.858.143.429 0 .858 0 1.215-.072.357-.071.715-.143 1-.286.287-.142.5-.285.644-.5 0-.143.071-.357.071-.714zm15.29 4.216c-.429.143-.858.214-1.429.286-.572.071-1.072.071-1.573.071-1.215 0-2.215-.214-2.93-.571-.786-.358-1.286-.93-1.644-1.716-.214-.5-.357-1.215-.357-2.144v-7.432h-2.716v-2.93h2.716V6.192h3.502v4.002h4.145v2.93h-4.145v7.005c0 .571.071 1 .286 1.214.286.43.857.715 1.787.715.428 0 .786 0 1.214-.071a33.73 33.73 0 001.144-.215v2.859zm10.152-2.502c.715 0 1.43-.07 2.144-.214.715-.143 1.501-.357 2.287-.572v2.788c-.428.214-1.143.357-2.072.572-.929.142-1.93.285-2.93.285-1.001 0-2.001-.143-2.931-.428a7.195 7.195 0 01-2.429-1.287c-.715-.572-1.215-1.358-1.644-2.287-.429-.929-.572-2.072-.572-3.359 0-1.286.214-2.43.572-3.43.357-1 .857-1.787 1.501-2.43.643-.643 1.358-1.144 2.144-1.43.786-.357 1.643-.5 2.501-.5.929 0 1.787.143 2.501.429.787.286 1.43.715 2.002 1.286.571.572 1 1.358 1.286 2.287.286.93.5 2.073.5 3.288 0 .5 0 .929-.071 1.286h-9.434c.071.644.214 1.215.429 1.716.214.5.572.857 1 1.143.429.286.858.5 1.43.643a8.105 8.105 0 001.786.215zm-1.357-9.505c-.429 0-.858.072-1.215.215-.358.143-.644.357-.93.643-.285.286-.428.643-.571 1-.143.358-.215.787-.286 1.215h5.646a6.33 6.33 0 00-.143-1.214c-.143-.358-.286-.715-.5-1.001a1.957 1.957 0 00-.858-.643 2.963 2.963 0 00-1.143-.215zm18.15.358h-.286c-1.072 0-2.001.143-2.859.5-.786.357-1.429.786-1.93 1.5v9.65h-3.502V10.194h2.931l.357 2.002h.071a4.928 4.928 0 011.716-1.716c.714-.428 1.572-.643 2.644-.643.357 0 .643 0 .929.072v3.073h-.071z" fill="#fff"/><path d="M14.77 29.538c8.156 0 14.768-6.612 14.768-14.769S22.926 0 14.77 0 0 6.612 0 14.77c0 8.156 6.612 14.768 14.77 14.768z" fill="#8CA6BC"/><path d="M14.768 24.896c5.593 0 10.127-4.534 10.127-10.127 0-5.593-4.534-10.127-10.127-10.127-5.594 0-10.128 4.534-10.128 10.127 0 5.593 4.534 10.127 10.128 10.127z" fill="#fff"/><path d="M20.535 5.063l5.556 17.724-13.152 6.751-4.008-4.993L20.535 5.063z" fill="url(#paint0_linear_701_163)"/><path fill-rule="evenodd" clip-rule="evenodd" d="M12.588 13.574L8.93 24.545l.351.211 7.596-8.72-4.29-2.462z" fill="#2B3743"/><path fill-rule="evenodd" clip-rule="evenodd" d="M20.181 4.923l-7.596 8.65 4.29 2.462 3.658-10.971-.352-.14z" fill="#EF4060"/><defs><linearGradient id="paint0_linear_701_163" x1="19.251" y1="19.463" x2="7.377" y2="9.296" gradientUnits="userSpaceOnUse"><stop offset=".065" stop-color="#2B3743" stop-opacity="0"/><stop offset="1" stop-color="#2B3743"/></linearGradient></defs></svg>