<svg width="242" height="379" fill="none" xmlns="http://www.w3.org/2000/svg"><path d="M133.591 82.51c.279.039.559.062.84.07a5.904 5.904 0 00.444 2.272.298.298 0 00.455.074.327.327 0 00.095-.148c.071-.278.112-.563.125-.85.045-.279.056-.563.031-.845 0-.184 0-.37-.036-.554a11.456 11.456 0 006.66-3.297 10.923 10.923 0 001.554-1.944c.24-.376.455-.768.644-1.173l.018-.043c.074-.175.147-.346.204-.53.043-.16.068-.324.076-.49 0-.087 0-.175.022-.267a.707.707 0 00-.088-.462.66.66 0 00-.356-.29.53.53 0 00-.394.011.558.558 0 00-.285.284 3.654 3.654 0 01-.214.355 3.55 3.55 0 00-.27.462l-.023.046c-.146.319-.288.619-.444.924a9.711 9.711 0 01-1.096 1.538c-.883.99-1.937 1.8-3.108 2.382a9.61 9.61 0 01-3.042.924 6.695 6.695 0 00-.151-.924c-.098-.397-.737-.434-.808 0-.05.329-.079.66-.084.993a6.595 6.595 0 01-3.97-1.57c-1.372-1.094-2.446-2.54-3.61-4.156a.586.586 0 00-.38-.238.57.57 0 00-.432.104.533.533 0 00-.227.347.557.557 0 00.08.41c1.812 2.965 4.112 6.1 7.77 6.586zm5.767 23.596l.453.009c.367.004.466.573.069.632a20.971 20.971 0 01-5.178.164l-.345-.026c-1.191-.088-2.806-.206-3.237-1.428a.48.48 0 01.05-.359.501.501 0 01.291-.227 347.634 347.634 0 005.41-2.307l.463-.201 2.896-1.264 1.437-.641c.208-.082.411-.176.608-.282-.697-.022-1.422.19-2.126.396-.39.114-.773.226-1.141.295a17.75 17.75 0 01-3.543.299 20.603 20.603 0 01-7.073-1.395.471.471 0 01-.259-.193.452.452 0 01.082-.594.479.479 0 01.302-.12c4.343-.15 8.039-2.397 11.65-4.593.433-.264.865-.526 1.297-.784a27.05 27.05 0 01-5.822.594 25.175 25.175 0 01-3.944-.396 14.866 14.866 0 01-3.789-1.058c-.376-.198-.095-.692.272-.62.561.111 1.117.247 1.673.384h.003c.688.17 1.376.338 2.074.459a28.71 28.71 0 003.793.375 24.231 24.231 0 007.617-.83.326.326 0 01.365.182.307.307 0 01-.119.383c-.868.54-1.76 1.037-2.651 1.533l-.003.002a144.525 144.525 0 00-2.316 1.317c-.798.464-1.596.927-2.418 1.354a29.49 29.49 0 01-6.128 2.234c1.85.602 3.79.895 5.74.868a20.158 20.158 0 003.629-.387 12.697 12.697 0 013.603-.422c.199.034.441.194.41.422-.11.829-.922 1.151-1.657 1.442-.127.05-.252.1-.371.151-1.05.452-2.099.91-3.146 1.374l-.05.022c-1.96.865-3.911 1.726-5.854 2.629.329.123.676.196 1.028.215.703.101 1.415.173 2.123.232 1.281.109 2.553.134 3.832.16zm-4.333 33.579c1.272.307 2.579.39 3.875.246 1.241-.153 2.647-.41 3.684-1.246a.37.37 0 00.133-.204.42.42 0 00-.012-.253.368.368 0 00-.153-.186.301.301 0 00-.223-.034c-.498.102-.981.249-1.466.396-.661.201-1.325.403-2.031.492a11.616 11.616 0 01-3.594-.077c-.495-.093-.737.743-.213.866zm10.365 1.328c1.305-.4 2.808-.86 3.637-1.878.219-.265.83-.114.681.233-.616 1.404-2.295 1.966-3.795 2.468l-.097.032c-1.868.625-4.022 1.258-6.035.878l-.098-.028a6.742 6.742 0 01-2.418.264 6.567 6.567 0 01-2.335-.608c-.411-.192-.126-.804.316-.661 1.373.436 2.838.605 4.293.494a.494.494 0 01.214-.172 6.377 6.377 0 01-1.114.103h-.466a10.232 10.232 0 01-1.398-.188 8.677 8.677 0 01-1.109-.327l-.214-.078a.607.607 0 01-.352-.286.495.495 0 01-.021-.42.475.475 0 01.108-.174.57.57 0 01.178-.122.634.634 0 01.441-.027c.777.183 1.577.279 2.381.286h2.484a.61.61 0 01.347.123.486.486 0 01.185.285.39.39 0 01-.038.293.479.479 0 01-.242.206c-.32.124-.652.223-.993.294l.098-.009.128-.011.274-.024c.729-.064 1.459-.127 2.18-.25a22.39 22.39 0 002.563-.629l.217-.067zM118.692 46.66a.326.326 0 01-.107.123c-.641.472-1.396.099-1.962-.392a2.91 2.91 0 01-.884-1.89c-.051-.689.146-1.356.34-2.014.057-.193.114-.385.164-.577.077-.286.138-.578.2-.87v-.002c.03-.142.06-.285.092-.427.044-.227.075-.458.093-.69.007-.082.026-.173.045-.268.028-.133.056-.272.056-.402a.295.295 0 01.09-.18.259.259 0 01.356 0c.049.047.081.11.089.18.033.2.055.402.066.605a5.987 5.987 0 01-.013.265v.002c-.006.112-.013.223-.013.332-.014.373-.048.746-.102 1.115-.05.33-.129.65-.208.97-.097.39-.193.779-.234 1.178a1.96 1.96 0 00.058.888c.087.287.239.546.441.755.422.319.865.603 1.326.85a.352.352 0 01.107.448zm2.334.888c.427-.268.854-.546 1.281-.824h.001c.468-.27.905-.586 1.302-.944a.458.458 0 00.121-.296.458.458 0 00-.104-.301.502.502 0 00-.281-.171.522.522 0 00-.332.037 9.01 9.01 0 00-1.332.84l-2.555 1.66-.181.113h-.001l-.001.002a20.28 20.28 0 00-.483.309c-.118.079-.229.168-.339.255-.094.075-.186.15-.282.216a.354.354 0 00-.035.472c.024.02.048.04.075.057.37.465.896.797 1.491.943a3.008 3.008 0 001.958-.189 3.945 3.945 0 001.441-1.094c.228-.251.422-.528.577-.825a2.7 2.7 0 01.062-.13c.039-.08.078-.16.107-.243a1.73 1.73 0 00.057-.26c.012-.071.025-.144.042-.211a.318.318 0 00-.015-.213.346.346 0 00-.148-.16.37.37 0 00-.423.047 5.412 5.412 0 00-.547.51c-.124.14-.232.286-.34.431l-.157.21a3.345 3.345 0 01-1.044.9 1.8 1.8 0 01-1.218.208 3.051 3.051 0 01-.651-.236l.661-.377c.443-.203.86-.462 1.293-.736zm-1.633-10.674a.978.978 0 01-.343-.007.526.526 0 01-.263-.117c-.056-.054-.071-.116-.041-.175.135-.377.947-.575 1.655-.575a4.62 4.62 0 011.15.156c.298.067.552.174.733.31.182.095.327.206.428.327.115.144-.329.245-.498.193-.074-.022-.145-.046-.217-.07l-.042-.013-.071-.023a6.705 6.705 0 00-.168-.052l-.145-.028-.064-.014h-.035l-.224-.051c-.063-.015-.125-.03-.19-.044h-.05l-.214-.034-.344-.04a2.107 2.107 0 01-.159 0h-.115l-.124.015a.484.484 0 00-.072.011l-.006.001-.112.032h-.034l-.045.015-.08.042-.04.023v.012a.586.586 0 01-.27.106zm.788 2.126c-.274 0-.474.472-.448 1.026.027.553.274.987.548.974.274-.014.474-.475.448-1.026-.027-.55-.274-.99-.548-.973zm-5.448 2.027c-.026-.554.174-1.027.448-1.027.274-.013.521.418.548.973.026.554-.174 1.013-.448 1.027-.274.013-.521-.418-.548-.973zm66.998 34.976c0-1.108-.449-2.003-.998-2.003-.548 0-1.002.895-1.002 2.003 0 1.107.449 1.997 1.002 1.997.553 0 .998-.895.998-1.997zm-1 12.499c0-.83.449-1.502.998-1.502.553 0 1.002.676 1.002 1.502S182.277 90 181.729 90c-.549 0-.998-.667-.998-1.498zm3 11.498c-.554 0-1 .673-1 1.5s.446 1.5 1 1.5 1-.673 1-1.5-.446-1.5-1-1.5zm2 16.5a1.5 1.5 0 112.999-.001 1.5 1.5 0 01-2.999.001zm20.593-98.715l.041-.05.041-.042h.058c.066-.036.132-.065.2-.095l.043-.018.032-.014h.729l.298.092.135.056.072.043c.061.047.124.088.189.12l.086.071a.23.23 0 00.202.044.323.323 0 00.182-.148.682.682 0 00.094-.285.808.808 0 00-.028-.319c-.134-.381-.334-.695-.576-.906-.266-.23-.566-.345-.87-.333-.151 0-.302.026-.45.078l-.167.07a.729.729 0 00-.202.178h-.032a2.752 2.752 0 00-.585.778.735.735 0 00-.085.355c0 .13.03.255.085.354a.38.38 0 00.117.128.235.235 0 00.141.04.247.247 0 00.139-.056.42.42 0 00.111-.14zm-7.007.009a.859.859 0 01-.264.047.417.417 0 01-.139-.024.32.32 0 01-.112-.065.22.22 0 01-.062-.095.181.181 0 01-.002-.106.876.876 0 01.291-.297 1.26 1.26 0 01.439-.172c.257-.066.53-.093.802-.078.307.01.606.078.866.2.112.06.213.13.301.209l.059.054c.034.021.059.05.073.08.032.04.067.078.105.115a.196.196 0 01.048.075.164.164 0 01-.031.16.247.247 0 01-.074.06.382.382 0 01-.316.013.286.286 0 01-.083-.054s-.036-.01-.036-.027-.037-.017-.037-.017l-.1-.034-.068-.027h-.06a.954.954 0 01-.05-.012.39.39 0 00-.1-.018 2.915 2.915 0 00-.301-.061l-.155-.02h-.068a3.61 3.61 0 00-.329 0h-.068a2.02 2.02 0 00-.155.03l-.296.064h-.078zm4.81 7.799a2.203 2.203 0 00-.396 1.001.42.42 0 00.196.35.379.379 0 00.385.004 1.85 1.85 0 00.674-.824 7.11 7.11 0 00.485-1.02c.253-.669.323-1.4.202-2.11a14.192 14.192 0 00-.647-2.165 4.227 4.227 0 01-.251-1.28c0-.14.004-.28.008-.42.008-.28.015-.56-.008-.833a.315.315 0 00-.072-.194.273.273 0 00-.367-.055.303.303 0 00-.121.165c-.143.531-.093 1.091-.044 1.64.019.212.037.422.044.628.05.723.172 1.438.366 2.133a3.44 3.44 0 01-.04 2.077 5.55 5.55 0 01-.414.903z" fill="#000"/><path fill-rule="evenodd" clip-rule="evenodd" d="M206.148 29.235a16.337 16.337 0 00-1.636-.355 28.82 28.82 0 00-.588-.098c-.888-.142-1.772-.283-2.556-.738a.316.316 0 00-.315-.004.28.28 0 00-.111.11.256.256 0 00-.03.149.264.264 0 00-.123.192 2.827 2.827 0 000 1.137c.104.375.289.727.542 1.037a3.672 3.672 0 002.015 1.254 3.99 3.99 0 002.397-.251c.367-.143.697-.357.966-.627a2.6 2.6 0 00.374-.518l.118.041c.456.126.684-.38.415-.66a3.382 3.382 0 00-1.468-.669zm-.073 1.104a5.881 5.881 0 01-.779.46 2.95 2.95 0 01-1.672.204 2.65 2.65 0 01-1.518-.878 3.779 3.779 0 01-.456-.735 3.423 3.423 0 01-.241-.594 8.334 8.334 0 002.684.903c.538.096 1.076.192 1.6.33.19.057.377.122.56.197a1.256 1.256 0 01-.178.104v.009z" fill="#000"/><path d="M201.731 20.502c0-.83-.446-1.502-.998-1.502-.551 0-1.002.673-1.002 1.502 0 .83.451 1.498 1.002 1.498.552 0 .998-.66.998-1.498zm5 .498c0-.547.235-1 .5-1 .275 0 .5.453.5 1 0 .547-.225 1-.5 1s-.5-.453-.5-1z" fill="#000"/><path fill-rule="evenodd" clip-rule="evenodd" d="M95.173 71.035c-1.337-.414-2.697-.922-4.012-1.417a51.81 51.81 0 00-5.17-1.752c-2.986-.78-5.535-.923-7.795-.446-1.991.418-3.49 1.461-5.081 2.567l-.013.01-.125.087-.086.06c-.376.265-.759.534-1.176.793-.424.28-.872.525-1.337.731-.435.199-.898.33-1.373.388a.28.28 0 00-.25.272v1.052c-.035 4.011-.057 7.702-.066 11.273v49l.013 1.542v52.125l-.022 1.551v41.275c-2.034 1.293-4.032 2.674-6.015 4.046l-.203.14c-4.318 2.986-8.53 6.124-12.55 9.498-7.85 6.593-14.954 14.21-20.057 23.152-5.368 9.387-8.214 20.019-11.004 30.439v.003c-.296 1.103-.59 2.204-.887 3.3a1221.521 1221.521 0 00-9.33 36.627 967.267 967.267 0 00-4.224 18.422 593.353 593.353 0 00-1.975 9.401c-.426 2.114-.777 4.18-1.127 6.247a396.733 396.733 0 01-.53 3.078c-.12.656-.233 1.202-.344 1.733a45.886 45.886 0 00-.428 2.261c-.08.504.65.731.776.214.536-2.17 1.078-4.262 1.615-6.332v-.003l.002-.004c.961-3.706 1.905-7.347 2.768-11.255a1444.39 1444.39 0 014.177-18.275 1234.201 1234.201 0 019.11-36.377c1.591-5.973 3.187-11.941 4.902-17.874 1.64-5.634 3.468-11.242 5.982-16.55 4.457-9.441 11.098-17.433 18.835-24.378 6.41-5.754 13.452-10.662 20.503-15.565v44.668a24.922 24.922 0 01-.852-1.89 38.477 38.477 0 01-1.02-2.871c-.352-.989-.6-2.013-.74-3.053-.063-.754-1.24-.758-1.181 0 .031.381.05.761.067 1.141v.002c.034.698.067 1.396.182 2.097.162 1.031.426 2.044.79 3.022a29.046 29.046 0 002.486 4.97.305.305 0 00-.08.067.279.279 0 000 .317c.107.178.223.356.334.517l.05.075c.07.112.15.223.231.335l.214.316.477.664c.28.388.57.772.891 1.173.027.032.06.058.098.076a.265.265 0 00.12.026h.094a.33.33 0 00.085-.049 49.026 49.026 0 006.686 6.749c3.467 2.91 7.478 5.398 12.123 5.612 4.644.214 9.137-1.783 13.014-4.208 7.608-4.743 14.24-11.032 20.556-17.344a692.491 692.491 0 005.167-5.237c4.567-4.662 9.163-9.353 14.074-13.676a90.88 90.88 0 0110.612-8.215 29.953 29.953 0 015.794-3.031c.415-.156.834-.298 1.257-.423 1.68-.513 3.44-.714 5.193-.593a14.62 14.62 0 019.498 4.778 12.118 12.118 0 013.12 10.333c-.446 2.411-1.369 4.684-2.367 6.904a612.312 612.312 0 01-3.12 6.842 147.463 147.463 0 01-6.873 13.274 146.886 146.886 0 01-8.972 13.141c-.258.343-.517.686-.78 1.025a345.974 345.974 0 01-4.751 6.102c-.965 1.215-1.936 2.427-2.906 3.639-3.349 4.183-6.701 8.37-9.863 12.693a95.68 95.68 0 00-1.783 2.496c-.236.33-.468.66-.695.994-4.654 6.713-8.839 13.858-11.549 21.592a64.797 64.797 0 00-1.707 5.678.597.597 0 00.872.683.603.603 0 00.283-.362c2.193-7.907 5.905-15.289 10.345-22.153.597-.923 1.207-1.827 1.822-2.732-.387 2.447-.641 4.952-.24 7.386.891 5.42 6.052 9.012 11.303 9.405 6.066.445 11.775-2.795 16.09-6.789 4.457-4.136 7.938-9.302 11.285-14.344a195.599 195.599 0 007.648-12.48l.05-.089c.046-.08.09-.16.133-.241a70.056 70.056 0 0017.632 2.888 46.012 46.012 0 0011.927-1.056c3.682-.892 7.421-2.519 10.064-5.3a9.36 9.36 0 002.576-4.85 10.99 10.99 0 00-.793-5.866c-1.382-3.427-3.757-6.49-6.311-9.124a38.204 38.204 0 00-7.831-6.182 81.105 81.105 0 014.488-1.026c4.93-.928 9.919-1.511 14.931-1.742 3.32-.182 6.705-.218 9.978-.254h2.787a.288.288 0 00.196-.084.285.285 0 00.08-.197v-1.124l-.035-5.959c-.036-5.826-.072-11.852-.072-17.776v-47.743c0-26.506-.005-22.529-.009-19.437v.005c-.002 1.963-.004 3.562-.004-3.243 0-23.704 0-48.211-.027-72.317 0-12.948-.044-26.846-.142-40.75v-1.247a.292.292 0 00-.09-.196.243.243 0 00-.205-.076c-.221 0-.445.01-.667.02-.146.006-.291.012-.434.016-3.498.08-7.055-.067-10.491-.21l-2.394-.102-7.011-.321a25.876 25.876 0 00-2.349-4.422c-2.763-4.132-6.685-7.426-10.509-10.448a102.872 102.872 0 00-3.419-2.603 27.808 27.808 0 00-3.307-2.153 31.022 31.022 0 01-.036-5.496h.517a22.09 22.09 0 003.495-.236c2.014-.326 4.764-1.244 6.387-3.754 1.15-1.782 1.6-4.056 1.421-7.198-.129-2.296-.445-4.618-.775-6.87-.08-.552-.156-1.109-.231-1.663l-.028-.2c-.219-1.625-.441-3.26-.664-4.902a11.518 11.518 0 003.45-.673 12.59 12.59 0 003.12-1.828 5.993 5.993 0 001.908-5.982c-1.043-4.84-6.485-6.922-10.929-7.011a16.49 16.49 0 00-2.96.223c-.209-1.306-1.943-2.037-3.057-2.31a15.075 15.075 0 00-5.045-.204c-3.397.365-6.713 1.783-8.915 4.457a9.317 9.317 0 00-1.733 3.12c-1.783-.798-3.606.678-4.876 1.832a14.264 14.264 0 00-3.441 4.533 10.152 10.152 0 00-.838 5.978c.187.96.526 1.883 1.003 2.736l.065.12.037.068.073.132c.403.728.826 1.493.872 2.328.048.8-.253 1.564-.547 2.309-.089.226-.177.45-.255.673a8.275 8.275 0 00-.446 2.906 13.05 13.05 0 001.667 5.773c.847 1.591 1.948 3.213 3.53 4.154a4.284 4.284 0 003.12.522c-.042.328-.025.662.049.985l.04.258c.063.446.116.892.165 1.31.107.968.174 1.837.205 2.653v.553a5.195 5.195 0 00-1.707.392l-.089.031a38.43 38.43 0 00-1.783.69 37.34 37.34 0 00-3.405 1.619 36.867 36.867 0 00-6.191 4.217 38.864 38.864 0 00-9.462 11.727c-.081.152-.157.306-.234.46l-.001.002-.14.278c-1.29.183-2.375.324-3.371.454l-1.331.174c0-.164-.013-.327-.027-.49v-.001c-.008-.1-.017-.202-.022-.302.256-.368.492-.749.709-1.141a10.764 10.764 0 001.373-4.756 8.163 8.163 0 00-2.559-6.334c0-.224-1.769-1.302-1.787-1.302a15.633 15.633 0 00-4.141-1.658 25.092 25.092 0 00-1.835-.371c-.845-.15-1.689-.3-2.501-.565a4.247 4.247 0 01-1.819-1.06 3.542 3.542 0 01-.802-2.065c-.06-.776.005-1.55.071-2.323v-.003c.075-.885.15-1.77.036-2.657a6.82 6.82 0 00-5.955-5.794c1.124-3.392.37-7.284-1.092-10.457-.753-1.64-1.724-3.317-3.151-4.458a7.744 7.744 0 00-4.425-1.64 9.038 9.038 0 00-2.131.142c-1.337-1.569-3.94-1.93-5.83-2.068a20.697 20.697 0 00-7.403.834c-4.675 1.382-9.257 4.457-11.731 8.74a5.132 5.132 0 00-.637 4.08c.189.633.501 1.224.918 1.738l.12.138c-.289.466-.542.953-.757 1.457-.615 1.453-.7 2.853.071 4.275.709 1.3 1.677 2.44 2.844 3.352a6.206 6.206 0 004.118 1.087 9.167 9.167 0 001.471-.218c.129 1.935.298 3.865.548 5.795.285 2.157.838 4.457 2.112 6.24 1.476 2.086 3.718 3.053 6.24 3.031a16.98 16.98 0 002.171-.178c.185.431.346.913.494 1.356l.014.043c.18.541.329 1.092.446 1.65a18 18 0 01.316 3.356v.236h-.027c-1.1.08-2.192.21-3.195.38h-.045a37.88 37.88 0 00-3.053.654 49.724 49.724 0 00-6.855 2.537l-.006.002c-2.975 1.274-6.053 2.592-9.296 3.01a15.463 15.463 0 01-5.82-.445l-1.431-.379zm-24.291 63.727a.33.33 0 000-.066v-49.83c0-3.681-.031-7.626-.071-11.589a14.18 14.18 0 003.365-1.974l.534-.384a10.696 10.696 0 017.332-2.001c2.959.243 5.75 1.346 8.47 2.421l.066.026c1.52.602 3.088 1.221 4.684 1.694a.324.324 0 00.089.04l.865.232h.075a19.39 19.39 0 002.082.41c.673.092 1.352.138 2.032.138 4.091 0 7.874-1.614 11.554-3.183l.061-.026c.829-.357 1.658-.713 2.487-1.048a37.953 37.953 0 013.151-1.114l-2.103 2.322c-2.024 2.193-3.94 4.377-5.175 7.047-1.193 2.563-1.94 5.364-2.663 8.075l-.176.662a137.056 137.056 0 00-2.148 9.24c-.678 3.463-1.155 6.521-1.462 9.36a18.224 18.224 0 000 4.69 15.7 15.7 0 001.194 4.034c1.935 4.457 5.509 7.849 9.333 11.228-3.703 8.108-7.131 16.104-8.793 24.694-.615 3.227-.985 6.539-1.338 9.744l-.012.114c-.157 1.386-.318 2.812-.496 4.214-.641 4.961-1.622 9.806-2.589 14.339-1.569 7.332-3.258 15.155-5.148 23.009l-7.015-.134-.49-.007h-.003c-5.801-.087-11.784-.176-17.679-.216-.006-22.055-.01-44.108-.013-66.161zm88.606-65.363h.076l8.664-1.168-.526 1.472a365.371 365.371 0 00-1.783 5.099l-.107.307c-.089.245-.182.495-.276.745-.245.6-.445 1.219-.597 1.85a1.704 1.704 0 00.815 1.956 6.083 6.083 0 001.756.53l.589.126c.548.124 1.105.236 1.644.338l.633.125a9.177 9.177 0 01-.637 2.443l-.027.071c-.4.96-.672 1.969-.811 3-.196 2.09 1.039 3.971 2.131 5.634.191.29.383.58.561.86a184.118 184.118 0 006.891 10.252v.045c.112 3.273-.01 6.55-.366 9.806-.29 3.334-.708 6.686-1.114 9.838-.259 2.028-.58 4.083-.891 6.066l-.375 2.42-.151 1.017-.058.401c-.544 3.789-.914 6.882-1.159 9.73a94.844 94.844 0 00-.446 12.258 25.729 25.729 0 01-1.694-.401c-.512-.143-.98-.285-1.448-.446a18.168 18.168 0 01-2.951-1.324 37.877 37.877 0 00-1.212-5.54c-.355-1.276-.758-2.557-1.148-3.799l-.001-.001-.019-.06a139.505 139.505 0 01-1.185-3.927 39.514 39.514 0 01-1.083-4.792 30.135 30.135 0 01-.241-1.827v-.041c-.446-3.864-.325-7.764-.178-11.749.174-4.667.414-9.401.713-14.068.2-3.173.365-5.607.539-7.89a85.47 85.47 0 00.214-3.953c.027-1.02.125-2.064.223-3.067.031-.32.062-.641.089-.958a.46.46 0 00-.107-.36.471.471 0 00-.339-.166.552.552 0 00-.61.481c-.04.406-.081.816-.116 1.226l-.013.137c-.072.755-.145 1.532-.255 2.288l-.049.517c-.133.927-.271 1.885-.361 2.84-.214 2.26-.41 4.626-.588 7.033a470.411 470.411 0 00-.816 14.086l-.033.817-.001.02c-.044 1.074-.089 2.172-.117 3.263 0 .294-.009.587-.018.879-.008.25-.016.5-.018.748v2.082-.001c-.085-.276-.169-.552-.258-.833l-.013-.039-.01-.035-.017-.056-.011-.042-.014-.047-.029-.106c-.129-.41-.254-.82-.374-1.235a274.786 274.786 0 01-2.759-9.949l-.602-2.326a404.98 404.98 0 01-1.72-6.887 46.703 46.703 0 01-1.337-7.132 30.461 30.461 0 01-.09-1.596l.027-2.585c.19-3.14.676-6.255 1.453-9.303.544-2.228 1.19-4.501 1.814-6.686l.062-.217c.565-1.978 1.147-4.016 1.645-6.045.174-.687.339-1.39.491-2.1l.129-.049zm55.058 169.1c-.411.196-.856.393-1.364.598-.446.169-.892.334-1.337.499a33.811 33.811 0 01-4.061 1.016l-.98.178-1.413.241a19.66 19.66 0 01-2.759.29c-.152-.443-.299-.89-.446-1.333v-.002l-.218-.658a48.384 48.384 0 01-.361-1.136l-.002-.007c-.16-.506-.32-1.012-.471-1.522a133.696 133.696 0 01-2.674-10.502 132.954 132.954 0 01-1.814-10.876 327.17 327.17 0 01-.602-5.135l-.05-.445-.083-.733-.001-.014c-.182-1.615-.367-3.261-.592-4.883l-.001-.004c-.12-.868-.24-1.736-.374-2.595l-.02-.133-.021-.143a27.804 27.804 0 00-.092-.589c-.495-3.12-1.079-6.325-1.645-9.405-.553-2.999-1.123-6.097-1.609-9.16-.613-3.69-1.04-7.409-1.279-11.143-.129-2.188-.138-4.416-.147-6.573v-.015c0-1.52 0-3.098-.058-4.645-.161-5.192-.932-12.703-5.794-17.958a15.834 15.834 0 00-1.663-1.561.543.543 0 00-.848.239.47.47 0 00.144.515c4.011 3.566 6.173 9.16 6.592 17.121.111 2.13.107 4.305.103 6.409v.002c0 1.586 0 3.226.04 4.839.12 3.686.457 7.363 1.007 11.01.548 3.735 1.252 7.506 1.939 11.143l.113.607c.531 2.846 1.078 5.777 1.536 8.674l.009.053.007.041.015.092.009.059.019.118.031.206.044.286.093.607c.385 2.593.682 5.238.968 7.786l.026.237c.116 1.043.233 2.083.352 3.12.446 3.847.999 7.386 1.676 10.818a139.216 139.216 0 003.592 14.152c-1.56.346-3.165.44-4.755.277h-.08a14.69 14.69 0 01-.892-.134 40.06 40.06 0 01-1.431-.276 18.554 18.554 0 00-3.565-.491c-.41 0-.789 0-1.15.027-.17.013-.327.021-.479.03-.171.009-.336.018-.511.032-.704.058-1.421.139-2.112.219l-1.489.16c-.664.067-1.257.103-1.814.116l-.066-.386c-.058-.34-.115-.676-.166-1.018l-.156-1.203v-.045c-.12-1.23-.191-2.55-.218-4.279v-3.232l.001-.877v-.003c.003-1.54.006-3.112-.072-4.665-.294-6.096-1.896-12.046-3.311-17.301l-.01-.038a223.999 223.999 0 01-.856-3.28l-.209-.821a194.976 194.976 0 01-5.219-31.348c-.379-4.77-.58-9.579-.593-14.3.127.043.263.085.397.126h.002l.001.001.097.029.108.033.05.016c.853.254 1.719.462 2.594.624.406.081.816.147 1.226.21h.031a.202.202 0 00.043-.005l.009-.002.012-.004c.009-.002.018-.006.026-.009a.224.224 0 00.074-.055.227.227 0 00.059-.17 30.054 30.054 0 01-.089-1.146c0-.151-.014-.312-.026-.462l-.014-.18a87.884 87.884 0 01.035-9.806c.21-3.463.566-7.212 1.115-11.754.382.144.772.267 1.167.37 1.165.3 2.363.45 3.566.446a23.088 23.088 0 003.739-.335c2.071-.338 4.151-.844 6.161-1.333l.017-.004 1.916-.446c.531-.126 1.064-.247 1.598-.369l.005-.001.719-.165c1.868-.419 3.802-.855 5.679-1.386a18.025 18.025 0 002.514-.914c.681 1.712 1.453 3.629 2.371 5.434a.656.656 0 00.156.192l-.268.312a19.777 19.777 0 01-2.38 2.268l-.081.066-.107.083-.186.141c-.718.54-1.453 1.101-1.721 2.028a.723.723 0 00.152.656.65.65 0 00.486.236h.093a17.856 17.856 0 004.012-.892l.245-.084c1.43.958 2.322 1.988 2.719 3.142.245.751.368 1.537.365 2.327v.784a6.07 6.07 0 00.103 1.863.659.659 0 00.592.446h.049a.558.558 0 00.531-.33c.142-.334.238-.687.285-1.047l.049-.031a77.531 77.531 0 011.266 13.488v1.096c0 .892-.031 1.806-.076 2.782-.183 3.977-.493 8.014-.794 11.927v.005l-.022.281-.124 1.639-.001.015c-.093 1.22-.185 2.434-.271 3.655a133.425 133.425 0 00-.259 17.477c0 .288.026.577.051.872.012.134.024.27.034.407 0 .218.024.438.047.654l.024.238c.183 2.206.446 4.337.807 6.334a67.382 67.382 0 002.304 8.977 447.171 447.171 0 002.625 7.816l.001.003.155.454.593 1.738c.29.843.571 1.69.852 2.537.628 1.907 1.279 3.873 2.023 5.794a23.555 23.555 0 01-3.508 2.675c-.777.473-1.581.901-2.406 1.283zm-57.942-11.027c-.268-3.233-.3-6.48-.098-9.717.088-1.801.21-3.628.328-5.401l.034-.519c.206-3.125.418-6.346.418-9.525v-.798c0-1.097-.027-2.077-.071-3a81.751 81.751 0 00-2.871-17.959 87.474 87.474 0 00-2.861-8.607 63.033 63.033 0 00-3.797-8.193 32.962 32.962 0 00-1.168-1.948.537.537 0 00-.731-.196.563.563 0 00-.236.749l.185.387c.192.4.384.799.572 1.2 1.03 2.144 2.091 4.355 3.013 6.588a82.136 82.136 0 016.062 25.996c.107 1.564.16 3.195.165 4.992v.789c0 3.087-.184 6.232-.364 9.303l-.001.024-.081 1.397c-.049.776-.098 1.551-.143 2.327a92.664 92.664 0 00-.164 9.704 49.8 49.8 0 001.363 9.36c.103.428.215.856.323 1.268.107.409.21.802.297 1.166a4.102 4.102 0 00-.323.698l-.063.176-.042.12v.001c-.259.717-.482 1.336-1.132 1.733a5.633 5.633 0 01-2.416.668 214.94 214.94 0 01-4.417.37l-2.451.192-.802.085-.026.003c-1.333.146-3.007.331-4.053-.449l-.031-.022a49.27 49.27 0 00.406-1.841 32.21 32.21 0 00.677-8.786 64.816 64.816 0 00-1.337-8.469l-.053-.267a216.157 216.157 0 01-3.076-19.443 219.932 219.932 0 01-1.199-16.047 240.76 240.76 0 01-.16-10.024c.022-3.722.049-6.825.183-10.021a.447.447 0 00-.446-.494.483.483 0 00-.196.023.481.481 0 00-.172.097.5.5 0 00-.171.348c-.219 3.013-.424 5.959-.491 8.914a200.719 200.719 0 000 8.915c.116 5.795.495 11.781 1.128 17.776 0 .141.02.28.039.417.009.057.017.115.023.172l.007.055.007.064.015.14a224.112 224.112 0 002.458 16.737c.17.891.353 1.814.535 2.719l.031.152c.383 1.923.778 3.911 1.039 5.869.336 2.425.366 4.883.089 7.315a7.028 7.028 0 00-7.813-2.817c-1.239.446-2.558 1.484-2.545 3.16 0 1.093.562 1.976 1.105 2.83l.032.05c.3.441.564.906.788 1.39.767 1.783-.891 2.822-1.666 3.174-1.532.719-3.334.926-5.079 1.126l-.02.002-.678.076a61.589 61.589 0 01-6.868.445 63.948 63.948 0 01-9.231-.677 29.918 29.918 0 01-.41-3.388c-.176-2.638-.135-5.324-.095-7.917v-.003l.002-.103c0-.475.008-.949.017-1.423.005-.282.011-.564.014-.846.027-3.566.058-7.132.094-10.698.035-3.566.068-7.131.098-10.697v-1.387c0-1.582.022-3.169.049-4.751v-.687c.026-1.154.062-2.228.111-3.311.112-3.299.516-6.58 1.208-9.807a48.16 48.16 0 013.347-9.231l.254-.553c1.244-2.696 2.532-5.491 3.289-8.424.914-3.535.99-6.628.223-9.191a11.894 11.894 0 00-.847-2.037.52.52 0 00-.695-.219.506.506 0 00-.285.647c2.433 6.048 0 12.271-2.737 18.123-1.292 2.786-2.759 5.951-3.637 9.298a52.061 52.061 0 00-1.488 9.851 113.62 113.62 0 00-.201 4.819l-.001.006v.013a.074.074 0 00.001.021v.686a206.012 206.012 0 00-.044 3.33v1.261c-.036 3.593-.078 7.186-.125 10.778-.036 3.323-.073 6.646-.112 9.972v.891c0 .604-.012 1.207-.024 1.801l-.016.842c-.049 2.572-.098 5.238 0 7.85.047 1.414.179 2.823.397 4.221-.958-.156-1.939-.326-2.982-.522a34.655 34.655 0 00-6.445-.744 16.38 16.38 0 00-5.923 1.284l-.361.138c-1.257.495-2.973 1.168-4.172.53-1.591-.842-.931-3.191-.495-4.747l.125-.446c.771-2.906 1.783-5.794 2.786-8.58l.159-.449c.476-1.348.965-2.73 1.414-4.102 1.382-4.199 2.674-8.567 3.985-13.372a357.381 357.381 0 002.531-9.949.077.077 0 000-.045l.17-.708c1.368-5.692 2.638-11.474 3.721-16.439l.397-1.783c.891-4.012 1.783-8.126 2.532-12.218.784-4.261 1.292-8.625 1.782-12.846l.121-1.03a79.564 79.564 0 012.674-13.72 126.867 126.867 0 014.698-12.663c.671-1.59 1.355-3.178 2.05-4.765l1.23 1.083c2.431 2.164 4.852 4.331 7.265 6.504.793.708 1.578 1.426 2.367 2.148.891.825 1.783 1.649 2.714 2.465l.103.092c.255.228.513.459.788.679.04.034.091.053.143.054h.058a.213.213 0 00.094-.052.21.21 0 00.058-.091c.151-.415.312-.82.476-1.204.263-.637.553-1.283.892-1.97.388-.802.829-1.653 1.386-2.674l.16-.285c.316.152.655.251 1.003.294.077 0 .151.009.225.018l.051.006.072.007c.024.002.047.004.071.004.479.026.958.001 1.431-.075.862-.158 1.7-.423 2.496-.789a4.456 4.456 0 01-2.839 1.827.482.482 0 00-.321.25.622.622 0 00-.063.254.795.795 0 000 .138c.156 1.186 2.174.914 3.144.783l.226-.03a14.38 14.38 0 003.325-.833c-.508.677-1.444 1.128-2.139 1.448-.641.285-1.306.509-1.988.669a11.9 11.9 0 00-2.042.53c-.378.165-.254.772.112.865a4.905 4.905 0 002.514-.245 11.98 11.98 0 002.393-.994c1.261-.682 2.532-1.698 2.603-3.249a.526.526 0 00-.4-.515.524.524 0 00-.233-.002.62.62 0 00-.183.053c-.289.134-.579.263-.891.379-.766.299-1.556.531-2.362.691-.55.11-1.107.183-1.667.218h-.192a5.571 5.571 0 002.541-3.169.519.519 0 00-.012-.292.514.514 0 00-.728-.279 15.452 15.452 0 01-3.254 1.257 5.946 5.946 0 01-1.511.13 7.825 7.825 0 01-.851-.08l-.143-.032.085-.147a.23.23 0 00-.031-.258l-.749-.812-.33-.356-.031-.036a294.644 294.644 0 01-3.28-3.691l-2.314-2.634-4.176-4.711-1.885-2.144c.478-.788.951-1.58 1.417-2.376l.798-1.337c.125-.21.263-.424.406-.633a5.89 5.89 0 001.042-2.193c.161-.982-.135-1.947-.423-2.882l-.022-.074a24.474 24.474 0 01-.156-.485 68.642 68.642 0 00-2.278-6.383 104.63 104.63 0 00-1.101-2.55l-.145-.32-.002-.004a97.349 97.349 0 00-.325-.715.229.229 0 00-.201-.129.23.23 0 00-.205.134 39.05 39.05 0 00-.419.958c-.552 1.265-1.078 2.56-1.587 3.811l-.001.004-.012.027-.04.09c-.584 1.439-1.199 2.968-1.72 4.493-.446 1.274-.892 2.968-.633 4.702a8.33 8.33 0 001.903 3.825 59.96 59.96 0 002.019 2.367l.233.26.166.189.132.149.093.106 7.238 8.291.892 1.016.343.393.001.001.005.006.002.003.004.003c.807.925 1.634 1.872 2.435 2.817.236.276.468.561.704.846l.383.446a70.693 70.693 0 00-1.533 2.88c-.25.499-.481 1.003-.7 1.497l-1.39-1.23-3.481-3.071-4.796-4.243c-.52-.467-1.044-.932-1.573-1.396l-2.229-1.992a.683.683 0 00-.067-.419.728.728 0 00-.481-.379.55.55 0 00-.321.022c-.816-.735-1.542-1.404-2.229-2.037-1.711-1.613-3.873-3.802-5.437-6.409a14.768 14.768 0 01-2.278-7.863c.059-1.474.208-2.944.446-4.4v-.116c.214-1.533.446-3.089.722-4.63a127.96 127.96 0 011.872-8.978c.704-2.84 1.511-5.902 2.558-8.87a18.764 18.764 0 012.051-4.2 33.512 33.512 0 012.999-3.73 915.5 915.5 0 014.266-4.698 35.066 35.066 0 015.91-.811 33.152 33.152 0 015.183.116l.531.053c2.5.294 5.009.838 7.434 1.364l.021.005c3.519.765 7.153 1.555 10.854 1.595a49.716 49.716 0 006.137-.374l.611-.071.927-.112a282.51 282.51 0 01-1.756 6.374c-.62 2.166-1.257 4.404-1.823 6.628-.936 3.669-1.997 8.518-1.894 13.506-.397.923-.771 1.859-1.056 2.572a107.537 107.537 0 00-2.278 6.312c-.776 2.38-1.391 4.488-1.876 6.445a8.457 8.457 0 00-.312 3.218 5.888 5.888 0 001.337 2.813c.766.994 1.6 1.957 2.455 2.933l.419.49c.223.263.446.526.687.785l-.334.561a335.087 335.087 0 01-2.92 4.837 52.74 52.74 0 01-.646 1.012l-.611.949a.218.218 0 000 .227c.076.134.152.272.219.41l.08.165a.445.445 0 00-.446.125 4.088 4.088 0 01-.481.477 4.244 4.244 0 01-.7.383c-.547.253-1.106.478-1.676.673-.552.192-1.116.349-1.689.468-.603.089-1.199.223-1.783.402a.411.411 0 00-.279.408.41.41 0 00.31.385 3.97 3.97 0 001.021.036 7.907 7.907 0 001.123-.192 13.74 13.74 0 003.717-1.382 4.29 4.29 0 00.5-.321c.221-.156.404-.36.534-.597.029-.062.053-.126.072-.192a.71.71 0 00.022-.138l.067.138c.429.954.775 1.942 1.034 2.956.317 1.264.507 2.557.566 3.86v.619a.215.215 0 00.165.21c.202.054.41.081.619.08a.995.995 0 00.638-.165 5.331 5.331 0 01.339-.392c.141-.152.275-.311.401-.477.151-.201.289-.406.423-.611l.236-.347c.446-.674.856-1.226 1.23-1.73a88.515 88.515 0 012.831-3.566l.98-1.199a338.39 338.39 0 002.05-2.509l.121-.152c.548 1.81 1.11 3.566 1.671 5.246l.227.673a42.228 42.228 0 001.173 5.991c.401 1.48.864 2.964 1.315 4.4l.129.414.007.022c.134.427.269.856.398 1.284a48.07 48.07 0 011.676 6.709v.035l.023.161c.053.37.098.74.138 1.11.001.015.005.03.009.044l.011.028.011.02a.23.23 0 00.067.072c.212.141.428.27.648.402l.074.044.521.294c.601.323 1.22.61 1.854.861a172.452 172.452 0 002.296 30.863c.842 5.059 1.974 10.252 3.36 15.48.072.277.147.553.223.825l.118.426.1.366.165.607.183.66.073.262c1.502 5.374 3.054 10.928 3.493 16.542.2 2.354.187 4.756.174 7.079v2.772c0 1.338.04 3.12.223 4.903a.637.637 0 000 .107l-.308.098c-2.712.862-5.507 1.751-8.388 1.832a11.67 11.67 0 01-5.224-.994 28.762 28.762 0 01-1.096-.526c-1.4-.69-2.853-1.399-4.488-1.372-.8.009-1.584.227-2.274.633a46.62 46.62 0 01-1.519-8.019h.004zM130.308 55.417c-.743.185-1.474.422-2.206.659h-.002c-.555.18-1.11.36-1.67.517a21.573 21.573 0 01-3.94.754 7.891 7.891 0 01-3.78-.406 5.473 5.473 0 01-2.206-1.783c-1.23-1.64-1.72-3.713-2.068-5.697-.348-1.983-.575-4.011-.749-6.044a100.65 100.65 0 01-.089-1.14 26.05 26.05 0 01-.044-.535l-.012-.16-.011-.135c-.093-1.24-.16-2.478-.214-3.717a.302.302 0 00.165-.09l.009-.007.006-.006.012-.012a.329.329 0 00.022-.024h.023l.124-.075.121-.072h.031l.116-.053.125-.067h.066a2.93 2.93 0 01.317-.09h.41l.316.081c.047.011.093.026.139.04.045.015.091.03.138.04h.044a.47.47 0 00.642-.646l-.085-.107a1.15 1.15 0 00-.387-.415 1.427 1.427 0 00-.477-.222 2.137 2.137 0 00-1.061 0 1.911 1.911 0 00-.838.503l-.023.03-.006.009-.007.01v-.049c0-.264-.01-.526-.02-.787-.009-.228-.018-.455-.02-.684a17.686 17.686 0 004.582-2.728 24.005 24.005 0 002.933-2.652 9.19 9.19 0 002.674 2.336c1.202.65 2.522 1.05 3.882 1.177-.282.65-.497 1.329-.642 2.023-.167.854-.26 1.72-.276 2.59 0 1.422.272 3.12 1.747 3.727.968.403 1.721-.05 2.492-.515.472-.285.95-.573 1.488-.671.767-.143 1.783.027 2.26.718a1.907 1.907 0 01.053 1.733 2.782 2.782 0 01-1.198 1.373 5.23 5.23 0 01-.789.388c-.289.116-.588.214-.884.311-.4.132-.797.262-1.162.433-.321.139-.152.66.178.651a7.059 7.059 0 001.663-.267c-.046.285-.081.557-.107.762v.001l-.001.005v.008l-.035.258c-.05.468.022.94.209 1.373.336.815.949 1.41 1.565 2.008h.001c.128.125.257.25.382.377a3.631 3.631 0 011.213 2.825 6.427 6.427 0 01-1.061 3.023c-.502.82-1.111 1.564-1.721 2.308h-.001c-.798.975-1.598 1.951-2.156 3.098a7.664 7.664 0 00-.744 3.522 33.96 33.96 0 00-3.566 0v-.665a15.196 15.196 0 00-.481-3.498 9.906 9.906 0 00-.624-1.659 4.176 4.176 0 00-.584-.891 25.19 25.19 0 001.653-.357 12.978 12.978 0 004.529-1.89.47.47 0 10-.388-.86l.005.005zm41.405 12.342l.615 2.13.071.242c.288.989.576 1.975.852 2.968a199.994 199.994 0 012.5 9.855c.749 3.375 1.338 6.825 1.837 10.056.232 1.458.405 3.058.557 5.032l.134 1.935-.682-.967a235.724 235.724 0 01-3.98-5.938 143.109 143.109 0 01-1.948-3.12l-.031-.053-.017-.027c-.57-.937-1.156-1.9-1.196-2.977.024-.95.223-1.887.589-2.764l.147-.419a8.476 8.476 0 00.535-3.508.687.687 0 00-.482-.61c-.252-.062-.501-.131-.75-.2h-.002l-.228-.064a25.48 25.48 0 00-1.386-.365 13.158 13.158 0 00-.687-.143 10.456 10.456 0 01-1.515-.379c-.29-.107-.335-.205-.245-.543a6.7 6.7 0 01.227-.705c.04-.102.076-.21.111-.312l.852-2.478a746.127 746.127 0 001.613-4.783c.178-.535.343-1.07.504-1.609l2.005-.254zm25.535-.446c.481.143.976.281 1.52.42l.392.494c.374.446.758.94 1.101 1.43.265.325.447.71.53 1.12a2.682 2.682 0 01-.294 1.123l-.071.178c-.201.49-.397.98-.589 1.476l-.28.697-.001.003-.001.001a91.382 91.382 0 01-1.42 3.408c-.113.256-.242.511-.37.761-.095.187-.188.37-.272.55-.078.167-.171.351-.267.543-.145.29-.3.597-.428.892l-.139.317a57.246 57.246 0 00-1.02 2.438c-.031.082-.042.172-.031.26a.552.552 0 00.093.243.669.669 0 00.517.295 8.954 8.954 0 001.694-.098c-.494 4.898-1.896 9.703-3.25 14.343l-.004.014a51.8 51.8 0 00-.445 1.578c-2.412-7.903-3.513-14.928-3.357-21.436.11-4.16.771-8.286 1.966-12.271 1.466.32 2.901.758 4.421 1.221h.005zm16.397 2.118c.513.82 1.012 1.64 1.511 2.469a233.101 233.101 0 013.967 6.895 353.89 353.89 0 013.566 6.65v.023l.98 1.944c.941 1.878 1.761 3.609 2.554 5.282l.031.066a34.82 34.82 0 012.545 7.186 23.75 23.75 0 01.241 7.635c-.651 5.425-2.674 10.658-4.542 15.155a120.873 120.873 0 01-1.542 3.566.089.089 0 010 .023 61.215 61.215 0 01-.891 1.925l-.076.165a206.115 206.115 0 01-4.332 8.763l-.129-.284c-.095-.211-.189-.42-.281-.629a24.473 24.473 0 00-1.69-3.348c-.891-1.373-2.148-2.278-3.597-3.182a.7.7 0 00.116-.348c.032-.513.094-1.034.156-1.542.045-.37.089-.745.125-1.119.067-.762.152-1.663.272-2.559a38.81 38.81 0 011.047-5.108c.446-1.56.99-3.12 1.529-4.613l.015-.042c.602-1.681 1.224-3.419 1.674-5.187.892-3.521.923-6.65.063-9.311-.963-2.991-3.205-4.988-5.612-6.931-2.531-2.05-5.397-4.373-5.268-7.903a.512.512 0 00-.132-.385.516.516 0 00-.367-.173.585.585 0 00-.624.53c-.276 3.12 1.943 5.862 3.855 7.614.589.54 1.217 1.06 1.828 1.56l.013.011c1.663 1.37 3.381 2.785 4.372 4.758 1.195 2.381 1.373 5.385.526 8.915a50.047 50.047 0 01-1.876 5.741l-.086.234c-.46 1.242-.933 2.522-1.327 3.809a39.385 39.385 0 00-1.275 5.688 31.447 31.447 0 00-.316 2.933c-.035.865-.015 1.731.058 2.594v.138a.483.483 0 00-.526.165c-.076.089-.156.165-.236.245a3.21 3.21 0 00-.344.384c-.075.103-.148.209-.221.314l-.061.089-.029.042-.156.232c-.326.473-.656.945-.994 1.409-.272.379-.615.847-.994 1.337-.562-1.694-1.262-3.365-1.948-4.983l-.183-.446-.445-.999-3.526-8.602c-1.654-4.034-3.361-8.202-4.872-12.365-.381-1.004-.697-1.949-1.007-2.874l-.156-.465c.248-.898.505-1.792.762-2.684l.001-.005.001-.003.001-.003.167-.581c.82-2.848 1.667-5.795 2.295-8.75a43.34 43.34 0 001.007-7.488.67.67 0 00-.548-.664.605.605 0 00-.294.026 5.712 5.712 0 01-1.279.335 39.365 39.365 0 001.453-3.624 35.206 35.206 0 011.511-3.566l.508-1.088.272-.602c.25-.544.499-1.087.735-1.64a3.68 3.68 0 00.352-2.09 4.073 4.073 0 00-.949-1.752l-.116-.147c1.714.344 3.446.591 5.188.74 2.309.227 4.765.379 7.546.495h.004zm-93.682 46.7a8.86 8.86 0 01-.285-.326l-.335-.379a12.778 12.778 0 01-2.206-3.04c-.53-1.159-.575-2.554-.138-4.27a37.73 37.73 0 011.337-3.94l.174-.468c.41-1.092.891-2.367 1.457-3.669a94.913 94.913 0 012.327 6.687c.067.218.138.445.209.655.275.79.492 1.599.651 2.42.151.946-.355 1.8-.844 2.626l-.047.08-.072.111-1.043 1.672c-.407.606-.802 1.22-1.185 1.841zm30.793 19.033a19.186 19.186 0 00-.445-2.149 19.822 19.822 0 00-1.337-3.601l.004-.008.002-.003.199-.334.07-.119.041-.071.106-.18c.146-.247.29-.489.433-.712l.862-1.43.008-.014.003-.003c.641-1.064 1.327-2.2 2.087-3.483l.267-.445c.174-.29.343-.58.504-.861.94-1.622 1.93-3.392 3.017-5.389.803 3.121 1.516 5.75 2.229 8.233.076.263.156.531.236.794l-.089.107h-.001c-.24.303-.481.606-.726.891-1.016 1.226-2.032 2.461-3.044 3.691l-.044.053-.328.403-.003.003c-.796.978-1.634 2.008-2.424 3.044l-.061.082-.001.001c-.375.501-.853 1.14-1.275 1.807l-.053.076-.125.196c-.055-.204-.082-.383-.108-.554l-.004-.025zm2.461-15.891l-.62 1.034-.374-.446c-.731-.86-1.471-1.707-2.229-2.558l-.156-.174a6.08 6.08 0 01-1.448-2.197c-.294-1.008-.072-2.082.182-3.098a100.682 100.682 0 013.9-12.107l.156-.387a73.21 73.21 0 001.912 9.102l.18.704c.12.469.239.939.355 1.408.321 1.302.648 2.605.981 3.91a388.695 388.695 0 01-2.684 4.548v.001l-.155.26zm68.937 12.664a78.523 78.523 0 001.399 9.939c.343 1.654.74 3.29 1.177 4.855.035.13.079.266.124.404l.054.166c.23.537.337 1.119.312 1.703a2.87 2.87 0 01-.891 1.399l-.214.214a41.936 41.936 0 01-6.583 5.889 35.614 35.614 0 01-3.446 2.228c-.038-1.025-.095-2.08-.169-3.164a53.781 53.781 0 00-1.39-9.673.628.628 0 00-.214-.339l.401-.325.062-.054c.71-.57 1.383-1.185 2.015-1.84a9.91 9.91 0 002.317-3.517.658.658 0 00.923-.254 134.167 134.167 0 004.118-8.024l.005.393zm-13.871 6.534a3.788 3.788 0 001.725-1.195.778.778 0 000-.829.75.75 0 00-.713-.401 3.821 3.821 0 00-1.538.575l-.276.147c-.57.311-1.156.592-1.756.843-.361.147-.731.285-1.145.423.157-.12.299-.238.428-.345l.084-.069a19.082 19.082 0 002.318-2.327 30.742 30.742 0 001.943-2.519c.249-.355.492-.724.734-1.092l.002-.003.182-.277.165-.254a6.37 6.37 0 00.281-.446l.015-.022.01-.018a.196.196 0 01.013-.025l.012-.026.012-.021.016.016a.333.333 0 00.028.025.301.301 0 00.028.022c1.337.891 2.674 1.845 3.507 3.245.311.566.586 1.151.825 1.752l.001.002c.093.222.186.444.284.662l.048.107.081.182.001.003c.066.148.134.303.2.448.178.392.352.789.521 1.19a.682.682 0 00-.08.107c-.089.178-.178.356-.263.535a14.593 14.593 0 01-.891 1.64c-.447.667-.958 1.29-1.524 1.859a20.733 20.733 0 01-1.863 1.667c-.143.12-.29.231-.446.347a8.485 8.485 0 00-.548-2.87 5.718 5.718 0 00-2.603-2.996l.182-.062zm-16.91-72.379a31.78 31.78 0 00-.922 3.347 46.318 46.318 0 00-.994 6.914 57.13 57.13 0 00.82 13.885 87.433 87.433 0 003.187 12.293c.112.34.228.68.345 1.019.106.311.212.62.314.929 1.583 4.524 3.419 9.031 5.318 13.635l3.316 8.05c.16.388.316.776.472 1.168-.538.269-1.095.498-1.667.686-1.743.567-3.565.972-5.348 1.364a88.13 88.13 0 01-.496.11c-.534.119-1.068.237-1.599.363l-2.202.526c-1.783.446-3.606.891-5.42 1.248-2.166.446-4.72.865-7.251.446a11.746 11.746 0 01-2.376-.624c.268-2.162.553-4.32.838-6.472.923-6.981 1.698-13.283 1.828-19.716 0-.329 0-.664.026-.994v-.356l.002-.039v-.002c.026-.636.052-1.265.061-1.903v-1.72a87.474 87.474 0 00-.393-5.113 104.956 104.956 0 00-1.515-9.975c-1.284-6.299-3.008-12.4-4.546-17.576l.281-.04 5.348-.722c.802-.106 1.605-.226 2.407-.346l.013-.002a66.332 66.332 0 017.132-.789 16.921 16.921 0 013.119.192c-.042.047-.068.126-.094.203l-.004.011zm48.408 72.673v59.266a836.67 836.67 0 00-5.087.312l-2.12.133-.115.008-.006.001c-2.099.139-4.193.279-6.279.401-4.355.263-8.807.509-13.607.745-.33-5.848.075-11.75.49-16.827l.151-1.818c.446-5.149.856-10.475.968-15.731a140.56 140.56 0 000-4.903 45.93 45.93 0 0010.251-7.876c.566-.575 1.074-1.096 1.546-1.658a3.185 3.185 0 00.932-2.073 6.662 6.662 0 00-.406-1.907 34.285 34.285 0 01-.169-.562 75.365 75.365 0 01-.669-2.492 75.799 75.799 0 01-1.823-10.073 75.42 75.42 0 01-.378-5.055 166.858 166.858 0 001.622-3.749l.036-.076.01-.025c2.052-4.895 4.172-9.955 5.137-15.25.514-2.597.64-5.256.375-7.89a27.458 27.458 0 00-2.095-7.577c-.998-2.394-2.117-4.671-3.369-7.181a182.973 182.973 0 00-2.318-4.51v-.023c-.35-.7-.725-1.38-1.101-2.06l-.002-.003-.002-.004-.304-.55a212.178 212.178 0 00-6.057-10.305l6.24.2h.058l.892.032h.044l2.804.102 3.164.147c3.722.183 7.577.366 11.357.281-.179 22.902-.174 46.081-.17 68.55zM189.626 22.762a3.08 3.08 0 011.93.138c.237.105.463.25.69.398.516.333 1.035.669 1.686.52.806-.187 1.274-1.034 1.56-1.743.31-.846.461-1.742.445-2.643 0-1.824-.165-3.661-.329-5.486l-.09-1.013a34.66 34.66 0 0010.149.959l.231-.008c1.061-.033 2.132-.066 3.192-.157 0 .21.027.445.049.633.049.506.105 1.004.161 1.51l.017.152.593 5.238c.134 1.156.276 2.312.418 3.468v.002l.001.006.083.677c.19 1.534.385 3.115.532 4.641.219 2.18.37 4.69-.548 6.869-1.083 2.558-3.503 3.566-5.348 3.958a20.22 20.22 0 01-4.582.303h-.865c-.267 0-.535-.007-.803-.013-.27-.007-.54-.014-.81-.014h-.259a4.525 4.525 0 00-2.291.375.504.504 0 00-.272.499.598.598 0 00.388.504 5.018 5.018 0 001.819.17h.521c.504 0 1.012 0 1.515.021-.539 3.691-.387 6.686.491 9.12a.637.637 0 00.624.42.692.692 0 00.138 0 .536.536 0 00.446-.594 53.63 53.63 0 00-.179-1.92 75.605 75.605 0 002.496 1.898l.152.112c.775.57 1.523 1.121 2.255 1.711a97.29 97.29 0 015.545 4.783 37.325 37.325 0 014.831 5.309 24.392 24.392 0 012.398 4.239l-4.123-.188-.419-.022c-.249 0-.499 0-.749-.031l-.784-.036-2.229-.107a58.228 58.228 0 01-9.315-1.047 28.83 28.83 0 01-1.898-.477 33.133 33.133 0 01-1.011-.299h-.001l-.553-.165h-.022l-.196-.062c-1.337-.424-2.75-.86-4.159-1.159h-.058l-.722-.143h-.062c-3.089-.517-6.2-.093-8.941.281l-5.424.687-5.5.744-.976.138-1.551.223-3.691.54a37.642 37.642 0 013.12-4.997 38.307 38.307 0 0110.666-9.655 36.99 36.99 0 013.61-1.93 29.719 29.719 0 011.832-.78c.169-.069.339-.13.508-.187.412-.136.81-.309 1.19-.517v.748a27.601 27.601 0 00.036 3.098.549.549 0 00.472.513c0 .132.044.26.125.365a9.66 9.66 0 007.073 3.624h.557c2.296 0 5.269-.793 6.838-3.089a.446.446 0 00-.054-.575.494.494 0 00-.611-.102c-2.126 1.248-4.238 2.362-6.712 2.264a9.467 9.467 0 01-6.289-2.906.545.545 0 00-.272-.147c.598-1.739.575-3.758.468-5.514a23.824 23.824 0 00-.321-2.755 19.73 19.73 0 00-.307-1.453l-.027-.107a2.542 2.542 0 00-.481-1.127c.185-.1.362-.213.53-.34 1.462-1.105 2.189-2.963 2.523-4.71.44-2.44.287-4.948-.446-7.315a.488.488 0 00-.347-.348 3.297 3.297 0 01-2.746-3.022c-.036-1.475 1.083-2.621 2.469-2.955zm-10.05 289.578a199.25 199.25 0 01-4.903 8.024 193.596 193.596 0 01-5.175 7.675 69.266 69.266 0 01-5.272 6.669c-3.758 4.105-8.567 7.8-14.241 8.553-4.751.624-10.273-1.386-12.216-6.088-1.159-2.8-.767-5.973-.406-8.893.107-.85.226-1.701.357-2.554 3.588-5.041 7.456-9.882 11.316-14.709l.643-.805c2.586-3.23 5.172-6.462 7.678-9.755a152.35 152.35 0 006.98 3.606 122.992 122.992 0 0011.477 4.952 96.741 96.741 0 004.733 1.6 113.11 113.11 0 01-.971 1.725zm41.16-17.263a13.663 13.663 0 012.015 5.166 7.131 7.131 0 01-1.15 4.983c-1.952 2.929-5.496 4.685-8.776 5.666-3.632 1.092-7.461 1.408-11.232 1.426a68.574 68.574 0 01-18.559-2.621 52.14 52.14 0 01-1.684-.486c-.87-.252-1.737-.527-2.6-.8h-.002l-.001-.001h-.002l-.001-.001h-.001l-.282-.089c-7.024-2.345-13.732-5.483-20.297-8.915 2.073-2.75 4.083-5.541 5.981-8.411 5.318-8.023 9.431-16.764 13.305-25.563 1.782-4.096 3.271-8.558 1.885-13.002a15.685 15.685 0 00-6.855-8.505 15.501 15.501 0 00-11.143-2.028 17.77 17.77 0 00-1.551.37c-.445.12-.846.258-1.261.405-3.401 1.213-6.494 3.272-9.391 5.38-7.278 5.296-13.705 11.63-20.003 18.026l-1.948 1.982c-5.635 5.74-11.251 11.461-17.494 16.53-3.534 2.879-7.274 5.705-11.405 7.675-4.132 1.97-8.705 2.724-13.055.945-4.011-1.636-7.425-4.787-10.38-7.876a40.246 40.246 0 01-1.016-1.109c.985.445 2 .864 3.04 1.22a11.57 11.57 0 003.814.678 10.174 10.174 0 001.52-.116 16.788 16.788 0 003.74-1.221c.468-.196.936-.388 1.408-.566a29.622 29.622 0 0110.18-1.828h.134c3.476 0 7.073.669 11.303 2.091a.685.685 0 00.735-.211.684.684 0 00.129-.235.67.67 0 00-.316-.891 26.955 26.955 0 00-10.251-2.412 31.324 31.324 0 00-10.528 1.226c-.997.296-1.97.68-2.91 1.051l-.103.041-.095.038-.002.001-.003.001c-.628.25-1.272.507-1.923.735a8.284 8.284 0 01-2.559.544 9.612 9.612 0 01-2.553-.401 27.1 27.1 0 01-3.66-1.422c-.445-.205-.927-.41-1.395-.606a53.675 53.675 0 00-1.863-.74l-.392-.147-.276-.388v-.383c0-10.104-.018-20.217-.054-30.342l-.04-19.233v-28.541c7.032.131 14.175.181 21.094.229h.011l3.797.025a722.37 722.37 0 01-.838 3.423 300.884 300.884 0 01-3.722 13.658c-1.055 3.531-2.263 7.074-3.433 10.505l-.08.233-.89 2.674c-.62 1.828-1.404 4.239-1.975 6.686-.446 1.899-.655 3.834.793 5.104 1.337 1.177 3.24.784 4.551.392a28.159 28.159 0 001.827-.624 15.604 15.604 0 013.704-1.016c3.009-.317 6.066.307 9.026.914.802.165 1.609.325 2.406.472.406.076.816.143 1.222.205l.615.089h.062c2.712.353 5.444.53 8.179.531 1.97 0 3.932-.092 5.888-.277l.361-.035a32.432 32.432 0 006.052-.963c1.935-.566 3.196-1.453 3.757-2.634.745-1.578.001-3.063-.891-4.431-.891-1.368-1.546-2.777-.209-3.682 1.337-.905 3.12-.686 4.341-.187 1.435.588 3.071 1.903 2.955 3.673a5.873 5.873 0 01-.21 1.083 4.123 4.123 0 00-.182 1.805c.029.186.081.367.156.54a2.77 2.77 0 001.1 1.266h.027c1.366.845 3.069.709 4.573.589l.009-.001 1.554-.12c1.987-.153 3.978-.307 5.97-.477 1.662-.139 3.529-.41 4.59-1.877.26-.392.461-.82.597-1.27l.023-.081c.122-.443.308-.867.552-1.257.062-.091.134-.175.214-.249a2.736 2.736 0 011.725-.709c1.476-.12 2.83.571 4.141 1.239.481.245.98.499 1.48.709 3.957 1.672 7.893.99 11.227.103l.967-.268c.62-.183 1.306-.392 2.122-.646.049.339.107.668.173.998.067.33.165.691.259.999a.22.22 0 00.2.156h.99c.299 0 .593 0 .891-.023.837-.037 1.717-.13 2.559-.219l.165-.017.833-.085a27.88 27.88 0 00-1.132 2.229c-.642 1.453-1.493 3.633-1.453 5.768.027 1.043.446 1.814 1.154 2.18.293.148.617.224.945.223a3.127 3.127 0 001.81-.66 12.438 12.438 0 001.841-1.872l.32-.375a64.709 64.709 0 002.131-2.558l.365-.446a31.504 31.504 0 002.724-3.798c.762.118 1.532.178 2.304.179a17.589 17.589 0 003.356-.339v.001c.183.561.366 1.123.553 1.675.073.226.151.455.229.683l.092.271a.231.231 0 00.196.151c.261.018.524.027.789.027h.379c.468-.011.935-.046 1.399-.107.78-.094 1.484-.192 2.139-.299a36.027 36.027 0 00-.606 3.196c-.2 1.338-.334 2.483-.396 3.566-.063 1.083.138 1.846.624 2.336a1.653 1.653 0 001.199.535h.102c1.422-.089 2.87-1.975 3.49-2.782a19.157 19.157 0 002.866-5.527c.399-1.18.726-2.382.98-3.601a26.2 26.2 0 006.686-4.257c.165-.143.325-.29.486-.446l.178-.169a.214.214 0 00.058-.214l-.048-.18-.024-.086c-.077-.29-.155-.58-.24-.866-.522-1.783-1.132-3.602-1.725-5.349a1190.948 1190.948 0 01-1.847-5.558l-.007-.023-1.707-5.17a91.609 91.609 0 01-2.608-8.995 55.74 55.74 0 01-1.176-7.676 1025.07 1025.07 0 0016.589-.918l.78-.047h.007c3.207-.191 6.499-.386 9.745-.555v48.109c0 5.68-.034 11.452-.068 17.07l-.008 1.392c-.021 3.611-.039 7.22-.053 10.827-2.804 0-5.714.067-8.914.196a115.8 115.8 0 00-15.052 1.484 75.78 75.78 0 00-8.076 1.783c-.891.259-1.814.535-2.714.829h-.027a72.92 72.92 0 00-3.499 1.249l-1.073.419c-4.199 1.639-8.541 3.333-13.145 2.852a46.261 46.261 0 01-5.094-.891c-1.168-.259-2.38-.526-3.566-.722a72.38 72.38 0 00-8.914-.856.833.833 0 00-.793.406 1.057 1.057 0 000 1.038.891.891 0 00.802.446 56.76 56.76 0 017.929.668c1.409.21 2.83.504 4.208.789 1.163.246 2.366.495 3.565.696 1.201.201 2.415.304 3.633.307a19.719 19.719 0 003.944-.396 42.24 42.24 0 007.087-2.274c2.371-.931 4.51-1.756 6.721-2.442l.12-.036.134-.04a35.961 35.961 0 017.247 4.93 33.475 33.475 0 016.574 7.778z" fill="#000"/><path d="M157.548 254.593c-.323.765-.647 1.531-.912 2.321a32.29 32.29 0 00-1.105 4.33c-.343 1.816-.443 3.89.297 5.63a3.929 3.929 0 001.571 1.884 4.678 4.678 0 003.434.34c2.371-.544 4.554-1.848 6.44-3.339.684-.546 1.339-1.134 1.997-1.724h.001l.003-.003c.246-.22.492-.441.739-.66a16.267 16.267 0 012.996-2.35.484.484 0 01.718.355.473.473 0 01-.06.301 13.392 13.392 0 01-2.973 3.538 34.222 34.222 0 01-3.526 2.849c-2.188 1.517-4.887 2.935-7.627 2.935a5.563 5.563 0 01-3.302-1.053 5.483 5.483 0 01-2.019-2.797c-.749-2.152-.534-4.552-.046-6.731a30.778 30.778 0 011.288-4.198 17.286 17.286 0 011.969-4.004c.301-.426 1.114-.186.913.389-.24.672-.518 1.329-.796 1.987zm-5.512 34.167c.113.429.752.228.691-.171-.837-5.603-5.482-10.073-11.382-11.574a.528.528 0 00-.513.158.516.516 0 00-.076.13l-.005.015-.003.01a.406.406 0 00.048.337.458.458 0 00.125.131c.05.035.108.061.17.077 5.36 1.461 9.652 5.966 10.945 10.887zm-6.056 2.52c-2.937-2.464-5.87-4.924-8.99-7.154-.601-.423-.05-1.455.583-1.022 4.305 3.02 8.566 6.317 12.077 10.295a.377.377 0 01-.023.492.35.35 0 01-.479.028 402.369 402.369 0 01-3.168-2.639z" fill="#000"/></svg>