<svg width="700" height="600" fill="none" xmlns="http://www.w3.org/2000/svg"><path d="M489.112 198.029c-3.193-1.231-6.324-2.711-9.376-4.139l-1.657-.818a.763.763 0 00-.977.302.747.747 0 00.222.992c2.849 1.94 5.99 3.332 9.506 4.823 3.277 1.386 6.611 2.628 9.841 3.834 6.105 2.271 12.413 4.626 18.185 7.917 6.058 3.456 10.522 7.306 13.653 11.777 3.579 5.117 5.501 11.228 7.355 17.138l.704 2.22a995.831 995.831 0 013.787 12.165c.302 1.007.599 2.021.89 3.042a68.21 68.21 0 003.126 9.232.786.786 0 00.714.486.953.953 0 00.762-.428.942.942 0 00.144-.643 60.224 60.224 0 00-2.412-9.34c-.213-.683-.427-1.366-.635-2.07-1.042-3.451-2.183-7.037-3.428-10.949l-.469-1.475c-.943-2.97-1.922-6.044-2.974-9.034a52.44 52.44 0 00-4.397-9.744c-6.704-11.047-18.987-16.719-31.255-21.215l-3.511-1.268a172.508 172.508 0 01-7.798-2.805zm23.957 63.702c-.59-1.833-1.181-3.664-1.773-5.493l-.397-1.22c-.18-.547-.35-1.104-.53-1.666a39.475 39.475 0 00-1.704-4.805v-.035l-.037-.081a.801.801 0 00-.426-.375.847.847 0 00-.579-.01.88.88 0 00-.494.368.817.817 0 00-.115.589c.177.908.416 1.805.714 2.683.08.253.154.507.233.76l1.059 3.371.185.608c.646 2.082 1.293 4.162 1.942 6.237v.086c.625 2 1.276 4.05 2.07 6.05a33.518 33.518 0 003.069 5.787c.08.126.193.231.327.304a.937.937 0 00.441.111c.177-.002.351-.049.503-.137a.849.849 0 00.416-.529.82.82 0 00-.104-.655 33.53 33.53 0 01-2.71-5.843c-.746-1.934-1.36-3.827-2.09-6.105zm-250.623-4.69a.958.958 0 00-.657.037.846.846 0 00-.446.444 154.426 154.426 0 00-7.925 25.515 183.697 183.697 0 00-3.978 26.188c-.177 2.354-.298 4.81-.37 7.508v.4c-.061 2.339-.121 4.764 0 7.143.01.195.102.379.256.514.154.135.359.21.572.21a.822.822 0 00.548-.2.692.692 0 00.241-.494c.094-1.26.143-2.531.193-3.781.033-.917.072-1.833.121-2.749.127-2.172.304-4.374.492-6.627.353-4.283.855-8.682 1.501-13.092a199.694 199.694 0 015.518-25.747c1.247-4.405 2.704-9.077 4.448-14.292a.734.734 0 00-.045-.582.841.841 0 00-.469-.395zm-.43 26.97a.577.577 0 00-.451.099.645.645 0 00-.255.408 12.068 12.068 0 00-.292 3.38c.107 1.1.342 2.182.701 3.221.724 2.143 2.024 4.013 3.739 5.379 2.247 1.709 4.961 2.586 7.724 2.496a22.434 22.434 0 007.14-1.301c2.402-.828 4.774-1.82 7.113-2.783l2.122-.873a.712.712 0 00.38-.381.783.783 0 00.023-.554.686.686 0 00-.326-.4.618.618 0 00-.496-.039l-6.477 2.157-1.061.355a28.712 28.712 0 01-7.352 1.622 11.674 11.674 0 01-6.477-1.284c-1.642-.943-2.994-2.369-3.894-4.106a11.565 11.565 0 01-1.326-6.624.721.721 0 00-.122-.5.648.648 0 00-.413-.272zm187.972-144.998a.903.903 0 00-.129-.632.808.808 0 00-.506-.359.715.715 0 00-.567.095.798.798 0 00-.338.492 33.793 33.793 0 01-2.175 6.175 31.854 31.854 0 01-1.525 2.819 17.99 17.99 0 01-.793 1.212c-.325.48-.661.976-.961 1.493a6.264 6.264 0 00-.948 2.646 6.37 6.37 0 00.293 2.813 5.055 5.055 0 001.452 2.152 4.656 4.656 0 002.278 1.081h.087a.611.611 0 00.365-.126.672.672 0 00.229-.327.616.616 0 00-.014-.415.574.574 0 00-.27-.301 5.006 5.006 0 01-1.524-1.42 5.347 5.347 0 01-.85-1.954c-.351-1.659.59-3.071 1.494-4.429a27.774 27.774 0 004.402-11.015z" fill="#000"/><path d="M426.585 132.753a11.414 11.414 0 006.307 2.482 15.8 15.8 0 004.04-.165l-.647 7.209a2.307 2.307 0 00-.203 2.342c-.596 6.926-1.193 14.17-1.799 21.883-.305 3.986-.728 9.444 2.002 13.645 2.125 3.265 5.977 5.401 10.582 5.87.637.066 1.276.099 1.916.098.377 0 .759 0 1.141-.041 1.422 3.64 1.529 7.682 1.631 11.59.081 3.244.168 6.601.988 9.783a.745.745 0 00.729.551h.152a.692.692 0 00.45-.269.705.705 0 00.136-.509c-.3-2.492-.351-5.056-.402-7.533-.036-1.833-.072-3.727-.209-5.586a26.118 26.118 0 00-1.727-8.172c3.429-.468 7.132-1.755 11.356-3.949a.749.749 0 00.367-.422.761.761 0 00-.026-.561.757.757 0 00-.377-.419.745.745 0 00-.56-.04c-.937.304-1.87.634-2.812.963-2.981 1.03-6.063 2.122-9.202 2.431l-.789.061c-.433 0-.831.031-1.218.026-4.244-.062-8.009-1.74-10.067-4.495-2.548-3.398-2.441-8.037-2.12-12.502.184-2.509.376-5.013.576-7.512.219-2.791.448-5.664.647-8.511.173-2.482.352-5.036.51-7.724.076-.078.159-.149.249-.211a10.574 10.574 0 012.125-1.158 4.323 4.323 0 012.42-.412c.313.057.609.186.866.376l.092.077a.838.838 0 00.03.628 1.124 1.124 0 001.05.608c.214-.009.42-.086.588-.22.168-.134.29-.319.349-.527.474-1.344-.902-2.435-1.946-2.837a5.223 5.223 0 00-3.724.149c-.661.222-1.303.495-1.921.819.122-1.857.248-3.802.377-5.834a47.164 47.164 0 007.78-2.945l1.059-.468 1.763-.799a14.742 14.742 0 005.722 2.745c4.763 1.158 9.894.741 14.428.18a25.827 25.827 0 00-2.649 12.986c.08 1.66.359 3.304.83 4.896.566 1.839 1.442 3.09 2.593 3.661 1.305.675 2.487.309 3.628-.041.426-.139.86-.253 1.299-.34 1.483-.262 2.777.783 3.358 1.864.896 1.674.188 3.568-.693 4.686a5.229 5.229 0 01-2.099 1.601l-.469.191c-.963.44-1.967.785-2.996 1.029a.66.66 0 00-.188.062c-2.609.592-4.815 3.038-5.38 5.963-.637 3.3 1.019 6.776 4.223 8.84.245.16.484.304.734.438a.57.57 0 000 .165 67.363 67.363 0 001.156 9.809 53.744 53.744 0 002.548 9.675.79.79 0 001.422.125.786.786 0 00.086-.573 151.494 151.494 0 00-1.05-4.835 129.896 129.896 0 01-1.019-4.758c-.56-2.863-1.019-5.746-1.528-8.903 1.171.411 2.403.62 3.643.618 5.37 0 10.841-3.676 14.224-8.387a24.12 24.12 0 004.209-10.334c.292-1.852.364-3.733.214-5.602a35.184 35.184 0 00-1.203-5.911l-.035-.124c-.597-2.24-1.086-4.433-.571-6.596a18.553 18.553 0 012.145-4.747c.183-.324.367-.649.545-.973a29.117 29.117 0 003.724-12.136c.143-2.343-.035-6.694-2.863-9.459-3.439-3.372-8.233-1.751-10.536-.649a27.314 27.314 0 00-.387-2.198 25.682 25.682 0 00-1.529-4.84c-1.625-3.774-3.627-6.179-6.307-7.497a20.283 20.283 0 00-17.215-.458 15.016 15.016 0 00-4.876 3.326 11.822 11.822 0 00-7.912-3.774c-2.904-.248-6.002.514-9.477 2.26a44.852 44.852 0 00-4.417 2.621l-.423.278c-1.136.736-2.313 1.503-3.057 2.693a5.479 5.479 0 00-.758 2.11 5.522 5.522 0 00.147 2.241 16.595 16.595 0 00-4.132 3.496c-2.858 3.424-3.902 7.816-2.782 11.755a10.215 10.215 0 003.144 5.051z" fill="#000"/><path d="M449.071 201.03a.733.733 0 00-.793.26.78.78 0 00-.134.267 28.146 28.146 0 00-1.102 9.482c.118 2.582.436 5.242 1.978 7.196a4.478 4.478 0 002.87 1.718c.203.031.409.047.615.047a6.639 6.639 0 003.443-1.148 48.92 48.92 0 006.974-5.542 59.03 59.03 0 006.923-7.56.746.746 0 00-.087-1.006.65.65 0 00-.928.048 98.476 98.476 0 01-11.908 10.836l-.262.2c-1.675 1.285-3.971 3.045-5.754 1.538-1.44-1.222-1.809-3.487-1.993-5.758a34.105 34.105 0 01.722-9.629.815.815 0 00-.094-.592.776.776 0 00-.47-.357zm106.405 85.175a38.846 38.846 0 00-5.11-5.514c-.52-.52-1.04-1.004-1.56-1.513a2391.596 2391.596 0 01-4.232-4.158c-.343-.338-.686-.686-1.04-1.039-.816-.827-1.658-1.679-2.563-2.438a.738.738 0 00-.348-.655c-1.721-1.039-3.837-.982-5.859-.743a24.13 24.13 0 00-5.942 1.237c-3.12 1.221-5.506 4.038-6.759 7.926-1.04 3.285-1.253 6.819-1.451 10.234-.052.868-.098 1.736-.166 2.599-.041.571-.088 1.143-.135 1.715-.125 1.517-.255 3.087-.291 4.641a14.946 14.946 0 00.754 5.52c.379 1.039.842 2.027 1.601 2.598.271.215.605.334.951.338.114-.001.228-.015.338-.041a1.78 1.78 0 001.134-1.04c.363-.833.682-1.685.956-2.552.104-.317.203-.629.312-.935l.109-.307c.073.962.167 1.892.281 2.802.099.966.273 1.924.52 2.863a5.895 5.895 0 001.222 2.5 2.42 2.42 0 001.715.764c.185.002.369-.022.546-.072.905-.25 1.258-1.071 1.56-1.726l.083-.192a29.75 29.75 0 001.56-4.377v.136l.265 2.079c.041.332.078.675.114 1.039.182 1.746.39 3.721 1.513 5.197a1.93 1.93 0 001.56.905c.088.005.177.005.265 0 1.253-.203 2.204-1.741 2.537-2.724.375-1.214.619-2.465.728-3.731.057-.52.114-1.04.156-1.632.187.758.385 1.512.603 2.245l.026.099c.301 1.039.676 2.344 1.788 2.973.291.167.621.257.957.259.19-.001.38-.031.561-.088a2.54 2.54 0 001.461-1.32c.64-1.289.749-2.869.848-4.257l-.442-.036.442.031c.208-2.874-.167-5.769-.52-8.571l-.141-1.112-.436-3.378-.291-2.219-.078-.666a21.796 21.796 0 008.224 2.079h.52c.972 0 2.418-.202 2.641-1.798.229-1.414-.65-2.781-1.487-3.945zm-16.044 16.923a98.593 98.593 0 00-.348 2.438c-.177 1.278-.353 2.598-.603 3.898a5.472 5.472 0 01-.764 2.198c-.27.374-.489.52-.52.52-.031 0-.27-.213-.614-1.076a16.183 16.183 0 01-.811-4.184 36.85 36.85 0 00-.161-1.424c-.218-1.606-.442-3.207-.665-4.813l-.255-1.809c-.421-3.024-.785-5.337-1.18-7.499a.632.632 0 00-.703-.492.635.635 0 00-.55.658c.26 3.347.655 6.725 1.071 10.052a.704.704 0 00-.52.467l-.52 1.518a65.743 65.743 0 01-1.747 4.678 2.91 2.91 0 00-.109.281c-.088.233-.249.67-.411.727-.285.099-.592-.369-.681-.52a8.511 8.511 0 01-.899-2.884c-.357-2.2-.579-4.42-.665-6.648a81.557 81.557 0 01-.104-3.279v-1.274c.027-.767.013-1.536-.042-2.302a.784.784 0 00-.242-.487.788.788 0 00-.501-.21.685.685 0 00-.713.583 29.134 29.134 0 00-.171 5.717v.473a175.63 175.63 0 00-2.283 5.249c-.104.234-.197.473-.296.712l-.171.421-.047-.073a7.654 7.654 0 01-.936-2.188c-.681-2.598-.411-5.462-.151-8.227.057-.66.12-1.315.167-1.96.062-.816.114-1.642.161-2.469a50.374 50.374 0 011.039-8.799c.869-3.544 2.673-6.237 5.075-7.541 1.559-.868 3.446-1.154 5.245-1.435l.411-.062a13.132 13.132 0 015.199.057c.72.881 1.496 1.714 2.324 2.495.208.208.421.41.624.618l3.374 3.373 1.96 1.944c1.476 1.466 3.005 2.978 4.455 4.506a16.131 16.131 0 012.496 3.275c.281.437.459.933.52 1.45a.384.384 0 01-.063.249c-.151.141-.624.125-.936.115h-.119a19.693 19.693 0 01-7.325-1.674 17.759 17.759 0 01-1.602-.805c-.265-.146-.52-.297-.795-.458-.421-.254-.822-.52-1.201-.79-.608-.436-1.191-.941-1.752-1.424a55.776 55.776 0 00-1.56-1.299.674.674 0 00-.858.057.716.716 0 00-.145.899 11.095 11.095 0 003.02 3.015c.635.467 1.294.899 1.976 1.294.094.842.198 1.678.302 2.515.103.837.223 1.757.317 2.63.078.702.156 1.409.239 2.11.249 2.111.52 4.288.587 6.435a24.827 24.827 0 01-.13 4.08 14.51 14.51 0 01-.369 1.97c-.078.301-.244.93-.52.987-.358.073-.754-.65-1.133-2.162l-.078-.301a63.441 63.441 0 01-1.009-4.065 63.036 63.036 0 01-.816-4.73 47.365 47.365 0 01-.156-1.403 25.462 25.462 0 00-.52-3.409.619.619 0 00-.65-.473.681.681 0 00-.634.592 18.909 18.909 0 00.218 4.943v.109c.167 1.263.38 2.542.624 3.81a.662.662 0 00-.65.53z" fill="#000"/><path d="M539.074 327.836c-1.731-1.273-3.452.922-4.381 2.102-.13.171-.248.321-.352.445-.785.937-1.55 1.91-2.268 2.889-.238.321-.455.652-.672.978.212-1.118.434-2.241.641-3.365l.114-.574a26.76 26.76 0 00.656-5.612c-.047-1.874-.413-3.033-1.09-3.453a1.287 1.287 0 00-1.276 0 6.044 6.044 0 00-1.881 1.828l-.176.227a11.906 11.906 0 00-1.188 1.942c-.392-1.222-.93-1.952-1.643-2.211-1.229-.44-2.195.632-2.645 1.688-.449 1.056-.78 2.071-1.121 3.059-.129.389-.258.772-.393 1.155a132.624 132.624 0 00-1.467 4.441c-.599 1.926-1.033 3.51-1.374 4.991-.057.264-.124.517-.191.807-.181.735-.367 1.527-.486 2.319-.046-.072-.088-.155-.134-.228a37.338 37.338 0 00-3.028-4.451c-.558-.715-2.066-2.589-3.849-2.123-1.953.518-1.601 3.106-1.452 4.183.279 2.07 1.085 3.981 1.86 5.834a32.266 32.266 0 011.447 3.929c.239.946.412 1.908.517 2.878.101.881.249 1.755.444 2.62.248 1.035.594 2.07.93 3.054.253.745.517 1.522.733 2.288a18.55 18.55 0 01.44 6.321v.186a24.351 24.351 0 000 5.316 17.966 17.966 0 01-2.268-1.035 21.826 21.826 0 01-2.294-1.553l-.181-.135a154.649 154.649 0 00-4.237-8.179c-1.033-1.884-2.185-3.763-3.28-5.575-1.55-2.552-3.141-5.177-4.511-7.884a41.25 41.25 0 01-2.583-6.419c.424-.921.858-1.843 1.297-2.754.067-.145.16-.321.274-.518 5.786-10.953 5.373-30.516-1.219-58.149-2.144-8.966-12.085-20.246-27.491-17.259-1.467.29-2.521-1.33-3.849-3.38-2.128-3.282-5.042-7.765-11.883-7.496-3.657.15-6.835 1.993-7.858 3.23-1.777-1.635-6.768-4.726-12.513-2.743-3.409 1.175-6.675 3.577-9.981 7.335-4.975 5.648-8.184 15.043-4.133 23.295a16.058 16.058 0 007.016 7.247 42.637 42.637 0 01-2.764 7.403c-1.385 2.899-3.023 5.725-4.614 8.469a.935.935 0 00.036.932.835.835 0 00.765.393 1.39 1.39 0 011.137.352c.94.89.893 3.215.867 4.462v.213c0 .926-.056 1.879-.098 2.8-.072 1.506-.144 3.07-.088 4.612.026.642.083 1.284.161 1.916a35.11 35.11 0 01-1.943 1.17c-3.358 1.858-6.344 2.588-9.119 2.257-3.451-.42-6.158-2.501-7.816-4.173-2.356-2.371-4.035-5.337-5.503-8.189-1.71-3.323-3.285-6.642-4.737-9.732-3.42-7.31-6.541-14.588-8.876-20.111l-1.736-4.137a3046.97 3046.97 0 01-3.017-7.283c-.388-.937-.765-1.879-1.147-2.816-.76-1.879-1.55-3.81-2.356-5.694.176 0 .357.031.517.031a11.012 11.012 0 003.017-.575l.129-.041c.444-.125.894-.259 1.333-.404a54.982 54.982 0 003.647-1.289l1.122-.461a57.507 57.507 0 008.545-4.467l.78-.518a.45.45 0 00.253-.078l.517-.357a.413.413 0 00.144-.181 58.36 58.36 0 002.62-1.905l.589-.456a15.77 15.77 0 003.012-2.728c3.502 10.354 7.656 21.002 12.363 31.733l.925 2.097a.441.441 0 00.397.264h.078a.444.444 0 00.362-.404l.124-1.817c.248-3.784.48-6.926.738-9.882.605-7.056 1.38-14.531 2.372-22.855.744-6.326 1.72-13.651 3.802-20.551a46.812 46.812 0 019.205-17.488 46.67 46.67 0 0115.594-12.112.728.728 0 00.379-.419.733.733 0 00-.033-.565.82.82 0 00-1.069-.414c-11.103 4.788-20.402 15.028-24.913 27.364-2.516 6.91-3.663 14.085-4.531 20.815a622.615 622.615 0 00-2.5 22.777 397.43 397.43 0 00-.78 9.318 437.424 437.424 0 01-1.602-3.727 432.658 432.658 0 01-7.057-17.787l-.367-.978c-.878-2.371-1.793-4.82-2.661-7.248a3.503 3.503 0 00-1.338-3.416c-1.896-1.507-4.195-.994-5.988-.373a.741.741 0 00-.475.87.68.68 0 00.734.517l.459-.041c1.359-.13 2.899-.28 3.958.44a1.67 1.67 0 01.78 1.159 2.275 2.275 0 01-.682 1.735 21.268 21.268 0 01-2.971 2.588l-.294.269c-.625.476-1.199.891-1.767 1.284a39.421 39.421 0 01-2.17-11.57 35.61 35.61 0 012.201-13.459 33.476 33.476 0 011.55-3.556c.263-.518.558-1.036.837-1.528.377-.662.77-1.345 1.1-2.07a.69.69 0 00-.222-.86.645.645 0 00-.434-.119 83.96 83.96 0 001.746-3.344c.429-.88.92-1.874 1.333-2.899.321-.786.688-1.956.192-3.054a2.688 2.688 0 00-1.576-1.273c.589-1.781.248-3.986-1.597-4.716-2.149-.849-3.673.895-4.897 2.298-.264.311-.517.596-.76.839 0 .026-.031.057-.052.083a3.674 3.674 0 00-2.361 1.076 20.991 20.991 0 00-2.304 2.661l-.418.518c-1.034 1.341-1.963 2.588-2.795 3.867l-.238.362a33.597 33.597 0 00-1.162 1.848 71.997 71.997 0 00-.393-2.464 68.619 68.619 0 00-1.385-6.212 20.564 20.564 0 00-.899-2.723 5.754 5.754 0 00-1.441-2.298 1.839 1.839 0 00-1.55-.419c-.567.15-1.067.49-1.415.962a25.28 25.28 0 00-.812-1.879 20.375 20.375 0 00-1.42-2.541 3.43 3.43 0 00-1.819-1.553 2.136 2.136 0 00-2.33.88 2.965 2.965 0 00-.475 1.211 27.405 27.405 0 00-2.351-3.106c-.734-.834-2.015-1.636-3.239-1.553a2.227 2.227 0 00-1.757 1.035c-.563.839-.434 1.828-.238 2.687l.083.331c.091.34.16.686.207 1.036-.191-.14-.383-.28-.574-.404-1.606-1.077-2.945-1.336-4.092-.797a2.627 2.627 0 00-1.405 1.527 2.31 2.31 0 00.181 1.837c.225.398.486.774.78 1.124.14.181.284.362.413.517a30.21 30.21 0 011.246 1.916 29.688 29.688 0 012.247 4.586c.517 1.279.873 2.625 1.24 3.924.067.233.134.461.196.694a2.196 2.196 0 00-1.188.517c-1.157.963-1.514 2.641-1.101 5.131.329 1.642.808 3.25 1.432 4.803.186.518.366 1.036.516 1.512a106.68 106.68 0 013.71 12.771c.505 2.418.85 4.866 1.033 7.33 0 .342.036.683.052 1.035a8.401 8.401 0 00-4.397 1.403c-1.152.725-2.681 1.879-2.686 3.577v.202c0 .067-.052.15-.078.223l-.114.357c-.273.823-.516 1.651-.8 2.521-.471 1.553-.956 3.106-1.401 4.695a272.48 272.48 0 00-2.583 9.918c-1.55 6.616-2.867 13.299-3.859 19.853l-.078.518a99.91 99.91 0 00-1.239 10.788.855.855 0 000 .124 53.855 53.855 0 00-.372-1.31c-.088-.305-.181-.605-.274-.906l-7.75-26.297-3.684-12.512-.712-2.676c-1.855-6.3-3.772-12.812-5.684-19.216-1.911-6.403-3.988-12.481-8.488-17.083-.279-.295-.589-.59-.909-.885 1.183-2.77 2.299-5.979.925-9.147-.806-1.859-2.227-3.287-3.617-4.659-.444-.44-.899-.901-1.322-1.362a10.743 10.743 0 01-2.17-3.292 17.783 17.783 0 01-1.034-4.488 160.375 160.375 0 01-.47-4.716 58.198 58.198 0 002.733-.937c2.475-.916 4.051-2.392 4.82-4.514.827-2.288.77-4.897.719-7.201-.057-2.831-.362-5.694-.651-8.132l-.192-1.553a3.898 3.898 0 001.726-.911 4.82 4.82 0 001.622-3.722 11.876 11.876 0 00-1.095-4.416c-.248-.611-.992-2.474-2.63-2.624a2.059 2.059 0 00-.795.088 77.624 77.624 0 01-.135-3.246v-3.391c.6-.129 1.245-.29 1.974-.481a12.588 12.588 0 004.836-2.278 6.455 6.455 0 002.283-5.042 26.445 26.445 0 00-.671-6.026c1.203-2.661 1.162-5.73 1.033-7.822-.181-2.671-.667-6.087-2.811-8.8a13.562 13.562 0 00-6.84-4.364c-6.298-1.838-12.88.425-18.547 2.682a33.735 33.735 0 00-7.657 4.037c-2.175-2.536-5.564-4.099-9.361-4.296-4.211-.223-8.783 1.335-13.645 4.659a47.071 47.071 0 00-10.539 9.835c-3.544 4.509-5.828 8.801-6.98 13.149a21.152 21.152 0 00-.718 7.439c.3 2.447.938 4.841 1.896 7.113.212.517.429 1.071.646 1.604a48.31 48.31 0 011.89 5.177c.646 2.232.801 4.577.455 6.875-.63 4.037-2.65 8.106-6.163 12.424-.755.931-1.592 1.853-2.403 2.748-2.242 2.48-4.562 5.037-5.683 8.283a9.591 9.591 0 00.119 6.73c.191.481.403.957.604 1.418.32.674.601 1.365.843 2.071a8.395 8.395 0 01.351 3.292c-.186 2.21-1.101 4.338-1.984 6.403l-.258.591a31.05 31.05 0 00-2.253 6.926 20.742 20.742 0 002.124 13.635 18.163 18.163 0 009.242 7.889 19.061 19.061 0 006.99 1.341 17.636 17.636 0 004.95-.694 18.478 18.478 0 009.816-7.247 18.896 18.896 0 003.482-11.766c0-.518-.088-1.036-.15-1.553-.212-1.802-.429-3.665.791-5.032.971-1.087 2.356-1.776 3.689-2.443a28.223 28.223 0 001.513-.787 28.963 28.963 0 002.584-1.641.648.648 0 000 .176 14.037 14.037 0 002.862 5.363 13.786 13.786 0 004.928 3.981 7.958 7.958 0 003.266.698 9.353 9.353 0 007.532-4.141c1.235-1.739 1.927-3.825 2.242-6.761a.708.708 0 00-.614-.781.738.738 0 00-.868.554c-.548 2.417-2.01 6.729-5.627 8.458a6.08 6.08 0 01-4.856.218 12.184 12.184 0 01-4.345-3.106 19.526 19.526 0 01-3.286-4.996.622.622 0 00-.398-.321c2.651-2.07 4.232-4.307 4.79-6.781.894-3.945-1.168-7.47-3.178-10.467-.175-.269-.361-.518-.547-.813-1.741-2.542-3.71-5.425-3.1-8.5.336-1.719 1.322-3.246 2.273-4.721.253-.399.517-.792.749-1.186a14.737 14.737 0 002.284-6.719 14.022 14.022 0 00-.202-3.447 9.008 9.008 0 00-.64-2.009 5.979 5.979 0 001.705-1.708.905.905 0 00-.228-1.206.907.907 0 00-1.24.067 4.182 4.182 0 01-1.55 1.035 4.49 4.49 0 01-.764.223.514.514 0 00-.16.072 4.64 4.64 0 01-4.407-1.687c-1.953-2.521-.935-5.865 1.178-7.641a4.648 4.648 0 011.761-.932 3.617 3.617 0 012 0 .389.389 0 00.341-.052c.232-.17.516-.383.79-.605.224-.186.434-.387.631-.601.997-1.118 1.818-2.976.857-4.54-.837-1.351-2.345-1.48-3.678-1.594-.176 0-.357 0-.517-.047a1.956 1.956 0 01-1.462-.75c-.036-.062-.031-.093 0-.109.072-.248.708-.559 1.033-.704.129-.062.238-.114.326-.166 3.482-1.956 7.233-3.012 10.787-3.867 3.668-.885 7.176-1.879 9.78-4.332.451-.427.866-.891 1.24-1.388a26.377 26.377 0 0011.351 1.771c-.031.243-.052.491-.078.735-.026.243-.057.486-.083.73-.031.336-.062.673-.087 1.035 0 .243-.047.481-.062.725-.031.378-.057.761-.083 1.139 0 .207-.026.414-.041.626v.134a3.976 3.976 0 00-2.356-.616 4.495 4.495 0 00-2.449.896 4.05 4.05 0 00-.847.906 1.794 1.794 0 00-.414 1.434.872.872 0 00.491.574.837.837 0 00.713-.025c.247-.144.454-.347.605-.591.061-.088.129-.173.201-.253.194-.199.419-.365.667-.492a2.41 2.41 0 011.493-.326c.474.076.907.316 1.224.678.191.208.353.442.481.694 0 .046.046.098.067.145.02.046 0 .119 0 .181v.165a111.86 111.86 0 00.842 15.727c.077.683.165 1.367.248 2.071.542 4.384 1.105 8.924.764 13.371-.191 2.588-.95 4.214-2.376 5.094-.853.48-1.76.857-2.702 1.123l-.243.083-1.219.399-1.07.336c-.437.145-.881.285-1.333.419a55.205 55.205 0 01-7.749 1.838.482.482 0 00-.207 0c-.362.057-.728.098-1.095.14a.46.46 0 00-.186.072 29.3 29.3 0 01-7.45 0 .79.79 0 00-.884.606.722.722 0 00.517.859c1.919.592 3.918.885 5.926.87.517 0 1.033 0 1.55-.057 0 .264-.041.518-.057.787l-.124 1.791c-.134 1.921-.274 3.903-.367 5.865-.227 3.544-.138 7.1.269 10.628l.093.673v.031c.175 1.175.413 2.34.713 3.489a.766.766 0 00.759.569.92.92 0 00.166 0 .716.716 0 00.604-.807 63.727 63.727 0 01-.289-2.806c5.368.424 12.275 2.185 16.067 5.285.3.238.589.492.904.777l.259.243c4.541 4.317 6.592 10.317 8.302 16.094a6585.696 6585.696 0 017.466 25.438 7898.238 7898.238 0 005.011 17.125c.913 3.106 1.829 6.231 2.749 9.375l.811 2.759c.582 1.977 1.162 3.958 1.741 5.942.098.332.191.663.289.994.165.565.331 1.134.517 1.693.108.373.227.746.351 1.113.3.885.579 1.605.878 2.267a.856.856 0 00.791.518.94.94 0 00.258-.036 1.072 1.072 0 00.754-1.16 23.309 23.309 0 00-.578-2.676.747.747 0 00.604.435h.109a.815.815 0 00.816-.647c.418-2.112.739-4.286 1.033-6.383.176-1.201.352-2.397.548-3.593.47-2.888 1.033-5.948 1.787-9.923 1.173-6.114 2.62-12.46 4.423-19.418.455-1.76.945-3.623 1.452-5.461l.423-1.553.088.119c.212.269.465.554.749.849l.078.088.057.052a12.543 12.543 0 003.513 2.5 19.705 19.705 0 008.395 1.786h.191c.011.036.025.07.042.103.785 2.144 1.648 4.297 2.485 6.378l.919 2.314a793.856 793.856 0 003.674 9.09 541.227 541.227 0 01-3.617 11.487c-2.345 7.139-4.763 14.075-8.478 20.448-3.916 6.729-8.747 11.528-14.357 14.308-6.241 3.08-12.958 3.588-18.429 1.393-6.112-2.449-9.764-8.009-12.792-13.682l.93-3.355a145.596 145.596 0 001.483-5.44c1.131-4.312 2.449-10.007 2.64-15.794a35.224 35.224 0 00-2.78-15.013c-.48-1.138-1.033-2.298-1.55-3.416-1.736-3.712-3.533-7.542-3.663-11.632a.702.702 0 00-.06-.278.701.701 0 00-.163-.233.705.705 0 00-.521-.198.706.706 0 00-.707.725c.046 4.581 1.829 8.722 3.554 12.729l.336.776a44.363 44.363 0 012.469 6.885c.606 2.544.91 5.15.905 7.765.031 7.579-2.036 15.012-4.035 22.161-.235.818-.464 1.64-.688 2.465l-.32 1.159v.036a137.122 137.122 0 00-1.477 5.871 49.912 49.912 0 00-1.328 13.977 5.967 5.967 0 00-2.382 1.154 1.961 1.961 0 00-.444-.456 1.878 1.878 0 00-1.473-.269c-1.152.238-1.829 1.284-2.366 2.123-.077.114-.15.227-.222.341-.878 1.305-1.731 2.651-2.583 3.955-.672 1.036-1.349 2.117-2.041 3.168a82.255 82.255 0 01-2.717 3.924c-.347.471-.729.942-1.096 1.398l-.439.549-.139-.601a20.17 20.17 0 00-.708-2.588 3.32 3.32 0 00-1.633-1.993 2.663 2.663 0 00-2.862.518 4.138 4.138 0 00-1.286 2.873 24.01 24.01 0 00-.083 2.722v2.785c0 1.823 0 3.707-.047 5.555-.098 4.436-.402 9.66-1.89 14.717a33.994 33.994 0 01-4.996 10.146 21.655 21.655 0 01-1.865-2.422c-.682-1.036-1.623-2.48-1.147-3.624a1.25 1.25 0 01.93-.709.738.738 0 01.702.243.783.783 0 001.085.119.828.828 0 00.243-1.118c-.62-.978-1.839-1.273-3.033-.74a2.938 2.938 0 00-1.622 1.853c-1.39 2.009-2.738 4.095-4.035 6.114a421.967 421.967 0 01-2.392 3.68 528.567 528.567 0 01-6.613 9.758 605.151 605.151 0 01-13.071 18.118c-1.111-4.954-2.325-9.944-3.508-14.789-.517-2.236-1.09-4.473-1.627-6.73l-.698-2.888c-1.739-7.248-3.478-14.478-5.218-21.69l-.454-1.895c-3.1-12.942-6.577-27.586-17.794-36.309a30.984 30.984 0 00-8.354-4.695.797.797 0 00.2-.229.794.794 0 00.095-.289c.258-2.071.584-4.478 1.069-6.807.176-.813.362-1.6.563-2.35a28.964 28.964 0 012.279-5.979c.325-.632.697-1.264 1.1-1.885 1.55-2.345 3.617-4.27 5.657-6.134 2.041-1.864 4.263-3.919 5.854-6.393a14.697 14.697 0 002.211-8.409 14.69 14.69 0 00-2.924-8.187 69.403 69.403 0 00-1.245-1.579 54.804 54.804 0 01-1.219-1.553 8262.219 8262.219 0 004.05-15.137l.744-2.78c1.183-4.41 2.408-8.971 3.451-13.49a.879.879 0 00-.335-.934.89.89 0 00-.316-.148.868.868 0 00-.674.073.878.878 0 00-.421.533c-1.266 4.1-2.413 8.319-3.518 12.424l-.548 2.024a9420.612 9420.612 0 00-3.875 14.334l-.057.212c0 .093-.046.181-.072.269a8.098 8.098 0 01-.434-1.335c-.579-2.589.295-5.218 1.132-7.765.206-.632.413-1.253.594-1.864.248-.833.444-1.719-.104-2.588-.346-.48-.768-.9-1.25-1.243a8.812 8.812 0 01-.475-.383 46.239 46.239 0 01-3.71-3.551l-.356-.388a37.256 37.256 0 01-.625-.694 52.083 52.083 0 01-2.429-3.038c2.067-.911 3.87-2.63 5.219-4.074 1.921-2.071 4.499-5.239 4.649-9.075.02-1.793-.38-3.566-1.167-5.177a28.445 28.445 0 00-2.687-4.773 15.981 15.981 0 00-8.168-6.118c-8.132-2.666-16.233 1.082-20.34 3.556a38.278 38.278 0 00-12.916 13.04 37.827 37.827 0 00-5.006 13.294 5.676 5.676 0 00-1.633-.648 6.39 6.39 0 00-3.087.123 6.394 6.394 0 00-2.668 1.56.84.84 0 00-.197.937.876.876 0 00.806.574h.517c.439 0 .883 0 1.328.026a11.376 11.376 0 00-2.95 3.106.933.933 0 00.088 1.201 1.053 1.053 0 001.302.238 10.081 10.081 0 011.89-.864 21.363 21.363 0 00-7.186 13.309c-.517 4.291.517 8.283 2.924 10.995 1.349 1.553 3.152 2.444 4.738 3.246 1.586.802 3.373 1.708 4.205 3.344.946 1.848.579 4.069.083 6.378a64.178 64.178 0 00-1.271 7.418c-.222 2.236-.388 4.819.403 7.159a11.096 11.096 0 003.172 4.732 12.698 12.698 0 008.406 3.178 12.46 12.46 0 002.583-.274 15.498 15.498 0 009.666-6.901c4.5-7.009 3.787-16.736-1.916-26.023a29.815 29.815 0 00-.713-1.092 1.04 1.04 0 00-.228-.632.93.93 0 00-.661-.372.9.9 0 00-.765.31c-.114.126-.24.241-.377.342a4.025 4.025 0 01-3.379.74 4.243 4.243 0 01-3.244-2.811 6.222 6.222 0 01.584-5.042c.94-1.641 2.769-3.002 4.556-2.122a11.44 11.44 0 011.742 1.139c.966.719 1.968 1.465 3.306 1.661a3.19 3.19 0 002.526-.631 3.405 3.405 0 001.22-2.485c.129-1.977-.894-3.955-1.674-5.27-.63-1.035-1.359-2.039-2.067-3.002-.382-.518-.764-1.036-1.131-1.553-1.033-1.47-2.222-3.458-2.387-5.751a12.619 12.619 0 01.548-4.432c2.768.262 5.561.002 8.235-.766a40.684 40.684 0 009.707-3.872c.336.606.703 1.222 1.101 1.833l.351.61.057.088a45.766 45.766 0 002.816 3.686l.041.047a20.746 20.746 0 01-1.648 1.641c-.238.207-.517.419-.785.637-1.586-2.656-4.443-6.083-7.843-4.582-5.166 2.288-.48 9.981-.238 10.442a20.035 20.035 0 003.064 4.327c1.132 1.217 2.506 2.469 4.252 2.588a3.201 3.201 0 003.332-2.469c.429-1.584.078-3.323-.32-4.881a20.238 20.238 0 00-1.379-3.795l.051-.036c.377-.259.741-.537 1.09-.833a11.619 11.619 0 001.643-1.683 42.664 42.664 0 001.943 2.003c.517.487 1.033.979 1.638 1.512.149.129.33.264.516.404.411.245.764.577 1.034.973.149.337-.14 1.097-.331 1.594-.072.187-.14.358-.186.518l-.202.626a63.276 63.276 0 00-.594 1.885 17.617 17.617 0 00-.842 4.83 10.474 10.474 0 001.901 5.844c.316.518.651.968.998 1.418.149.207.299.404.454.601l.372.471a27.15 27.15 0 012.124 2.961 12.449 12.449 0 01.108 12.238c-1.509 2.681-3.828 4.798-6.076 6.853a40.529 40.529 0 00-4.877 4.996l-.398.518a27.483 27.483 0 00-1.234 1.894 31.244 31.244 0 00-4.133 17.042c0 .057.025.108.036.165-3.777-1.185-7.512-1.392-10.814-.517a.69.69 0 00-.485.823.642.642 0 00.718.517 24.015 24.015 0 019.248.482 26.633 26.633 0 018.524 4.089c4.976 3.546 9.057 8.889 12.126 15.872 2.816 6.403 4.474 13.361 6.076 20.091l.139.595c1.894 7.937 3.789 15.883 5.683 23.838.574 2.418 1.142 4.846 1.71 7.248 1.395 5.984 2.842 12.159 4.407 18.211l-.759 1.004a2858.427 2858.427 0 00-6.479 8.64.647.647 0 00.129.896.7.7 0 00.434.155.636.636 0 00.481-.223 242.655 242.655 0 007.295-9.023l.744-.973a396.014 396.014 0 006.504-8.738 503.918 503.918 0 0013.433-19.423l.816-1.237c1.726-2.588 3.487-5.29 5.12-8.029a11.914 11.914 0 001.55 2.858 23.925 23.925 0 002.159 2.676c.176.191.357.383.517.549l.031.031.114.119a41.765 41.765 0 007.041 5.591 96.301 96.301 0 004.216 2.588l.481.285c1.095.647 2.221 1.314 3.399 1.863.191.088.383.176.605.269h.046a10.72 10.72 0 001.55.518 205.672 205.672 0 01-14.698 26.013c-5.657 8.375-11.873 16.974-20.397 22.156-4.526 2.748-9.3 4.265-13.857 4.4-4.483.06-8.9-1.089-12.786-3.329-6.143-3.432-11.335-9.059-15.866-17.207a74.019 74.019 0 01-.843-1.553.14.14 0 000-.041c-.516-1.005-.986-1.905-1.394-2.759-2.609-5.4-4.929-11.042-7.171-16.504-.868-2.115-1.743-4.229-2.625-6.341-.098-.223-.191-.445-.289-.673a217.433 217.433 0 00-2.893-6.595c-.46-1.004-.91-2.014-1.359-3.023l-.377-.854a.795.795 0 00-1.457.621 780.77 780.77 0 003.1 7.594 64.258 64.258 0 00-1.034-.714 113.97 113.97 0 00-2.092-1.372c-.202-.13-.403-.249-.605-.368l-.516-.321-.197-.129a3.283 3.283 0 00-1.002-.492.66.66 0 00-.713.285.607.607 0 000 .709c.23.291.507.54.822.735l.124.088.459.342c.207.155.409.31.62.45.703.518 1.416.989 2.129 1.465 1.09.73 2.17 1.403 3.1 1.967.816 1.967 1.638 3.919 2.464 5.881.524 1.232 1.04 2.467 1.55 3.706 1.586 3.785 3.229 7.703 4.96 11.503 1.229 2.692 2.392 5.016 3.549 7.102 0 2.708.036 5.57.171 9.261.234 6.585.829 13.152 1.782 19.671l.124.844a90.961 90.961 0 001.886 10.121.646.646 0 00.635.476.557.557 0 00.129 0 .632.632 0 00.517-.689c-.196-1.879-.486-3.779-.759-5.621-.202-1.346-.414-2.744-.584-4.116-.393-3.106-.796-6.46-1.106-9.773a251.606 251.606 0 01-.976-17.047c3.616 5.793 7.615 10.162 12.218 13.325a29.001 29.001 0 0012.694 5.016c.962.12 1.93.181 2.899.181a28.55 28.55 0 0011.608-2.588c9.398-4.204 16.202-12.517 22.149-20.873a171.947 171.947 0 0016.315-27.953c.414-.896.822-1.817 1.22-2.744a3.226 3.226 0 001.87-.564c1.033-.761.615-2.004.46-2.47a19.479 19.479 0 00-1.158-2.743.712.712 0 00-.878-.357.806.806 0 00-.517.88c.104.699.252 1.39.445 2.07.036.119.077.238.119.358.071.185.13.375.175.569v.191l-.263.047a1.986 1.986 0 01-.253.031.712.712 0 00-.615 0 5.876 5.876 0 01-1.685-.424 46.716 46.716 0 012.201-7.139 25.934 25.934 0 013.446 4.017c.336.518.662 1.035.972 1.553a18.535 18.535 0 002.841 3.914 36.004 36.004 0 003.358 2.769c.563.425 1.121.849 1.669 1.289a69.913 69.913 0 019.01 8.728 70.088 70.088 0 013.203 4.038l-.599.3a23.036 23.036 0 01-5.166 1.931 7.335 7.335 0 01-1.659.155 4.136 4.136 0 01-.609-.052c-1.096-.16-1.762-.673-1.979-1.553-.558-2.158 1.664-3.955 3.389-5.114a.679.679 0 00-.24-1.224.647.647 0 00-.504.111c-1.86 1.139-3.973 2.433-4.381 4.897a3.907 3.907 0 001.39 3.732c2.692 2.635 7.563 7.812 10.271 11.208 2.882 3.623 6.024 7.247 9.33 10.871a212.59 212.59 0 0010.044 10.203 124.98 124.98 0 0010.394 9.075c4.201 3.183 7.92 5.124 11.713 6.103 1.841.471 3.735.706 5.636.699a31.889 31.889 0 008.757-1.346c4.795-1.382 9.424-3.448 13.707-5.472 4.169-1.967 8.411-4.193 12.962-6.812a207.345 207.345 0 005.363-3.184c-.021.974.01 1.949.093 2.92.294 3.499 1.245 6.921 2.165 10.223.186.663.366 1.331.547 1.993a61.02 61.02 0 011.659 24.051c-.284 2.159-.749 4.323-1.199 6.419l-.046.223a44.039 44.039 0 01-1.519 5.104c-.16.466-.316.937-.471 1.398a.669.669 0 00.398.838.711.711 0 00.269.052.64.64 0 00.589-.373 41.888 41.888 0 002.066-5.585c.6-1.939 1.1-3.907 1.499-5.897a56.978 56.978 0 00-.62-24.024c-.403-1.636-.884-3.272-1.349-4.856a70.983 70.983 0 01-1.891-7.392 29.869 29.869 0 01-.459-6.14 305.104 305.104 0 0010.715-6.957c1.033-.155 2.113-.321 3.141-.492 1.271-.207 2.583-.424 3.885-.611 1.106-.155 2.237-.284 3.332-.414 1.55-.181 3.198-.367 4.785-.637a.647.647 0 00.542-.724.675.675 0 00-.687-.642 61.553 61.553 0 00-7.533.714l-.656.093c-1.276.176-2.49.357-3.678.549 1.281-.88 2.5-1.734 3.699-2.588.656-.461 1.307-.948 1.937-1.419l.956-.714a.766.766 0 00-.016-1.234.698.698 0 00-.785-.003c-3.337 2.07-6.69 4.286-9.935 6.403-3.368 2.205-6.851 4.483-10.333 6.652l-.387.249-.393.243c-1.033.642-2.066 1.273-3.1 1.905-9.728 5.824-17.875 9.898-25.646 12.807-3.854 1.449-8.958 3.049-14.207 2.588-3.844-.326-7.75-1.848-11.95-4.659-3.529-2.36-6.613-5.099-10.281-8.438-3.426-3.106-6.804-6.419-10.049-9.783a293.326 293.326 0 00-2.583-2.661c-4.805-4.954-7.45-7.677-12.255-14.086-.382-.518-2.159-2.21-4.045-4.017l-1.55-1.506h.806a14.285 14.285 0 003.849-.958 39.377 39.377 0 004.278-1.905c.325-.171.646-.347.966-.518l.062-.036.687-.393a46.353 46.353 0 0010.374-8.475c.315-.336.62-.672.92-1.035.227-.248.439-.518.656-.75a61.684 61.684 0 004.603-6.104l.16-.238a13.612 13.612 0 001.633-2.961c.491.627 1.007 1.232 1.514 1.827l.8.953 6.768 8.158c1.616 1.95 3.235 3.9 4.857 5.85 4.727 5.694 9.744 11.808 14.466 18.165l.315.429c-1.684 1.999-3.022 3.717-4.19 5.389a.689.689 0 00.129.942.756.756 0 00.486.176.69.69 0 00.516-.212c1.648-1.698 3.183-3.473 4.598-5.14l.977-1.155c.689-.824 1.378-1.646 2.066-2.464a417.126 417.126 0 017.678-8.722 501.57 501.57 0 0115.835-16.685 507.214 507.214 0 0116.579-15.944c4.587-4.213 10.11-9.059 16.258-13.009a54.848 54.848 0 0110.013-5.14 45.027 45.027 0 0111.066-2.542.755.755 0 00.672-.807.69.69 0 00-.708-.658c-5.921.088-12.435 2.133-19.353 6.083-6.582 3.763-12.4 8.712-16.77 12.6-10.896 9.747-21.663 20.448-32.905 32.706a576.4 576.4 0 00-8.742 9.753l-.935 1.066-1.705 1.952c-1.989-2.62-4.086-5.177-6.127-7.693l-.145-.181c-4.133-5.037-8.38-10.074-12.513-14.945l-7.14-8.438a49.464 49.464 0 01-1.033-1.263 40.89 40.89 0 00-3.126-3.505 3.956 3.956 0 00-.666-1.599 2.835 2.835 0 00-2.563-1.149c-1.431.051-2.779.911-3.859 1.604a16.412 16.412 0 00-3.389 2.765.745.745 0 000 1.009.678.678 0 00.925.099l.692-.518c1.488-1.134 3.033-2.304 4.727-2.972.589-.233 1.653-.471 2.18.549.07.141.123.288.161.44a3.2 3.2 0 01-.264 2.029 22.46 22.46 0 01-2.723 4.297l-.449.606a70.897 70.897 0 01-2.309 2.94c-.765-.963-1.597-1.983-2.584-3.194-1.441-1.745-2.95-3.463-4.36-5.068-.77-.864-1.55-1.713-2.33-2.588a37.569 37.569 0 00-1.23-1.253 5.87 5.87 0 01-.315-.316 5.185 5.185 0 00-.739-.673c-.16-.838-.315-1.682-.475-2.526-.77-4.141-1.55-8.396-2.583-12.548-.326-1.325-.682-2.682-1.033-4.033-.073-.264-.14-.517-.212-.797a23.206 23.206 0 00-.863-2.811c-.558-1.361-1.292-2.158-2.191-2.371-.981-.233-1.891.399-2.366 1.636a17.877 17.877 0 00-.971 4.085v.165c-.115.76-.182 1.526-.202 2.293-.294-.279-.599-.517-.899-.797-.299-.279-.516-.429-.728-.637a123.283 123.283 0 00-2.067-1.894l-.516-.518c2.815-4.483 5.476-9.183 7.749-13.252.14-.249.295-.518.45-.771.93-1.553 2.066-3.52 1.55-5.482a3.427 3.427 0 00-2.268-2.309c.201-.466.403-.937.599-1.424.47-1.165.754-2.769.129-3.794a2.103 2.103 0 00-1.715-.979c-1.008-.088-1.999.399-2.94 1.445a51.187 51.187 0 00-1.772 2.112c-.258.321-.516.647-.785.963l-.682.833c.32-.849.63-1.713.914-2.619a40.72 40.72 0 001.411-5.938c.124-.808.274-1.812-.186-2.671a2.594 2.594 0 00-1.87-1.279c0-5.694 1.162-11.259 2.495-16.446a45.444 45.444 0 002.583 4.281 24.773 24.773 0 007.491 7.403 20.672 20.672 0 0010.747 2.862 26.39 26.39 0 008.839-1.578c6.381-2.268 11.883-6.678 16.388-13.108 4.397-6.289 7.233-13.552 9.62-20.463a254.776 254.776 0 004.05-12.828c2.728 6.559 5.518 12.942 8.303 18.921a361.866 361.866 0 004.913 10.193c1.421 2.821 3.141 6.062 5.559 8.764a16.993 16.993 0 007.75 5.13c1.152.341 2.347.515 3.549.518a16.512 16.512 0 006.318-1.346 27.13 27.13 0 003.71-1.9 20.086 20.086 0 003.332 7.501 17.668 17.668 0 009.775 6.766 15.34 15.34 0 003.839.481 19.9 19.9 0 007.631-1.651 37.138 37.138 0 013.673 4.182 37.779 37.779 0 013.203 5.363 107.695 107.695 0 014.65 11.503l.227.637a.727.727 0 00.687.491.71.71 0 00.643-.368.715.715 0 00.065-.532c-2.201-8.454-4.872-14.314-8.654-19.004a22.792 22.792 0 00-2.872-3.013 60.265 60.265 0 0011.288-7.076c.724 4.892 4.18 8.365 7.523 11.725.552.559 1.105 1.108 1.632 1.662l.543.564a183.812 183.812 0 003.043 3.106c.356.347.713.683 1.074 1.035a3500.946 3500.946 0 00-6.153 24.33c-2.712 10.944-5.006 21.649-3.343 32.313a40.374 40.374 0 005.27 14.35 112.695 112.695 0 006.417 9.359l1.824 2.5c2.583 3.557 5.486 7.734 7.357 12.269 1.87 4.535 2.702 9.318 3.285 13.459.233 1.662.44 3.375.641 5.032.899 7.465 1.829 15.183 5.683 21.819a27.65 27.65 0 001.932 2.863 1.109 1.109 0 001.261.368.895.895 0 00.589-.932v-.378c-.274-5.208-.558-10.591.279-15.794.692-4.291 1.984-8.557 3.229-12.677.31-1.015.615-2.03.914-3.044l9.419-32.007c.392-1.326.79-2.656 1.193-3.981.336-1.118.667-2.242.997-3.36.098.616.197 1.258.29 1.931.78 5.425 1.307 11.326 1.601 18.056.326 7.315.32 14.65.269 20.862v2.019c0 1.508-.016 3.016-.047 4.524a1715.93 1715.93 0 00-.077 9.075c-.036 8.034.119 14.536.48 20.463a.722.722 0 00.724.673h.031a.68.68 0 00.614-.709c-.186-8.531-.056-17.207.073-25.599.046-3.24.098-6.481.129-9.716a90.796 90.796 0 0015.949-34.767c1.617-7.402 2.066-14.831 2.314-21.741l.093-2.744c.258-7.573.517-15.406 2.067-22.953a.818.818 0 000-.14 2.65 2.65 0 00.315-1.481 3.797 3.797 0 00-1.55-2.702 7.282 7.282 0 00-5.167-1.465.416.416 0 00-.113.037c.114-2.017.352-4.024.713-6.011.625-3.338 1.823-6.574 2.986-9.706.759-2.039 1.55-4.141 2.165-6.279a28.23 28.23 0 001.307-9.23.81.81 0 00-.548-.72 2.788 2.788 0 00-.274-.062l.326-.807c.119-.28.248-.57.382-.865.4-.789.695-1.628.878-2.495a2.477 2.477 0 00-.862-2.49zM319.76 161.915a.754.754 0 01.356-.182c.15-.025.388 0 .724.591.217.412.39.845.516 1.294l.073.212c.209.628.381 1.267.516 1.915.274 1.331.124 2.366-.444 3.075a2.366 2.366 0 01-.935.725h-.047a291.963 291.963 0 01-.738-7.035l-.021-.595zm-95.289 103.434c-.062 1.372-.77 2.562-2.268 2.552-1.499-.01-2.78-1.211-3.787-2.252a19.34 19.34 0 01-2.961-4.001c-.082-.156-1.58-3.329-1.699-4.851-.109-1.366.149-3.235 1.519-3.913 2.805-1.398 5.29 1.905 6.535 3.944.014.02.026.041.036.062a.388.388 0 00-.124.518c.098.171.197.337.29.518l.186.362a.385.385 0 00.232.192.398.398 0 00.109 0 .383.383 0 00.165-.047c.412.845.757 1.721 1.033 2.619.492 1.379.74 2.833.734 4.297zm138.526-61.24a31.775 31.775 0 014.583 6.093c.796 1.331 1.509 2.687 2.108 3.841.232.451.455.911.677 1.372.413.849.842 1.729 1.333 2.557a.716.716 0 00.924.29.72.72 0 00.414-.864 28.196 28.196 0 00-1.55-3.862l-.083-.181a42.32 42.32 0 00-2.02-3.857 32.645 32.645 0 00-5.244-6.833 25.078 25.078 0 00-1.183-1.077c.3-.818.062-1.749-.139-2.536a8.464 8.464 0 01-.207-.942 1.22 1.22 0 01.201-.937.823.823 0 01.62-.244c.832 0 1.457.73 2.067 1.553a40.232 40.232 0 015.683 10.732 62.526 62.526 0 011.891 6.579.73.73 0 00.723.559h.14a.7.7 0 00.604-.776 34.064 34.064 0 00-4.34-13.077l-.191-.336a.683.683 0 00.15-.378v-.393c0-.559.041-1.59.398-1.869.062-.052.17-.104.418-.047.548.125 1.034 1.087 1.328 1.724l.186.373a31.368 31.368 0 012.294 5.627c.517 1.77.951 3.624 1.359 5.384l.294 1.273c.176.761.357 1.553.563 2.329.047.166.093.347.135.518a6.08 6.08 0 00.899 2.278.646.646 0 00.692.233.788.788 0 00.558-.647 6.006 6.006 0 00-.3-2.174 16.023 16.023 0 01-.165-.689c-.134-.626-.274-1.247-.413-1.874l-.222-.973c-.409-1.827-.858-3.774-1.406-5.663a26.49 26.49 0 00-.516-1.605c.335-.611.62-1.087 1.064-1.035.444.051.863 1.159 1.033 1.589l.078.202a29.392 29.392 0 011.214 4.421l.041.196a80.848 80.848 0 011.307 7.527v.28a10.846 10.846 0 00-3.172 2.588c-.114.124-.222.254-.331.378a4.169 4.169 0 00-1.823-.896 8.71 8.71 0 00-2.584-.036c-.279.026-.563.062-.857.098-1.364.171-2.775.347-3.921-.227-1.034-.518-1.84-1.502-2.584-2.449-.237-.295-.475-.595-.723-.875a7.343 7.343 0 00-1.896-1.661.577.577 0 000-.166 23.444 23.444 0 00-2.273-7.677 29.192 29.192 0 00-2.067-3.712 48.389 48.389 0 00-1.09-1.553l-.181-.227c-.392-.492-.635-.839-.47-1.17a.892.892 0 01.589-.518c.574-.14 1.519.223 2.583.994a22.4 22.4 0 012.8 2.448zm3.731 51.544h.087a.695.695 0 00.682-.517c.429-2.026.58-4.1.45-6.166a47.793 47.793 0 00-.568-6.124 81.207 81.207 0 00-2.997-12.289c-.646-2.071-1.354-4.105-1.963-5.87l-.14-.399c-.62-1.776-1.26-3.624-1.147-5.467.042-.673.285-1.449.719-1.553.434-.103 1.157.684 1.524 1.124l.118.14c.274.326.517.667.801 1.004a12.46 12.46 0 002.325 2.485c1.648 1.221 3.575 1.232 5.244 1.081l.723-.077c1.261-.135 2.666-.285 3.741.191-3.818 5.265-5.249 12.657-3.911 20.396a46.319 46.319 0 001.963 7.341 37.911 37.911 0 003.1 7.087.68.68 0 00.589.331.732.732 0 00.305-.067.667.667 0 00.356-.818c-.382-1.124-.832-2.237-1.271-3.308a67.561 67.561 0 01-.997-2.532 51.334 51.334 0 01-1.798-5.922 30.384 30.384 0 01-.646-11.487 22.896 22.896 0 013.617-9.55 15.682 15.682 0 013.467-3.733c.213-.163.444-.304.687-.419.263-.136.548-.226.842-.264.079-.008.158-.008.237 0 .243 0 .331.088.372.145.248.321.057 1.201 0 1.527a26.106 26.106 0 01-1.41 4.069c-1.224 2.987-2.485 6.077-1.224 9.318a.792.792 0 00.981.481.748.748 0 00.517-.921c-.703-2.884.346-5.482 1.462-8.236a24.884 24.884 0 001.586-4.872c.134-.776.227-1.905-.517-2.712a2.219 2.219 0 00-.899-.575c.207-.321.403-.642.595-.963.191-.321.392-.647.594-.962a64.453 64.453 0 012.149-3.137 51.535 51.535 0 012.428-3.106l.227-.264c.631-.746 1.416-1.667 2.284-1.678a.834.834 0 01.687.311c.324.413.471.938.408 1.46-.113.942-.713 1.801-1.296 2.635l-.295.424a53.165 53.165 0 00-3.895 6.517c-1.034 2.138-2.284 4.97-2.449 7.89a.729.729 0 00.63.766.6.6 0 00.134 0 .742.742 0 00.729-.554 39.293 39.293 0 012.831-7.869 54.878 54.878 0 012.872-4.762 40.99 40.99 0 001.499-2.35c.465-.797 1.209-2.185.935-3.624a3.285 3.285 0 00-1.287-2.071c.186-.176.378-.362.574-.559 1.147-1.159 2.035-1.946 2.991-1.553.584.254.755.994.718 1.6a6.151 6.151 0 01-.873 2.397l-.17.326a219.47 219.47 0 01-1.261 2.402c-1.384 2.64-2.821 5.363-3.993 8.174a25.963 25.963 0 00-1.907 6.538.76.76 0 00.589.859h.155a.703.703 0 00.682-.518 68.11 68.11 0 015.213-12.553c.289-.554.594-1.108.904-1.667a76.266 76.266 0 001.524-2.925.653.653 0 01.667.306c.397.559-.052 1.589-.326 2.205a75.146 75.146 0 01-2.304 4.763c-.935 1.791-2.067 3.623-3.136 5.394-.749 1.232-1.55 2.5-2.253 3.779a.658.658 0 00.212.869.626.626 0 00.847-.108c.29-.342.558-.694.827-1.036a35.793 35.793 0 00-1.958 6.393 35.277 35.277 0 000 14.521 28.476 28.476 0 002.067 6.145l-.517.331a56.568 56.568 0 01-7.801 4.177 65.478 65.478 0 01-3.472 1.424 30.781 30.781 0 01-4.903 1.439 3.253 3.253 0 01-1.829-.052h-.046a1.225 1.225 0 01-.326-.186 1.666 1.666 0 01-.449-.518 2.633 2.633 0 01-.316-.973 4.062 4.062 0 01.445-2.21c.123-.257.261-.506.413-.746a4.955 4.955 0 00.708-1.584.627.627 0 00-.264-.637.596.596 0 00-.661 0 4.972 4.972 0 00-1.55 1.988 6.41 6.41 0 00-.775 2.526 4.535 4.535 0 00.171 1.626c-4.474-.254-7.703-1.553-9.853-4.022l-.056-.062-.326.295.289-.337a7.97 7.97 0 01-.516-.668 2.35 2.35 0 01-.517-1.226c0-.601.682-1.155 1.137-1.517a9.535 9.535 0 013.947-1.703c0 .652 0 1.299-.042 1.941a86.53 86.53 0 00-.046 2.806.717.717 0 00.579.631zm158.396 119.016c1.607 0 3.374-.103 5.461-.31l.832-.088h.083c.599-.068 1.198-.135 1.792-.213l.517-.057a13.042 13.042 0 002.769-.517c-1.55 7.195-1.839 14.8-2.066 20.96-.238 6.761-.517 14.427-1.896 21.783a90.46 90.46 0 01-14.559 34.606c.046-10.26-.155-22.182-1.752-34.01a144.384 144.384 0 00-1.266-7.822c.46-1.615.848-3.106 1.194-4.468 1.498-6.01 1.953-10.969 1.441-15.597-.516-4.467-1.823-9.235-4.055-14.583a96.84 96.84 0 00-1.178-2.712 20.36 20.36 0 003.508 1.615 26.478 26.478 0 007.956 1.403c.424 0 .827.01 1.219.01zm8.918-24.666l-.45 1.211a64.093 64.093 0 00-2.526 8.107 48.758 48.758 0 00-1.034 9.028c-.046 1.516 0 3.012.037 4.224-3.911.378-8.422.517-12.767-.777a24.98 24.98 0 01.114-5.114 25.35 25.35 0 00.124-5.239 24.265 24.265 0 00-1.261-4.918 24.381 24.381 0 01-1.198-5.026 21.832 21.832 0 00-1.033-4.835c-.321-.896-.688-1.781-1.034-2.635-.243-.59-.516-1.186-.728-1.781a15.553 15.553 0 01-1.147-4.447v-.088c0-.362-.072-1.035.129-1.278a.244.244 0 01.087-.062.234.234 0 01.104-.021c.382 0 .951.336 1.55.999a29.852 29.852 0 013.193 4.56c.553.948 1.033 1.952 1.55 2.92.341.689.692 1.403 1.064 2.071a.708.708 0 00.899.321.725.725 0 00.439-.865 16.776 16.776 0 00-1.069-2.78c.294-.841.513-1.708.656-2.588.077-.44.16-.875.258-1.294a74.206 74.206 0 011.034-3.883c.811-2.8 1.751-5.502 2.583-7.765.217-.616.439-1.226.661-1.842l.093-.27c.114-.434.32-.838.604-1.185.052-.052.083-.067.083-.073.3.114.775 1.553.894 2.506a23.577 23.577 0 01-.258 5.855c-.073.569-.14 1.133-.202 1.693-.067.636-.139 1.273-.207 1.91a68.832 68.832 0 00-.676 7.827.694.694 0 00.625.678h.077a.654.654 0 00.651-.518 69.365 69.365 0 001.034-7.718c.056-.606.118-1.217.18-1.822a57.11 57.11 0 01.197-1.667c.263-2.133.516-4.323.212-6.455a.645.645 0 00.346-.316 13.976 13.976 0 011.756-2.537c.295-.347.605-.688.93-1.004l.098-.098c.075-.086.158-.164.248-.233.026.076.047.154.062.233v.082c.46 1.942 0 4.142-.387 6.13l-.109.517a4286.88 4286.88 0 00-1.327 6.802l-.724 3.748a16.772 16.772 0 00-.408 2.992.68.68 0 00.517.684h.139a.714.714 0 00.672-.461 24.824 24.824 0 001.095-4.659c.078-.466.16-.922.243-1.372a.707.707 0 00.238-.207 53.175 53.175 0 011.581-2.153l.676-.886a58.407 58.407 0 013.539-4.286l.109-.124c.289-.321.775-.87 1.111-.761a.336.336 0 01.248.191c.222.518-.352 1.714-.595 2.232-.062.134-.118.248-.155.336-.423.989-.852 1.972-1.281 2.961-1.663 3.81-3.384 7.765-4.696 11.756a.695.695 0 00.403.854c.091.04.19.061.289.063a.677.677 0 00.605-.373c1.782-3.453 3.265-7.123 4.701-10.685-.16 4.711-1.834 9.235-3.466 13.61zm-106.563-59.092a75.749 75.749 0 001.767-7.992c.352-1.926.718-3.898 1.194-5.85l1.007 1.191a51.225 51.225 0 015.466 7.314c.729 1.222 1.426 2.449 2.098 3.624 2.449 4.307 4.768 8.381 8.395 12.072a28.793 28.793 0 003.188 2.805 5.352 5.352 0 00-.31 2.102.644.644 0 00.516.606h.099a.656.656 0 00.609-.425c.078-.207.155-.414.228-.621.139-.378.273-.75.434-1.128a9.92 9.92 0 01.428-.917.367.367 0 00.047-.181c.083-.145.165-.29.263-.435a6.955 6.955 0 012.692-2.396c2.738-1.32 5.848.864 6.716 1.553a11.23 11.23 0 013.689 5.202c.517 1.553 1.147 4.561-.568 6.926a8.99 8.99 0 01-3.4 2.708.397.397 0 00-.191.041c-.382.187-.754.357-1.147.518l-.062.031c-.718.3-1.451.575-2.159.844l-.269.098a.77.77 0 00-.465.968.72.72 0 00.899.487c.517-.135.93-.249 1.323-.363a22.545 22.545 0 00-.822 6.792l-1.679 1.035c-3.1 1.962-6.324 3.992-9.625 5.695-4.619 2.391-8.442 3.137-12.038 2.334a15.817 15.817 0 01-9.516-6.522 18.664 18.664 0 01-2.909-7.335 17.249 17.249 0 01-.186-1.274 24.406 24.406 0 01-.17-3.07c0-.999.057-2.029.103-3.018.106-1.659.127-3.323.062-4.985-.098-1.77-.775-3.763-2.356-4.436 2.687-4.54 5.167-9.075 6.649-13.998zm-112.984 60.23c-.124.192-.253.378-.372.575a.708.708 0 00-.082.254 72.01 72.01 0 01-.47.849.716.716 0 00.227.973c.125.081.27.124.418.124a.757.757 0 00.636-.29 30.243 30.243 0 001.746-2.676l.455-.518c.165-.202.336-.404.516-.6.517-.611 1.034-1.232 1.55-1.848l.77-.922c.568-.673 1.131-1.351 1.689-2.034l.62-.746c.176-.212.357-.44.517-.662.441-.603.939-1.161 1.488-1.667a1.543 1.543 0 011.4-.362c.078.036.305.134.331.61a5.124 5.124 0 01-.625 2.2l-.14.316a71.734 71.734 0 01-2.872 5.855c-.858 1.553-1.803 3.106-2.723 4.581l-1.059 1.735a.723.723 0 00.222.968.654.654 0 00.93-.12 47.177 47.177 0 006.138-10.213 1.52 1.52 0 011.059.642c.413.569.428 1.372.041 2.391a24.246 24.246 0 01-1.958 3.728c-.274.46-.548.916-.811 1.377-1.87 3.308-3.906 6.848-6.086 10.286l-.16.243c-.088.145-.186.295-.279.44a108.9 108.9 0 00-2.098-1.895c-.217-.186-.424-.378-.641-.574a20.452 20.452 0 00-2.19-1.817 4.515 4.515 0 00-3.296-.751 7.733 7.733 0 00-1.731-5.13 9.392 9.392 0 00-2.227-2.071 7.2 7.2 0 00-.806-.471c-.676-.367-1.26-.683-1.55-1.325a10.378 10.378 0 01-.614-2.071 25.697 25.697 0 003.497-4.343l.31-.45c1.101-1.589 2.149-3.241 3.162-4.835l.961-1.517c.599-.932 1.307-2.034 2.067-3.152l.175-.264c.208-.356.466-.68.765-.963a.75.75 0 01.579-.228c.118.031.196.114.253.445a.609.609 0 00.098.756 18.182 18.182 0 01-.977 6.854 38.622 38.622 0 01-2.133 5.264 18.92 18.92 0 00-1.183 2.791.651.651 0 00.33.802c.1.055.212.084.326.083a.748.748 0 00.589-.29 19.109 19.109 0 001.958-3.577l.212-.456a35.664 35.664 0 001.549-3.887 18.194 18.194 0 00.982-8.164 6.371 6.371 0 011.912-.989c.169-.049.342-.089.516-.119.24-.043.485-.056.729-.036.687.047.852.378.904.487.305.616.046 1.599-.16 2.391-.052.197-.098.389-.14.559-.222 1.036-.516 2.071-.801 3.179a51.853 51.853 0 01-4.443 10.275zm9.073 22.866c.066.031.138.05.211.057a.83.83 0 00.558.181.728.728 0 00.418-.177.726.726 0 00.228-.393 8.902 8.902 0 00.176-2.117c0-.383 0-.745.036-1.108.091-1.144.288-2.278.589-3.385l.052-.181a7.43 7.43 0 01.423-1.279c.043-.078.079-.159.109-.243.031 0 .108.057.274.243.5.679.839 1.463.991 2.293.047.161.088.316.13.471 1.348 4.69 2.49 9.318 3.389 13.786.263 1.309.516 2.624.759 3.939l.067.347a8.735 8.735 0 001.096 3.349.636.636 0 00.547.306.456.456 0 00.109-.026l.165.202c.114.134.227.269.331.403.33.42.666.824 1.033 1.227.465.518.925 1.093 1.385 1.641l.692.813c1.261 1.481 2.516 3.008 3.735 4.488l.61.74a241.214 241.214 0 012.805 3.464l-.175.201a46.99 46.99 0 01-8.515 7.496 37.523 37.523 0 01-2.495 1.553 67.72 67.72 0 00-9.666-10.695 74.974 74.974 0 00-4.495-3.732l-.486-.368a22.696 22.696 0 01-4.014-3.561 20.71 20.71 0 01-1.689-2.588 22.71 22.71 0 00-1.576-2.444 32.999 32.999 0 00-3.42-3.623c-.13-.13-.259-.249-.377-.363l-.398-.383-.367-.357a31.568 31.568 0 01-2.635-2.801 12.583 12.583 0 01-1.493-2.272 9.557 9.557 0 01-.517-1.237 7.353 7.353 0 01-.165-.585v-.078a.692.692 0 01-.041-.274.402.402 0 01.051-.104.651.651 0 00.419.047c.325.372.671.75 1.033 1.139.615.636 1.245 1.257 1.875 1.879l.775.761c.481.481.982.978 1.499 1.444.31.274.568.518.8.683l.207.166a.614.614 0 00.377.129.656.656 0 00.481-.207.645.645 0 00.082-.859 4.627 4.627 0 00-.263-.316 16.308 16.308 0 00-.718-.849c-.791-.89-1.659-1.729-2.501-2.547a78.036 78.036 0 01-1.198-1.17 23.712 23.712 0 01-2.119-2.339c-.516-.72-1.291-1.714-1.358-2.589 0-.3.046-.393.108-.445.062-.052.129-.036.434.135l.134.072c.476.254.946.518 1.406.766.894.531 1.713 1.18 2.433 1.931.62.642 1.235 1.32 1.829 1.978.594.657 1.25 1.382 1.901 2.07.248.254.517.518.749.756.114.114.233.228.347.331a.61.61 0 00.449.187l.031.026a.719.719 0 00.93.041.715.715 0 00.196-.906c-.21-.391-.442-.77-.697-1.134l-.31-.45-.305-.45a8.721 8.721 0 01-.248-.378 33.34 33.34 0 01-1.39-2.433 56.257 56.257 0 01-2.33-5.177 144.08 144.08 0 01-1.007-2.671c-.073-.192-.15-.383-.222-.58a11.524 11.524 0 01-.631-1.936 1.911 1.911 0 01.238-1.418.606.606 0 01.486-.238c.428-.026.806.388 1.188.817l.279.301c-.193.811.064 1.684.77 2.619.573.756 1.203 1.481 1.813 2.185l.78.911.32.372a270.043 270.043 0 002.723 3.2l.031.046.243.275c.15.176.3.346.455.517.873.994 1.689 1.89 2.5 2.739a.705.705 0 00.517.212.765.765 0 00.516-.197.66.66 0 00.104-.926 91.376 91.376 0 00-2.48-3.07 33.93 33.93 0 00-.568-.678l-.109-.13-1.317-1.553a117.748 117.748 0 00-1.803-2.07l-.662-.679a37.435 37.435 0 00-.63-.688 9.482 9.482 0 01-1.483-1.9 1.037 1.037 0 01-.062-.952 1.224 1.224 0 01.935-.59c.868-.14 1.721.481 2.367 1.035 1.193 1.004 2.366 2.07 3.497 3.106.377.341.749.688 1.127 1.035l.578.518.114.109c.883.792 1.756 1.589 2.63 2.386l.118.109c.243.217.486.46.734.709a9.355 9.355 0 002.408 1.957zM296.8 362.944c.274-3.577.285-7.216.295-10.736v-3.862c0-.947 0-1.92.408-2.65a1.31 1.31 0 011.002-.694.805.805 0 01.718.404c.378.654.623 1.377.719 2.127.041.207.082.409.124.606.186.802.377 1.61.563 2.412a.594.594 0 00.139.663l.124.549c.259 1.102.594 2.251 1.643 3.044.373.266.759.513 1.157.74a7.703 7.703 0 011.519 1.035 9.59 9.59 0 012.501 4.913 3.188 3.188 0 00-1.602-.782 2.114 2.114 0 00-1.885.678c-1.468 1.553-.517 3.836.165 5.493.108.264.217.517.305.75.733 1.936 1.627 4.219 2.722 6.45l.047.088-.16-.171a16.637 16.637 0 00-4.691-3.478c-1.246-.642-1.984-.187-2.387.305-.517.658-.579 1.553-.135 2.589.301.699.677 1.364 1.122 1.982a1.399 1.399 0 00-.476.363c-.687.802-.32 1.925-.072 2.697a13.91 13.91 0 002.614 4.498c.734.89 1.55 1.724 2.273 2.454l-.036.093a35.16 35.16 0 00-2.247 7.765c-2.227-1.149-4.376-2.469-6.391-3.738a43.902 43.902 0 01-7.331-5.57 35.043 35.043 0 004.283-7.558c1.622-3.768 2.557-8.06 2.97-13.459zm235.232 4.902l.578.156c.925.215 1.823.532 2.677.947.837.445 1.767 1.242 1.627 2.04-.103.636-.951.854-1.855.999a68.492 68.492 0 01-3.249.414v-2.77c0-.647.046-1.258.072-1.853a.594.594 0 00.15.067z" fill="#000"/><path d="M431.109 317a5.189 5.189 0 001.683-.273c1-.339 1.897-.873 2.621-1.562.756-.689 1.297-1.534 1.572-2.455a.527.527 0 00-.034-.345.627.627 0 00-.249-.27.702.702 0 00-.356-.095.706.706 0 00-.357.095 8.302 8.302 0 00-1.572 1.207l-.33.296a6.894 6.894 0 01-1.83 1.262 3.84 3.84 0 01-1.976.277 6.66 6.66 0 01-1.997-.737l-.183-.091a.847.847 0 00-.485-.067.783.783 0 00-.427.208.531.531 0 00-.063.751 4.725 4.725 0 001.738 1.323 5.475 5.475 0 002.245.476zm-1.148-27.198c.087-.009.174-.009.261 0 .096.004.193.004.29 0 .163-.015.328-.015.491 0a4.3 4.3 0 011.027.204c.631.212 1.191.57 1.627 1.041a5.09 5.09 0 01.954 1.609l.123.309c.088.218.177.455.251.655.073.2.127.372.206.554.067.152.166.291.29.409l.108.132a.717.717 0 00.258.207.79.79 0 00.332.075.582.582 0 00.118 0 .68.68 0 00.339-.154.604.604 0 00.192-.301c.014-.054.032-.107.054-.159.072-.181.112-.371.118-.563a3.974 3.974 0 00-.084-.669 6.675 6.675 0 00-1.804-3.577 5.409 5.409 0 00-1.855-1.19 5.772 5.772 0 00-2.219-.382 5.07 5.07 0 00-.713.068c-.199.033-.392.09-.575.168l-.177.064a.799.799 0 00-.471.353.697.697 0 00-.075.556.796.796 0 00.347.457c.172.109.38.156.587.134zm-255.273 33.314a.7.7 0 00-.949.17 72.608 72.608 0 00-5.764 9.523 106.499 106.499 0 00-4.565 9.968 103.737 103.737 0 00-5.885 21.185c-.712 4.284-1.173 8.666-1.619 12.918-.414 3.907-.838 7.947-1.457 11.885-1.142 7.234-2.814 15.067-5.114 23.903-1.751 6.718-3.668 13.518-5.55 20.09l-.959 3.478c-.267.935-.524 1.943-.807 2.961a.656.656 0 00.07.488.674.674 0 00.391.307.545.545 0 00.189 0 .64.64 0 00.603-.428c1.32-3.757 2.494-7.627 3.631-11.368l.084-.284c1.378-4.558 2.458-8.268 3.391-11.751 2.353-8.784 4.108-16.535 5.355-23.702a192.664 192.664 0 001.709-12.179c.152-1.4.293-2.805.435-4.206.262-2.625.524-5.343.88-8.004a105.241 105.241 0 015.198-21.842c1.375-3.867 2.98-7.65 4.806-11.331 1.472-2.971 3.191-5.865 4.847-8.666.437-.733.87-1.467 1.3-2.201a.677.677 0 00.073-.5.688.688 0 00-.293-.414zm28.118 6.056c-1.167.517-2.323 1.127-3.44 1.695-1.117.569-2.125 1.091-3.203 1.592l-.606.285c-1.789.852-4.023 1.917-5.79 1.08-1.651-.781-2.312-2.817-2.702-4.502-.507-2.207-.221-4.327.088-6.565v-.108a.546.546 0 00-.101-.388.608.608 0 00-.345-.232.656.656 0 00-.433.016.612.612 0 00-.316.278c-1.001 1.964-1.04 4.264-.897 5.851.09 1.853.64 3.66 1.607 5.278a5.085 5.085 0 001.873 1.833 5.49 5.49 0 002.596.715c2.02 0 3.947-.91 5.648-1.716l.423-.196a36.276 36.276 0 006.506-3.701.67.67 0 00.165-.936.84.84 0 00-.48-.33.896.896 0 00-.593.051zM222.396 280h.336c.931-.012 1.836-.373 2.594-1.034.87-.726 1.471-1.843 1.672-3.108a1 1 0 00-.107-.518.744.744 0 00-.338-.337.57.57 0 00-.432-.054.676.676 0 00-.37.279c-.1.154-.189.315-.278.476-.1.198-.214.385-.341.558a3.924 3.924 0 01-.791.732c-.563.432-1.224.635-1.887.578-.672-.067-1.316-.361-1.86-.847a4.3 4.3 0 01-1.007-1.567 13.482 13.482 0 00-.403-.816.674.674 0 00-.35-.309.536.536 0 00-.431.027.715.715 0 00-.322.351.946.946 0 00-.071.522c.174 1.318.698 2.529 1.491 3.445.794.917 1.811 1.487 2.895 1.622zm233.309-116.229a2.906 2.906 0 00-1.053-1.242 3.194 3.194 0 00-1.599-.529c-1.088 0-1.922.594-2.724 1.192a10.63 10.63 0 01-.964.672 8.181 8.181 0 01-2.271.895 9.31 9.31 0 01-1.657.185 3.024 3.024 0 00-.521.029h-.297a.612.612 0 00-.328.127 3.552 3.552 0 00-1.222.744 3.269 3.269 0 00-.794 1.144 3.034 3.034 0 00-.275 1.313c.009.451.118.896.322 1.305.468.895 1.505 1.581 3.078 2.044a9.087 9.087 0 002.522.35 8.602 8.602 0 004.45-1.211 7.82 7.82 0 003.031-3.276c.469-.973.906-2.413.302-3.742zm-4.6.38c.604-.487 1.287-1.017 2.027-.915 1.088.141 1.515 1.328 1.469 2.127-.099 1.946-1.735 3.678-3.309 4.545-.979.53-2.08.834-3.21.889a7.57 7.57 0 01-3.291-.578c-.787-.336-2.053-1.119-1.74-2.55.08-.351.249-.68.494-.957.245-.277.558-.494.912-.634 2.256.428 4.72-.574 6.143-1.562.177-.107.338-.234.531-.365h-.026zm7.675-21.141c1.387.35 2.668 1.235 3.842 2.712a.707.707 0 00.268.203.904.904 0 00.65.028.71.71 0 00.375-.278.496.496 0 00.068-.405c-.259-.98-.853-1.883-1.715-2.61-.862-.726-1.959-1.246-3.168-1.503a7.504 7.504 0 00-3.843.209c-1.094.376-2.262 1.166-2.257 2.268a.556.556 0 00.152.358.807.807 0 00.382.223.918.918 0 00.445.026.79.79 0 00.382-.184c.487-.497 1.137-.874 1.878-1.089a5.288 5.288 0 012.541.042zm-151.788 34.921c-.882-.25-1.667-.673-2.281-1.228-.586-.615-.958-1.338-1.083-2.099l-.038-.143a.642.642 0 00-.301-.343.965.965 0 00-.51-.117.854.854 0 00-.474.135.548.548 0 00-.242.346c-.41 2.139 1.205 4.182 4.013 5.084a9.25 9.25 0 002.842.434c2.135-.015 4.192-.631 5.794-1.735a.592.592 0 00.279-.382.503.503 0 00-.124-.429.916.916 0 00-.506-.297 1.146 1.146 0 00-.631.032c-1.738.62-4.346 1.406-6.738.742zm4.075-18.311c-.354-1.21-.622-2.489-.882-3.723l-.086-.402a.637.637 0 00-.219-.381.498.498 0 00-.386-.109.534.534 0 00-.352.208.692.692 0 00-.142.424 21.122 21.122 0 001.555 7.319c.081.21.175.426.269.646.375.868.733 1.686.362 2.489a13.5 13.5 0 01-1.815 2.797.706.706 0 00-.155.426.712.712 0 00.317.618.495.495 0 00.238.068.503.503 0 00.29-.093c.996-.614 1.844-1.503 2.468-2.587.626-1.151.63-2.38 0-3.869l-.294-.706a28.456 28.456 0 01-1.168-3.125zm-6.861-7.232a5.093 5.093 0 00-2.686-.335 4.334 4.334 0 00-2.3 1.063 4.107 4.107 0 00-.779.971 5.02 5.02 0 00-.258.539 2.44 2.44 0 00-.139.592c-.085.468-.046.947.113 1.398l.048.156c.044.139.098.275.161.408.076.149.171.289.285.417l.102.126a.683.683 0 00.255.204.776.776 0 00.33.073.827.827 0 00.323-.068.616.616 0 00.319-.304.531.531 0 00.014-.419.565.565 0 01-.038-.185v-.194c0-.087-.027-.282-.027-.393.045-.142.079-.286.102-.432 0-.112.043-.224.076-.335.077-.255.191-.5.338-.728a2.09 2.09 0 011.075-.865 2.756 2.756 0 011.584 0c.28.067.547.174.79.316.093.059.181.124.263.194.206.192.461.335.742.418a.953.953 0 00.73-.117.855.855 0 00.263-.273.763.763 0 00.108-.348 1.557 1.557 0 00-.218-.69 1.74 1.74 0 00-.518-.543 4.298 4.298 0 00-1.058-.646zm76.91 27.905c.046 1.539.098 3.079.133 4.618 0 1.238.057 2.867.034 4.491v.738c0 .49-.029.98 0 1.465v1.144c.001.353.034.706.099 1.054 0 .101.034.206.046.317.041.23.165.442.352.601.187.159.427.258.682.279h.064c.217-.008.424-.082.588-.211a.86.86 0 00.314-.501c.204-.743.338-1.502.399-2.266.075-.738.115-1.503.138-2.346a80.98 80.98 0 000-4.786 42.383 42.383 0 00-1.225-9.299.782.782 0 00-.343-.454.912.912 0 00-.588-.131.9.9 0 00-.572.246.751.751 0 00-.237.534c0 1.239.035 2.504.075 3.722l.041.785zm6.202 14.701a.708.708 0 00.184 0 .883.883 0 00.5-.161.805.805 0 00.303-.407.67.67 0 00-.02-.525.73.73 0 00-.398-.368s-.033 0-.039-.058c-.24-1.156 3.664-5.74 4.718-6.755a27.008 27.008 0 013.73-3.091 26.008 26.008 0 012.052-1.23c.296-.157.597-.299.903-.446.477-.217.94-.457 1.389-.721a.669.669 0 00.323-.364.621.621 0 00-.022-.475.68.68 0 00-.355-.337.74.74 0 00-.504-.022c-1.628.32-3.111 1.188-4.544 2.024l-.865.494a19.029 19.029 0 00-4.461 3.727 23.74 23.74 0 00-3.39 4.61c-.557.978-1.115 2.339-.647 3.259.103.218.261.409.461.557.199.147.433.247.682.289zm9.404-.503c-.494.144-.994.288-1.487.443a5.063 5.063 0 00-2.073 1.071.63.63 0 00-.149.29.592.592 0 00.021.323.544.544 0 00.176.25c.081.067.18.11.285.127.102.007.204.007.306 0 .181-.002.361-.021.537-.057l.161-.031c.129 0 .258-.031.387-.046.26-.027.518-.07.773-.129l.295-.077c.65-.165 1.321-.34 1.981-.459l4.794-.855a58.803 58.803 0 019.604-.747.68.68 0 00.459-.173.624.624 0 00.206-.43.644.644 0 00-.158-.471.702.702 0 00-.454-.235 43.582 43.582 0 00-9.952 0 26.004 26.004 0 00-4.789.912l-.923.294zm-178.905 63.607c-.897.382-1.082 1.735-.422 3.082.544 1.111 1.476 1.82 2.286 1.82.172.001.341-.032.498-.097.251-.125.46-.312.604-.54.144-.228.218-.489.212-.753a3.47 3.47 0 00-.393-1.788c-.66-1.348-1.882-2.105-2.785-1.724zM303.004 162c1.143 0 1.996-1.065 1.996-2.503 0-1.437-.853-2.497-1.996-2.497S301 158.065 301 159.497c0 1.433.861 2.503 2.004 2.503zm11.499 0c.851 0 1.497-1.065 1.497-2.497 0-1.433-.646-2.503-1.497-2.503-.852 0-1.503 1.065-1.503 2.503 0 1.437.646 2.497 1.503 2.497zm126.5-18c-1.144 0-2.003 1.073-2.003 2.502 0 1.429.859 2.498 2.003 2.498 1.144 0 1.997-1.073 1.997-2.498 0-1.425-.841-2.502-1.997-2.502zm13.497 7c.828 0 1.5-1.343 1.5-3s-.672-3-1.5-3-1.5 1.343-1.5 3 .672 3 1.5 3zm-24.497 149c1.138 0 1.997-1.288 1.997-2.997 0-1.71-.859-3.003-1.997-3.003-1.137 0-2.003 1.293-2.003 3.003 0 1.709.859 2.997 2.003 2.997z" fill="#000"/></svg>