<svg width="600" height="600" fill="none" xmlns="http://www.w3.org/2000/svg"><path d="M183.532 257.932a.875.875 0 00.331.068.708.708 0 00.406-.118.731.731 0 00.271-.326c5.026-11.775 10.812-21.415 17.713-29.434 8.218-9.609 16.485-17.171 25.266-23.128a115.265 115.265 0 018.227-5.116c.89-.503 1.783-.995 2.692-1.491a13.69 13.69 0 00-2.326 6.274.761.761 0 00.575.849.967.967 0 001.11-.544 33.607 33.607 0 012.732-5.552 22.528 22.528 0 013.18-3.664c.303-.305.61-.611.913-.924a.922.922 0 00.264-.531.693.693 0 00.098-.528.76.76 0 00-.496-.583 6.432 6.432 0 00-2.495-.111c-.224 0-.445.04-.661.052-.874.043-1.748.099-2.622.15l-.878.056c-2.193.094-4.38.311-6.55.65a.66.66 0 00-.555.714.755.755 0 00.697.722c2.189.059 4.38-.006 6.562-.194l1.051-.068c-3.999 1.777-7.703 4.069-11.104 6.298a119.21 119.21 0 00-13.958 10.675 115.782 115.782 0 00-22.275 27.114 108.086 108.086 0 00-8.66 17.691.8.8 0 00.042.602c.092.187.254.33.45.397zm34.548 112.407a98.646 98.646 0 01-22.102-25.508c-1.453-2.406-2.965-5.129-4.614-8.328-.518-1-1.035-2.052-1.488-2.982l-.107-.216c.197.153.395.302.588.443a21.74 21.74 0 006.931 3.222.762.762 0 00.92-.494.691.691 0 00-.364-.899 35.152 35.152 0 01-6.157-3.657 32.699 32.699 0 01-2.873-2.324 17.237 17.237 0 01-.999-1.004c-.177-.185-.351-.369-.529-.55a3.795 3.795 0 00-.331-.651.785.785 0 00-.371-.307.803.803 0 00-.482-.035.734.734 0 00-.758.142.965.965 0 00-.268 1.114l.047.102a1.155 1.155 0 000 .22c.12.664.283 1.32.49 1.962.063.616.126 1.276.173 1.923.135 1.841.206 3.332.218 4.709 0 2.477-.099 4.984-.214 7.421-.039.785-.076 1.57-.11 2.355a.682.682 0 00.6.703.702.702 0 00.789-.507 37.502 37.502 0 001.125-9.991v-.569l.067.133a74.061 74.061 0 004.259 7.614 118.558 118.558 0 0010.455 13.845 111.76 111.76 0 0026.342 22.326c6.588 3.999 12.173 6.671 17.58 8.41.08.026.164.039.249.039a.89.89 0 00.789-.589.778.778 0 00-.394-1.024c-5.566-2.382-10.566-4.58-15.413-7.374a105.566 105.566 0 01-14.048-9.674zm123.268-157.818c8.798 8.718 16.725 19.62 24.229 33.326a243.439 243.439 0 015.457 10.591 297.042 297.042 0 012.529 5.319c-1.713-1.13-4.234-2.534-6.641-2.113a.634.634 0 00-.522.531.73.73 0 00.322.748c.715.393 1.466.718 2.242.971l.592.217c1.004.384 1.965.873 2.866 1.459a26.025 26.025 0 014.195 3.655l.588.586a.65.65 0 00.463.189.717.717 0 00.411-.126.618.618 0 00.244-.759 6.069 6.069 0 00-.153-.35.7.7 0 00-.044-.272 11.06 11.06 0 01-.337-1.239l-.078-.319a41.53 41.53 0 01.165-4.489 38.2 38.2 0 01.682-4.001c.149-.719.306-1.463.431-2.203a.697.697 0 00-.463-.786.602.602 0 00-.748.31 16.606 16.606 0 00-1.733 6.905 311.142 311.142 0 00-2.015-4.159 270.765 270.765 0 00-5.007-9.701 179.412 179.412 0 00-11.416-18.565c-8.527-11.976-18.003-21.547-28.169-28.456a87.458 87.458 0 00-9.539-5.637 79.305 79.305 0 00-10.075-4.115.588.588 0 00-.478.026.595.595 0 00-.306.367.662.662 0 00.392.846 81.235 81.235 0 0117.167 9.048 103.935 103.935 0 0114.749 12.196zm-67.426-18.859v.059c-.261 1.61-.562 3.435.036 4.982a3.356 3.356 0 001.212 1.651c.567.412 1.25.637 1.952.646.191 0 .382-.016.57-.047 1.875-.298 3.002-1.889 3.429-3.282a7.162 7.162 0 00.202-3.043c0-.11-.028-.228-.039-.349a6.209 6.209 0 00-.372-1.791 8.962 8.962 0 003.88-2.568 8.857 8.857 0 002.053-4.157c.609-3.176-.554-7.22-3.955-8.806-3.208-1.492-7.805-1.213-10.681.655a9.2 9.2 0 00-3.181 3.489 9.117 9.117 0 00-1.02 4.595c.226 3.604 2.754 6.993 5.914 7.966zm6.084 2.635c-.123 1.279-.791 2.779-2.279 3.14-.842.205-1.475.114-1.934-.282a2.138 2.138 0 01-.585-.895 4.548 4.548 0 001.542.263 5.908 5.908 0 001.389-.177.417.417 0 00.328-.459.458.458 0 00-.435-.424 19.065 19.065 0 01-3.097-.487c-.071-1.1-.036-2.204.103-3.298l.213.023.42.048a9.879 9.879 0 002.005 0 5.32 5.32 0 001.93-.542c.028.09.052.176.08.259.047.161.098.322.134.495.036.172.055.302.083.447a11.38 11.38 0 01-.396.255 4.407 4.407 0 01-.988.589c-.491.161-1 .26-1.515.295l-.281.031a.503.503 0 00-.443.444.436.436 0 00.336.471c.273.081.557.12.842.118a4.22 4.22 0 002.556-.888c.007.191.004.383-.008.574zm-.657-4.39a8.137 8.137 0 01-2.31.648c-.202 0-.415.024-.637.024.507-1.265.621-2.776.685-4.107v-.64c.415.081.842.081 1.258 0a26.615 26.615 0 001.004 4.087v-.012zm-.194-7.821c.068-.867.333-2.029.527-2.112.047.059.13.334-.151 1.688l-.035.165c-.09.5-.213.993-.368 1.477-.015-.402-.005-.805.027-1.206v-.012zm-7.219-4.401c2.805-2.638 6.982-2.234 8.647-1.935 3.074.546 5.095 3.086 5.143 6.466a7.62 7.62 0 01-1.541 4.58 7.713 7.713 0 01-3.997 2.754c-.111-.927-.309-1.857-.502-2.748-.103-.479-.214-.978-.305-1.465.116-.107.22-.225.312-.353.851-1.217 1.151-3.294 1.148-4.833a1.409 1.409 0 00-.792-1.331.948.948 0 00-1.091.369c-.871.993-1.187 2.654-.886 4.947.019.157.043.322.063.483a1.79 1.79 0 01-1.06 0h-.048a17.65 17.65 0 00-.601-3.534c-.206-.746-.526-1.641-1.143-1.943a1.06 1.06 0 00-.886 0c-1.135.463-1.159 2.356-.906 3.427.151.604.428 1.169.814 1.659.386.489.871.893 1.425 1.184 0 .534-.032 1.068-.079 1.57-.088.682-.22 1.357-.396 2.022-.111.467-.217.946-.297 1.429l-.071-.035a.44.44 0 00-.178-.079c-2.749-1.221-4.398-2.968-5.043-5.339a7.461 7.461 0 01.133-3.955 7.515 7.515 0 012.137-3.34zm2.71 2.933a.245.245 0 010-.126.3.3 0 01.162.024l.071.02.064-.028c.134-.055.178-.039.178-.039s.035.035.039.192v.055c.222.716.377 1.451.463 2.195.04.306.071.628.095.958a3.36 3.36 0 01-1.131-2.214 2.413 2.413 0 01.043-.95v-.044l.016-.043z" fill="#000"/><path d="M269.279 208.626a24.494 24.494 0 007.89 1.37h1.256a24.84 24.84 0 006.602-.774c4.075-1.201 7.528-3.856 9.658-7.427 2.376-3.934 2.916-8.851 1.652-15.024a17.76 17.76 0 00-.34-2.137c-1.01-4.288-3.563-8.088-7.202-10.722-3.104-2.207-7.017-3.272-10.418-2.803-8.189-.07-14.763 3.063-18.028 8.561a13.603 13.603 0 00-1.844 5.851c-.636 4.457-1.008 9.645 1.012 14.357 1.709 3.966 5.173 7.075 9.762 8.748zm-7.965-26.16c2.16-5.421 7.705-8.96 15.203-9.681a.81.81 0 00.22 0l.268-.034h.088a28.894 28.894 0 014.529.019c1.937.277 3.794.943 5.449 1.955 3.08 1.913 5.434 4.743 6.709 8.062 2.189 6.01.993 14.265-5.529 18.412-5.625 3.574-13.919 3.674-19.716.236-2.908-1.727-5.357-4.859-6.897-8.828-.972-2.525-1.829-6.358-.324-10.141zm4.101 19.047c5.561 4.623 14.763 5.502 21.82 2.094 3.867-1.879 6.804-5.167 8.166-9.142a14.403 14.403 0 01-1.368 5.464c-1.712 3.455-4.704 6.16-8.382 7.578-3.853 1.483-8.918 1.587-13.895.286-4.681-1.22-8.306-3.845-10.21-7.396a16.954 16.954 0 01-1.901-7.314 19.846 19.846 0 005.77 8.43zM168.131 297a2.212 2.212 0 001.547-.606c.417-.396.662-.937.684-1.51a2.118 2.118 0 00-.598-1.433 59.125 59.125 0 001.545-2.029c.451-.612.919-1.244 1.394-1.844 1.066-1.346 1.981-2.503 2.956-3.62.111.019.224.029.336.032h.159a526.986 526.986 0 002.377 6.782 2.243 2.243 0 00-.769 1.678 2.129 2.129 0 002.124 2.12 2.22 2.22 0 001.548-.609c.418-.396.664-.938.686-1.511a2.108 2.108 0 00-.499-1.319c1.763-2.625 3.566-5.317 5.428-7.958.231.085.474.13.721.134a2.203 2.203 0 002.23-2.12 2.302 2.302 0 00-2.25-2.187 2.188 2.188 0 00-1.499.667 2.174 2.174 0 00-.609 1.52c.004.348.093.69.262.995-1.89 2.653-3.819 5.365-5.681 8.112l-.163-.023c-.915-2.46-1.771-4.71-2.591-6.822a2.065 2.065 0 00.753-1.579 2.266 2.266 0 00-.684-1.542 2.288 2.288 0 00-1.562-.649 2.186 2.186 0 00-1.501.669 2.17 2.17 0 00-.437 2.351c.112.262.277.498.484.695l-1.098 1.37c-.614.761-1.224 1.523-1.822 2.293l-.82 1.038c-.697.873-1.403 1.769-2.04 2.697a2.135 2.135 0 00-.634-.103 2.186 2.186 0 00-1.501.669 2.17 2.17 0 00-.445 2.334 2.129 2.129 0 001.969 1.308z" fill="#000"/><path d="M170.998 310.59a22.855 22.855 0 007.688 1.406h1.224c2.17.039 4.334-.228 6.432-.794 3.963-1.22 7.324-3.927 9.403-7.574 2.316-4.04 2.842-9.08 1.606-15.411a18.658 18.658 0 00-2.268-7.403 18.295 18.295 0 00-5.061-5.792c-3.044-2.292-6.853-3.384-10.167-2.915-7.991-.044-14.396 3.157-17.57 8.782a14.443 14.443 0 00-1.793 6.001c-.62 4.568-.982 9.894.986 14.728 1.673 4.075 5.049 7.268 9.52 8.972zm-7.761-26.834c2.105-5.56 7.508-9.191 14.813-9.929a.647.647 0 00.215 0l.257-.036h.09a27.32 27.32 0 014.413 0c1.89.29 3.699.979 5.313 2.022a16.723 16.723 0 016.545 8.281c2.133 6.168.967 14.636-5.387 18.886-5.481 3.67-13.562 3.769-19.211.246-2.834-1.771-5.22-4.984-6.721-9.055-.955-2.606-1.793-6.522-.327-10.403v-.012zm3.995 19.538c5.435 4.742 14.378 5.644 21.258 2.149 3.769-1.927 6.632-5.3 7.961-9.378a15.435 15.435 0 01-1.334 5.6c-1.664 3.551-4.58 6.332-8.167 7.789-3.754 1.521-8.689 1.629-13.539.294-4.565-1.239-8.073-3.924-9.948-7.574a18.1 18.1 0 01-1.852-7.503 20.413 20.413 0 005.621 8.635v-.012zm112.153 85.385c.348.209.73.318 1.118.321.263 0 .525-.054.774-.161.614-.299 1.118-.863 1.42-1.585a4.066 4.066 0 00.223-2.346 2.884 2.884 0 00-.709-1.281 2.09 2.09 0 00-1.153-.62.981.981 0 00-.503.072 1.164 1.164 0 00-.432.323.53.53 0 00-.198-.193.413.413 0 00-.249-.046 1.642 1.642 0 00-.743.368 2.13 2.13 0 00-.543.725c-.194.393-.32.832-.368 1.289-.048.456-.018.92.089 1.361.107.385.274.739.493 1.043.219.305.484.553.781.73zm.354-4.285c.014.1.049.193.1.271a.46.46 0 00.209.17.37.37 0 00.25.009.805.805 0 01.569-.035.974.974 0 01.489.361 1.761 1.761 0 01.097 1.497 1.303 1.303 0 01-.415.584.945.945 0 01-.606.206 1.204 1.204 0 01-.887-.379 1.78 1.78 0 01-.473-.999c-.056-.725.246-1.216.667-1.685z" fill="#000"/><path d="M269.529 390.791c.301.534.615 1.092.948 1.618l.028.043a1.13 1.13 0 00.751.623c.458.016.909-.1 1.298-.335.104-.047.197-.093.281-.125l.377-.152c.35-.14.711-.284 1.057-.448a4.967 4.967 0 001.743 1.668c-.112.41-.197.831-.277 1.24-.04.199-.08.39-.125.596a6.998 6.998 0 01-.152.573 3.966 3.966 0 00-.249 1.602c.096.624.61.756 1.088.881.826.205 1.666.347 2.515.425h.052a.698.698 0 00.594-.366 9.092 9.092 0 00.932-4.019c1.049.308 2.358.511 3.29.027.426.897.851 1.797 1.285 2.694a.601.601 0 00.402.308.697.697 0 00.546-.063l.125-.078a31.383 31.383 0 003.815-2.615.65.65 0 00.113-.811 357.236 357.236 0 00-2.33-3.481 6.098 6.098 0 001.414-3.165 13.829 13.829 0 003.495-.935.832.832 0 00.345-.325.798.798 0 00.108-.455 120.555 120.555 0 00-.646-4.724.68.68 0 00-.342-.467.852.852 0 00-.662-.098c-1.334.425-2.676.838-4.017 1.251a6.292 6.292 0 00-1.462-2.28l.169-.655c.216-.849.437-1.723.682-2.576a.718.718 0 00-.071-.551.76.76 0 00-.447-.346 66.562 66.562 0 00-3.048-.826l-1.607-.421a.758.758 0 00-.543.067.718.718 0 00-.345.413 20.997 20.997 0 00-1.072 3.94 6.314 6.314 0 00-2.47.577 21.105 21.105 0 00-1.31-1.169l-.265-.23c-.144-.129-.289-.265-.434-.39a6.82 6.82 0 00-1.016-.854c-.9-.561-1.663.39-2.165 1.045a5.7 5.7 0 01-.321.39c-.534.58-1.346 1.457-.623 2.428.234.291.504.552.804.78.183.148.359.305.526.471.238.247.462.508.671.78.128.16.253.316.401.468-.558 1.021-.831 2.486-.265 3.656a78.956 78.956 0 00-3.326 2.015c-.988.643-.972 1.079-.401 2.066l.136.315zm.731-1.434h.06l.049-.039a4.11 4.11 0 01.783-.464 5.45 5.45 0 00.458-.242 73.333 73.333 0 002.129-1.294l.044-.027a.438.438 0 00.442 0 .452.452 0 00.233-.483l-.041-.211c-.237-1.212-.425-2.175-.056-3.266a.62.62 0 00.358-.269.613.613 0 00.036-.604 1.04 1.04 0 00-.089-.164.554.554 0 00-.088-.164 8.348 8.348 0 00-1.478-1.648 3.549 3.549 0 00-.402-.32 2.662 2.662 0 01-.538-.472c-.313-.417-.072-.697.402-1.169l.172-.175.201-.246c.196-.257.409-.5.639-.729.213.182.409.382.586.597.105.105.189.195.237.237l.402.336c.57.499 1.157 1.013 1.779 1.473a.511.511 0 00.213.144.45.45 0 00.454-.031 3.628 3.628 0 012.731-.324.728.728 0 00.563-.081.65.65 0 00.199-.173.605.605 0 00.11-.237 53.73 53.73 0 01.984-3.777c1.105.254 2.205.589 3.238.916-.173.64-.358 1.275-.543 1.914-.1.355-.205.713-.305 1.072a.76.76 0 00.205.745 4.891 4.891 0 011.526 2.728.747.747 0 00.402.491.833.833 0 00.647.082l3.856-1.24c.1 1.049.204 2.023.317 2.974-.956.346-1.956.563-2.972.648a.897.897 0 00-.639.307.922.922 0 00-.177.718 3.43 3.43 0 01-.106 1.729 3.523 3.523 0 01-.938 1.475.627.627 0 00-.097.779 747.791 747.791 0 002.254 3.426 18.117 18.117 0 01-2.623 1.824c-.402-.88-.803-1.761-1.237-2.642a.541.541 0 00-.053-.283.566.566 0 00-.192-.22.603.603 0 00-.647-.253.756.756 0 00-.364.197.718.718 0 00-.198.356 2.778 2.778 0 01-.804.347 3.533 3.533 0 01-2.377-.417.654.654 0 00-.647 0 .581.581 0 00-.305.526 8.354 8.354 0 01-.607 3.789c-.446-.09-.892-.16-1.277-.219a2.11 2.11 0 00-.225 0 2.586 2.586 0 01-.305 0c-.049-.05-.032-.249.056-.596 0-.066.032-.125.04-.167.052-.293.113-.589.173-.889.112-.554.229-1.123.297-1.688a.743.743 0 00.241-.245.706.706 0 00.1-.324.55.55 0 00-.073-.29.581.581 0 00-.216-.213.43.43 0 00-.261-.358.511.511 0 00-.402 0 4.727 4.727 0 01-.743-.534 6.022 6.022 0 01-.478-.507c-.072-.082-.144-.168-.221-.25a.659.659 0 00-.839-.693 9.528 9.528 0 00-2.41.966.607.607 0 00-.329.133l-.482-.737c-.189-.288-.374-.577-.563-.861-.132-.203-.265-.39-.401-.597v-.023c0 .004.016-.066.132-.078v.004z" fill="#000"/><path d="M298.983 383.018a19.045 19.045 0 00-7.196-10.994c-3.122-2.295-7.027-3.383-10.425-2.919-8.191-.043-14.755 3.149-18.017 8.783a14.232 14.232 0 00-1.842 5.999c-.632 4.566-1.008 9.887 1.015 14.723 1.703 4.073 5.169 7.265 9.754 8.981a24.096 24.096 0 007.879 1.405h1.259c2.225.04 4.445-.228 6.596-.794a16.746 16.746 0 009.682-7.583c2.374-4.038 2.914-9.077 1.647-15.406a18.922 18.922 0 00-.352-2.195zm-34.654-2.251c2.158-5.559 7.695-9.192 15.19-9.926a.737.737 0 00.22 0l.26-.04h.096a28.249 28.249 0 014.525 0c1.936.284 3.79.967 5.445 2.005a16.834 16.834 0 016.711 8.282c2.187 6.166.992 14.631-5.524 18.879-5.625 3.669-13.907 3.768-19.7.247-2.91-1.771-5.356-4.987-6.891-9.053-.98-2.601-1.835-6.527-.332-10.394zm32.691 17.902a15.717 15.717 0 01-8.395 7.786c-3.849 1.517-8.91 1.628-13.883.294-4.673-1.251-8.298-3.947-10.201-7.584a17.842 17.842 0 01-1.899-7.504 20.41 20.41 0 005.768 8.636c5.573 4.737 14.739 5.642 21.798 2.144a16.246 16.246 0 008.163-9.37 15.12 15.12 0 01-1.351 5.598zM375.404 287a66.55 66.55 0 007.276-.488.544.544 0 00.143-.034.348.348 0 00.11-.065.2.2 0 00.059-.086.135.135 0 000-.093c-.009-.064-.058-.124-.135-.167a.597.597 0 00-.283-.067c-2.443.04-4.876.212-7.269.514a.445.445 0 00-.236.095c-.056.049-.079.11-.065.169.003.03.015.061.036.088a.3.3 0 00.089.074.597.597 0 00.275.06zm11.591 1.346a.393.393 0 00-.143-.225.51.51 0 00-.27-.108 25.49 25.49 0 00-4.711.287c-.637.08-1.294.16-1.931.216-.479.044-.958.084-1.44.12-.595.047-1.194.094-1.788.15l-.321.034c-.428.04-.857.083-1.289.116-.07 0-.182.024-.317.044-.224.036-.9.143-1.016.06a.466.466 0 00-.235-.141.534.534 0 00-.286.007.382.382 0 00-.187.132.294.294 0 00-.06.202c.077.69.772.76 1.371.76h.386c1.656 0 2.931-.06 4.143-.15l1.159-.083c2.189-.147 4.672-.317 6.703-1.061a.373.373 0 00.188-.145.294.294 0 00.044-.215zm29.482 2.633a.325.325 0 00.115.021.38.38 0 00.18-.049.42.42 0 00.141-.131.431.431 0 00.022-.491c-.387-.602-.804-1.532-.589-2.532a.71.71 0 00-.072-.462.623.623 0 00-.339-.295.48.48 0 00-.386.001.537.537 0 00-.277.289 3.095 3.095 0 00-.086 2.332c.116.305.291.581.514.808.223.228.487.401.777.509z" fill="#000"/><path d="M413.986 366.581a59.668 59.668 0 005.335-6.891 69.042 69.042 0 004.589-7.653.697.697 0 00-.255-.945.722.722 0 00-.981.212c-1.121 1.569-2.18 3.192-3.2 4.769-1.695 2.62-3.452 5.327-5.527 7.755-3.416 3.981-7.147 6.907-11.069 8.692a19.864 19.864 0 01-13.795 1.141c-5.229-1.498-9.739-4.746-13.085-7.405a75.038 75.038 0 01-10.775-10.489c.6-.784 1.157-1.447 1.69-2.043a71.24 71.24 0 012.424-2.515v-.019a79.206 79.206 0 001.699-1.726c2.514 3.103 5.907 5.919 10.665 8.857 3.718 2.294 8.814 5.44 13.434 3.408 4.154-1.828 6.307-6.546 8.037-10.339l.039-.086c.703-1.534 1.369-3.103 2.017-4.621a198.063 198.063 0 012.031-4.644.145.145 0 00.083-.071l.141-.305c.172-.393.349-.746.526-1.118l.047-.098a.146.146 0 000-.11 55.836 55.836 0 011.722-3.287 35.65 35.65 0 014.083-5.793.155.155 0 00.106-.051l.157-.181.251-.282c.188-.204.392-.393.576-.604l.114-.114a.143.143 0 00.039-.102 29.494 29.494 0 015.24-3.997.825.825 0 00.263-1.079.692.692 0 00-.91-.345 18.163 18.163 0 00-5.64 3.832c-1.083-1.569-2.216-3.102-3.322-4.601a244.721 244.721 0 01-1.82-2.482l-4.264-5.884c-.357-.494-.71-.992-1.079-1.522a44.016 44.016 0 00-3.251-4.259.654.654 0 00-.632-.204.622.622 0 000-.122.674.674 0 00-.098-.274c-.118-1.126-.753-2.244-1.267-3.138-.141-.255-.282-.502-.392-.742l-.032-.055c-.074-.137-.149-.274-.219-.411 2.047-3.895 2.475-8.681 1.29-14.631a18.175 18.175 0 00-7.374-13.022c-3.059-2.267-6.892-3.342-10.23-2.883h-.223c-7.923 0-14.278 3.138-17.455 8.676a14.133 14.133 0 00-1.816 6.009c-.612 4.48-.973 9.696 1.004 14.458 1.675 4.028 5.072 7.178 9.571 8.876a23.483 23.483 0 007.735 1.389h1.224a23.654 23.654 0 006.48-.785 25.08 25.08 0 001.2-.392l.357-.141.953.6a62.922 62.922 0 003.628 7.606l.573 1.078a214.943 214.943 0 004.758 8.461c2.353 3.977 4.526 7.393 6.636 10.441-.859 1.82-1.663 3.695-2.439 5.515v.035c-1.075 2.506-2.052 4.762-3.138 6.974-1.087 2.212-2.075 3.922-3.472 5.342-1.647 1.699-3.6 2.499-5.644 2.314-2.436-.215-4.781-1.545-6.856-2.718a45.576 45.576 0 01-6.668-4.589c-1.569-1.294-3.025-2.746-4.441-4.154l-.07-.07c-.416-.412-.832-.828-1.255-1.24l-.044-.039a.528.528 0 00-.568-.2 1.029 1.029 0 00-.859.522c-1.922 1.317-3.558 3.09-4.903 4.648-.644.745-1.177 1.412-1.695 2.043l-.082.11a29.926 29.926 0 00-3.001-1.479 28.571 28.571 0 01-2.993-1.479 4.6 4.6 0 01-.902-.694 4.522 4.522 0 01-.718-.933 4.637 4.637 0 01-.298-.644 4.298 4.298 0 01-.274-1.459.524.524 0 00.39-.104.547.547 0 00.171-.213c.14-.366.212-.754.212-1.146.003-.251.033-.5.09-.745.056-.213.172-.406.333-.557a.653.653 0 001.005.292.66.66 0 00.231-.323c.133-.393.227-.808.321-1.224.063-.275.13-.561.208-.836l.036-.129c.047-.271.161-.526.333-.741 0 .09.035.176.059.263a.559.559 0 00.525.419.589.589 0 00.597-.392c.055-.161.109-.337.168-.518.212-.686.459-1.467.914-1.659a1.004 1.004 0 01.843.126c.417.211.798.487 1.13.815l.083.083.16.18c.198.258.448.471.734.624h.039l.043.125a.651.651 0 00.73.393.583.583 0 00.467-.604c0-.463-.059-.808-.091-1.059 0-.134-.035-.259-.051-.393a6.85 6.85 0 01-.094-1.357c0-.314.047-.647.102-1.02.026-.232.091-.459.192-.67l.067.07a.479.479 0 01.059.149c.045.176.08.354.106.534.051.306.09.682.121 1.09.045.556.045 1.115 0 1.671a7.061 7.061 0 00.553 3.903c.416.906 1.314 2.467 2.644 2.745a.587.587 0 00.577-.223.563.563 0 00.031-.596 5.944 5.944 0 00-.839-1.075 5.643 5.643 0 01-.761-.961 5.308 5.308 0 01-.722-2.667c0-.51.035-.965.071-1.408a9.785 9.785 0 00-.028-2.507c2.828-4.055 6.331-9.413 8.543-15.112a.73.73 0 00-.392-.93.782.782 0 00-1.043.294 224.214 224.214 0 00-2.421 4.315c-1.721 3.091-3.498 6.275-5.491 9.296a1.522 1.522 0 00-1.267-.467c-.926.129-1.282 1.098-1.494 1.679a5.12 5.12 0 00-.224 2.157 4.118 4.118 0 00-2.212-.887c-1.353 0-2.099 1.02-2.354 2.017a1.789 1.789 0 00-1.388.749 4.944 4.944 0 00-.785 1.937 1.738 1.738 0 00-1.023.393 3.244 3.244 0 00-1.11 2.126.622.622 0 00-.142.129c-1.031 1.302-.666 3.361.177 4.915a102.766 102.766 0 01-10.63 9.5 130.72 130.72 0 01-13.359 9.413 119.507 119.507 0 01-7.939 4.409c-1.256.631-2.53 1.228-3.774 1.8l.043-.055a22.07 22.07 0 002.617-4.965.635.635 0 00-.33-.824.695.695 0 00-.926.243 57.768 57.768 0 01-4.773 6.668l-.628.785-.565.282a.989.989 0 00-.455 1.283 1.06 1.06 0 001.056.694c.1.102.231.171.372.196.614.084 1.232.138 1.852.161l.784.043c.952.068 1.898.199 2.832.392 1.603.381 3.167.906 4.676 1.569l.513.204a.622.622 0 00.554-.03.65.65 0 00.231-.217.74.74 0 00-.059-.914c-1.6-1.643-4.122-2.84-6.692-3.189a91.15 91.15 0 0010.238-5.244 115.359 115.359 0 0013.728-9.382c4.248-3.366 8.033-7.264 11.842-11.308a11.188 11.188 0 003.048 1.729l.392.169a37.958 37.958 0 003.53 1.412l-.039.055a.097.097 0 00-.021.059c0 .021.008.042.021.059l.094.117c.228.279.451.557.683.832a72.3 72.3 0 0010.229 10.08c3.444 2.766 8.073 6.174 13.336 7.982a21.917 21.917 0 007.135 1.216 21.277 21.277 0 007.484-1.365c4.385-1.592 8.449-4.456 12.081-8.429zm-17.192-63.542a145.45 145.45 0 00-.745-1.325 16.854 16.854 0 001.961-3.962 15.083 15.083 0 01-1.216 5.299v-.012zm-21.965 8.237c-4.585-1.235-8.139-3.899-10.006-7.492a17.637 17.637 0 01-1.867-7.421 20.12 20.12 0 005.66 8.535c3.824 3.276 9.48 4.766 15.152 3.997l.192.145c.638.437 1.308.824 2.005 1.158.262.137.529.27.784.415.337.181.683.393 1.063.6-3.66 1.283-8.37 1.31-12.971.071l-.012-.008zm15.458-.227a10.574 10.574 0 00-.706-.538 27.53 27.53 0 00-3.53-2.043 13.533 13.533 0 01-.624-.33l-.176-.102a5.661 5.661 0 01-.863-.584c-.047-.035-.087-.075-.13-.114l-.09-.078a3.485 3.485 0 01-.51-.608c-.392-.647-.369-1.153-.318-1.859 0-.248.036-.499.036-.785a.552.552 0 00-.318-.502.622.622 0 00-.643.043 1.842 1.842 0 00-.761 1.263c-.13.902.329 1.859.725 2.491-3.832.231-7.695-.663-10.68-2.495-2.852-1.749-5.256-4.922-6.762-8.939-.965-2.573-1.805-6.444-.33-10.276 2.118-5.492 7.555-9.077 14.905-9.806a.81.81 0 00.22 0l.278-.039h.067a26.977 26.977 0 014.44 0c1.9.279 3.72.954 5.343 1.98a16.58 16.58 0 016.589 8.222c1.683 4.773 1.177 10.198-1.275 14.289a67.58 67.58 0 00-.91-1.495l-.09-.149a2.499 2.499 0 00-1.063-1.118 1.33 1.33 0 00-1.114.032c-.122.064-.23.152-.317.259-.785-.459-2.064-.828-2.848-.185-1.138-.784-2.887-1.176-4.166-.176a.875.875 0 00-.149.149 8.239 8.239 0 00-.349-.561 9.827 9.827 0 001.895-1.09c3.216-2.354 4.503-6.276 3.204-9.736-1.255-3.342-4.707-5.22-9.241-5.028-3.922.172-7.555 1.898-9.688 4.616-.859 1.091-2.24 3.311-1.887 5.884a4.943 4.943 0 003.44 4.162 28.741 28.741 0 00-.106 4.526.728.728 0 00.585.675.631.631 0 00.725-.338c.475-.918.922-1.867 1.361-2.781l.483-1.016c1.463.572 3.011.897 4.581.961.349.84.718 1.73 1.13 2.581.055.114.113.236.168.357.393.828.828 1.761 1.569 2.326a.567.567 0 00.659 0 .632.632 0 00.271-.671 5.944 5.944 0 00-.667-1.478 8.095 8.095 0 01-.369-.695c-.392-.823-.713-1.698-1.031-2.545l-.024-.063c-.023-.059-.043-.118-.066-.172-.102-.279-.212-.557-.322-.836l-.173-.443c-.419-1.075-.855-2.181-1.204-3.283a2.7 2.7 0 01.177.196c.551.71 1.053 1.457 1.502 2.236.228.392.447.784.671 1.176l.086.161c.149.263.298.53.451.785a11.781 11.781 0 001.757 2.443.728.728 0 00.903.091.683.683 0 00.309-.816 6.849 6.849 0 00-.184-.483.663.663 0 00.294-.086 2.083 2.083 0 012.291.122c.343.268.637.593.871.96.228.329.491.631.784.903a.696.696 0 00.761.09.593.593 0 00.33-.592 3.075 3.075 0 00-.432-1.295c.317.038.621.147.89.318.423.309.761.721.981 1.196l.216.361a.628.628 0 00.948.131.577.577 0 00.17-.3 2.03 2.03 0 00.043-.533c.192.329.357.659.463.867.07.137.129.247.168.314l.393.706.447.815c.247.455.49.914.733 1.373.161.306.318.612.471.922.153.31.271.541.392.816l.153.314c.118.247.239.498.357.749s.184.392.282.631c.172.402.363.794.573 1.177a18.121 18.121 0 00-2.977.859l-.569.204a7.937 7.937 0 00-3.228 1.867c-.219-.184-.439-.369-.639-.533l-.012-.004zm-6.448-19.526a.395.395 0 00-.416-.325c-.957.074-1.961.18-2.997.317-.851-.929-1.534-1.333-2.091-1.239a1.025 1.025 0 00-.784.671 1.96 1.96 0 00-.137.921c-.56.07-1.112.193-1.648.369a.467.467 0 00-.298.479.393.393 0 00.334.349c.312.048.628.072.945.07.316-.001.631-.018.945-.051l.13.365.102.286a82.91 82.91 0 00.976 2.672 12.098 12.098 0 01-4.024-.993.683.683 0 00-.91.263c-.255.51-.514 1.016-.785 1.522l-.121.243v-2a.791.791 0 000-.702.527.527 0 00-.392-.51.547.547 0 00-.487.078 3.482 3.482 0 01-2.353-3.138 6.842 6.842 0 011.651-4.628c1.734-2.15 4.538-3.577 7.688-3.922 1.479-.153 6.452-.373 8.378 3.369 1.381 2.691.648 6.083-1.792 8.237a8.425 8.425 0 01-2.369 1.529l-.181-.286a39.03 39.03 0 00-1.494-2.33 14.707 14.707 0 01-.392-.565 25.461 25.461 0 002.263-.541.427.427 0 00.27-.502l-.011-.008zm17.192 37.404c-1.409-2.389-2.856-4.939-4.707-8.269a116.393 116.393 0 01-1.569-2.969l-.13.067.11-.11c-.859-1.643-1.745-3.346-2.722-4.962a12.104 12.104 0 013.008-1.51c.393-.125.906-.243 1.444-.369.893-.187 1.77-.442 2.624-.764a.621.621 0 00.086.357 44.416 44.416 0 003.048 4.589c.392.533.784 1.063 1.145 1.596l4.217 5.946c.557.785 1.11 1.597 1.675 2.416 1.098 1.593 2.236 3.24 3.412 4.833a34.837 34.837 0 00-2.49 3.138 44.91 44.91 0 00-3.268 5.53 346.593 346.593 0 01-5.872-9.511l-.011-.008zm15.325-28.858l-.346.249c-.47.399-.983.698-1.52.886-.41.082-.826.082-1.236 0a5.44 5.44 0 00-.796-.052.392.392 0 00-.264.126.662.662 0 00-.166.307.754.754 0 00-.015.344.615.615 0 00.133.292c.491.531 1.105.807 1.731.777.214 0 .427-.025.637-.076.488-.09.955-.32 1.373-.673a4.29 4.29 0 001.051-1.375.746.746 0 00-.062-.706.42.42 0 00-.248-.162.352.352 0 00-.272.063z" fill="#000"/><path d="M483.841 521.303c-4.409-7.194-7.043-15.6-8.845-22.121-1.679-6.083-3.193-12.308-4.654-18.329a1346.665 1346.665 0 00-2.48-10.091l-.039-.166c-1.739-6.941-3.534-14.115-4.69-21.293-1.189-7.462-1.929-15.451-2.353-25.913-.174-4.303-.25-8.682-.321-12.942-.071-4.26-.15-8.729-.333-13.108h.844a.66.66 0 00.483.173.58.58 0 00.503-.346.594.594 0 00.056-.252c0-.394.027-.788.071-1.343 0-.232.036-.468.055-.704.044-.516.092-1.099.115-1.662.024-.756.06-1.524.099-2.268.028-.606.06-1.209.08-1.815a162.797 162.797 0 00-.69-22.644 140.044 140.044 0 00-5.49-27.531 103.327 103.327 0 00-2.685-7.58c-.151-.393-.301-.756-.46-1.157a75.511 75.511 0 00-.859-2.134 18.68 18.68 0 001.156-3.997 9.592 9.592 0 00-.938-5.906c-2.429-4.926-5.201-7.737-8.247-8.351a21.494 21.494 0 011.937-3.245 43.51 43.51 0 013.01-3.469l.285-.303c2.25-2.421 4.528-5.067 5.467-8.434a14.158 14.158 0 00-1.506-10.926 11.505 11.505 0 00-3.112-3.474 11.59 11.59 0 00-4.243-1.96 11.855 11.855 0 00-6.338.335c-.39-.668-.83-1.307-1.315-1.91a24.656 24.656 0 01-.357-.464 17.902 17.902 0 00-2.947-3.123 12.95 12.95 0 00-6.927-2.788 13.483 13.483 0 00-7.455 1.426c-.653.34-1.27.743-1.842 1.205-1.454-.158-3.062.488-4.167 1.063a7.248 7.248 0 00-3.525 4.256 10.101 10.101 0 00-.321 5.213c.19 1.004.752 3.3 1.945 4.19-.844 1.079-1.814 2.205-3.114 3.61-.446.486-.895.968-1.346 1.445l-.745.788c-.17.181-.349.366-.531.551l-.039.04a12.72 12.72 0 00-1.625 1.897c-.542.855-.546 1.682 0 2.217.205.188.452.324.721.394.091.026.179.058.266.094a1.852 1.852 0 011.03 1.126c.264.837.363 1.717.293 2.591 0 .331-.028.662-.04.997v.047c-.039 1.004-.083 2.035-.047 3.059.083 2.532.649 4.536 1.731 6.127a6.712 6.712 0 002.004 2.002c.804.518 1.71.86 2.658 1.002.445.059.893.088 1.343.087 1.948 0 3.925-.492 5.783-.996a35.705 35.705 0 005.707-2.091 17.765 17.765 0 00-2.459 4.705c-1.28 3.811-.761 8.662 1.541 14.383 1.889 4.725 5.248 8.053 7.969 10.443l.895.787c3.114 2.717 6.053 5.288 8.069 8.828a40.7 40.7 0 013.058 7.205l.249.748c.832 2.469 1.692 5.021 1.933 7.611.01.078.026.154.048.229v.086a.753.753 0 00.757.709c.103 0 .205-.02.301-.059h.114a.15.15 0 00.08-.027.969.969 0 00.443-.233.977.977 0 00.226-.335.984.984 0 00.075-.397c0-.315 0-.638-.039-.965a20.67 20.67 0 00.463-2.567c.091-.732.159-1.465.222-2.173l.044-.445a43.39 43.39 0 00.154-6.915 35.757 35.757 0 00-1.113-6.536 97.093 97.093 0 00-.269-1.027l-.02-.075a33.066 33.066 0 01-1.105-5.41c-.337-3.69 1.081-6.847 2.582-10.194l.309-.689c.151.362.301.732.444 1.11.792 2.048 1.533 4.193 2.301 6.56a128.799 128.799 0 013.613 13.616 151.249 151.249 0 013.081 28.833 154.948 154.948 0 01-.225 10.565v.236l-.095 1.929a18.553 18.553 0 00-.048 1.764c0 .173.024.355.048.559h-.507a.144.144 0 00-.107-.051l-1.189-.024a.175.175 0 00-.107.04h-.42l-1.295-.024c-3.668-.051-7.292.488-10.802 1.008l-13.491 1.996c-3.897.575-8.053 1.138-12.247 1.138h-.155a34.093 34.093 0 01-6.845-.594l-.146-.032a.161.161 0 00-.038-.044.177.177 0 00-.053-.027l-.174-.039-.397-.102c0-.725 0-1.469-.027-2.217a.142.142 0 00-.015-.057.146.146 0 00-.037-.045c-.063-2.776-.23-5.513-.424-8.545-.138-2.15-.293-4.402-.479-6.894l-.079-1.15a46.875 46.875 0 00-.65-5.871.614.614 0 00-.238-.39.627.627 0 00-.443-.122.712.712 0 00-.662.662 48.94 48.94 0 00.175 5.292h.099l-.099.031c.039.536.075 1.067.107 1.599.122 2.114.241 4.43.364 7.087l.131 3.107c.095 2.386.198 4.855.36 7.28.032.445.064.89.099 1.335v.114a.099.099 0 00.016.05c.01.014.024.026.04.033l.111.047.368.154a90.774 90.774 0 00-.265 2.095c-.19 1.575-.373 3.291-.583 5.532-.499 5.299-.851 11.088-1.081 17.718-.396 10.868-.792 23.184 1.161 35.012.827 4.985 1.98 9.981 3.097 14.816l5.763 25.11c2.238 9.772 4.556 19.88 6.861 29.81.515 2.205 1.343 4.591 3.565 5.575a5.783 5.783 0 002.377.445h.162c.305 2.146.646 4.331.974 6.418l.214 1.347a141.493 141.493 0 00-10.045 3.292 100.14 100.14 0 00-4.987 1.968 10.64 10.64 0 01-.626.248c-1.117.43-2.507.961-3.002 2.138-.555 1.323.376 2.56 1.584 3.099a4.595 4.595 0 001.894.37 12.505 12.505 0 002.321-.287c3.79-.752 7.692-.933 11.051-1.044 4.017-.13 8.172-.263 12.2-1.334a.87.87 0 00.642-.843c-.072-3.8-.182-7.568-.329-11.194l-.059-1.52a250.533 250.533 0 00-.198-4.331c4.88-.831 9.736-1.78 14.445-2.819a.755.755 0 00.484-.355.822.822 0 00.091-.626c-.198-.685-.392-1.371-.583-2.059 1.189-.228 2.345-.465 3.49-.701.071.327.147.658.226.988.194.835.396 1.697.551 2.556.356 2.024.792 4.091 1.287 6.146-.61.244-1.216.48-1.826.717l-.119.047c-3.466 1.354-7.051 2.756-10.358 4.725a39.528 39.528 0 00-2.773 1.807l-.15.099c-.84.598-1.787 1.279-2.266 2.272a2.132 2.132 0 00.119 2.26 2.955 2.955 0 002.404 1.138c.116.006.233.006.349 0 .894-.126 1.774-.34 2.626-.638.301-.091.602-.185.895-.268l3.961-1.126a1301.36 1301.36 0 017.922-2.217c2.698-.748 5.336-1.48 7.95-2.229.875-.248 1.782-.508 2.274-1.437.491-.929.32-1.945.186-2.862 0-.118-.036-.233-.052-.351a100.432 100.432 0 00-2.772-13.997c3.85-.941 7.589-1.941 11.114-2.977a.86.86 0 00.543-.504.78.78 0 00-.115-.732zm-57.102-221.548c-2.147 1.882-5.09 4.461-3.696 7.808a5.62 5.62 0 002.682 2.791 40.018 40.018 0 01-3.351 1.441 35.561 35.561 0 01-6.152 1.839c-2.325.394-4.282-.394-5.51-2.232-1.228-1.839-1.445-4.202-1.465-6.222 0-.492 0-1.015.035-1.515.06-1.442.115-2.93-.348-4.332a3.855 3.855 0 00-1.093-1.74 2.939 2.939 0 00-.721-.453 2.284 2.284 0 00-.297-.106.864.864 0 01-.25-.106s-.04-.087.063-.394c.109-.194.251-.367.42-.512l.19-.201c.678-.752 1.363-1.492 2.068-2.248.705-.756 1.386-1.496 2.068-2.256a55.522 55.522 0 002.586-3.06.153.153 0 00.04-.031l.301-.394c.051-.063.099-.13.146-.193l.258-.342c.119-.162.234-.323.349-.489l.281-.393.317-.481c.039-.063.079-.122.115-.185v-.023l.142-.229c.123-.193.242-.394.353-.59l.118-.205a.307.307 0 01.028-.047c0-.036.04-.067.056-.103l.118-.208a21.007 21.007 0 001.537 3.464 44.735 44.735 0 002.975 4.584c.079.114.162.236.242.358.285.477.652.901 1.085 1.252.662.473 1.371.394 2.06.327l.297-.028c2.551-.212 3.989.335 4.278 1.626.34 1.485-1.264 2.895-2.325 3.828zm44.759 224.316a46.8 46.8 0 01-1.239.307c-1.292.311-2.603.614-3.894.898-1.145.251-2.321.5-3.589.752l-.855.165-.194.039c-1.11.217-2.282.437-3.748.705a382.455 382.455 0 01-9.744-46.249 377.136 377.136 0 01-3.787-51.309c-.043-4.591-.059-9.091.191-13.651.289-5.319 1.228-9.359 2.959-12.722a.758.758 0 00.052-.584.754.754 0 00-.385-.443.725.725 0 00-.99.287c-3.874 6.938-3.878 14.935-3.886 22.668v.279c0 8.871.309 17.656.938 26.113a402.278 402.278 0 007.067 51.16 376.34 376.34 0 006.033 24.884l.055.209c.087.319.178.634.265.953l.052.169c.143.504.285 1.012.432 1.52a272.74 272.74 0 01-13.733 2.666l-.218.035-.761.122-.855.134-.856.138c-1.188.185-2.448.366-3.719.547l-.349.047h-.099l-.744.111h-.095l-.587.086c-.396.055-.792.107-1.188.15-.198.023-.396.051-.594.067a9.717 9.717 0 01-.61.031h-.464c-2.198 0-3.537-1.275-4.333-4.146-1.062-3.827-1.929-7.8-2.773-11.659-.348-1.575-.697-3.189-1.057-4.772a2976.378 2976.378 0 01-3.815-16.931 685.176 685.176 0 00-2.773-11.887v-.075c-1.699-7.178-3.454-14.596-4.856-21.955-2.174-11.418-2.067-23.05-1.77-33.98.198-7.371.515-13.454.998-19.148.234-2.776.562-5.768 1.026-9.371a30.17 30.17 0 003.077.492h.06c1.622.188 3.254.28 4.888.276a67.905 67.905 0 008.369-.587c3.276-.394 6.588-.898 9.792-1.374l3.042-.453c.991-.142 1.981-.303 2.967-.46 3.375-.54 6.865-1.099 10.299-1.13 1.022 0 2.067 0 3.022.043a544.583 544.583 0 00.091 23.168c.25 10.048.856 18.269 1.905 25.877 1.141 8.268 3.169 16.501 5.15 24.451l.36 1.461c.571 2.303 1.129 4.607 1.696 6.93 1.445 5.949 2.943 12.1 4.563 18.112a129.826 129.826 0 004.107 12.848 70.41 70.41 0 005.502 11.092 179.2 179.2 0 01-10.409 2.894h.011z" fill="#000"/><path d="M413.998 294c.574 0 1.002-.87 1.002-2s-.428-2-1.002-2c-.574 0-.998.87-.998 2s.428 2 .998 2zm-235.69 109.935a.519.519 0 00.459.019.502.502 0 00.173-.139c1.102-1.524 2.669-2.526 4.394-2.811a.849.849 0 00.499-.368 1.05 1.05 0 00.164-.646.986.986 0 00-.176-.617.795.795 0 00-.494-.329c-1.281-.184-2.575.212-3.598 1.101-.463.38-.854.861-1.15 1.414a5.281 5.281 0 00-.576 1.805.613.613 0 00.067.343.514.514 0 00.238.228zm5.374 8.982a.627.627 0 00-.506.034 1.845 1.845 0 01-.736.213 1.96 1.96 0 01-.775-.093c-.457-.185-.803-.503-.964-.886a.347.347 0 00-.168-.146.48.48 0 00-.247-.036.374.374 0 00-.207.094.24.24 0 00-.079.177c.017.315.142.621.36.886s.523.48.882.621c.346.146.734.221 1.128.219.486.001.962-.106 1.374-.308a.473.473 0 00.196-.163.345.345 0 00.059-.218.396.396 0 00-.091-.231.561.561 0 00-.226-.163zm-31.258 25.961c.436-.883.768-1.819.99-2.788.128-.471.251-.945.362-1.424.056-.242.108-.479.151-.721.074-.237.092-.49.052-.737a.306.306 0 00-.075-.125.273.273 0 00-.386-.006 1.46 1.46 0 00-.307.674c-.069.22-.132.44-.19.661-.14.487-.267.974-.398 1.466a16.68 16.68 0 00-.621 2.899c-.035.241.334.305.422.101zm2.767 1.091a.357.357 0 00.306-.005.313.313 0 00.119-.1c.123-.178.234-.364.344-.551.111-.186.2-.333.311-.492.213-.314.425-.664.668-1.102.063-.12.136-.24.204-.361.368-.6.654-1.24.85-1.904a.357.357 0 00-.041-.247.41.41 0 00-.197-.172.357.357 0 00-.425.089 8.444 8.444 0 00-1.136 1.877l-.157.322a15.79 15.79 0 00-.506 1.11c-.072.182-.157.364-.238.543-.081.178-.196.427-.277.648a.25.25 0 00.012.204.292.292 0 00.163.141zm3.14 2.031c.056 0 .11-.015.161-.045.143-.095.269-.229.369-.393l.035-.05c.115-.162.233-.325.348-.496.258-.398.464-.737.645-1.062.181-.325.38-.682.561-1.034l.053-.095c.199-.344.359-.722.477-1.124a.65.65 0 00.002-.313.527.527 0 00-.138-.256.388.388 0 00-.236-.129.353.353 0 00-.252.066.662.662 0 00-.15.149l-.048.072a.323.323 0 00-.1.092.416.416 0 00-.064.134 6.805 6.805 0 00-.296.501l-.126.226c-.181.32-.349.636-.54.962-.192.325-.398.754-.54 1.047-.088.172-.168.353-.255.538l-.038.086c-.095.173-.16.37-.192.578a.57.57 0 00.016.25.46.46 0 00.116.201.288.288 0 00.192.095zm2.016 1.734a2.506 2.506 0 00-.347.94.33.33 0 00.157.283.293.293 0 00.31-.001c.23-.179.429-.398.588-.649.187-.239.392-.446.579-.686.37-.47.739-.94 1.118-1.409.378-.47.77-.893 1.171-1.326.209-.225.445-.437.632-.681.187-.244.445-.47.445-.841a.39.39 0 00-.073-.228.361.361 0 00-.19-.134 1.127 1.127 0 00-.863.329 5.657 5.657 0 00-.744.667c-.438.434-.854.892-1.247 1.372a13.792 13.792 0 00-1.135 1.561c-.147.249-.263.526-.401.803z" fill="#000"/><path d="M278.182 536.361a8.92 8.92 0 00-3.513-1.864c-2.074-.598-4.255-.641-6.365-.689-.607 0-1.21-.023-1.806-.047a84.208 84.208 0 01-9.601-.963c-1.503-.24-3.1-.504-4.653-.893a7.7 7.7 0 01-2.654-1.129 2.52 2.52 0 00.237-.225c.966-1.066.729-2.218.303-3.312a7.558 7.558 0 001.144-.81c2.918-2.514 1.841-6.518.035-9.185-.642-.948-1.38-1.845-2.094-2.714a48.933 48.933 0 01-1.514-1.908c-1.163-1.574-2.271-3.198-3.352-4.799l-.051-.079-1.348-2.006c-1.806-2.687-3.671-5.468-5.592-8.151-3.884-5.42-8.706-11.518-15.031-15.656a31.261 31.261 0 00-12.244-4.822 68.796 68.796 0 00-.095-1.255c-.347-4.53-.924-9.04-1.727-13.512-.035-.193-.071-.394-.11-.575l.031-.019c.371-.347.716-.719 1.034-1.114.141-.173.28-.35.418-.539h.035l.103-.137c.212-.284.418-.575.626-.862l.217-.299c.186-.255.367-.503.556-.747l.675-.834h-.032c.458-.586.915-1.18 1.38-1.751l.138-.173.359-.444.055-.071c2.047-2.545 4.03-4.28 6.069-5.295a12.107 12.107 0 017.961-.94l.276.059c.61.095 1.199.292 1.743.582l.071.055.063.056c.111.098.142.169.134.196-.027.114-.331.244-.903.394h-.098l-.194.051c-.65.185-1.32.35-1.971.511l-1.207.307c-2.307-1.393-4.921-1.4-6.853 0a.574.574 0 00-.166.708.495.495 0 00.6.252l.094-.024c1.148-.319 2.232-.617 3.407-.48.443.046.88.141 1.302.283l.942.437h.099c.499.281.957.631 1.36 1.039a.46.46 0 00.055.062l.099.103.079.09.071.087.272.346c.326.434.58.92.749 1.436.189.575.255 1.183.193 1.786a3.656 3.656 0 01-.371 1.542 10.352 10.352 0 00-.181-1.094 6.155 6.155 0 00-.158-.582l-.043-.142a2.492 2.492 0 00-.071-.204v-.059l-.028-.024a3.254 3.254 0 00-.106-.275 6.035 6.035 0 00-.903-1.538l-.071-.087a4.701 4.701 0 00-.394-.429 4.469 4.469 0 00-1.889-1.056 4.468 4.468 0 00-2.165-.041 10.872 10.872 0 00-5.312 2.576.428.428 0 00-.019.587c.03.042.068.079.113.106a.38.38 0 00.146.055.386.386 0 00.297-.071c2.476-1.687 5.295-3.214 7.46-1.711.2.14.385.299.552.476l.028.031.126.134.091.118.102.13a5.15 5.15 0 01.761 1.573c.07.228.128.459.174.693 0 .055 0 .106.027.169.028.161.048.315.064.48.053.515.074 1.032.063 1.55v.157c.013.209-.009.42-.067.621-.13.327-.284.394-.426.394h-.04a2.229 2.229 0 01-.244-.02c-.04-.255-.087-.503-.134-.759a6.55 6.55 0 00-.134-.637 6.428 6.428 0 00-.174-.61 6.537 6.537 0 00-.26-.673 5.456 5.456 0 00-.871-1.369c-.083-.098-.174-.192-.269-.291l-.173-.153a3.635 3.635 0 00-2.859-.897 4.204 4.204 0 00-2.91 1.81 4.86 4.86 0 00-.509.948.435.435 0 00.209.57.54.54 0 00.69-.153 4.366 4.366 0 01.596-.705c.544-.566 1.971-1.782 3.549-.9.151.083.295.179.429.287.143.119.275.251.395.393.318.376.563.806.725 1.271.024.063.048.13.067.196.02.067.036.114.052.17l.082.295c.024.094.048.188.067.295.02.106.048.216.064.326.055.327.09.645.114.952v.169l.031.468c.032.287.06.586.064.885v.055c0 .618-.119 1.011-.343 1.137a.394.394 0 01-.277.067.262.262 0 01-.138-.141 3.113 3.113 0 01-.185-1.098c0-.138 0-.248-.027-.319a2.425 2.425 0 00-.3-.877 1.775 1.775 0 00-.371-.452l-.031-.032a1.546 1.546 0 00-.659-.334 1.762 1.762 0 00-.923 0 2.278 2.278 0 00-1.013.57 3.59 3.59 0 00-.907 2.191v.111c0 .09-.02.184-.028.271v.134c-.039.369-.082.716-.138 1.05l.194.035-.209.028c-.03.19-.071.377-.123.562a2.817 2.817 0 01-1.616 1.967l-.217.107-.54.247c-.776.342-1.532.724-2.268 1.145h-.023c-.347.203-.681.427-1.002.669a11.727 11.727 0 00-3.009 3.265.42.42 0 00.119.562.455.455 0 00.264.091.398.398 0 00.304-.138 21.337 21.337 0 011.553-1.573 15.855 15.855 0 011.782-1.436c.482-.328.989-.615 1.519-.858h.043l.852-.393c.504-.228 1.025-.46 1.534-.732a4.102 4.102 0 001.971-2.529l1.491 1.105.138.106 1.833-1.931c.789.153 1.554-.468 1.83-1.18.12-.316.195-.647.225-.984l.993-1.046.095-.102c.244-.153.446-.364.588-.614l16.518-17.359.079-.083c3.19-3.316 6.951-7.226 10.686-11.057.043-.051.094-.099.146-.15.441-.456.884-.908 1.328-1.357l.111-.11v-.083c0-.421-.036-.845-.059-1.262v-.189l-.083-1.554-.394-.244-.907-.554a4.292 4.292 0 01-.229-.142.172.172 0 01-.047-.028c-3.092-1.872-5.868-3.461-8.49-4.854-2.394-1.274-4.917-2.36-7.358-3.43l-1.274-.559a68.308 68.308 0 01-3.115-1.459l-1.609-.822-.828-.437a77.364 77.364 0 01-.997-.503l-.312-.161-.883.751-1.353 1.18c-5.355 4.618-11.08 9.799-17.508 15.825-2.76.342-9.428 1.621-13.336 6.239-1.88 2.219-2.937 4.929-3.647 7.041a107.782 107.782 0 00-1.183 3.839l-.118.394c-.122.393-.249.818-.395 1.231a18.23 18.23 0 00-.394 1.326l-1.207-.468-.268-.107a.692.692 0 00-.871.441 276.75 276.75 0 00-5.647 15.782 270.046 270.046 0 00-3.943 13.339l-.879.838c-.722.696-1.779 1.723-2.855 2.812l-.079-1.384a332.939 332.939 0 00-.939-12.71l-.114-1.18c-.343-3.658-.698-7.439-1.27-11.124l-.138-.889c-.524-3.376-1.056-6.845-3-9.669a9.404 9.404 0 00-3.549-3.116c.536-.814 1.029-1.573 1.498-2.297.083-.134.182-.276.292-.437.509-.735 1.14-1.644.899-2.635-.221-.905-.994-1.468-1.68-1.967l-.091-.067a22.916 22.916 0 014.673-4.744 47.43 47.43 0 015.469-3.363 44.579 44.579 0 005.84-3.639 9.307 9.307 0 003.226-4.229c.615-1.793.288-3.595-.032-5.346a48.84 48.84 0 01-.209-1.227 7.959 7.959 0 01.02-3.049c.229-.967.789-1.695 1.542-2.49.548-.574 1.068-1.117 1.159-2.025.091-.909-.284-1.759-.651-2.542l-.149-.318a16.491 16.491 0 01-1.246-4.13 14.844 14.844 0 002.129-1.779c1.017-.983 2.082-2.218 2.299-3.957a8.746 8.746 0 00-.395-3.69c.355-.366.667-.771.931-1.207 1.877-3.124.339-6.786-2.062-8.654-2.615-2.03-6.581-2.294-10.611-.7a19.33 19.33 0 00-5.249 3.095c-1.908-1.022-4.278-1.239-5.942-1.239h-.04a14.469 14.469 0 00-7.748 2.215 14.661 14.661 0 00-5.438 6.392 18.858 18.858 0 00-5.441 6.109c-2.264 3.993-3.218 9.02-2.839 14.948.187 2.75.537 5.486 1.048 8.194l.107.59.099.566c.354 2.007.717 4.08 1.553 5.968a9.24 9.24 0 00.844 1.495.793.793 0 00-.584.078.842.842 0 00-.425.527 33.674 33.674 0 00-1.038 6.243c-6.758 3.438-12.728 9.197-17.744 17.119-5.288 8.387-8.71 17.143-10.177 26.045-.276 1.692-.631 3.434-.974 5.134-.789 3.906-1.609 7.946-1.613 11.923a.739.739 0 000 .133 135.913 135.913 0 00-1.136 9.536 141.76 141.76 0 00-.473 9.657c-.035 2.517 0 5.09.11 7.643.036.806.095 1.617.154 2.399.153 1.627.203 3.261.15 4.894a11.482 11.482 0 01-.722 3.328c-.26.72-.477 1.648.178 2.458.789.96 2.07 1.07 2.973 1.07.371 0 .726-.023 1.069-.047a12.698 12.698 0 002.653 9.889c3.719 4.544 9.914 5.028 15.375 5.452h.174c9.932.787 19.093 1.153 27.996 1.153 4.732 0 9.417-.11 13.963-.327 7.654-.369 14.464-.924 20.82-1.699 3.632-.444 6.704-.853 9.772-1.412 2.31-.417 5.319-1.07 8.119-2.451a15.226 15.226 0 005.812-5.001 15.182 15.182 0 002.63-7.193 14.128 14.128 0 00-.138-3.753 10.303 10.303 0 002.027-.043 22.224 22.224 0 002.173-.393 3.065 3.065 0 002.492 1.837c.433.049.871.049 1.305 0 .106.999.213 1.943.331 2.863l.043.35c.15 1.259.304 2.561.903 3.745 1.337 2.636 4.409 2.703 6.877 2.754h.789c3.068.098 6.55.212 9.961.303 3.706.094 6.963.157 9.968.196h.323c1.637 0 3.494.04 5.312.04 1.557 0 2.938 0 4.231-.047a8.692 8.692 0 003.572-.697 3.509 3.509 0 002.043-3.103 4.989 4.989 0 00-1.818-3.608zM227.618 451.5l-.417.464c-.111-.11-.221-.224-.34-.33.261-.059.533-.126.821-.201l-.064.067zm-19.802 9.071a.158.158 0 00-.075 0l-.237.122c-.248.134-.501.28-.788.453-.395.236-.769.487-1.183.751-.28.185-.552.37-.828.543l-1.321.853.603-1.84c.165-.492.335-1 .481-1.519.264-.94.118-1.644-.426-2.093a2.799 2.799 0 00-.789-.42l-1.754-.681c.09-.338.181-.677.28-1.003v-.02l6.735 3.741c-.256.358-.492.73-.706 1.113h.008zm4.278-5.507c-.449.543-.895 1.082-1.329 1.629l-4.337-2.109a141.075 141.075 0 00-3.711-2.147l-2.054-1.157a55.346 55.346 0 01-2.319-1.373c-.213-.13-.422-.263-.631-.393a47.262 47.262 0 00-1.269-.63l-.273-.133a623.017 623.017 0 004.097-3.84 38.653 38.653 0 002.674-.566 579.142 579.142 0 00-3.131 3.147l-.071.071.103.633.086.043c4.176 2.187 8.009 4.382 12.224 6.809l-.059.016zm14.476-7.891c-4.732-.574-9.397 1.645-13.127 6.251-.233.287-.47.578-.71.865-3.624-2.088-7.705-4.441-11.98-6.707a375.713 375.713 0 013.687-3.674 41.771 41.771 0 002.11-.664l.343-.107c.875-.275 1.972-.613 2.346-1.4a1.534 1.534 0 000-1.251 1.985 1.985 0 00-.501-.751c6.731-6.463 14.034-13.099 22.315-20.278 6.309 3.213 12.244 6.25 18.419 9.787a726.609 726.609 0 00-3.786 3.654c-5.997 5.857-10.816 10.759-15.15 15.416-1.139-.732-3.312-1.054-3.974-1.141h.008zm-10.336-17.229a574.254 574.254 0 0114.799-13.119c.99.511 2.09 1.078 2.323 1.18.572.283 1.183.586 1.916.921 1.033.487 2.086.963 3.107 1.424 1.72.786 3.502 1.573 5.206 2.446 3.229 1.66 6.506 3.541 10.007 5.736l-1.711 1.821c-1.147 1.223-2.33 2.49-3.509 3.721a1239.144 1239.144 0 01-10.28 10.621c-2.591 2.647-5.272 5.295-7.863 7.867l-1.577 1.542a6.684 6.684 0 00-.832-1.412c.512-.574 1.029-1.148 1.545-1.715.757-.193 1.578-.456 1.838-1.101.063-.141.094-.293.091-.447a1.043 1.043 0 00-.111-.442c5.505-5.928 11.668-12.147 19.472-19.621a.524.524 0 00.146-.394.493.493 0 00-.245-.307c-5.871-3.394-11.53-6.238-17.516-9.248l-1.758-.885a.45.45 0 00-.501.063c-7.354 6.196-14.791 12.981-22.741 20.691a4.68 4.68 0 00-1.522-.295c3.163-2.982 6.436-6.062 9.709-9.047h.007zm-21.561 17.599c.789-2.51 1.747-5.114 3.427-7.254 1.47-1.86 3.58-3.32 6.265-4.327a37.61 37.61 0 014.086-1.18l.394-.102a656.804 656.804 0 00-3.766 3.572c-.3.275-.591.554-.883.838-1.952.2-3.411.755-4.338 1.652a.452.452 0 00.442.786c.442-.125.875-.267 1.297-.393.422-.126.943-.311 1.42-.437l.079-.023.106-.024.414-.094.115-.024.414-.071h.098l.13-.019.422-.055.28-.036a6.238 6.238 0 012.279.063h.032c.09.028.178.064.26.11l.051.028h.024a.65.65 0 01.308.44c.082.445-.556.665-1.27.87l-.323.098-.789.256-.505.13-.292.09h-.051l-.445.142c-.395.118-1.12.271-1.889.432l-.3.063-.702.154c-.743.142-1.474.338-2.188.586l-.087.039a5.42 5.42 0 00-.607.311.458.458 0 00-.197.452 485.066 485.066 0 00-3.593 3.497l-.213.209-.22.22c.102-.318.201-.665.307-.999h.008zm-.789 2.695c.071-.256.146-.52.217-.787l.02 2.014 6.27 3.481a11.53 11.53 0 00-.343 1.235l-.182-.07-6.916-2.687c.363-1.046.65-2.132.938-3.186h-.004zm-11.644 27.638a295.647 295.647 0 015.126-15.826 316.254 316.254 0 013.021-8.138l1.08.421.789.299.063.027 5.915 2.293 4.211 1.641.217.078c.19.056.371.139.536.248.024 0 .095.075.028.394-.111.461-.254.914-.426 1.357l-.201.574a334.892 334.892 0 01-1.136 3.379l-.741.5a187.05 187.05 0 00-7.721 5.507 159.398 159.398 0 00-11.4 9.559c.193-.764.414-1.538.643-2.313h-.004zm-21.751-46.811c3.549-2.73 3.731-7.812 2.078-11.254a5.12 5.12 0 00.742-1.291 6.734 6.734 0 00.43-3.276c1.395-.048 2.551-.822 3.702-1.684a.673.673 0 00-.215-1.195.637.637 0 00-.475.07l-.079.043c-1.009.535-2.393 1.267-3.549 1.07h-.078c-.179-.036-.35-.1-.509-.189l-.272-.188a2.822 2.822 0 01-.86-2.361c.134-1.215 1.159-2.077 2.07-2.478 1.227-.547 2.473-.393 3.79-.255 1.676.184 3.154-.15 4.018-.921a3.08 3.08 0 001.001-2.36 8.141 8.141 0 00-.118-1.322l-.023-.173c0-.142-.04-.287-.056-.429a17.325 17.325 0 01-.063-.755l-.019-.256c-.028-.393-.056-.786-.103-1.18a7.274 7.274 0 00-.394-1.715 5.644 5.644 0 00-.576-1.125l-.091-.145a.349.349 0 01-.083-.166 7.1 7.1 0 002.504.11l.347-.023a28.519 28.519 0 003.206-.394 46.535 46.535 0 006.467-1.616l.982-.311c.394-.13.82-.26 1.238-.393v.133c-.027.394-.043.787-.055 1.18v1.617c0 .375.016.741.047 1.098v.196c.024.343.055.681.095 1.011a.69.69 0 010 .091c0 .043 0 .082.02.122.026.22.057.436.094.649v.047a.25.25 0 010 .067l.032.189c0 .039 0 .071.019.106.02.035 0 .031 0 .043l.036.236c.002.024.01.047.024.067.067.334.142.669.224.995a14.778 14.778 0 001.061 2.903c.083.166.174.331.264.504.58 1.082 1.124 2.1.28 2.919a6.962 6.962 0 01-.658.542 4.03 4.03 0 00-1.254 1.334 6.262 6.262 0 00-.674 2.506 14.831 14.831 0 00.307 3.682c.188.945.297 1.904.327 2.867 0 1.92-.899 3.592-2.839 5.268-1.841 1.573-4.042 2.785-6.171 3.933-1.777.92-3.49 1.96-5.126 3.112a24.33 24.33 0 00-4.964 4.913 48.439 48.439 0 00-2.114-1.404 60.291 60.291 0 00-6.546-3.576 6.71 6.71 0 002.563-1.184l-.004-.004zm-40.914 104.938c-.947 0-1.578-.137-1.858-.444a.692.692 0 01-.142-.582c.056-.257.143-.505.261-.74.079-.166.149-.337.209-.511.202-.601.343-1.22.422-1.849a25.685 25.685 0 000-5.216c-.032-.433-.06-.865-.087-1.294a137.86 137.86 0 01-.209-7.061 136.889 136.889 0 011.621-21.466l.335-2.061c.236-2.188.631-4.442.978-6.597l.031-.185c.118-.692.234-1.383.347-2.073.276-1.711.469-3.013.619-4.229a57.92 57.92 0 013.549-14.409c3.49-8.815 7.93-16.093 13.194-21.635a38.557 38.557 0 0111.017-8.174.82.82 0 00.434-.704c.117-1.842.395-3.671.832-5.464a60.048 60.048 0 0111.041 5.07c1.301.767 2.567 1.523 3.758 2.36l.051.036c.213.145.422.295.631.448l.036.028c.295.216.583.44.855.657l.06.047c.145.118.496.393.508.551a2.01 2.01 0 01-.323.881c-.178.326-.394.657-.619.983-.122.173-.241.35-.351.527-.442.693-.877 1.388-1.305 2.085-1.022-.283-2.832-.566-4.216.394a.837.837 0 00-.291.952.712.712 0 00.733.468c1.258-.091 2.342-.166 3.419.169.07.039.146.065.225.078.2.073.396.157.587.252a7.563 7.563 0 013.155 3.076c1.439 2.534 1.845 5.574 2.239 8.513v.063c.067.495.134.983.205 1.467l.071.507c.537 3.655 1.089 7.431 1.455 11.18a281.064 281.064 0 011.069 15.385 76.32 76.32 0 00-2.788 3.103.759.759 0 00.075 1.066.698.698 0 00.509.195.704.704 0 00.497-.226l2.369-2.396 1.183-1.207c2.824-2.833 6.199-6.149 9.819-9.276a163.48 163.48 0 0114.87-11.431l.599-.394.745-.495a97.153 97.153 0 013.104-1.967c.422-.264.879-.523 1.317-.787l.363-.208c.67 5.224 1.119 9.606 1.411 13.767.024.347.052.693.071 1.039.02.346.044.696.067 1.07.166 2.903.213 5.735.233 8.139-1.877 1.109-3.699 2.254-5.714 3.52l-.213.134c-2.405 1.515-4.893 3.08-7.287 4.72-2.393 1.641-4.684 3.328-6.932 4.992l-.205.15c-1.818 1.345-4.27 3.013-7.098 3.981a23.163 23.163 0 01-7.74 1.219c-.56 0-1.112-.031-1.637-.075a26.534 26.534 0 01-1.076-.11 25.072 25.072 0 01-1.183-.181 13.773 13.773 0 01-3.73-1.152 10.637 10.637 0 01-2.985-2.392 25.412 25.412 0 01-2.264-2.856 32.133 32.133 0 01-3.399-6.51 47.169 47.169 0 01-2.038-7.128 87.294 87.294 0 01-1.302-7.399c-.083-.614-.146-1.243-.209-1.857a.59.59 0 00-.639-.523.54.54 0 00-.5.574c.031.736.067 1.389.106 1.995-.15-.335-.296-.665-.445-.992l-.182-.393a.573.573 0 00-.753-.299.61.61 0 00-.394.751 29.31 29.31 0 001.116 3.124c.244.578.461 1.042.674 1.467.075.149.162.291.248.445.044.066.083.133.123.204a45.946 45.946 0 002.026 8.981 35.494 35.494 0 003.19 7.002 29.87 29.87 0 002.213 3.178 18.907 18.907 0 002.791 2.935c1.775 1.443 4.07 2.305 7.212 2.714a9.174 9.174 0 001.629 4.822 9.031 9.031 0 002.575 2.207 14.16 14.16 0 011.668 1.212c.489.436.954 1.093.887 1.573a.853.853 0 01-.544.622 7.329 7.329 0 01-1.254.444 8.285 8.285 0 00-1.36.488c-.835.438-1.633.941-2.386 1.507a14.02 14.02 0 01-2.882 1.707c-1.395.5-2.831.88-4.291 1.137h-.047c-.615.126-1.25.255-1.865.393a103 103 0 00-12.394 3.934l-2.231.845c-7.098 2.695-14.464 5.48-22.004 6.731a56.814 56.814 0 01-3.757.504c-.351.031-.698.059-1.053.078-.497.067-.998.095-1.455.102zm128.773-6.51a.142.142 0 00-.071 0l-.158.075a4.036 4.036 0 01-.97.267l-.248.044c-1.154.194-2.307.393-3.458.598l-6.704 1.18c-.071 0-.138.023-.197.035l-.915.169a.133.133 0 00-.051.02.148.148 0 00-.04.039c-.654.083-1.344.083-1.813-.322a1.283 1.283 0 01-.229-.248l.505-.118a78.244 78.244 0 011.806-.429l.694-.153c1.865-.394 3.793-.83 5.713-1.22.501-.102 1.014-.192 1.554-.291h.043a26.595 26.595 0 004.689-1.133c.06.17.108.343.142.52a.886.886 0 01-.312.967h.02zm-.091-2.852c-.658.261-1.334.476-2.023.642-1.971.507-4.037.896-5.788 1.211-.887.161-1.79.346-2.666.527-1.274.26-2.591.531-3.896.728-.355.055-.733.122-1.06.181l-.178.031-.56.103-.26.051a17.638 17.638 0 01-4.519.393 16.13 16.13 0 00-5.635-8.084 22.602 22.602 0 00-7.969-3.933c-2.133-3.478-4.338-7.081-7.887-9.441-2.464-1.652-5.228-2.313-7.779-1.861-2.319.394-4.646 1.818-6.917 4.182a54.606 54.606 0 00-3.943 4.791c-.477.625-.966 1.271-1.475 1.912h-.678a49.213 49.213 0 01-5.103-.394.807.807 0 00-.699 1.266.806.806 0 00.479.331c1.605.251 3.225.395 4.85.429h1.806c2.87-.027 5.769-.275 8.572-.515 5.797-.5 11.79-1.011 17.406.393.619.162 1.183.327 1.739.512.861.284 1.705.619 2.527 1.003 4.361 2.03 7.725 5.586 8.999 9.519.106.323.197.657.276.995l.067.288a13.397 13.397 0 01-4.653 12.949c-4.074 3.226-9.736 3.989-14.732 4.666l-.229.031-1.049.142a254.353 254.353 0 01-19.479 1.904c-11.806.712-24.61.633-39.133-.232a391.612 391.612 0 01-9.487-.677c-2.65-.224-5.453-.523-8.02-1.503a10.837 10.837 0 01-5.462-4.416 10.803 10.803 0 01-1.601-6.83c.02-.189.052-.393.079-.563 8.829-.786 17.461-4.13 25.083-7.08a120.302 120.302 0 0112.93-4.284c1.317-.346 2.669-.633 3.974-.913h.06c.883-.188 1.802-.393 2.701-.598a16.102 16.102 0 005.8-2.753 10.605 10.605 0 013.044-1.664l.328-.094c.753-.217 1.604-.461 2.168-1.137a2.146 2.146 0 00.525-1.723c-.213-1.519-1.925-2.801-2.445-3.147a25.42 25.42 0 00-.714-.472 8.606 8.606 0 01-2.034-1.613 6.132 6.132 0 01-1.262-2.675c-.1-.454-.168-.914-.205-1.377a25.217 25.217 0 007.165-.59 23.73 23.73 0 007.657-3.312c1.14-.747 2.232-1.573 3.285-2.36l.288-.22a164.783 164.783 0 013.651-2.66c2.524-1.785 5.095-3.493 7.512-5.113 1.4-.925 2.839-1.83 4.255-2.719 1.053-.66 2.141-1.345 3.194-2.029l.217-.134 1.037-.677.086-.055a.152.152 0 00.067-.126v-.916c-.039-2.868-.189-5.661-.331-8.017v-.149c2.99.538 5.875 1.55 8.545 2.997 5.008 2.691 9.811 6.971 14.681 13.091 1.79 2.25 3.422 4.721 5 7.081l1.135 1.703c1.838 2.734 3.983 5.901 6.211 8.957.714.976 1.455 1.967 2.18 2.907.371.484.738.964 1.101 1.448 1.041 1.38 1.999 2.753 2.31 4.378a4.408 4.408 0 01-1.376 4.256c-.216.19-.448.361-.694.512a7.51 7.51 0 01-1.068.546h.019zm-37.066-8.697c-5.311-.968-10.978-.594-16.459-.232-2.2.145-4.684.311-7.074.354.414-.559.808-1.109 1.112-1.538 2.181-3.064 4.44-6.235 8.253-7.474a7.895 7.895 0 012.453-.394c4.799 0 8.612 4.56 10.611 7.577.355.554.722 1.137 1.08 1.707h.024z" fill="#000"/><path d="M227.267 428.906a.846.846 0 00.392.094.75.75 0 00.457-.149 21.963 21.963 0 013.048-1.863l.584-.319a.478.478 0 00.232-.26.376.376 0 00-.036-.318.489.489 0 00-.265-.213.656.656 0 00-.375-.02 8.297 8.297 0 00-2.178.853c.026-.052.057-.108.087-.16.193-.316.339-.648.436-.99a.37.37 0 00-.044-.306.528.528 0 00-.279-.214.718.718 0 00-.398-.023.584.584 0 00-.324.186 3.879 3.879 0 00-.641 1.087 4.45 4.45 0 01-.182.395c-.262.53-.501 1.071-.736 1.597v.038a.395.395 0 00-.019.324.51.51 0 00.241.261zm-.295 3.634a.372.372 0 00-.163-.207.454.454 0 00-.273-.067 7.448 7.448 0 00-2.485.703c.196-.437.355-.887.475-1.346a.459.459 0 00-.051-.352.558.558 0 00-.298-.235.598.598 0 00-.383-.009.532.532 0 00-.294.22 12.845 12.845 0 00-1.081 2.179c-.118.288-.24.573-.365.85a.432.432 0 00-.038.324.48.48 0 00.203.27.82.82 0 00.456.13.8.8 0 00.44-.123 16.595 16.595 0 012.717-1.427c.314-.144.629-.284.939-.432a.397.397 0 00.201-.205.35.35 0 000-.273zm-7.995 8.102a.593.593 0 00-.231-.327.48.48 0 00-.365-.075 7.843 7.843 0 00-2.036.755c.032-.072.06-.148.091-.219.139-.317.274-.634.397-.947a.644.644 0 00.024-.435.562.562 0 00-.254-.329.427.427 0 00-.361-.043.466.466 0 00-.164.097.533.533 0 00-.118.161l-.456.893c-.441.893-.897 1.786-1.397 2.621a.835.835 0 00-.101.509.79.79 0 00.216.46.667.667 0 00.488.237.589.589 0 00.357-.13 27.584 27.584 0 013.667-2.603.484.484 0 00.228-.26.57.57 0 00.015-.365zm14.248-11.547c.666.495 1.359.945 2.074 1.345.358.215.721.448 1.072.654l.85.547c.67.449 1.359.897 2.065 1.296a.439.439 0 00.224.063c.08.001.16-.022.23-.067a.482.482 0 00.168-.189.67.67 0 00.086-.429.633.633 0 00-.193-.382 24.93 24.93 0 00-3.059-2.193l-.47-.3a14.376 14.376 0 00-2.549-1.408.485.485 0 00-.381.015.575.575 0 00-.277.295.632.632 0 00-.051.411c.029.14.105.262.211.342zm2.051 3.269c.312.19.622.372.916.565 1.095.722 2.111 1.378 3.117 2.001.073.045.155.07.238.07a.417.417 0 00.209-.053.48.48 0 00.164-.153.548.548 0 00.076-.353.507.507 0 00-.162-.315 20.2 20.2 0 00-3.203-2.541l-.283-.182c-.912-.589-1.862-1.196-2.89-1.394a.339.339 0 00-.241.033.39.39 0 00-.172.19.572.572 0 00-.037.317.54.54 0 00.137.281 10.262 10.262 0 002.131 1.534zM233.537 441a.455.455 0 00.396-.237.463.463 0 00-.01-.493.416.416 0 00-.12-.12 77.456 77.456 0 00-3.083-2.197c-.199-.132-.396-.272-.595-.411a16.179 16.179 0 00-2.414-1.487.453.453 0 00-.342-.037.48.48 0 00-.276.215.672.672 0 00-.088.426.654.654 0 00.192.386 15.83 15.83 0 002.439 1.719l.559.346a60.391 60.391 0 003.12 1.832.51.51 0 00.222.058zm-11.201 3.438c-.235-.12-.471-.24-.699-.362a28.124 28.124 0 00-2.076-1.041.423.423 0 00-.256-.026.372.372 0 00-.212.124.284.284 0 00-.093.206c0 .076.033.149.093.206 1.151 1.107 2.616 1.945 4.258 2.437a.739.739 0 00.156.018c.09.001.178-.02.255-.059a.452.452 0 00.183-.162.34.34 0 00.045-.268.392.392 0 00-.172-.229c-.471-.31-.966-.592-1.482-.844zM209.49 455a.508.508 0 00.51-.494.528.528 0 00-.156-.356.516.516 0 00-.356-.15.479.479 0 00-.349.149.51.51 0 00-.101.547.476.476 0 00.265.267.48.48 0 00.187.037zM182 407c.569 0 1-.871 1-2.002 0-1.132-.431-1.998-1-1.998s-1 .87-1 1.998c0 1.127.419 2.002 1 2.002z" fill="#000"/></svg>