<svg width="600" height="600" fill="none" xmlns="http://www.w3.org/2000/svg"><path d="M265.327 311.306c-1.979-1.211-2.956-1.221-5.097-3.898-1.441-1.81-2.423 2.865 1.853 4.983 2.859 1.429 5.088.042 3.244-1.085zm-.343 11.444a.611.611 0 00-.355-.702.602.602 0 00-.746.235c-.216.313-.917 2.283-2.187 3.716a4.773 4.773 0 01-2.255 1.232 3.857 3.857 0 01-1.697 0 .525.525 0 00-.673.217.533.533 0 00.146.696c1.196 1.269 3.362.988 4.648.059a7.34 7.34 0 002.166-2.374c.54-.943.865-1.994.953-3.079z" fill="#000"/><path d="M443.654 482.266c-13.443-.063-26.897-.078-40.33-.268l1.724-14.047c.053-.394-.374-.72-.722-.725l-20.068-.526a85.448 85.448 0 00-.322-1.508c-1.477-6.706-3.027-13.401-4.789-20.034-3.486-13.096-7.505-26.129-13.016-38.527a200.692 200.692 0 00-4.874-10.19 162.38 162.38 0 00-2.679-4.992 2.57 2.57 0 00-.121-.205.222.222 0 000-.063l.279.031c4.61.589 9.219 1.225 13.845 1.724 8.143.888 16.661 1.282 24.63-.972 7.969-2.255 15.358-7.589 17.99-15.63 2.89-8.85.48-18.194-2.189-26.77a1343.715 1343.715 0 00-9.209-28.505 63.084 63.084 0 00-1.286-3.516.465.465 0 00-.892.242c1.055 4.729 2.637 9.428 4.014 14.094 1.376 4.667 2.843 9.26 4.288 13.88 2.637 8.508 5.917 17.511 4.351 26.545a21.652 21.652 0 01-5.211 11.083 26.09 26.09 0 01-10.021 6.496c-7.626 2.848-15.943 2.627-23.928 1.876-4.325-.415-8.634-1.051-12.938-1.577l-4.746-.62c-.528-.068-1.029-.142-1.551-.205l-8.333-1.088c-1.197-.152-2.394-.199-3.597-.268a.58.58 0 00-.533.497.574.574 0 00.385.617c3.692.762 7.453 1.214 11.203 1.656a28.9 28.9 0 00-5.596 1.634 25.102 25.102 0 00-7.257 4.378c-.396.342.11.962.527.709a49.488 49.488 0 017.384-3.599 48.096 48.096 0 017.115-1.94c2.215 4.315 4.456 8.603 6.371 13.076a245.749 245.749 0 017.22 18.987c4.293 12.85 7.5 26.03 10.4 39.247.254 1.135.501 2.265.739 3.4-11.037-.301-22.076-.59-33.116-.867-18.518-.457-37.04-.567-55.557-.142-2.078.053-4.151.1-6.224.158-.406-.757-.802-1.514-1.197-2.276a194.48 194.48 0 01-13.09-32.262c-.248-.836-.501-1.671-.739-2.507-.162-.557-.32-1.114-.474-1.671-1.382-4.93-2.585-9.901-3.835-14.868-.179-.714-1.176-.388-1.055.3a121.714 121.714 0 003.65 16.612c-1.192 1.945-2.373 3.889-3.597 5.781a367.25 367.25 0 01-7.199 10.852c-2.4 3.495-4.82 6.995-7.436 10.327-2.463 3.153-5.211 6.144-8.539 8.409-3.133 2.102-6.804 3.626-10.622 3.747-4.077.136-7.959-1.382-11.498-3.269-6.961-3.71-13.269-8.603-19.102-13.874-3.291-2.98-6.43-6.117-9.52-9.297a282.42 282.42 0 01-4.678-4.924c-.77-.82-1.556-1.64-2.321-2.46a20.104 20.104 0 00-.886-.867c.55-.403 1.062-.855 1.53-1.35a34.753 34.753 0 003.333-4.052 44.73 44.73 0 004.873-9.181c1.387-3.427 2.558-6.932 3.634-10.464.066.035.135.065.206.089a.52.52 0 00.413-.083.521.521 0 00.219-.358c7.142 8.088 14.467 16.018 21.709 24.022 2.109 2.334 4.219 4.678 6.329 7.032a.867.867 0 001.211-.002.865.865 0 00.228-.376c4.457-12.372 9.03-24.701 14.193-36.788a517.586 517.586 0 018.022-17.91 407.912 407.912 0 014.325-8.871c1.402-2.786 2.763-5.692 4.746-8.135a25.053 25.053 0 016.925-5.871 54.732 54.732 0 014.219-2.223c1.446-.688 2.759-1.508 4.119-2.338a.724.724 0 00.322-.405c.079.825.158 1.65.264 2.47-.359.589-.322 1.577-.364 2.176a9.834 9.834 0 00.221 3.153 5.082 5.082 0 001.521 2.562 5.103 5.103 0 002.699 1.274c2.204.331 4.393-.415 6.355-1.356a37.66 37.66 0 006.487-4.104c2.263-1.729 4.631-3.558 6.44-5.781.385-.468-.111-1.298-.702-.904-1.93 1.283-3.565 2.943-5.353 4.409a41.627 41.627 0 01-5.633 3.979c-2.79 1.613-8.902 4.472-10.374-.279a8.721 8.721 0 01-.232-3.284c.009-.12.025-.24.048-.358v-.063c0-.11.031-.221.047-.331a.749.749 0 000-.116c.012-.055.021-.111.027-.168v-.194c.327-2.817-.138-5.728-.691-8.488a41.22 41.22 0 00-1.166-4.493 1.907 1.907 0 00-.09-.257 46.832 46.832 0 005.19-.789 58.175 58.175 0 006.487-1.897.757.757 0 00.413-.36.754.754 0 00-.808-1.085c-1.946.394-3.914.662-5.855 1.051a40.477 40.477 0 01-5.669.862c-.19 0-.38.031-.57.042-.427.026-.859.042-1.287.047a22.565 22.565 0 01-3.581-.189c-.71-.1-1.415-.24-2.109-.42a9.621 9.621 0 01-2.179-.642c-2.5-1.355-4.905-2.627-6.518-5.092-1.952-2.922-1.936-6.417-2.637-9.738-.612-2.922-1.957-5.818-4.489-7.421a58.97 58.97 0 003.608-8.471c.211-.636.411-1.272.612-1.919 0-.068.037-.136.052-.205.064-.21.122-.42.185-.635.132-.473.264-.946.385-1.425.063-.241.121-.478.179-.714.122-.489.238-.978.343-1.472.048-.2.095-.404.137-.609.143-.694.28-1.393.401-2.103 5.475 4.352 13.755 3.926 20.485 2.024a12.387 12.387 0 00-.528 3.678c0 1.966 0 4.173 1.008 5.934 1.176 2.044 3.449 2.517 5.606 1.918 1.171-.326 2.257-.883 3.402-1.246a8.544 8.544 0 013.27-.388 5.775 5.775 0 014.957 3.242 4.332 4.332 0 01-.965 5.087 12.285 12.285 0 01-2.605 1.687c-.871.463-2.11.862-2.637 1.75-.528.888-.232 2.176.126 3.096.393.993.997 1.89 1.772 2.627a10.904 10.904 0 004.03 2.418v.893a34.2 34.2 0 00.648 6.212c.77 4.02 2.194 8.256 4.937 11.383.29.326.939 0 .765-.447-.501-1.219-1.029-2.428-1.53-3.642.829-.351 1.676-.66 2.537-.924a16.668 16.668 0 013.845-.584 76.265 76.265 0 018.618.226c6.16.4 12.294 1.225 18.39 2.16a1090.942 1090.942 0 0136.497 6.275c3.402.652 6.857 1.23 10.269 1.682 1.092.147 2.183.32 3.27.525.675.116 1.35.242 2.02.379 1.107.205 2.721.494 5.1.914.527.095.596-.741.116-.888-.791-.258-3.249-.678-5.443-1.051a808.755 808.755 0 00-1.799-7.726 428.708 428.708 0 00-5.643-21.231c-.585-1.997-2.051-5.713-2.637-7.704a24.29 24.29 0 00-1.281-3.206c1.174.341 2.385.546 3.607.609h.232l.475.048.2.026h.195c2.978.336 5.97.52 8.966.552 3.017.026 6.15.063 9.13-.457 2.579-.452 6.134-2.502 4.673-5.056-.76-1.33-1.625-1.409-2.411-1.55-.527-.095-.938.656-.385.909.159.079.322.147.486.21a1.525 1.525 0 01.947 1.154 1.52 1.52 0 01-.499 1.405 6.626 6.626 0 01-3.022 1.288c-.886.155-1.781.257-2.679.305a.56.56 0 00.079-.163c.332-1.193.279-2.449.469-3.679a9.821 9.821 0 01.986-3.206 5.566 5.566 0 012.052-2.196c.195-.115.4-.212.612-.29.32-.135.65-.247.986-.336.49-.142.992-.252 1.482-.399l.232-.069.364-.12c1.703-.636 3.497-1.987 3.386-3.984-.063-1.051-.733-1.845-1.445-2.586a24.578 24.578 0 00-2.701-2.438 11.935 11.935 0 01-2.257-1.882l-.042-.047c-.686-.883-.527-1.923-.132-2.911.058 0 .121.036.179.063.165.076.321.172.465.284.363.262.712.525 1.091.783.817.515 1.687.941 2.595 1.271.528.205.949-.394.865-.867a14.9 14.9 0 00-.939-3.116c-.356-1-.93-1.908-1.682-2.659.411-.526.838-1.051 1.266-1.519.427-.468 1.012-1.051 1.513-1.577.148-.152.285-.299.428-.457.142-.158.29-.326.421-.499.644-.81 1.055-1.95.254-2.812-1.187-1.287-3.239-.226-4.605.647l-.527.341-.142.1c-.352.231-.69.478-1.013.741-.19.142-.38.294-.559.457a17.528 17.528 0 00-1.92 1.924.898.898 0 00-.264 0 10.416 10.416 0 00-4.978 2.433c-.312.268-.612.557-.902.862a.334.334 0 00-.359-.09c-.232.074-.48 0-.722.069-.219.056-.43.139-.628.247a9.03 9.03 0 00-1.213.736c-.664.468-1.283.996-1.851 1.576a3.51 3.51 0 00-.28.279 5.84 5.84 0 00-.337.383 19.857 19.857 0 00-2.875 4.42 41.31 41.31 0 00-3.602 12.923 35.145 35.145 0 00-.237 7.021 16.471 16.471 0 01-2.975-.399c-1.229-.331-2.236-1.488-1.055-2.554.934-.857 2.194-1.188 3.386-1.498a.529.529 0 00.299-.545.513.513 0 00-.142-.294.519.519 0 00-.289-.154c-2.009-.09-5.564 1.476-5.005 3.978.063.298.173.583.327.846.428 1.529 1.419 3.153 1.809 4.546.496 1.745 1.862 5.208 2.337 6.953.981 3.577 1.92 7.164 2.816 10.763 1.582 6.243 3.091 12.492 4.451 18.782l-1.84-.294a391.781 391.781 0 00-9.383-1.808c-3.101-.557-6.223-.972-9.324-1.524l-9.272-1.687c-12.247-2.223-24.456-4.83-36.919-5.781a84.908 84.908 0 00-9.883-.336c-2.305.094-5.201.299-7.152 1.729a39.35 39.35 0 01-1.999-6.18 33.64 33.64 0 01-.765-5.886v-.589c2.104.451 4.278.478 6.392.079 4.125-.762 8.123-3.274 10.179-6.979a8.291 8.291 0 00.528-7.263c-.976-2.449-2.558-4.614-3.961-6.832s-2.716-4.436-3.244-6.984c-.527-2.549.259-4.909 1.024-7.358a16.75 16.75 0 00.743-7.883 13.685 13.685 0 00-2.879-6.443c-2.812-3.5-7.632-5.066-11.867-3.306a14.752 14.752 0 00-4.917-4.396 14.815 14.815 0 00-6.349-1.821c-5.564-.289-10.701 2.56-14.841 6.007-2.189 1.813-4.219 3.805-6.234 5.813-1.914 1.907-3.855 3.915-6.392 4.971-2.537 1.056-5.195 1.261-7.827 1.577-1.239.147-2.637.21-3.692.914a3.499 3.499 0 00-1.524 3.274c.121 1.498.997 2.707 1.851 3.884.855 1.177 1.725 2.339 2.68 3.432a27.524 27.524 0 006.83 5.297 66.493 66.493 0 01-4.167 9.16 1.099 1.099 0 00-.052.942 1.107 1.107 0 00.701.635c2.8 1.177 3.692 4.619 4.114 7.31.564 3.437.859 6.942 2.948 9.875a15.013 15.013 0 003.164 3.242 13.429 13.429 0 003.929 2.229c.369.093.731.207 1.087.341.335.152.678.285 1.028.4a16.64 16.64 0 002.178.525c1.797.314 3.622.432 5.443.352h.027c.047.137.084.273.126.415a46.959 46.959 0 011.118 4.509c.301 1.519.449 2.943.596 4.425a.677.677 0 00-.859-.341c-1.376.422-2.72.938-4.024 1.545a52.679 52.679 0 00-3.761 2.102 35.045 35.045 0 00-6.571 5.024 28.163 28.163 0 00-5.232 7.694c-1.44 2.932-2.79 5.907-4.172 8.866-5.675 12.087-10.928 24.4-15.975 36.787a414.463 414.463 0 00-7.442 19.708 4532.056 4532.056 0 01-21.782-23.76 535.467 535.467 0 00-6.408-6.942.653.653 0 00-1.118.42c-.39-.346-.818-.656-1.15-.945-.807-.715-1.582-1.435-2.437-2.103a64.636 64.636 0 00-5.274-3.789l-.042-.026c-.242-.158-.485-.31-.733-.457a58.63 58.63 0 00-4.931-2.754 36.328 36.328 0 00-6.081-2.628 5.45 5.45 0 00-3.302-.036 3.225 3.225 0 00-1.782 1.334c-.196-.031-.391-.073-.591-.099-1.83-.226-4.974-.079-5.68 2.002a20.72 20.72 0 00-2.437-.21h-1.292c-1.193.062-2.38.201-3.555.415l-.728.142-.195.042a8.738 8.738 0 00-3.823 1.576c-.892.731-1.583 1.95-.444 2.807.101.079.211.146.327.199.168.094.345.172.528.232.359.126.738.21 1.081.304.868.22 1.749.386 2.637.5h.084c.396.058.792.1 1.187.147 1.271.147 2.548.278 3.808.483a34.14 34.14 0 014.647 1.099c0 .283.047.562.068.835.1 1.125.248 2.244.417 3.353.285 1.84.728 3.679 1.967 5.135 1.239 1.455 2.911 2.186 4.62 2.759.527.178 1.055.368 1.582.562l.807.315c1.255.494 2.505 1.009 3.771 1.467 1.081.383 2.215.819 3.37 1.172a28.852 28.852 0 00-2.473 4.125 22.042 22.042 0 00-2.01 4.972c-.337 1.645 0 3.804 1.815 4.477.61.231 1.281.242 1.898.032.202.282.421.552.654.809.702.788 1.398 1.577 2.11 2.349a275.008 275.008 0 004.103 4.462 194.908 194.908 0 008.692 8.776c5.881 5.555 12.22 10.674 19.24 14.752 3.565 2.066 7.384 3.931 11.508 4.483 3.978.46 8.001-.316 11.518-2.223 7.421-3.847 12.284-11.131 16.936-17.784a339.597 339.597 0 007.457-11.152c1.646-2.575 3.296-5.161 4.868-7.788a189.96 189.96 0 005.343 15.655 194.064 194.064 0 008.749 19.419c-7.594.221-15.187.518-22.778.893a.722.722 0 00-.561.281.706.706 0 00-.125.613c.865 4.729 1.702 9.459 2.51 14.189-9.918.049-19.837.1-29.756.152-19.641.111-39.292.174-58.933.305a.303.303 0 00-.216.521.306.306 0 00.216.089c17.5.126 34.999.147 52.504.268 12.144.084 24.292.14 36.444.168a1982.506 1982.506 0 015.949 37.502c.749 4.993 1.482 9.985 2.278 14.967.085.5.96.389.902-.12-1.84-17.532-4.694-34.975-7.679-52.344a91.233 91.233 0 01-.195-1.145c0-.121-.047-.247-.063-.368a1398.12 1398.12 0 00-2.431-13.711c7.552-.372 15.112-.664 22.678-.878.723 0 1.44-.053 2.162-.063 9.94-.266 19.889-.401 29.847-.405 18.522 0 37.045.584 55.562 1.093l30.31.831c-.548 4.435-1.095 8.871-1.64 13.306l-.142 1.193a55592.513 55592.513 0 01-4.9 39.62c-.64 5.154-1.282 10.31-1.925 15.467-.127.972 1.413.967 1.535 0 2.208-18.278 4.442-36.553 6.703-54.824 0-.095 0-.194.037-.289 3.671-.07 7.341-.119 11.012-.147 9.821-.048 19.641-.032 29.461-.074a.337.337 0 10-.016-.673zm-42.883-190.122c.204.515.38 1.042.527 1.576-.46-.251-.905-.528-1.334-.83a7.877 7.877 0 00-1.54-.993c.384-.696.81-1.369 1.276-2.013.306.751.754 1.487 1.071 2.26zm-15.917 2.012l.153-.178c.19-.231.39-.463.601-.683.405-.442.838-.856 1.297-1.241.393-.323.807-.619 1.24-.888a6.76 6.76 0 00-.913 2.223c-.132.641.77 1.109 1.113.468a13.577 13.577 0 012.901-3.989 9.58 9.58 0 012.848-1.724c-1.15 1.745-2.184 3.979-2.02 6.081.042.525.807.851 1.055.294.812-1.655 1.329-3.405 2.273-5.003a15.7 15.7 0 012.526-3.201c.317-.315.654-.614 1.002-.903a13.577 13.577 0 012.273-1.535c.338-.202.69-.378 1.055-.526.443-.157.723-.257.422.258a4.06 4.06 0 01-.717.82l-.285.284-.148.157c-.348.363-.691.72-1.023 1.088a45.055 45.055 0 00-2.109 2.533c-.18.237-.359.484-.528.736-.169.252-.374.525-.559.815a10.495 10.495 0 00-1.772 4.083c-.258 1.755.559 3.101 1.772 4.167.179.158.364.31.559.452l.274.2c.849.594 1.693 1.177 2.49 1.839.685.563 1.835 1.351 2.03 2.271.195.919-.67 1.776-1.376 2.202a6.424 6.424 0 01-1.546.63l-.606.169c-.253.063-.528.131-.749.205-.222.073-.469.147-.696.236a7.428 7.428 0 00-.907.415 7.111 7.111 0 00-3.165 3.332 11.223 11.223 0 00-.949 3.321 10.72 10.72 0 00.047 3.847c.02.075.058.144.111.2-1.229.053-2.468.047-3.692.068-2.542.037-5.079 0-7.61-.152a72.03 72.03 0 01-3.012-.2c.074-4.22.592-8.421 1.546-12.534 1.044-3.757 2.336-7.604 4.794-10.637zM181.659 430.591c-.317-1.482.564-3.338 1.192-4.646a29.22 29.22 0 013.106-4.998c.81.196 1.64.3 2.474.31a.527.527 0 00.258-.925 10.918 10.918 0 00-1.687-.694c-.37-.126-.744-.231-1.124-.341l-.3-.084-.528-.142c-1.271-.363-2.553-.71-3.818-1.098a78.303 78.303 0 01-3.244-1.052c-.269-.089-.527-.189-.812-.299a28.423 28.423 0 01-3.107-1.367 8.494 8.494 0 01-2.637-1.912 7.159 7.159 0 01-1.36-3.122 34.855 34.855 0 01-.591-3.773 26.084 26.084 0 01-.079-.973c.633.232 1.25.5 1.867.778.454.205.907.426 1.366.636a8.6 8.6 0 001.361.41c.427.121.833-.478.458-.788a7.351 7.351 0 00-1.772-1.193 28.73 28.73 0 00-2.035-.831 25.332 25.332 0 00-1.39-.487.043.043 0 00-.019.004l-1.36-.426c-.47-.147-.95-.278-1.43-.399a47.278 47.278 0 00-6.212-1.015l-1.177-.136-1.555-.21c-.718-.116-1.435-.226-2.142-.389h-.042a13.34 13.34 0 01-.606-.147c-.201-.053-.269-.079-.401-.127-.132-.047-.359-.089-.406-.168-.159-.278.295-.573.453-.678a6.918 6.918 0 011.909-.841c.322-.094.649-.178.971-.252l.849-.194a28.114 28.114 0 013.302-.526c.3-.037.606-.058.907-.079h.437a23.563 23.563 0 011.614-.047c.76 0 1.53-.095 2.289-.037 3.291.252 6.5 1.145 9.446 2.628.485.236.907-.478.422-.72a29.505 29.505 0 00-9.029-2.806l-.248-.037a5.556 5.556 0 011.92-.794 8.459 8.459 0 013.164 0l.243.042a.525.525 0 00.253.048c.863.151 1.711.381 2.532.688.954.368 1.824 1.077 2.805 1.335a.451.451 0 00.495-.209.446.446 0 00-.062-.532c-.733-.862-2.11-1.267-3.165-1.682a20.275 20.275 0 00-1.445-.525c.06-.05.124-.096.19-.137a2.922 2.922 0 011.582-.342c1.335.053 2.637.715 3.866 1.235a61.71 61.71 0 016.719 3.369c.438.252.876.526 1.308.778.248.147.491.294.734.452a55.858 55.858 0 014.219 2.896 54.549 54.549 0 013.069 2.375c.486.41.965.83 1.435 1.261l.032.032c-.95 2.859-1.936 5.712-3.075 8.503a53.283 53.283 0 01-4.267 8.172 32.333 32.333 0 01-5.691 6.8c-.39.347-.881.773-1.434.615a1.48 1.48 0 01-.997-1.187zm202.094 111.376c-7.105-.215-14.21-.315-21.32-.38-7.11-.065-14.214-.205-21.324-.275-7.11-.07-14.215-.36-21.325-.305-7.11.055-14.215.125-21.319.29-8.019.18-16.095.265-24.087.935a.39.39 0 00-.267.105.352.352 0 00-.111.255c0 .095.04.187.111.254a.386.386 0 00.267.106c7.1.155 14.22-.105 21.314-.215 7.094-.11 14.215-.225 21.325-.285 3.597-.03 7.204 0 10.801-.17 3.501-.15 7.002-.23 10.502-.24 7.105 0 14.215-.045 21.325.055 8.029.11 16.058.355 24.087.5a.347.347 0 00.189-.11.316.316 0 00.079-.197.314.314 0 00-.066-.202.335.335 0 00-.181-.121z" fill="#000"/><path d="M323.143 507.079c2.094.887 4.852 1.312 7.05.451a9.195 9.195 0 004.48-3.722 8.706 8.706 0 00.255-8.805 8.67 8.67 0 00-3.165-3.281 8.632 8.632 0 00-4.386-1.217h-.241c-.617-1.486-3.935.73-4.652 1.229-.644.435-1.237.94-1.769 1.506l-.152.1a.306.306 0 00-.091.095.306.306 0 00-.04.126 10.08 10.08 0 00-1.832 2.961 8.671 8.671 0 00-.11 6.042 8.097 8.097 0 004.653 4.515zm-3.266-7.78a7.986 7.986 0 012.256-4.925 13.3 13.3 0 012.24-1.916c.372-.252.759-.478 1.151-.693.173-.058.346-.105.524-.147a7.759 7.759 0 015.197.714 7.505 7.505 0 013.308 3.846 7.528 7.528 0 01.11 5.079c-1.183 3.386-4.805 5.176-8.238 4.777a8.566 8.566 0 01-5.051-2.299 5.823 5.823 0 01-1.497-4.436zm-59.622-184.087c.266-1.146-.149-2.223-.927-2.403-.779-.181-1.626.601-1.892 1.748-.267 1.147.148 2.223.927 2.404.778.181 1.626-.602 1.892-1.749zm180.429-81.06a.775.775 0 00-.515-.15.76.76 0 00-.486.214c-.412.424-.801.866-1.164 1.326l-.477.564a92.903 92.903 0 00-1.531 1.813l-1.525 1.863-.483.569c-.361.424-.733.858-1.053 1.32-.217.307-.36.653-.419 1.015-.059.362-.034.731.075 1.083.163.644.373 1.326.658 2.147a31.169 31.169 0 001.746 4.089l.041.075c.29.625.647 1.222 1.065 1.782.211.317.498.584.839.781.341.197.727.32 1.128.357h.058a.712.712 0 00.375-.114.634.634 0 00.242-.289.599.599 0 00.049-.39.632.632 0 00-.206-.345 5.845 5.845 0 01-1.321-1.4 21.72 21.72 0 01-1.124-2.12 31.663 31.663 0 01-1.81-4.707 1.286 1.286 0 01-.052-.923c.142-.26.32-.502.53-.719l.221-.252 2.072-2.512a80.516 80.516 0 001.542-1.9c.175-.225.355-.445.535-.665.436-.516.84-1.053 1.211-1.61a.65.65 0 00.077-.49.692.692 0 00-.298-.412zm10.998-.077a.513.513 0 00-.738.232c-1.57 2.697-2.92 5.605-4.239 8.399l-.246.54a431.984 431.984 0 00-4.187 9.122 20.42 20.42 0 00-.942 2.449 5.323 5.323 0 00-.261 2.697.616.616 0 00.199.342.583.583 0 00.361.144h.036c.14 0 .276-.044.391-.126a.711.711 0 00.253-.333c.128-.4.237-.807.325-1.219.073-.323.146-.658.245-.971.246-.782.555-1.543.801-2.12a255.866 255.866 0 011.9-4.391c1.141-2.573 2.35-5.168 3.512-7.677l1.046-2.287c.602-1.295 1.23-2.633 1.795-3.97a.635.635 0 00.04-.469.619.619 0 00-.291-.362zm10.087 10.95a20.951 20.951 0 01-2.675-4.118 24.467 24.467 0 01-.988-2.255l-.059-.181c-.207-.663-.449-1.321-.869-1.454a.506.506 0 00-.493.133 1.095 1.095 0 00-.265.56c-.033.211-.006.429.077.623v.08c.094.371.207.759.351 1.183.274.824.604 1.626.987 2.399a21.453 21.453 0 002.3 3.624 86.92 86.92 0 01-4.275 4.977c-.765.828-1.574 1.683-2.468 2.617-.148.159-.301.313-.454.467-.281.286-.563.567-.834.864l-.114.123a3.663 3.663 0 00-.957 1.443.665.665 0 00.128.642.702.702 0 00.223.177.641.641 0 00.271.067.683.683 0 00.143 0 3.26 3.26 0 001.407-.923l.148-.133c.38-.345.74-.727 1.091-1.098l.217-.229c.8-.838 1.624-1.745 2.468-2.69a145.672 145.672 0 004.66-5.699.914.914 0 00.211-.604.907.907 0 00-.231-.595zM269.897 211.37a2.797 2.797 0 00-.534-1.03 2.391 2.391 0 00-.876-.666 2.27 2.27 0 00-.731-.198 1.99 1.99 0 00-.534 0 1.706 1.706 0 00-.777.309.955.955 0 00-.252-.594.43.43 0 00-.288-.187.398.398 0 00-.321.098.537.537 0 00-.079.688c.032.237.032.478 0 .715v.623l-.03 1.449c0 .483-.021.966-.03 1.449a.596.596 0 00-.276.187.714.714 0 00-.151.32.702.702 0 00.053.465c.07.141.186.246.323.293v.319c-.022.966-.03 1.932-.039 2.927-.067.997-.057 1.999.03 2.995a.674.674 0 00.216.338.542.542 0 00.701 0 .672.672 0 00.215-.338c.101-1.1.118-2.206.052-3.309 0-1.014-.009-2.028-.026-3.043h.043c.218 0 .427-.043.649-.072a5.58 5.58 0 00.534-.087c.378-.068.74-.223 1.062-.457a2.97 2.97 0 00.809-.9 3.15 3.15 0 00.34-1.117 3.258 3.258 0 00-.083-1.177zm-1.043.845v.101a4.303 4.303 0 01-.102.406.879.879 0 01-.039.101c-.034.068-.077.136-.111.203a.173.173 0 01-.025.044l-.026.033-.124.15-.073.073c-.068.053-.141.101-.213.149-.103.057-.21.102-.321.136h-.021a4.32 4.32 0 01-.474.106h-.158l-.291.034-.324.029-.026-1.865v-1.236h.055a.323.323 0 00.116 0c.186-.092.381-.157.581-.193h.401l.133.029c.093.02.185.051.273.091.198.083.375.22.516.398.14.179.239.394.288.626v.111a1.57 1.57 0 010 .194c-.03.12-.03.198-.035.28z" fill="#000"/><path d="M274.871 212.922v-.62c.034-.423 0-.841.072-1.259a.502.502 0 00-.004-.258.519.519 0 00-.367-.351.533.533 0 00-.266-.002c-.566.11-.552.753-.594 1.194a15.236 15.236 0 00-.048 1.838v.349c-.261.643-.951 1.722-1.64 1.378-.689-.345-.927-1.622-1.074-2.297a7.912 7.912 0 01-.171-1.3c.016-.438.007-.877-.029-1.314a.403.403 0 00-.558-.241.39.39 0 00-.169.15c-.509 1.001-.3 2.466.095 3.481.215.529.488 1.034.813 1.507a2.1 2.1 0 001.093.955c.225.066.467.056.686-.028.219-.083.402-.235.521-.431.167-.216.319-.459.476-.675 0 .716 0 1.438-.043 2.154-.043.717-.309 1.617-1.269 1.608-.96-.009-1.978-.354-2.924 0a.639.639 0 00-.405.318.598.598 0 00.132.717.652.652 0 00.749.086 2.355 2.355 0 011.326 0c.488.106.989.141 1.488.105a2.406 2.406 0 001.316-.604c.363-.33.609-.761.704-1.233.22-1.12.275-2.264.162-3.399a47.299 47.299 0 01-.072-1.828zm4.832-.441a8.973 8.973 0 00-.928-.032v-1.187a1.947 1.947 0 00-.204-1.086.378.378 0 00-.145-.129.422.422 0 00-.535.129 1.954 1.954 0 00-.224 1.086c0 .419-.024.832-.024 1.251-.494.04-.978.155-1.43.341a.463.463 0 00-.171.189.423.423 0 00.067.468.501.501 0 00.218.143c.436.065.878.098 1.321.1v1.314c0 .841 0 1.686.049 2.532 0 .423.025.846.03 1.268-.03.179-.021.362.027.537.048.176.133.341.251.486a.513.513 0 00.386.105.52.52 0 00.344-.191c.195-.344.246-.742.144-1.118 0-.423-.025-.846-.035-1.269-.02-.815-.034-1.629-.044-2.441v-1.187l.844.05c.216.016.434.002.645-.041a.874.874 0 00.561-.232.442.442 0 00.134-.21.414.414 0 00-.005-.244 1.364 1.364 0 00-.542-.477 1.515 1.515 0 00-.734-.155zm6.001 2.946c-.119-.951-.14-2.05-.951-2.777a.698.698 0 00-.46-.17.698.698 0 00-.46.17 5.33 5.33 0 00-1.416 1.736v-.114c-.062-.861-.124-1.717-.181-2.574-.026-.399-.051-.794-.098-1.193 0-.176-.026-.352-.057-.528-.052-.257-.181-.476-.222-.742-.062-.386-.656-.252-.687.081 0 .237-.135.475-.161.694-.025.219 0 .4 0 .595v1.288c.026.828.068 1.651.114 2.478.098 1.684.207 3.363.367 5.042.015.16.095.309.223.418a.731.731 0 00.472.169c.175 0 .343-.06.472-.169a.628.628 0 00.223-.418c.041-1.812.031-3.805 1.23-5.27v.395c.026.476.047.985.067 1.479.021.495.062.989.098 1.484a5.325 5.325 0 00.212 1.565c.238.585 1.297.737 1.463 0a5.65 5.65 0 00-.047-1.765c-.046-.627-.134-1.251-.201-1.874zm5.216-5.479c-.553-.734-1.373-1.17-2.148-.832a1.812 1.812 0 00-.948.95 1.911 1.911 0 00-.134.773 8.883 8.883 0 00-.612 4.607c.168 1.679.608 4.479 2.237 4.553 1.629.073 2.311-2.688 2.558-4.382.276-1.929.163-4.195-.953-5.669zm-.326 5.385a10.283 10.283 0 01-.43 1.929c-.153.416-.454 1.131-.864 1.077-.41-.054-.652-.764-.775-1.229a13.268 13.268 0 01-.346-1.958 7.234 7.234 0 01.647-4.127.625.625 0 00.079-.259.712.712 0 01.395-.201c.405 0 .761.431.988.842.553 1.141.498 2.634.306 3.912v.014zm6.369 1.867c0-.8-.03-1.605-.065-2.406a27.835 27.835 0 00-.401-4.456c-.134-.63-.824-.765-1.074-.185a37.518 37.518 0 00-1.432 3.621c0-.751 0-1.507-.03-2.249a7.276 7.276 0 00-.212-2.32.287.287 0 00-.101-.148.273.273 0 00-.332 0 .288.288 0 00-.102.148 6.831 6.831 0 00-.194 2.221v7.209c0 .738.91.949 1.018.18.19-1.394.502-2.767.932-4.101.16-.495.328-.999.505-1.503 0 .599-.026 1.197-.035 1.799v2.213c0 .737-.09 1.704.233 2.361a.616.616 0 00.219.301.58.58 0 00.692 0 .616.616 0 00.219-.301c.293-.715.177-1.628.16-2.384zm12.752 21.317c-.481-.209-1-.343-1.534-.393a10.636 10.636 0 00-1.449-.123 1.675 1.675 0 00-.61.092c-.194.067-.37.169-.516.299-.146.13-.26.286-.334.457-.073.17-.106.353-.094.535.041.412.118.82.229 1.222 0 .083 0 .17.04.253-.729.105-1.684.324-1.394.784.215.337.855.241 1.22.228h.319v.122c.045.438.08.906.1 1.366-.036.47.011.943.14 1.401.025.069.074.13.141.173a.422.422 0 00.232.067.422.422 0 00.231-.067.348.348 0 00.141-.173c.122-.379.158-.774.105-1.165 0-.398-.05-.792-.09-1.19 0-.197-.045-.394-.07-.591.405-.027 2.553-.066 2.134-.779-.11-.184-.345-.219-.545-.281a2.728 2.728 0 00-.705-.048 9.338 9.338 0 00-1.044.07c-.035-.223-.065-.437-.11-.665a8.411 8.411 0 01-.16-.928c0-.346.435-.289.72-.28.904.035 1.759.289 2.648.359a.5.5 0 00.321-.045.404.404 0 00.2-.224.347.347 0 00-.026-.283.431.431 0 00-.24-.193zm4.098 4.67c-.072-.41-.136-.825-.2-1.24l-.181-1.161a4.471 4.471 0 00-.176-1.422.502.502 0 00-.179-.283.38.38 0 00-.294-.076.5.5 0 00-.301.205.9.9 0 00-.589 0 2.06 2.06 0 00-.975.718 3.633 3.633 0 00-.621 1.068 3.634 3.634 0 00-.297 1.45c.044.895.485 2.13 1.423 2.032.214-.045.417-.139.599-.277a1.78 1.78 0 00.46-.524c.136-.193.259-.397.369-.611 0 .112.036.224.056.331.041.46.151.908.325 1.324a.44.44 0 00.193.233.35.35 0 00.277.03.408.408 0 00.228-.187.53.53 0 00.068-.314 5.173 5.173 0 00-.185-1.296zm-2.193-.2a1.516 1.516 0 01-.225.265l-.104.056a.055.055 0 00-.04 0 .988.988 0 01-.345-.55 3.04 3.04 0 01-.128-.988c.004-.337.099-.663.273-.933.176-.268.411-.476.681-.601a.6.6 0 01.315-.145.575.575 0 01.335.056c.029.017.06.029.092.037l.048.509a4.297 4.297 0 01-.902 2.294zm5.933-1.565l-1.201-.135a1.218 1.218 0 01-.346-.075c-.062-.026-.104-.061-.112-.114-.034-.24.308-.59.483-.769.128-.144.268-.275.417-.394.138-.101.154-.079.313-.022.07.019.145.017.214-.008a.374.374 0 00.174-.131.406.406 0 00.028-.43.79.79 0 00-.469-.324.762.762 0 00-.556.084 3.19 3.19 0 00-.925.761c-.496.538-.892 1.478-.204 2.051.3.206.649.321 1.008.333.417.052.792.092 1.184.148h.146l.2.053c.042.01.082.029.117.057h.025v.026a.51.51 0 01-.038.114.738.738 0 01-.254.249c-.254.149-.543.22-.834.206-.379 0-.729-.158-1.104-.175-.375-.018-.592.634-.209.813.311.121.637.195.967.219a3.26 3.26 0 001.034 0c.675-.109 1.421-.674 1.388-1.465-.033-.792-.78-.993-1.446-1.072zm6.125-1.54a1.09 1.09 0 00-.309-.139s-.267-.07-.133 0a1.836 1.836 0 00-.474-.11h-.81v-.084a3.595 3.595 0 00-.415-1.345c-.192-.278-.789-.298-.852.105-.02.447.025.894.133 1.329v.15l-.41.084a2.988 2.988 0 00-.442.115 2.545 2.545 0 00-.453.154l-.203.075a.43.43 0 00-.241.165.381.381 0 00.078.519.442.442 0 00.281.097c.175.038.353.064.532.08.139 0 .304.04.469.045h.272l.26.025c.027.338.054.677.064.995 0 .429-.037.872 0 1.295.004.137.06.268.157.37a.635.635 0 00.376.187.631.631 0 00.415-.086.567.567 0 00.251-.322c.053-.48.053-.964 0-1.444 0-.333-.054-.667-.091-.995h.671a.8.8 0 00.357-.09l.133-.03c.123-.029.24-.078.346-.144a.575.575 0 00.256-.196.527.527 0 00.104-.293.527.527 0 00-.082-.3.575.575 0 00-.24-.212zm5.264 3.172l-.165-.473c-.107-.316-.213-.633-.33-.945a16.91 16.91 0 00-.383-.932c-.068-.156-.145-.304-.213-.46l-.088-.199s-.053-.143-.067-.161a.322.322 0 00-.054-.143.257.257 0 00.029-.121c0-.434-.538-.616-.97-.62a1.83 1.83 0 00-1.134.434 4.228 4.228 0 00-1.363 1.734 2.168 2.168 0 00.145 2.098c.137.209.347.372.598.464.25.092.528.107.789.043a3.02 3.02 0 001.135-.628c.181-.143.343-.303.485-.477l.189.628c.087.299.252.633.645.685a.69.69 0 00.469-.054.577.577 0 00.293-.332c.026-.086.042-.175.048-.264a.944.944 0 00-.058-.277zm-2.051-1.821l-.068.082-.034.039a3.824 3.824 0 00-.189.23l-.083.035-.286.303c-.082.089-.17.175-.262.256l-.165.134-.073.057-.126.091h-.029l-.16.099-.063.039-.053-.052-.024-.03a1.076 1.076 0 01-.112-.273s0-.126-.029-.126 0-.108 0-.16a1.356 1.356 0 01.029-.33c.13-.468.388-.9.752-1.257a1.97 1.97 0 01.654-.52l.088-.022h.068c-.02.248.016.497.106.733.039.19.073.381.107.572l-.048.1zm6.488-2.576a3.146 3.146 0 00-1.817-.656 2.378 2.378 0 00-1.077.222.84.84 0 00-.437.454.48.48 0 000 .232c-.073.773-.063 1.551.031 2.322.031.383.073.762.109 1.145 0 .222.058.439.089.661.026.23.093.453.198.661a.634.634 0 00.272.24.661.661 0 00.698-.087.627.627 0 00.201-.299 1.584 1.584 0 000-.505c0-.091-.026-.176-.037-.267-.036-.202-.067-.404-.109-.611l-.187-.878h.296c.324.033.65.033.974 0 .295-.041.575-.155.811-.332.236-.177.421-.41.537-.677a1.429 1.429 0 00-.007-.898 1.474 1.474 0 00-.545-.727zm-.599 1.211v.025l-.067.061a1.063 1.063 0 01-.141.076.578.578 0 01-.109.035l-.115.035h-.067c-.271 0-.521 0-.802.031h-.354a10.565 10.565 0 00-.291-.949l.052-.036a.36.36 0 00.083-.025l.187-.04h.453c.11 0 .214.035.323.06l.141.041.072.025.078.03.073.036a.953.953 0 01.141.075l.114.066.052.035s.141.152.172.172a.17.17 0 01.026.045.151.151 0 00-.037.043.148.148 0 00-.017.054.133.133 0 00.006.056.13.13 0 00.027.049zm3.176 2.772c-.034-.407-.075-.813-.115-1.223a28.045 28.045 0 00-.225-1.701c0-.08-.025-.161-.041-.241a1.887 1.887 0 00-.103-.308.256.256 0 00-.106-.134.182.182 0 00-.189-.012.306.306 0 00-.14.182v.044a1.834 1.834 0 00-.037.34v.25c0 .192 0 .383.022.575l.019.407c0 .241.025.491.04.736.025.379.05.768.069 1.152-.023.403.056.805.222 1.133a.51.51 0 00.078.098.248.248 0 00.205.058.308.308 0 00.189-.129c.228-.339.15-.799.112-1.227zm-.954-4.64c.199.002.394-.025.561-.077a.9.9 0 00.312-.17c.075-.068.118-.143.123-.219a.353.353 0 00-.092-.266.846.846 0 00-.343-.194 1.942 1.942 0 00-.561-.074h-.125a1.61 1.61 0 00-.467.082.75.75 0 00-.312.186c-.08.083-.112.175-.092.266 0 .115.089.226.248.311.16.086.379.14.616.152l.132.003zm-201.078 69.617c-.027-1.018-.053-2.036-.095-3.049a141.156 141.156 0 01-.095-3.05c0-.822 0-1.702-.66-2.302a.756.756 0 00-1.056 0 14.437 14.437 0 00-2.355 3.548 13.034 13.034 0 00-.274-2.227.655.655 0 00-.467-.46.65.65 0 00-.631.168 20.24 20.24 0 00-2.001 2.785 17.066 17.066 0 00-.924 1.935v-2.232c0-.531-.908-.716-.993-.138a52.06 52.06 0 00-.269 9.514c0 .403 0 .801.058 1.199.053.917 1.473.928 1.431 0a22.049 22.049 0 01.565-6.502 12.742 12.742 0 011.964-4.434c0 1.103.031 2.206 0 3.32a31.37 31.37 0 00.111 4.98.832.832 0 00.802.806.808.808 0 00.802-.806 27.111 27.111 0 01-.147-2.068c-.008-1.191.17-2.376.528-3.511a12.89 12.89 0 011.974-3.792.937.937 0 000 .106v1.745c-.021 1.23-.035 2.467-.042 3.712v1.745a7.237 7.237 0 000 1.883c.295 1.092 1.98 1.007 1.805-.218.101-.795.006-1.829-.031-2.657zm7.701-11.266a.796.796 0 00-.386-.299.863.863 0 00-.503-.027.808.808 0 00-.422.256.71.71 0 00-.172.437v1.924c-.028.078-.056.146-.073.199-.205.634-.409 1.268-.619 1.897-.211.629-.449 1.253-.682 1.876-.091.247-.335 1.347-.693 1.494.046-.063-.147-.231-.193-.304a4.34 4.34 0 01-.409-.807 6.877 6.877 0 01-.403-1.646 15.166 15.166 0 01.119-3.668c.085-.682-1.136-.818-1.283-.163a10.809 10.809 0 00-.256 4.911c.256 1.205 1.136 3.637 2.931 3.081.338-.146.638-.358.879-.621.241-.264.418-.572.518-.904.057-.136.108-.272.159-.403v2.206c0 1.143.182 2.521-.869 3.333-1.051.813-2.556 1.421-3.794 2.128-1.096.634-.096 2.227 1.022 1.609.739-.414 1.443-.875 2.181-1.3a13.984 13.984 0 001.926-1.2c1.186-.959 1.408-2.374 1.397-3.752 0-2.773-.114-5.545-.216-8.317a2.764 2.764 0 00-.159-1.94zm4.835.683a3.42 3.42 0 00-1.243.3c-.18.064-.353.144-.518.239a.27.27 0 00-.118.028 2.826 2.826 0 01.422-1.918 3.767 3.767 0 011.254-1.362.574.574 0 00.563-.084c.562-.528 0-1.29-.686-1.234a3.163 3.163 0 00-1.688 1.028 4.83 4.83 0 00-1.457 3.531c-.003.357.112.704.327.99.215.287.519.495.866.595.77.183 1.344-.356 2.053-.506.506-.106.978.027 1.057.583a2.805 2.805 0 01-.602 1.757 3.079 3.079 0 01-1.411 1.324c-.816.289-1.688-.173-2.498-.134a.795.795 0 00-.463.158.779.779 0 00-.279.398.548.548 0 000 .406.817.817 0 00.284.391.834.834 0 00.458.165c.917.1 1.811.45 2.739.25a3.841 3.841 0 002.003-1.245c1.057-1.207 2.064-3.103 1.068-4.632a2.384 2.384 0 00-.928-.793 2.422 2.422 0 00-1.203-.235zm8.059-6.738c-.946-.544-2.497 1.088-3.009 1.768a7.258 7.258 0 00-1.51 4.446c.031 1.518.998 3.847 2.842 3.194.341-.133.652-.336.914-.599-.047.854-.099 1.714-.151 2.574-.032.609-.068 1.219-.105 1.823a5.083 5.083 0 00.068 1.844c.058.19.172.356.326.473a.872.872 0 001.062 0 .936.936 0 00.326-.473 5.194 5.194 0 00.198-1.844c0-.604.031-1.214.052-1.823.032-1.219.063-2.443.089-3.657 0-.718 0-1.441.047-2.176.575-1.725.288-3.58 0-5.332-.104-.664-.82-.626-1.149-.218zm-.523 4.647c.003.02.003.04 0 .06a8.98 8.98 0 01-.814 1.763 5.692 5.692 0 01-.575.794c-.068.082-.188.261-.298.288h-.057c-.413-.277-.476-1.24-.471-1.686.012-.68.151-1.351.408-1.976a6.36 6.36 0 011.013-1.697 5.63 5.63 0 011.087-1.088 116.873 116.873 0 00-.293 3.542zm4.875-11.665a.404.404 0 00-.112-.184.35.35 0 00-.186-.09.337.337 0 00-.202.032.374.374 0 00-.154.144 4.956 4.956 0 00-.444 1.807c-.1.649-.19 1.298-.265 1.952a89.031 89.031 0 00-.334 4.127 113.74 113.74 0 00-.17 4.03v2.012c0 .67-.085 1.325.499 1.801a.58.58 0 00.744-.103c.499-.427.339-1.201.334-1.807-.005-.605 0-1.271 0-1.903 0-1.342.025-2.705.075-4.03.05-1.325.125-2.601.2-3.905.035-.633.065-1.26.095-1.893a5.912 5.912 0 00-.08-1.99zm46.842-33.241a.473.473 0 00-.629.272c-.241.466-.467.949-.676 1.437a7.904 7.904 0 00-.818-1.085.354.354 0 00-.325-.103.22.22 0 00-.179.098.382.382 0 00-.073.342c.188.549.43 1.076.723 1.573l.2.347c-.089.233-.184.466-.262.7-.157.373-.22.782-.184 1.187.037.228.309.239.446.12.145-.133.264-.293.351-.472.098-.175.186-.356.262-.543l.032.038c.148.284.35.535.592.738.043.025.09.04.139.044a.34.34 0 00.27-.095.355.355 0 00.11-.253 1.91 1.91 0 00-.278-.786l-.084-.157a3.502 3.502 0 00-.325-.651c.304-.689.619-1.367.934-2.051a.513.513 0 00-.064-.579.495.495 0 00-.162-.121z" fill="#000"/><path d="M170.974 298.538a343.91 343.91 0 00-.379-11.917 374.432 374.432 0 00-.343-5.886c-.031-.46-.057-.921-.083-1.375-.088-1.455-.176-2.957-.348-4.422-.119-1.01-.586-1.682-1.334-1.894a3.304 3.304 0 00-2.159.381l-.369.148-5.467 2.074-11.037 4.21-14.713 5.643-.825.312c-2.17.832-4.344 1.657-6.521 2.476-1.163.438-2.326.862-3.488 1.285l-1.994.724-.519.201-.769.281-.083.031a21.31 21.31 0 00-3.182 1.423 8.168 8.168 0 00-3.317 3.274 10.45 10.45 0 00-.982 4.76v1.084a1.012 1.012 0 00-.062.365c.021 2.913.049 5.827.083 8.743.047 3.999.094 8.14.104 12.207v10.467c0 1.746.862 2.814 2.253 2.867h.125c1.209 0 2.294-.682 3.26-1.291l.156-.095 1.121-.698.623-.391.519-.328.327-.201a2413.43 2413.43 0 0112.548-7.78l.821-.503 19.042-11.726 1.682-1.057 3.209-1.979c.056-.034.11-.073.16-.116l.141-.095c.067.1.145.201.223.312l.405.529c.14.169.275.344.41.529.568.747 1.13 1.498 1.687 2.253.862 1.158 1.734 2.311 2.596 3.464 1.464 1.936 2.98 3.941 4.418 5.94a.764.764 0 00.851.312.748.748 0 00.371-.267.77.77 0 00.149-.437c.591-9.324.794-16.898.69-23.837zm-55.498 35.505c-.29-.111-.301-.566-.28-1.1v-.286l-.031-2.56c0-1.708-.042-3.411-.068-5.119-.062-4.808-.083-9.695-.098-14.418 0-2.952 0-5.903-.047-8.854a.986.986 0 00-.104-.444c.042-2.402.379-5.062 2.523-6.707a13.987 13.987 0 013.328-1.745l.519-.201c.109-.047.22-.087.333-.122l4.963-1.946c2.196-.868 4.61-1.793 7.579-2.915l.286-.105.519-.201c2.104-.794 4.207-1.58 6.308-2.359l6.323-2.38 18.035-6.818.192-.069 1.283-.492.187-.079c.217-.116.449-.198.69-.243.041.191.059.386.052.582v.206l.031.359c0 .272.021.536.063.794.072 1.001.141 2.001.207 2.999a370.363 370.363 0 01.737 17.089c.182 8.965.151 16.369-.098 23.229-.852-1.185-1.693-2.385-2.513-3.549-.727-1.031-1.448-2.057-2.18-3.078l-.556-.783c-.779-1.089-1.557-2.216-2.346-3.342-.068-.096-.135-.207-.208-.318a2.895 2.895 0 00-1.262-1.306c-.752-.286-1.458.185-2.03.56-.098.064-.192.133-.285.186l-6.661 4.162-10.523 6.548a1588.77 1588.77 0 00-3.764 2.353l-2.31 1.439c-.135.09-.275.175-.415.259l-.52.312c-3.4 2.116-6.91 4.321-10.383 6.448l-4.314 2.644-.519.328c-.442.295-.902.562-1.376.799-.385.22-.83.305-1.267.243zm94.573-32.907a7.315 7.315 0 00-2.155 3.727 15.357 15.357 0 00-.257 4.304c0 .372 0 .744.028 1.116.05 3.47-1.613 5.971-3.215 8.387l-.274.409a1.07 1.07 0 00.196 1.4.658.658 0 00.421.184.666.666 0 00.444-.132c.636-.466 1.312-.964 2.032-1.457.151-.105.597-.419.781-.346.073 0 .106.152.118.225a5.197 5.197 0 01-.341 2.501c-.229.681-.514 1.331-.793 1.965l-.24.556a29.699 29.699 0 00-1.819 5.347 8.331 8.331 0 00.396 5.32c.508 1.049 1.116 1.358 1.675 1.358.18-.002.36-.032.53-.089a3.374 3.374 0 001.998-1.573c.101-.198.142-.418.117-.637a1.143 1.143 0 00-.256-.6.68.68 0 00-.693-.188c-.398.144-.774.34-1.116.581-.201.137-.41.263-.625.378l-.078.047c-.034 0-.084.047-.067.063a1.899 1.899 0 01-.185-.304v-.047a3.899 3.899 0 01-.334-1.08c-.307-1.814.329-3.601.893-5.184l.039-.121c.268-.744.558-1.473.882-2.175.426-.937.799-1.894 1.116-2.868.117-.398 1.117-3.921-.469-5.074a1.41 1.41 0 00-.589-.248 1.46 1.46 0 00-.644.033 13.461 13.461 0 001.563-5.315 19.75 19.75 0 00-.056-2.563 16.176 16.176 0 010-2.936 6.42 6.42 0 011.719-3.805.837.837 0 00.209-.579.849.849 0 00-.248-.564.484.484 0 00-.348-.152.497.497 0 00-.355.136zm7.509 7.586a.616.616 0 00-.428-.139.615.615 0 00-.408.185 6.6 6.6 0 00-.803.927 3.401 3.401 0 01-.641.466v-.062a3.297 3.297 0 01-.114-.916c.02-.732.119-1.459.297-2.172l.21-.942c.124-.553.248-1.111.367-1.669.361-1.711.587-3.621-.464-4.84a1.334 1.334 0 00-.651-.483 1.41 1.41 0 00-.826-.029 1.79 1.79 0 00-.798.71 1.659 1.659 0 00-.226 1.016.581.581 0 00.135.45.64.64 0 00.431.226c.264 0 .539-.164.566-.574 0-.204.081-.338.178-.358.097-.021.291.082.404.287.261.699.275 1.459.038 2.166a40.034 40.034 0 01-.41 1.639 30.402 30.402 0 00-.701 3.165 7.524 7.524 0 00-.048 2.237c.102.717.339 1.66.878 2.08l.103.071a11.895 11.895 0 00-.609 4.461c.071.933.21 1.86.415 2.775.169.777.297 1.562.383 2.351a8.802 8.802 0 01-.539 3.923 7.02 7.02 0 01-.949 1.695 13.58 13.58 0 01-.475.568c-.29.319-.55.662-.776 1.024a.732.732 0 00.183.937c.078.054.169.09.264.103h.135c.901 0 1.768-.763 2.572-2.274a10.725 10.725 0 001.175-4.097c.069-1.652-.1-3.306-.501-4.916a11.472 11.472 0 01-.151-4.609 7.624 7.624 0 011.078-2.699c.392-.36.734-.766 1.019-1.208.123-.245.16-.521.103-.787a1.233 1.233 0 00-.416-.688zm233.133 43.322a.51.51 0 00-.509 0 .897.897 0 00-.317.345.84.84 0 00-.092.45c0 2.665-.185 5.427-.336 8.098l-.062 1.066a535.568 535.568 0 01-.336 5.332c-.05-.4-.095-.8-.129-1.189a149.187 149.187 0 01-.431-5.305c-.23-3.593-.364-7.363-.409-11.196 0-.442-.263-.645-.51-.645-.28 0-.56.267-.56.746 0 3.802.157 7.736.387 11.703v.069c.106 1.845.218 3.732.392 5.588a13.05 13.05 0 001.086 4.622c.03.077.083.144.153.193.07.048.153.076.239.079h.079a1.02 1.02 0 00.462-.356.94.94 0 00.176-.54c.281-3.327.488-6.339.645-9.196.084-1.664.145-3.343.201-4.969.045-1.392.096-2.783.163-4.175a.667.667 0 00-.032-.402.705.705 0 00-.26-.318zm8.658 26.81c.095-.18.178-.367.247-.559.037-.114.065-.231.086-.349.027-.105.049-.211.086-.316a.825.825 0 00.06-.559.837.837 0 00-.312-.471c-.167-.074-.414-.042-.608.275a1.673 1.673 0 01-.215.253c-.09.082-.17.174-.237.275-.129.169-.253.359-.371.528l-.054.084-.123.195a6.3 6.3 0 01-.452.671l-.081-.164-.043-.095a3.37 3.37 0 01-.226-.528c-.165-.479-.294-.97-.387-1.467a19.251 19.251 0 01-.306-2.952.487.487 0 00.209-.163 20.175 20.175 0 002.958-7.175c.323-1.415.629-3.015.231-4.076-.204-.528-.537-.871-.962-.897-.425-.027-.92.317-1.264.955a19.199 19.199 0 00-1.344 3.601 27.91 27.91 0 00-.834 3.917c-.086.57-.145 1.141-.188 1.7v-5.253c.183-3.167.28-6.335.371-9.387v-.464c0-.528-.253-.792-.538-.803-.285-.01-.677.307-.71.919a282.568 282.568 0 00-.226 5.485v.222c-.037.876-.08 1.753-.123 2.64a38.621 38.621 0 01-.823 7.122v.047a5.622 5.622 0 01-.538 1.653 3.143 3.143 0 01-.204-1.009 45.818 45.818 0 01-.113-1.9 129.72 129.72 0 01-.129-8.051c.043-3.121.231-6.309.398-9.123 0-.438-.199-.613-.393-.634-.193-.021-.537.217-.597.697a118.1 118.1 0 00-.435 17.95v.465c.037 1.056.075 2.111.462 2.829a.929.929 0 00.834.592c.468 0 .941-.417 1.274-1.093.092-.19.178-.396.264-.618v3.168a.66.66 0 00.317.602.507.507 0 00.5 0 1.165 1.165 0 00.463-.908c.032.237.064.475.107.707.11.75.301 1.486.57 2.196.248.602.538 1.251 1.103 1.405a.737.737 0 00.199 0c.537 0 1.032-.639 1.457-1.215.24-.289.454-.598.64-.924zm-2.926-7c0-.385.044-.771.081-1.156a24.736 24.736 0 011.334-6.124l.048-.138c.441-1.224.662-1.504.753-1.531 0 0 .054 0 .124.18.274.623-.059 1.943-.28 2.814l-.097.39a31.822 31.822 0 01-1.963 5.565zm3.604 9.211a.975.975 0 00-.614.332.965.965 0 00-.351.601.797.797 0 00-.056.18.648.648 0 000 .176v.064a.75.75 0 000 .134v.065a.717.717 0 00.343.291h.072a.84.84 0 00.263.088c.061.005.123.005.183 0a1.163 1.163 0 00.814-.324 1.08 1.08 0 00.231-.337l-.271-.088h.303v-.092c0-.074.04-.148.056-.222v-.226a.673.673 0 00-.144-.333 1.078 1.078 0 00-.127-.175.84.84 0 00-.415-.199.742.742 0 00-.287.065z" fill="#000"/><path d="M464.709 374.578c0-1.085 0-2.512.047-3.949a30.52 30.52 0 00.244-3.965c0-.468-.211-.647-.389-.663-.178-.016-.469.216-.53.742a61.55 61.55 0 00-.281 3.759 35.832 35.832 0 01-1.274 5.792c-.141.458 0 .795.211.885.211.089.375 0 .515-.358.141-.358.314-.874.469-1.327v4.154c0 2.359-.043 4.344-.211 6.366-.22 2.595-.722 3.564-1.101 3.917-.38.353-.937.121-1.368-.211a3.713 3.713 0 01-.675-.663l-.122-.163c-.197-.269-.469-.595-.853-.432a.688.688 0 00-.281.27.818.818 0 00-.108.398 2.5 2.5 0 00.26 1.227c.189.373.467.678.804.88l.066.052a2.599 2.599 0 001.607.711h.159c1.27-.1 2.085-2.106 2.422-3.907.318-2.046.464-4.12.436-6.197v-.231c.024-1.543 0-3.102 0-4.613-.047-.832-.047-1.653-.047-2.474zm4.301-.413l.057-.124c.226-.518.564-1.346.949-1.522a.25.25 0 01.124-.031c.044 0 .086.01.124.031.333.171.565 1.035.644 1.822.034.373.277.518.48.518.203 0 .599-.285.61-.74.04-1.491-.565-2.812-1.44-3.071-.401-.119-1.023-.077-1.695.813a11.461 11.461 0 00-1.615 3.573 11.815 11.815 0 00-.565 3.971c.118 2.185 1.163 3.557 2.095 4.763l.193.259c.926 1.211 1.864 2.692 1.287 4.908-.327 1.243-1.028 2.242-1.841 2.62a2.31 2.31 0 01-1.367.155h-.119a1.432 1.432 0 01-.519-.15s-.034-.031-.057-.057l-.062-.083a.647.647 0 00-.037-.361.714.714 0 00-.228-.296.391.391 0 00-.452.031 1.605 1.605 0 00-.496.71 1.485 1.485 0 00-.035.843c.04.267.171.516.374.712.202.196.466.329.755.38.367.104.747.158 1.13.161a3.27 3.27 0 001.853-.554c1.695-1.124 2.869-4.033 2.593-6.487-.215-1.869-1.13-3.024-1.966-4.142l-.492-.647a6.355 6.355 0 01-1.129-2.273 7.915 7.915 0 01.158-3.588c.172-.729.402-1.446.689-2.144zm-3.994-10.736l.027.159.056.154c.034.085.09.155.158.198.043.04.096.061.15.06h.04a.192.192 0 00.114-.035.294.294 0 00.135-.099.463.463 0 00.102-.139c.057-.087.101-.186.131-.293l.047-.208.024-.224-.028-.431-.055-.154a.495.495 0 00-.103-.154.373.373 0 00-.103-.194l-.067-.044a.104.104 0 00-.063-.025h-.075a.237.237 0 00-.154.089.356.356 0 00-.099.129.842.842 0 00-.107.164c-.05.108-.088.225-.111.348a.244.244 0 010 .054 1.847 1.847 0 00-.023.452c-.02.049-.012.119.004.193zM334.933 191.534a17.114 17.114 0 01-1.268-1.18c.266-.331.571-.637.909-.912a.269.269 0 00.044-.186.287.287 0 00-.095-.17.35.35 0 00-.193-.084.374.374 0 00-.211.039c-.118.104-.49.442-.909.859-.177-.185-.368-.401-.609-.634a.176.176 0 00-.172-.048.424.424 0 00-.184.083.362.362 0 00-.112.153c-.031.089-.118.346.537 1.04-.691.803-.705 1.117-.65 1.273a.327.327 0 00.093.145c.045.041.1.071.161.088h.055a.184.184 0 00.08-.018.166.166 0 00.061-.05l.395-.538.309-.426c.41.403.91.727 1.468.952a.26.26 0 00.158.017.243.243 0 00.133-.078.236.236 0 00.067-.162.238.238 0 00-.067-.163z" fill="#000"/><path d="M350.891 244.976v-10.197a.977.977 0 00-.977-.975H337.84v-46.449a.363.363 0 00-.342-.355h-66.001a.36.36 0 00-.356.341v6.294a1.095 1.095 0 000 .162v8.785l-1.934.1c-1.512.09-3.015.184-4.522.293h-.119c-.237 0-.474.029-.725.052h-.105l-1.209.086c-1.194.08-2.422.17-3.674.293l-.431.048a.35.35 0 00-.318.341v2.927A2812.138 2812.138 0 00258 227.23v.412a.356.356 0 00.346.341h12.852v38.662a.362.362 0 00.356.355h66.044a.361.361 0 00.355-.355v-.204a.281.281 0 000-.071v-18.538h.389c.332 0 .664 0 .991-.033h.341l2.02-.076h.137c.237 0 .474 0 .726-.028h.137c2.115-.08 6.064-.237 7.467-.298a.874.874 0 00.839-.877c-.104-.374-.104-.98-.109-1.544zm-77.782-56.593h63.147v4.452h-63.507v-4.49l.36.038zm-12.08 16.018l1.698-.128.948-.066h.147l.706-.048h.123l3.276-.203c1.173-.067 2.344-.128 3.513-.185l.882-.043h.081a388.574 388.574 0 0126.856-.326c1.508.033 3.153.08 5.153.156v23.231h-1.019l-4.224.029h-39.837v-4.14c0-5.532-.052-11.031-.09-15.677v-2.505l1.787-.095zm75.26 61.098l-51.091.061h-12.44v-37.558h24.993l3.537.023h3.916a.352.352 0 00.251-.104.353.353 0 00.105-.251v-8.388c0-4.288-.011-8.569-.034-12.844v-3.799a.403.403 0 000-.085.359.359 0 00-.322-.265h-.346a395.572 395.572 0 00-14.73-.261c-5.755 0-11.577.152-17.313.426v-8.179h8.192l55.292.028v39.444h-35.713c-1.63 0-4.603.028-6.163.042a1.426 1.426 0 00-1.398 1.421l-.029 8.421v4.651a.871.871 0 00.253.608.873.873 0 00.61.25c1.351 0 4.793-.067 6.557-.114 2.512-.057 5.025-.128 7.533-.199 5.324-.147 10.605-.313 15.066-.474 4.741-.151 9.074-.303 13.274-.473v17.619zm13.355-26.523v6.829a.268.268 0 01-.073.188.262.262 0 01-.183.082c-1.683.076-3.366.142-5.049.209l-1.896.071-.707.033h-.09l.024.355-.076-.355h-.611l-1.266.047-.474.024-1.721.066-.882.033c-8.766.341-17.806.649-26.866.948-2.816.09-5.641.175-8.457.255l-2.333.062c-1.465.038-2.977.076-4.47.147a.28.28 0 01-.19-.067.245.245 0 01-.065-.09.236.236 0 01-.02-.108v-4.85c0-2.297 0-4.599-.029-6.896v-.711a.266.266 0 01.076-.185.283.283 0 01.156-.033h55.207l-.019 3.969.014-.023zm-127.652 49.355v-1.066a.262.262 0 00-.259-.265.253.253 0 00-.131.036l-.876.533-.108.064-1.307.81a599.3 599.3 0 00-5.899 3.688c-1.646 1.066-3.106 1.988-4.454 2.872-.21.128-.426.272-.636.411a399.427 399.427 0 00-6.545 4.375l-.39.267c-1.173.799-2.388 1.625-3.587 2.467-.216.15-.426.299-.636.459a.247.247 0 00-.081.094.267.267 0 00-.027.124v18.941c0 4.378-.008 8.757-.025 13.138 0 4.263-.01 8.539-.031 12.828v7.621a.281.281 0 00.072.192.25.25 0 00.184.08c.102 0 .2-.042.272-.117.236-.229.472-.469.692-.709.615-.666 1.204-1.38 1.773-2.068l.441-.533 2.875-3.437a509.477 509.477 0 015.31-6.193l.544-.619.159-.186c3.336-3.805 7.068-7.877 11.732-12.791l.651-.677a.26.26 0 00.076-.186v-5.474c0-2.757.009-5.516.026-8.277 0-3.197.026-6.386.077-9.566.041-3.827.082-7.787.087-11.683v-.634c.031-1.508.036-3.006.021-4.519zm-23.716 61.412V336.76c-.03-8.66-.03-17.459-.036-25.971v-7.056a465.027 465.027 0 004.336-2.878c1.625-1.066 3.312-2.212 4.977-3.294.354-.234.708-.458 1.066-.687l.472-.304.154-.101a476.411 476.411 0 0110.071-6.326l1.297-.789v2.851c0 2.207.017 4.417.051 6.63 0 1.318.014 2.635.041 3.949.056 7.552.082 14.976.103 21.244v3.629a467.677 467.677 0 00-5.997 6.486 467.508 467.508 0 00-5.853 6.593l-.708.81a539.928 539.928 0 00-5.125 5.985 333.78 333.78 0 00-3.198 3.843l-.467.565c-.389.474-.784.959-1.168 1.45-.007-1.216-.012-2.431-.016-3.646zm-20.762 67.895a.857.857 0 00-.626-.165.867.867 0 00-.565.318 3135.557 3135.557 0 00-10.867 17.145 8268.1 8268.1 0 00-15.716 24.92 4255.2 4255.2 0 00-14.029 22.442c.036-7.118 0-14.325-.041-21.316-.031-4.909-.062-9.996-.062-14.978V324.397a.398.398 0 00-.394-.397.377.377 0 00-.196.055l-.818.526a.394.394 0 00-.186.337v150.268c0 3.356-.031 6.838 0 10.237v1.199a.398.398 0 00.284.374c.035.005.07.005.104 0a.392.392 0 00.326-.184l1.045-1.668 5.837-9.264a9120.817 9120.817 0 0123.37-36.988 9375.872 9375.872 0 0112.937-20.322.635.635 0 00-.403-.932z" fill="#000"/><path d="M208.883 282.802c-.053-4.818-.107-9.804-.107-13.12v-22.295a.38.38 0 00-.139-.295.395.395 0 00-.318-.087l-.815.126c-1.235.199-2.47.408-3.727.618l-2.843.471c-5.86.953-11.716 1.919-17.569 2.896a5200.128 5200.128 0 00-35.137 5.96c-3.284.566-6.561 1.142-9.834 1.729l-1.15.204-3.093.555-.82.152a.38.38 0 00-.223.131.389.389 0 00-.096.251v1.048c0 3.954-.027 8.102 0 12.679v11.836a.38.38 0 00.168.322.399.399 0 00.364.045l.841-.309a.392.392 0 00.261-.367v-8.023c.852-.21 1.709-.451 2.534-.686.709-.199 1.411-.403 2.13-.582 1.4-.35 2.816-.743 4.179-1.126 1.214-.335 2.423-.675 3.637-.989 1.384-.357 2.805-.681 4.173-.995 1.252-.289 2.551-.582 3.818-.907a437.548 437.548 0 006.862-1.817l1.065-.288c9.519-2.556 19.576-5.342 31.64-8.767l3.636-1.016a388.85 388.85 0 006.389-1.817l.857-.205a46.535 46.535 0 001.635-.523v8.384c0 3.771.042 9.05.085 14.141.048 5.51.096 11.208.09 15.23v1.241a.402.402 0 00.12.275.414.414 0 00.279.118.39.39 0 00.213-.063l.591-.361.229-.136a.402.402 0 00.192-.341v-1.236c-.021-3.064-.069-7.641-.117-12.061zm-3.849-26.485l-1.065.319-.213.063h-.059l-2.417.723a301.026 301.026 0 01-5.041 1.508 1909.917 1909.917 0 01-15.775 4.531c-4.446 1.257-8.976 2.477-13.358 3.666l-2.534.675c-2.641.699-5.283 1.406-7.927 2.121l-3.892 1.064c-.666.183-1.331.398-1.97.602-.639.204-1.336.429-2.012.613-2.785.759-5.649 1.429-8.417 2.094l-.533.126-1.453.356c-.953.241-1.938.487-2.912.686-.256.053-.533.116-.762.173V261.35l2.854-.482 8.832-1.519c5.853-1.023 11.709-2.03 17.569-3.022a5052.737 5052.737 0 0135.138-5.876c1.432-.235 2.864-.461 4.296-.686l3.839-.607v6.557a38.48 38.48 0 00-2.188.602zm2.945 90.512l-.031-4.431a.398.398 0 00-.066-.225.384.384 0 00-.416-.161.381.381 0 00-.2.123l-.906 1.01a.387.387 0 00-.1.263v27.341c-.194.3-.388.595-.576.895l-.923 1.42a2746.422 2746.422 0 01-7.368 11.366l-3.553 5.467-3.238 5.062a1649.22 1649.22 0 01-2.495 3.836.774.774 0 00.267 1.052.886.886 0 00.493.153.742.742 0 00.629-.337l3.354-5.172c.236-.369 2.505-3.847 2.73-4.21l.524-.826c.241-.373.477-.742.723-1.11a1883.66 1883.66 0 018.17-12.471l2.935-4.388a.403.403 0 00.063-.216v-1.868c.01-7.51.005-15.035-.016-22.573zm267.978-70.977c0-5.592 0-11.253-.053-16.839-.032-4.568 0-9.071 0-13.703v-2.187c0-3.65.011-7.301.032-10.955v-8.772a.294.294 0 00-.032-.112v-.043a.32.32 0 00-.08-.106v-.032a.203.203 0 00-.069-.038.413.413 0 00-.256-.064l-.426.038-9.785.779-2.35.181-20.049 1.601-7.37.576c-1.53.123-3.059.235-4.589.352-2.356.175-4.708.353-7.056.534h-.048l-.453.037a.397.397 0 00-.265.127.397.397 0 00-.108.273v31.215c0 .084.026.166.075.235 0 0 .032.032.048.053l.032.032a.472.472 0 00.111.064l.533.176c2.068.72 4.147 1.419 6.22 2.134l4.087 1.388 28.48 9.77 12.417 4.268.464.16a.372.372 0 00.133 0 .396.396 0 00.4-.395v-.747h-.043zm-9.592-3.527l-29.983-10.196-4.796-1.644a650.38 650.38 0 00-7.28-2.486v-29.678c1.988-.144 3.975-.309 5.963-.469l3.592-.294 13.803-1.067 8.815-.699c5.985-.475 12.167-.966 18.226-1.425v17.795c0 1.039.011 2.079.032 3.122v.656c0 1.249.032 2.497.037 3.735v7.513a2067.15 2067.15 0 00-.058 14.871v3.073l-1.711-.576a612.138 612.138 0 01-6.667-2.231h.027z" fill="#000"/><path d="M398.574 252.804l24.846 2.431h.051a.512.512 0 00.469-.31.543.543 0 00.045-.211v-.364a.516.516 0 00-.463-.521l-24.954-2.436v-3.644l2.743-.036c.935 0 1.874-.032 2.809-.037l18.894-.156h.472a.514.514 0 00.514-.521v-.478a.514.514 0 00-.514-.521l-18.149.156h-7.821a.52.52 0 00-.514.521v5.419a.723.723 0 000 .114v33.275a.517.517 0 00.329.479.496.496 0 00.389-.008.508.508 0 00.171-.123c.169-.182.339-.369.513-.52a.512.512 0 00.164-.391l-.035-1.379c.034-10.238.047-20.484.041-30.739zm88.405 175.619v-2.584c0-4.589-.016-9.177-.047-13.764-.021-5.239-.021-10.465 0-15.676v-22.603a.408.408 0 00-.152-.315l-.194-.146-.351-.278a135.762 135.762 0 01-5.165-4.228c0-4.394-.009-8.792-.026-13.193 0-5.889-.011-11.78-.032-17.673v-77.596a.479.479 0 000-.131v-13.712a.527.527 0 00-.153-.371.527.527 0 00-.371-.153h-5.17a.617.617 0 00-.456.231c-.073.094-.236.309-.047.969a.52.52 0 00.524.382h4.033v12.13l-4.007-.309-.257-.027a.523.523 0 00-.382.116.498.498 0 00-.189.351l-.037.356a.521.521 0 00.116.393c.092.105.222.17.361.183l4.395.346v8.907l-.047 96.144v1.09a185.533 185.533 0 01-2.252-2.017l-.325-.22-.524-.487a12.32 12.32 0 01-.487-.446c-3.012-2.771-6.014-5.658-8.906-8.451-1.095-1.048-2.19-2.096-3.29-3.144a492.934 492.934 0 00-13.725-12.621 801.884 801.884 0 00-9.43-8.195 14.699 14.699 0 00-.524-.451.385.385 0 00-.42-.061.39.39 0 00-.224.36v16.295l-6.287-6.848c-4.652-5.068-9.305-10.133-13.961-15.195l-6.255-6.774-8.366-9.054c-.912-.99-1.834-1.981-2.745-2.966a1.147 1.147 0 00-1.048-.387.704.704 0 00-.524.476.781.781 0 00.226.802l2.933 3.212c.1.115 1.766 1.918 3.604 3.914 1.981 2.137 4.155 4.5 4.789 5.187 0 0 .377.466.607.723l2.939 3.206a5594.701 5594.701 0 0016.822 18.312l7.213 7.86v4.285c-.028 4.926-.05 9.851-.068 14.776v.99a.407.407 0 00.074.231l.387.524.362.471c1.409 1.855 2.834 3.668 4.254 5.538l2.095 2.688a1804.484 1804.484 0 0012.049 15.483c1.236 1.571 2.483 3.143 3.725 4.715l.298.377c.168.21.336.425.524.634.702.886 1.41 1.777 2.122 2.657.538.681 1.081 1.36 1.629 2.038 1.334 1.666 2.672 3.327 4.013 4.983 3.589 4.432 7.46 9.163 12.573 15.336l1.928 2.405 1.173 1.425a.416.416 0 00.135.108.397.397 0 00.169.038.36.36 0 00.131 0 .388.388 0 00.189-.145.391.391 0 00.073-.227c-.016-.429-.016-.817-.021-1.199zm-1.399-45.552v13.769c0 5.905 0 11.909-.036 17.715 0 3.269-.013 6.538-.037 9.808v2.358a1686.986 1686.986 0 01-16.958-20.733c-.859-1.048-1.713-2.132-2.572-3.201l-.225-.283-1.813-2.258-.325-.409c-.157-.204-.319-.404-.482-.608l-.639-.807a1718.614 1718.614 0 01-13.657-17.353c-2.619-3.39-5.406-6.979-8.23-10.678 0-2.658-.012-5.316-.037-7.974-.021-3.563-.036-7.124-.047-10.684v-17.997a759.043 759.043 0 016.638 5.821c5.291 4.684 9.869 8.875 13.997 12.821 1.53 1.46 3.053 2.929 4.569 4.406 2.493 2.41 5.071 4.904 7.648 7.335l.079.074c.749.697 1.498 1.399 2.252 2.096l.477.44.283.256.042.042c.959.87 1.954 1.756 3.049 2.704.251.225.524.44.749.655a151.502 151.502 0 005.317 4.385v1.436l-.042 6.864z" fill="#000"/><path d="M400.759 248.418a.243.243 0 00-.097-.114.46.46 0 00-.205-.205.815.815 0 00-.341-.095.971.971 0 00-.381.04.66.66 0 00-.287.173 2.246 2.246 0 00-.333.844 3.239 3.239 0 00-.114.883c-.009.245.081.488.26.703a.896.896 0 00.293.212.687.687 0 00.203.1c.077.023.16.036.245.036a.699.699 0 00.171 0h.049a.49.49 0 00.228-.065.533.533 0 00.161-.083.324.324 0 00.099-.119 2.653 2.653 0 00.049-2.31zm2.126-.041a.546.546 0 00-.096-.219.34.34 0 00-.164-.119.19.19 0 00-.12-.039.297.297 0 00-.199.1.514.514 0 00-.122.238c0 .072-.036.144-.052.222a3.43 3.43 0 00-.096 1.423c.015.224.045.447.088.664a.533.533 0 00.109.235.316.316 0 00.184.114.27.27 0 00.199-.044.43.43 0 00.149-.188 4.283 4.283 0 00.12-2.387zm1.939.161a.268.268 0 00-.019-.042c0-.052 0-.11-.03-.163a.51.51 0 00-.121-.241.279.279 0 00-.2-.092.279.279 0 00-.2.092.51.51 0 00-.121.241 5.647 5.647 0 00-.019 2.348.55.55 0 00.118.213c.052.055.113.09.178.102a.28.28 0 00.19-.036.424.424 0 00.153-.163c.148-.337.233-.721.245-1.117a3.1 3.1 0 00-.174-1.142zm66.908 56.562a782.115 782.115 0 00-13.872-5.959l-14.025-5.868-3.23-1.361c-3.404-1.431-6.923-2.91-10.379-4.384-5.127-2.197-9.324-4.078-13.216-5.927-4.501-2.143-8.809-4.383-12.806-6.677l-1.544-.879a.454.454 0 00-.596.187.478.478 0 00.128.622c1.996 1.292 4.103 2.449 6.267 3.623a178.372 178.372 0 006.471 3.339c3.745 1.843 7.916 3.751 13.132 6.001 3.598 1.549 7.264 3.093 10.815 4.582l2.673 1.131c4.668 1.961 9.334 3.926 13.998 5.895l.169.069c4.527 1.924 9.213 3.907 13.861 5.761l1.786.713a.468.468 0 00.604-.268.48.48 0 00-.001-.348.464.464 0 00-.235-.252zm-9.997 4.964c-3.09-1.621-6.271-3.19-9.34-4.732l-14.058-7.007-6.197-3.099-5.51-2.765-15.483-7.741a2818.295 2818.295 0 00-7.979-3.956l-1.457-.712a.5.5 0 00-.377-.026.484.484 0 00-.283.249.494.494 0 00-.027.366.487.487 0 00.24.278 626.925 626.925 0 008.255 4.162l41.785 20.953c2.772 1.404 5.644 2.855 8.511 4.216l1.462.697a.462.462 0 00.218.053.539.539 0 00.458-.287.494.494 0 00-.218-.649zm-5.961 5.04l-.523-.305a147.75 147.75 0 00-2.092-1.238l-2.657-1.476-17.132-9.468a196.01 196.01 0 00-4.707-2.56.445.445 0 00-.646.515.449.449 0 00.212.27c1.417.843 2.882 1.659 4.294 2.45l19.726 11.038a128.84 128.84 0 002.903 1.544l.141.073a.478.478 0 00.467-.014.478.478 0 00.176-.181.484.484 0 00-.162-.648zm-310.259 47.895a.49.49 0 00.338-.131c.983-.835 1.923-1.744 2.831-2.611.43-.418.865-.835 1.3-1.243a211.147 211.147 0 014.201-3.817 216.022 216.022 0 018.595-7.264c.667-.533 1.336-1.055 2.01-1.567.988-.778 2.009-1.566 2.992-2.391a.546.546 0 00.199-.573.536.536 0 00-.261-.33.579.579 0 00-.62.041c-1.612 1.044-3.148 2.24-4.583 3.358a158.508 158.508 0 00-4.405 3.556c-3.416 2.856-6.119 5.274-8.504 7.603l-.999.967a48.606 48.606 0 00-3.503 3.618.515.515 0 00.049.679.55.55 0 00.36.105zM145.54 387a.538.538 0 00.339-.119c.53-.429 1.012-.899 1.484-1.348l.302-.29.869-.816.869-.821.932-.894c.843-.806 1.685-1.612 2.517-2.418 2.268-2.191 4.532-4.381 6.793-6.572a2624.13 2624.13 0 0013.618-13.262 751.712 751.712 0 003.81-3.761l.89-.883c.965-.946 1.961-1.922 2.883-2.935a.508.508 0 00-.173-.841.54.54 0 00-.58.113 62.286 62.286 0 00-2.766 2.583l-.741.713-3.455 3.306a938.775 938.775 0 00-6.783 6.577c-1.346 1.316-2.695 2.63-4.048 3.942-3.137 3.053-6.385 6.2-9.538 9.341l-3.804 3.761-.907.909-.975.889-.355.346c-.529.517-1.059 1.033-1.589 1.627a.508.508 0 00.185.811.53.53 0 00.223.042zm8.204 15.297l-.197.247-.198.241-1.684 2.085a676.968 676.968 0 00-5.624 7.022c-.202.262-.399.536-.596.793l-.304.407a.558.558 0 00-.092.601.53.53 0 00.203.235.486.486 0 00.294.07.49.49 0 00.369-.177c2.074-2.358 4.086-4.824 6.039-7.241l2.877-3.527a.597.597 0 00.128-.205.65.65 0 00-.013-.483.6.6 0 00-.14-.196.737.737 0 00-1.062.128zm29.239-35.078c-.145.193-.294.376-.443.559l-.433.522c-.268.36-.552.726-.835 1.091l-.757.988c-.31.412-.624.825-.938 1.232a185.626 185.626 0 01-3.416 4.272c-1.984 2.413-4.045 4.837-6.034 7.177l-11.902 14.044c-.253.298-.402.449-.551.606-.15.157-.315.329-.583.642a.404.404 0 00.109.602.376.376 0 00.185.046h.108c.309-.094.619-.172.928-.246a.382.382 0 00.206-.125 9.79 9.79 0 01.515-.564c.201-.196.392-.401.572-.616l1.85-2.168 9.089-10.681a866.707 866.707 0 005.745-6.789c2.231-2.685 4.596-5.61 6.765-8.764.155-.23.299-.465.438-.705.139-.241.196-.329.304-.491a.53.53 0 00-.134-.737.566.566 0 00-.788.105z" fill="#000"/></svg>