<svg width="600" height="600" fill="none" xmlns="http://www.w3.org/2000/svg"><path d="M302.58 241.411c-.704-1.968-1.413-3.936-2.125-5.907l-.059-.539c.133-.275.244-.56.332-.853 3.428-5.951 4.216-13.607 2.11-20.454a27.075 27.075 0 00-4.981-9.235c-1.794-2.17-4.731-5.062-8.546-6.49-3.327-1.242-7.411-1.246-11.53 0-3.697 1.114-6.545 3.348-8.237 6.462-2.052 3.781-2.516 7.898-2.543 10.687a26.303 26.303 0 002.227 10.771c2.73 6.14 8.191 11.155 14.607 13.42.651.23 1.33.432 2.079.619.226.396.932 1.852.948 1.884.015.032 1.634 2.456 2.379 3.713.148.25.292.508.437.77.346.664.745 1.298 1.193 1.896.197.263.452.477.743.623.292.147.613.223.938.222a2.7 2.7 0 00.96-.19 18.218 18.218 0 002.071-1.052c.289-.162.573-.321.858-.472l.308-.166 2.61-1.393c.296-.158.6-.309.912-.46a14.007 14.007 0 001.982-1.111c1.045-.761.647-1.856.327-2.745zm-15.044-1.86a6.573 6.573 0 01-.14-.258 2.68 2.68 0 00-.437-.659 1.972 1.972 0 00-1.002-.396 4.643 4.643 0 01-.347-.076 22.363 22.363 0 01-4.15-1.603 23.762 23.762 0 01-4.825-3.225 23.491 23.491 0 01-6.795-10.012 24.375 24.375 0 01-.893-12.695 18.799 18.799 0 012.176-5.998 11.188 11.188 0 014.443-4.197 17.113 17.113 0 016.018-1.753 15.793 15.793 0 016.99.571c4.638 1.618 7.984 5.665 9.544 7.954a25.2 25.2 0 014.334 11.389 25.957 25.957 0 01-1.884 13.059c-.308.722-.648 1.44-1.01 2.142-.515-.071-1.826.473-4.182 1.559-.366.167-.686.318-.932.425-.702-2.352-1.498-5.121-2.13-7.958a87.31 87.31 0 01-.928-4.633 4.196 4.196 0 001.814-1.436c.749-1.083.877-2.504.979-3.646.214-2.428-.098-5.478-2.801-6.248a1.013 1.013 0 00-.827.321c-1.439 2.607-.971 5.764-.557 8.553.046.302.089.599.132.897.028.198.059.396.09.595l.047.266-.129.035c-1.198.297-2.43.43-3.662.397a20.738 20.738 0 00-2.696-3.57c-1.201-1.258-3.12-2.849-5.386-3.269a1.557 1.557 0 00-1.385.329 1.597 1.597 0 00-.46 1.349c.1.986.477 1.922 1.084 2.697 1.354 1.778 3.425 2.627 4.923 3.023 1.033.274 2.092.438 3.159.492a40.706 40.706 0 013.592 8.557c.472 1.503.901 3.138 1.346 5.129-.491.282-1.002.595-1.521.925-.605.396-1.096.734-1.537 1.075l-.055-.107zm4.782-7.359c.39 1.36.78 2.693 1.256 3.967-.554.25-1.127.527-1.708.825-.39-1.67-.85-3.352-1.373-4.998a44.49 44.49 0 00-2.859-6.967 31.967 31.967 0 00-.554-1.035 15.7 15.7 0 003.015-.369l.328-.079a86.298 86.298 0 001.895 8.656zm-1.068-19.066a.188.188 0 01.113-.115.34.34 0 01.078 0 .19.19 0 01.093.024c1.865.932 1.826 3.721 1.72 4.876-.089 1.023-.191 2.185-.721 3.078-.321.51-.782.913-1.326 1.158a52.86 52.86 0 01-.515-4.363 10.317 10.317 0 01.558-4.658zm-6.241 9.7a15.86 15.86 0 01-1.798-.298c-1.315-.305-3.156-.968-4.462-2.408a4.46 4.46 0 01-1.104-2.186c-.086-.456 0-.65.058-.73a.347.347 0 01.266-.095h.074c.464.063.916.197 1.341.397 1.561.67 2.973 1.833 4.357 3.546.433.56.858 1.147 1.272 1.774h-.004zm16.23 20.045a82.503 82.503 0 01-1.272.674l-3.986 2.131c-.308.17-.616.333-.925.499l-.616.33c-.148.079-.296.166-.444.254a6.024 6.024 0 01-1.171.567c-.448.139-.655-.048-.951-.52-.223-.349-.433-.706-.644-1.063-.109-.19-.222-.397-.335-.571l-1.908-3.174-.433-.718-.257-.432a22.69 22.69 0 012.894-1.746l.074-.043c.293-.151.581-.294.882-.437.46-.226.959-.46 1.525-.714h.031c.195-.087.39-.17.589-.254l.507-.21.094-.04a36.555 36.555 0 014.005-1.356l2.157 5.918c.024.072.055.143.082.215.07.166.128.337.172.511.01.039.016.079.019.119 0 0-.062.036-.089.06zM142.97 204.858a9.983 9.983 0 003.268 1.57 6.918 6.918 0 003.06.235h.049a.663.663 0 00.126 0c.416.968.94 1.889 1.565 2.747.27.393.568.785.968 1.283.049.059.094.122.143.185.269.41.638.751 1.075.992.19.087.398.131.608.13.764 0 1.544-.534 2.149-.946l.294-.2a23.188 23.188 0 002.962-2.354c.375-.286.639-.686.748-1.134.094-.581-.258-1.013-.601-1.433l-.041-.051-.6-.725-.658-.805c-.106-.129-.217-.255-.331-.392a6.302 6.302 0 01-.817-1.056 1.936 1.936 0 010-1.487c.02-.075.041-.149.057-.224.146-.582.258-1.171.335-1.765a11.5 11.5 0 00-.135-3.532c-.388-2.058-1.509-3.922-3.17-5.274a7.366 7.366 0 00-2.789-1.387 7.565 7.565 0 00-3.138-.128c-4.723.754-7.419 5.16-7.999 9.194-.216 1.542-.078 2.747.449 3.83a7.594 7.594 0 002.423 2.727zm14.298.581c.212.243.433.494.637.742.074.094.151.184.229.274.135.157.274.322.408.491.135.169.192.275 0 .467a8.679 8.679 0 01-1.123 1.008l-.196.161a22.985 22.985 0 01-2.823 2.001l-.061.04c-.196.121-.441.27-.658.208a1.246 1.246 0 01-.478-.393l-.069-.11c-.409-.416-.781-.875-1.189-1.404-.409-.53-.793-1.123-1.156-1.68-.143-.22-.286-.439-.433-.659a7.65 7.65 0 00.784-.259l.229-.086c.65-.243 1.274-.547 1.863-.907a16.214 16.214 0 001.634-1.138c.318-.236.615-.499.886-.785.033.08.073.158.119.232.414.636.884 1.238 1.405 1.797h-.008zm-10.352-14.644a7.15 7.15 0 012.504-.467 6.004 6.004 0 012.737.635c1.571.811 2.776 2.147 3.387 3.756.704 1.94.81 4.034.306 6.031l-.073.318c-.074.31-.151.632-.192.945a4.133 4.133 0 00-1.275.836l-.306.255c-.484.374-.991.719-1.52 1.032-.498.299-1.009.565-1.634.875l-.082.044-.694.341a.782.782 0 00-.368-.137c-.408-.048-.788-.063-1.172-.079a10.118 10.118 0 01-1.602-.145 8.112 8.112 0 01-2.451-.883c-1.916-1.071-3.043-2.66-3.104-4.363-.09-3.293 1.793-7.578 5.539-8.994zm201.505 5.817c-.63 1.953-1.34 4.067-2.165 6.442a.617.617 0 00.213.668.65.65 0 00.222.114 17.467 17.467 0 006.268 1.164h.527c.638 0 1.364-.039 1.926-.457a2.611 2.611 0 00.837-1.641 5.125 5.125 0 01.662-1.594 7.145 7.145 0 011.412-1.54c.32-.067.629-.177.917-.328a.389.389 0 00.188-.484l.032-.024c.57-.39 1.172-.758 1.754-1.113a48.5 48.5 0 001.384-.86 23.343 23.343 0 003.098-2.391c2.118-1.953 3.47-4.048 4.028-6.22 1.196-4.614-1.595-9.572-6.5-11.537a12.283 12.283 0 00-7.772-.336 16.035 16.035 0 00-6.823 3.84c-1.544 1.473-3.422 3.907-3.613 7.095-.144 2.435.694 5.08 2.488 7.908.283.447.589.878.917 1.294zm6.632 5.739c-.024.078-.04.16-.06.242-.127.543-.227.977-.861 1.063-.761.078-1.528.078-2.289 0a17.182 17.182 0 01-4.191-.832 315.655 315.655 0 011.734-5.29c.158.153.337.284.531.39a9.507 9.507 0 002.257.782h.02l.706.191c.255.071.518.153.797.242.893.307 1.811.539 2.744.692a6.175 6.175 0 00-1.388 2.52zm-6.628-20.102c3.334-3.942 8.57-5.86 13.036-4.735 3.956.981 7.836 4.915 7.178 9.557-.271 1.996-1.323 3.957-3.118 5.821-1.651 1.704-3.589 2.907-5.635 4.185-.784.471-1.535.993-2.249 1.562a15.934 15.934 0 01-2.644-.59 32.1 32.1 0 00-1.096-.304l-.236-.059-2.476-.59c-.59-.145-1.38-.391-1.432-.91a.439.439 0 00-.129-.264.458.458 0 00-.27-.127h-.027a.382.382 0 00-.331.191c-1.173-1.898-2.445-4.133-2.772-6.724a8.98 8.98 0 01.353-3.731 9.125 9.125 0 011.848-3.282zm2.676 198.701a21.538 21.538 0 00-8.508-6.609 17.242 17.242 0 00-9.631-1.084 20.156 20.156 0 00-8.715 3.858 20.34 20.34 0 00-5.997 7.444c-2.806 6.183-2.537 13.777.716 20.318.154.307.324.622.522.968a.574.574 0 00-.039.614.574.574 0 00.53.263 31.184 31.184 0 00-3.957 10.286.857.857 0 00.57 1.012 81.607 81.607 0 0011.938 3.956.858.858 0 00.202.024.833.833 0 00.724-.399c1.424-2.581 2.848-5.167 4.269-7.756a.13.13 0 00.091.024.143.143 0 00.119-.08l.661-1.319a.15.15 0 000-.155l-.028-.036c5.421-1.167 10.573-5.004 14.527-10.82 2.437-3.586 3.957-6.82 4.59-9.872.449-1.934.418-3.95-.091-5.868a14.15 14.15 0 00-2.493-4.769zm-21.416 36.831l-1.345 2.454a71.619 71.619 0 01-10.534-3.498c.763-3.4 2.08-6.65 3.898-9.617a.826.826 0 00.115-.422 14.91 14.91 0 012.643.462c.079 0 .162.04.249.064.273.071.539.151.792.239.983.319 1.93.743 2.825 1.263a15.953 15.953 0 013.245 2.541c.356.359.708.745 1.048 1.152-.978 1.779-1.957 3.567-2.936 5.362zm1.421-19.358a5.457 5.457 0 003.328 2.255 42.602 42.602 0 00-4.013 7.366.393.393 0 00-.031.192 18.505 18.505 0 00-1.449-.869 17.327 17.327 0 00-2.413-1.092 24.752 24.752 0 001.464-2.055 43.631 43.631 0 003.114-5.797zm.744-10.003c1.092 1.697.067 4.382-.621 6.151l-.143.374-.059.16a10.926 10.926 0 01-.337-2.303c-.027-1.267.147-3.036 1.16-4.382zm17.07 10.497c-2.492 4.227-6.865 9.737-13.56 12.016-.455.155-.95.298-1.504.442a15.79 15.79 0 00-1.187-1.319 16.83 16.83 0 00-1.694-1.414.404.404 0 00.301-.223 74.01 74.01 0 014.424-7.673c2.184-.112 3.957-1.502 5.077-2.649a22.911 22.911 0 002.338-2.869c.847-1.255 1.037-2.338.586-3.31a.583.583 0 00-.657-.283c-1.646.454-2.841 1.689-3.921 2.908a51.307 51.307 0 00-3.34 4.175c-.138.187-.273.375-.396.566l-.158.219c-1.836-.092-2.904-1.418-3.486-2.55.214-.522.419-1.036.613-1.558.565-1.38.963-2.823 1.187-4.298.147-1.247.056-2.98-1.214-4.163a.667.667 0 00-.914 0c-2.6 2.442-2.541 6.868-1.14 10.011a49.378 49.378 0 01-3.245 6.179 136.941 136.941 0 01-1.737 2.741 11.02 11.02 0 00-.625-.163 12.051 12.051 0 00-3.561-.399c-3.166-5.386-4.029-12.007-2.268-17.736a18.685 18.685 0 014.594-7.567 18.505 18.505 0 017.546-4.576 15.909 15.909 0 018.54-.346 18.663 18.663 0 018.626 4.979c2.896 2.885 4.353 5.881 4.285 8.916-.043 3.618-1.792 7.056-3.494 9.944h-.016zm-12.239.434a54.964 54.964 0 012.952-3.669l.131-.115c.902-1.02 1.836-2.076 3.059-2.602.031.65-.396 1.339-.792 1.881a22.913 22.913 0 01-1.828 2.191 7.908 7.908 0 01-3.506 2.314h-.016zm1.794-103.758c.946.933 2.281 1.407 3.972 1.407.72-.006 1.437-.081 2.142-.223a.503.503 0 00.306-.178.474.474 0 00.104-.332.555.555 0 00-.156-.357.584.584 0 00-.356-.173 29.461 29.461 0 00-.905-.06c-1.483-.087-3.01-.175-4.046-1.123a3.745 3.745 0 01-1.077-1.921 5.48 5.48 0 01-.16-1.195v-.247a1.398 1.398 0 00-.229-1.04.501.501 0 00-.623-.076c-.446.299-.446.912-.446 1.363v.103c-.007.475.036.949.127 1.415.169.99.638 1.909 1.347 2.637zM319.447 318h.061a.498.498 0 00.471-.345.417.417 0 00-.222-.509c-.382-.203-.765-.383-1.209-.601-.643-.311-1.309-.632-1.937-1.004a21.692 21.692 0 01-2.889-2.049.472.472 0 00-.654.023.492.492 0 00-.138.299.488.488 0 00-.383-.245 9.588 9.588 0 01-4.711-1.865c-1.194-.9-2.595-2.52-2.95-4.366a.438.438 0 00-.161-.25.426.426 0 00-.283-.087.407.407 0 00-.41.348c-.172 1.222.383 2.298.854 3.118a8.578 8.578 0 002.016 2.255 8.239 8.239 0 005.083 1.846c.187 0 .382 0 .555-.023a.474.474 0 00.459-.451l.05.068c.823.96 1.791 1.785 2.87 2.444a9.284 9.284 0 003.528 1.394zm26.562-46.001h.113a1.056 1.056 0 00.838-.367.855.855 0 00.147-.278l.046.044.021-.339v-.674a5.286 5.286 0 01.075-1.151c.13-.637.327-1.267.512-1.86.255-.808.54-1.615.838-2.382.146-.404.289-.807.419-1.211.788-2.272 1.777-4.517 2.732-6.688l.201-.46a.425.425 0 00-.175-.573.465.465 0 00-.604.133 24.84 24.84 0 00-2.284 3.451l-.348.638a33.098 33.098 0 00-1.571 3.12 40.994 40.994 0 00-1.409 3.851c-.398 1.287-.901 2.91-.238 4.262.062.13.158.243.278.328a.91.91 0 00.409.156zm-2.531-.397c.111.682.277 1.354.495 2.007a.584.584 0 00.192.279c.089.07.197.109.308.112h.075a.51.51 0 00.328-.189.573.573 0 00.124-.375 14.728 14.728 0 00-.313-1.784c-.056-.257-.111-.509-.159-.766a49.98 49.98 0 00-.543-2.503.525.525 0 00-.224-.309.477.477 0 00-.362-.062.445.445 0 00-.3.174.5.5 0 00-.097.348c.077.863.202 1.72.373 2.567.04.164.071.332.103.501zm-36.89 17.972c.122.495.459.942.955 1.266.174.102.385.158.602.16.065 0 .129-.007.191-.019.125-.022.241-.064.343-.125a.769.769 0 00.245-.224.411.411 0 00-.063-.546.535.535 0 00-.171-.1c-.081-.048-.062-.371-.058-.523a1.755 1.755 0 000-.29c-.028-.267-.062-.531-.095-.798l-.077-.605c-.1-.813-.172-1.708-.219-2.733v-.286c-.039-.806-.077-1.637-.048-2.451v-.98c0-.605 0-1.229.076-1.827a.378.378 0 00-.128-.322.63.63 0 00-.383-.16.75.75 0 00-.448.06.493.493 0 00-.268.285c-.07.223-.147.442-.23.657-.124.342-.248.695-.334 1.051-.124.501-.22 1.047-.292 1.66a18.626 18.626 0 00-.167 3.475 14.2 14.2 0 00.569 3.375zm-2.009 2.447c.194.262.385.52.569.79.039.062.09.111.148.143a.345.345 0 00.186.046.468.468 0 00.311-.131.588.588 0 00.198-.358c.024-.147 0-.3-.067-.424-.114-.197-.224-.41-.335-.607-.181-.335-.368-.683-.572-1.011a31.245 31.245 0 00-1.071-1.593l-.167-.233a8.877 8.877 0 00-.953-1.2 12.565 12.565 0 01-.616-.672c-.198-.225-.402-.458-.619-.675a.332.332 0 00-.251-.095.347.347 0 00-.241.128.423.423 0 00-.033.499c.127.213.264.41.398.631.197.29.383.592.555.905.245.445.512.872.8 1.277.077.111.154.225.227.34l.335.487c.231.348.462.697.696 1.036.15.246.328.484.502.717z" fill="#000"/><path d="M467 509.963c-.032-.474-.063-.952-.099-1.43l-.023-.344a.204.204 0 000-.035c-.04-.502-.079-1-.126-1.502-.142-1.501-.286-3.004-.43-4.508l-.039-.395-.454-4.714a24483.96 24483.96 0 00-1.664-17.412l-.134-1.379c-.504-5.27-1.029-10.719-1.738-16.064-.753-5.607-1.822-11.063-3.201-17.523-1.183-5.508-2.279-11.435-2.437-17.476-.13-5.081.237-10.667 1.183-17.594.438-3.299.97-6.649 1.482-9.877 1.183-7.578 2.433-15.409 2.638-23.236.248-9.617-.982-17.665-3.753-24.595l.291-.198a10.845 10.845 0 003.064-2.943 7.176 7.176 0 001.182-4.149c-.11-3.212-2.243-5.903-3.942-8.064a51.847 51.847 0 01-5.082-7.471 57.21 57.21 0 01-3.548-8.147c-1.62-4.572-2.83-9.356-4.005-13.987-.304-1.205-.607-2.41-.923-3.611-1.723-6.63-3.39-12.114-5.913-17.329-2.65-5.484-6.371-10.901-11.378-16.555a66.987 66.987 0 00-1.001-1.102c.173-.285.327-.542.461-.791a10.327 10.327 0 001.321-3.864 6.416 6.416 0 00-2.539-5.887c-2.366-1.643-4.826-.292-6.998.897l-.516.281-2.882 1.58a21.754 21.754 0 01-1.088-2.268 10.465 10.465 0 01-.757-3.986c.027-2.572.883-5.243 2.693-8.408l.323-.561c1.313-2.28 2.803-4.86 2.397-7.645-.331-2.28-2.015-4.26-4.865-5.741.388-.268.85-.406 1.321-.395a.745.745 0 00.709-.7.638.638 0 00-.532-.719h-.181a5.36 5.36 0 00-1.672.056 7.956 7.956 0 00.394-2.584 8.359 8.359 0 00-1.324-4.307.543.543 0 00-.659-.253.629.629 0 00-.394.688c.115.814.137 1.638.067 2.457a8.325 8.325 0 00-.997-2.118 7.713 7.713 0 00-2.76-2.564c-1.265-.672-2.846-.924-4.825-.762-.899.075-1.806.213-2.677.347-.871.135-1.711.261-2.571.336-1.625.146-3.259.17-4.888.071a33.917 33.917 0 01-19.113-7.313.714.714 0 00-.54-.166.704.704 0 00-.469.296c-1.045 1.403-.252 3.039.394 4.346l.056.115c.367.665.633 1.381.788 2.126.134.904-.288 1.734-.694 2.536l-.114.225a12.416 12.416 0 00-.185 10.668c.371.835.841 1.623 1.399 2.347.607.79 1.293 1.58 2.204 1.916 1.183.451 2.184-.158 2.945-.881a23.516 23.516 0 01-2.448 12.011c-.071.143-.15.285-.229.435a5.858 5.858 0 00-.856 2.473c-.035 1 .466 1.798.958 2.58l.202.328a16.231 16.231 0 011.943 11.672l-.106.478c-.347 1.58-.742 3.378.051 4.934 1.013 2.008 3.426 2.142 5.022 2.229 2.062.114 4.167.174 6.257.174h1.096a7.022 7.022 0 00-1.825 3.441 4.863 4.863 0 00.567 3.556l.138.194c-1.782 2.271-3.296 5.167-4.632 8.846-.611 1.687-1.155 3.437-1.679 5.136-1.128 3.647-2.299 7.416-4.242 10.775l-.091.154a42.47 42.47 0 01-4.68-2.292 72.871 72.871 0 01-8.933-6.073 350.781 350.781 0 01-4.857-3.84.756.756 0 00-.993 0c-.395.332-.789.672-1.183 1.008-.15-.17-.3-.34-.453-.502-.395-.419-.809-.83-1.254-1.225a7.172 7.172 0 00-.339-.292 6.785 6.785 0 01-.891-.862 4.08 4.08 0 01-.611-1.391l-.237-.79c-.157-.501-.311-1.003-.473-1.509l-.366-1.126-.911-2.813-.04-.119c-.362-1.134-.741-2.303-.5-3.453.164-.667.386-1.319.662-1.948.166-.395.335-.822.477-1.248.3-.917.576-2.086 0-3.023a1.43 1.43 0 00-.413-.472 1.436 1.436 0 00-.576-.247 2.185 2.185 0 00-1.68.601 9.701 9.701 0 00-2.263 3.228 15.449 15.449 0 00-.997 2.892 5.71 5.71 0 00-3.182-.885h-.079c-1.182-.044-3.212-.119-3.942 1.229a1.86 1.86 0 00-.13 1.331c-.132-.011-.265 0-.394.032a3.047 3.047 0 00-1.609 1.339 4.3 4.3 0 00-.481 2.947c-1.06 1.103-.946 2.889-.394 4.098a5.218 5.218 0 001.652 1.932c.67.473 1.408.842 2.188 1.094l.142.056a.518.518 0 00.666-.293.543.543 0 00-.225-.723 16.576 16.576 0 01-1.778-1.142 4.87 4.87 0 01-1.336-1.359 2.774 2.774 0 01-.359-2.106c.32.56.732 1.061 1.218 1.482a7.332 7.332 0 003.387 1.738c1.183.206 3.059-.055 3.465-1.616a.521.521 0 00-.221-.588.579.579 0 00-.346-.09.58.58 0 00-.332.133 3.392 3.392 0 01-1.241.711 2.88 2.88 0 01-1.621-.102 6.487 6.487 0 01-2.759-1.767 3.263 3.263 0 01-.97-2.611c.049-.441.203-.864.449-1.233.2-.285.46-.522.761-.695a.62.62 0 00.643.055c.424.749.909 1.461 1.45 2.13a16.898 16.898 0 001.881 1.995c.59.6 1.299 1.07 2.082 1.379.788.261 1.868.106 2.31-.85.331-.727.138-1.58-.592-2.635a.714.714 0 00-.737-.296.703.703 0 00-.256.11.658.658 0 00-.296.677c.017.085.05.167.099.24.426.691.508 1.118.445 1.288a.217.217 0 01-.165.126c-.481.139-1.155-.395-1.605-.754l-.185-.146a12.516 12.516 0 01-3.233-3.699c-.248-.43-.627-1.082-.497-1.513a.599.599 0 01.347-.367 3.934 3.934 0 011.656-.257h.256c1.384-.032 2.795.071 3.753 1.079a.53.53 0 00.552.15.627.627 0 00.395-.51 11.766 11.766 0 012.673-5.927c.457-.549.827-.877 1.159-.683.331.194.295.79.26 1.122a6.944 6.944 0 01-.789 2.169c-.11.225-.22.447-.319.672a6.3 6.3 0 00-.643 3.101c.118.967.345 1.917.675 2.833v.052c.059.197.122.395.181.588l.343 1.122.024.083c.22.735.473 1.581.733 2.371.079.257.154.518.228.79.21.944.577 1.845 1.085 2.667a8.194 8.194 0 001.651 1.581c.316.252.639.513.927.79.229.213.453.45.686.707l-3.154 2.655c-1.104.932-2.209 1.864-3.316 2.793-.185.158-.394.317-.587.482-.193.166-.367.297-.544.447h-.024l-1.257-.79a83.898 83.898 0 01-2.476-1.695l-.327-.222c-.639-.434-1.297-.881-1.577-1.56a.633.633 0 00-.82-.344.537.537 0 00-.308.703 5.09 5.09 0 001.711 2.142 43.4 43.4 0 002.665 1.956c.43.292.887.604 1.356.904a2.07 2.07 0 00-.157 1.948 24.812 24.812 0 002.444 4.473 57.662 57.662 0 005.101 6.578 47.597 47.597 0 01-7.301-1.185c-3.303-.79-6.501-1.806-9.461-2.797-2.271-.755-4.538-1.526-6.805-2.292l-5.472-1.853a.677.677 0 00-.457 0 20.585 20.585 0 00-.749-.691 22.076 22.076 0 00-1.691-1.32c-.166-.115-.359-.229-.545-.34a3.342 3.342 0 01-1.139-.905 3.52 3.52 0 01-.359-1.232 7.142 7.142 0 00-.153-.743 12.246 12.246 0 00-.734-1.944 12.71 12.71 0 00-2.172-3.181 430.44 430.44 0 001.62-4.595c.083-.241.166-.482.253-.723.189-.525.394-1.063.54-1.608a2.841 2.841 0 00.079-1.675 1.291 1.291 0 00-.789-.861c-.816-.277-1.904.32-2.48.699a11.577 11.577 0 00-2.759 2.655 8.675 8.675 0 00-1.419 2.663c-1.554-.751-3.418-.458-4.664.079a.404.404 0 00-.132.096.406.406 0 00-.081.141.462.462 0 00-.252.123 3.814 3.814 0 00-1.136 3.014h-.134a2.164 2.164 0 00-1.06.395 3.615 3.615 0 00-1.364 1.683 3.417 3.417 0 00-.142 2c-.086.024-.168.06-.245.106a1.713 1.713 0 00-.299.237c-.329.266-.56.635-.655 1.047-.108.439-.101.897.02 1.332.126.455.361.871.686 1.213.313.361.724.623 1.183.755a.508.508 0 00.492-.838 4.655 4.655 0 00-.362-.368 3.128 3.128 0 01-.394-.395 2.175 2.175 0 01-.442-.861 1.374 1.374 0 01.083-.755 1.42 1.42 0 01.138-.272 1.19 1.19 0 00.067-.115.621.621 0 01.083-.095c.258.422.634.76 1.08.972a.483.483 0 00.597-.143.493.493 0 00-.014-.615c-.422-.502-1.084-1.506-.761-2.604a2.3 2.3 0 01.722-1.114c.153-.139.333-.247.528-.316.081-.024.164-.039.248-.048h.174c.166.385.412.73.721 1.012a.505.505 0 00.671-.02.43.43 0 00.059-.593c-.789-1.055-1.002-2.765.106-3.84a.444.444 0 00.15-.296c1.183-.439 2.476-.395 4.045.15-.025.13-.044.262-.055.395a.39.39 0 00.062.293.39.39 0 00.249.165.494.494 0 00.58-.288c.788-2.047 2.203-4.927 4.979-6.322.437-.217.709-.229.788-.035.081.234.081.488 0 .723a12.154 12.154 0 01-.544 1.545c-.094.237-.189.47-.276.707a357.5 357.5 0 00-1.888 5.191.631.631 0 00.154.625 11.329 11.329 0 012.282 3.484c.265.629.475 1.279.627 1.944.024.103.043.206.063.305.079.594.295 1.162.631 1.659.333.387.734.709 1.183.952.126.075.248.154.37.233a19.4 19.4 0 012.827 2.256l-.663 1.561v.039c-.638 1.51-1.304 3.074-1.931 4.619-.875 2.165-1.66 4.497-1.487 6.891.233 3.252 2.228 6.227 5.914 8.846a42.308 42.308 0 005.145 2.995 94.812 94.812 0 006.26 2.928 78.608 78.608 0 0012.848 4.239 59.476 59.476 0 0013.369 1.581 48.028 48.028 0 0011.91-1.466 43.08 43.08 0 0012.725-5.484 44.158 44.158 0 001.029 6.93 43.382 43.382 0 003.269 9.277c1.647 3.374 3.323 5.871 5.286 7.858.375.396.753.727 1.147 1.059-2.523 6.148-5.046 12.979-7.707 20.881-3.197 9.483-6.091 18.965-9.276 29.53-1.522 5.046-2.973 9.989-3.994 15.014a74.694 74.694 0 00-1.486 15.615c.055 5.531.623 11.165 1.124 16.12.492 4.844 1.052 10.051 1.711 15.919.532 4.768 1.127 9.877 1.864 16.053.186 1.552.359 3.16.509 4.606.394 3.718.788 7.567 1.502 11.292.15.791.296 1.64.461 2.64a.686.686 0 000 .181c.034.381.107.757.217 1.123a.468.468 0 00.028.11c1.052 3.525 4.711 5.089 6.824 5.713a361.273 361.273 0 00-.059 3.161v.079c-.024 1.186-.052 2.371-.079 3.556-.04 1.806-.083 3.611-.115 5.421a58.384 58.384 0 00-17.212.316c-1.183.194-2.365.45-3.292 1.209a2.425 2.425 0 00-.788 2.912c.366.79 1.183 1.367 2.44 1.707 1.004.226 2.027.359 3.055.395l.899.063c6.308.537 12.561.857 18.592.952h4.652l2.33-.023h.572a6.772 6.772 0 001.699-.119c1.526-.395 1.463-2.011 1.415-3.196v-.395a280.826 280.826 0 00-.78-16.089 29.044 29.044 0 001.73-.482 8.476 8.476 0 003.064-1.58 4.848 4.848 0 001.577-3.359c.106-1.078.134-2.185.157-3.255 0-.447.02-.897.036-1.34.114-3.074.228-6.365.295-9.613.166-7.653.146-13.496-.055-18.937-.126-3.477-.394-7.029-.638-10.486-.647-8.791-1.313-17.886.169-26.721.856-5.085 2.606-10.462 5.519-16.93 1.183-2.651 2.492-5.421 4.069-8.664-.054 3.957.109 7.914.489 11.853.993 10.237 3.236 20.095 5.854 30.999l2.5 10.423c1.687 7.033 3.377 14.063 5.069 21.091l3.805 15.78c.138.573.264 1.158.394 1.746a29.89 29.89 0 001.451 5.137c.926 2.212 2.503 3.504 4.561 3.745a9.777 9.777 0 002.941-.158c.079.64.162 1.28.244 1.917l.127 1.173c.163 1.264.322 2.527.477 3.789.213 1.707.428 3.419.646 5.136a58.424 58.424 0 00-16.979 2.849c-1.12.364-2.279.79-3.075 1.679a2.43 2.43 0 00-.363 2.999c.485.747 1.356 1.185 2.669 1.328.347.035.696.052 1.045.051.674 0 1.356-.055 2.018-.111l.911-.067a268.262 268.262 0 0018.529-1.801 236.089 236.089 0 006.903-1.044l.567-.079a6.646 6.646 0 001.66-.367c1.451-.605 1.151-2.201.931-3.366-.024-.139-.052-.273-.071-.395a414.645 414.645 0 00-.813-4.58 267.392 267.392 0 00-2.605-12.453 15.92 15.92 0 002.874-1.498l.047-.023.189-.131a12.07 12.07 0 001.041-.79l.051-.047a.185.185 0 00.05-.068.182.182 0 00.017-.083l.008-.134zm-80.333-236.666h-.532c-.856-.032-1.739-.059-2.602-.158-.69-.079-1.668-.261-2.208-.948-.828-1.047-.457-2.707-.162-4.038.052-.241.103-.474.146-.696.78-3.986.172-8.119-1.722-11.71a10.655 10.655 0 00-.584-.953 5.71 5.71 0 01-.871-1.663c-.193-.79.228-1.557.642-2.319.087-.156.17-.31.249-.463a24.128 24.128 0 002.014-5.665c.607-2.733.752-5.548.43-8.329v-.071c.146-.174.288-.344.426-.494 2.133-2.311 5.393-5.211 9.087-3.706 1.553.632 2.444 1.912 2.365 3.425-.055 1.292-.642 2.486-1.21 3.639a13.733 13.733 0 00-1.072 2.624c-.537 2.145.169 4.121 1.801 5.025a2.812 2.812 0 002.448.206 4.243 4.243 0 001.518-1.268c.178-.206.363-.395.56-.609a4.076 4.076 0 016.505 1.113c.382.773.51 1.648.367 2.498-.395 2.229-2.366 3.758-4.124 5.109-.351.269-.694.53-1.013.79a11.996 11.996 0 00-2.87 3.078 5.86 5.86 0 00-.615 4.552c.544 1.975 1.991 3.528 3.185 4.662.639.6 1.337 1.209 2.164 1.888l-.071.04c-2.089 1.229-4.249 2.493-6.244 3.908-.276.193-.548.395-.808.6h-.237c-2.29.051-4.636.051-6.962-.055v-.012zm-32.043 38.246a39.871 39.871 0 01-2.614-4.042 26.645 26.645 0 01-.572-1.079l-.118-.213a2.939 2.939 0 01-.347-.865.742.742 0 01.213-.561c.213-.234.453-.442.713-.621l.107-.075c.134-.099.264-.189.367-.276l7.344-6.077c.221-.182.442-.363.655-.545l.788-.648.193-.158c6.008 4.808 11.52 9.012 18.032 11.774l.186.075a18.73 18.73 0 01-4.621 4.82 22.369 22.369 0 01-7.265 3.351 29.873 29.873 0 01-8.303.94 73.196 73.196 0 01-4.758-5.788v-.012zm44.501 44.962a38.837 38.837 0 01-4.108-8.415 42.856 42.856 0 01-2.366-12.177 36.347 36.347 0 005.78-5.113c5.271-5.796 8.105-13.038 10.183-19.332.351-.53.702-1.02 1.049-1.458a21.345 21.345 0 011.718-1.865c.343-.348.702-.707 1.041-1.075a.607.607 0 00.17-.385.607.607 0 00-.119-.405.633.633 0 00-.788-.19 7.408 7.408 0 00-1.758 1.241c.209-.683.394-1.375.619-2.062l.11-.36c.03-.097.04-.198.03-.299a.759.759 0 00-.285-.516.762.762 0 00-.269-.133.794.794 0 00-.615.06.798.798 0 00-.383.485c-.638 2.13-1.36 4.544-2.125 6.871l-.023.043a.267.267 0 000 .04c-.218.475-.403.965-.552 1.466a.582.582 0 000 .118c-2.09 6.002-4.337 10.522-7.096 14.224a34.136 34.136 0 01-7.199 7.092 42.87 42.87 0 01-.978.691 40.36 40.36 0 01-10.159 4.998c-7.294 2.422-15.525 2.98-23.8 1.616-8.141-1.343-16.424-4.322-24.612-8.858-2.953-1.635-6.158-3.749-7.581-7.033-1.577-3.623.15-7.538 1.667-10.995.209-.474.418-.945.611-1.403l1.112-2.639 9.34 3.169.181.059c3.083 1.047 6.268 2.129 9.462 3.01a50.708 50.708 0 0011.397 1.948h.071c.477.024.918.036 1.348.036h.375a30.58 30.58 0 005.282-.478c5.953-1.083 10.992-3.979 14.193-8.147.374-.486.733-1 1.096-1.581l.027-.031.552-.905a.079.079 0 000-.043c2.034-3.509 3.229-7.448 4.388-11.285.213-.699.426-1.398.639-2.09 1.218-3.907 2.696-7.981 5.227-11.3a3.81 3.81 0 002.318.471c1.428-.154 2.701-.842 3.943-1.506l1.344-.719a100.011 100.011 0 013.296-1.707 27.708 27.708 0 019.115-2.805.79.79 0 00.635-1.086.704.704 0 00-.667-.411c-2.984-.028-5.835 1.007-7.711 1.786-2.401.999-4.731 2.24-6.99 3.445l-.331.178c-1.002.533-2.05 1.094-3.119 1.086a1.863 1.863 0 01-.946-.253l-.544-.494a2.418 2.418 0 01-.394-.936c-.422-2.106 1.254-3.994 2.732-5.207l.067-.052 1.372-1.031c1.183-.842 2.488-1.608 3.733-2.347l1.301-.79c.438-.269.883-.537 1.333-.79.367-.226.741-.451 1.116-.668a341.626 341.626 0 014.943-2.868 574.854 574.854 0 016.679-3.75l.965-.541 3.675-2.027c.189-.103.394-.217.579-.328 1.013-.581 2.058-1.185 3.154-1.225 2.271-.075 3.576 2.41 3.659 4.247.082 1.838-.694 3.351-1.538 4.769l-.607.984c-.343.545-.698 1.11-1.009 1.683a.54.54 0 00-.05.386.541.541 0 00.219.321.515.515 0 00.359.102.515.515 0 00.335-.165c.438-.464.844-.958 1.214-1.477a115.02 115.02 0 013.844 4.642 76.923 76.923 0 015.551 8.159c2.76 4.686 4.928 10.032 6.868 16.835.788 2.73 1.478 5.512 2.16 8.199.761 2.998 1.545 6.096 2.428 9.122 1.36 4.659 3.355 10.7 6.734 16.089a49.433 49.433 0 002.988 4.117 53.576 53.576 0 012.299 3.066c2.057 2.999 2.519 5.492 1.403 7.622a8.965 8.965 0 01-2.984 3.16.212.212 0 00-.111.024l-.997.624a.226.226 0 00-.075.095c-.788.454-1.601.857-2.231 1.162a78.46 78.46 0 01-9.659 3.82c-5.342 1.774-10.865 3.323-16.215 4.825l-.209.059-4.092 1.173c-6.603 1.877-12.986 3.323-18.462.423a12.683 12.683 0 01-1.719-1.094.172.172 0 00-.067-.103l-.911-.739a.197.197 0 00-.102-.039 21.176 21.176 0 01-3.473-4.11zm63.006 154.485l-.146.06a19.76 19.76 0 01-.969.335c-1.459.479-2.981.838-4.455 1.186l-1.077.253c-1.257.3-2.519.6-3.78.893l-1.061.256c-.291.072-.587.139-.883.198-.475.101-.955.173-1.439.213-1.206.095-2.085-.091-2.759-.573a4.557 4.557 0 01-1.502-2.113 30.17 30.17 0 01-1.301-4.742l-.395-1.817-3.69-15.208c-1.506-6.25-3.017-12.502-4.533-18.755-.939-3.877-1.877-7.756-2.815-11.636-2.338-9.676-4.751-19.684-5.989-29.771a109 109 0 01-.835-15.152c0-.905.043-1.809.074-2.722a2288.04 2288.04 0 012.066-4.161c1.656-3.318 3.43-6.629 5.153-9.838 1.029-1.924 2.097-3.911 3.122-5.879 1.837-3.496 4.1-8.139 5.35-13.038l1.112-1.095.788-.79 1.211-1.185.118-.115c1.612-1.58 3.28-3.224 4.833-4.931a.717.717 0 00-.5-1.222.708.708 0 00-.505.207c-1.739 1.525-3.414 3.161-5.035 4.765l-1.308 1.288-.485.466-.032.028-1.459 1.434a.217.217 0 00-.051.091v.079l-.5 1.857c-.111.363-.221.727-.34 1.09-1.576 4.884-4.123 9.617-6.378 13.671l-1.061 1.9-.071.127c-.556.988-1.119 1.975-1.675 3.007a153.254 153.254 0 00-1.632 3.034 204.871 204.871 0 00-1.971 3.876c-.418.824-.849 1.691-1.294 2.6l-.962 1.896a.205.205 0 00-.126.186v.063c-1.06 2.193-2.196 4.56-3.567 7.436-2.216 4.635-4.731 10.055-6.367 15.721-3.154 10.778-2.342 22.055-1.577 32.956l.157 2.18c.868 12.438.604 25.03.182 36.785 0 .414-.024.833-.04 1.252v.039a125.698 125.698 0 01-.126 3.209c-.079 1.477-.575 2.422-1.6 3.058a12.28 12.28 0 01-3.414 1.276h-.048l-.37.095h-.063c-.371.087-.734.17-1.108.245-.913.178-1.834.31-2.76.395-2.366.25-4.756.16-7.096-.269-.28-.059-.56-.122-.832-.197l-.394-.111a9.11 9.11 0 01-4.609-2.912 5.117 5.117 0 01-1.096-2.619c0-.107-.051-.486-.071-.664a.347.347 0 000-.091c-.126-1.612-.291-2.987-.465-4.445v-.099c-.059-.498-.122-1.011-.181-1.556a359.799 359.799 0 00-.726-5.765c-.098-.755-.197-1.505-.291-2.26-.635-4.97-1.219-9.984-1.786-14.832l-.122-1.055c-.651-5.603-1.23-10.802-1.767-15.907l-.149-1.438c-.493-4.686-1.002-9.53-1.25-14.311a77.553 77.553 0 01.635-15.839 117.98 117.98 0 013.504-14.903c3.052-10.502 5.997-20.151 9.001-29.432 3.079-9.533 5.819-17.246 8.606-24.239a14.958 14.958 0 005.681 2.465 19.43 19.43 0 003.674.336 30.464 30.464 0 006.02-.668c2.831-.569 5.645-1.406 8.366-2.216l.224-.067c.529-.158 1.053-.316 1.577-.467l2.172-.636c2.831-.827 5.66-1.656 8.488-2.489 3.016-.885 6.58-1.975 10.148-3.346a77.8 77.8 0 004.951-2.09 39.003 39.003 0 002.366-1.186c2.282 6.034 3.445 13.062 3.449 20.901 0 8.669-1.364 17.385-2.696 25.785-.355 2.264-.726 4.606-1.069 6.93-.737 5.041-1.509 11.035-1.636 17.238a81.666 81.666 0 001.597 17.171c.394 2.122.863 4.263 1.301 6.345.753 3.556 1.53 7.239 2.105 10.893.935 5.899 1.557 11.929 2.098 17.571.35 3.682.689 7.364 1.029 11.062l.618 6.717c.284 3.003.566 6.008.844 9.016.079.854.146 1.711.213 2.573.11 1.414.237 3.01.434 4.535a12.433 12.433 0 01-2.977 1.612v-.004z" fill="#000"/><path d="M388.258 254.096c-1.03-.353-1.834.335-2.544.941-.162.139-.324.279-.485.401a6.587 6.587 0 01-3.736 1.52.462.462 0 00-.351.156.545.545 0 00-.142.38.583.583 0 00.136.393c.092.107.218.17.353.177a5.994 5.994 0 003.76-1.198c.502-.35.983-.732 1.442-1.145l.044-.039c.61-.523 1.055-.615 1.483-.31.174.115.321.272.429.459.108.187.174.398.193.617.012.34-.043.679-.163.994-.12.315-.301.599-.532.831-.654.706-1.575 1.067-2.464 1.42-.339.135-.694.275-1.022.436a.464.464 0 00-.176.216.51.51 0 00-.026.287.474.474 0 00.133.249.424.424 0 00.243.119h.049c1.211-.161 2.455-.436 3.501-1.268a3.87 3.87 0 001.115-1.273c.28-.509.451-1.078.501-1.667a2.91 2.91 0 00-.457-1.659 2.582 2.582 0 00-1.284-1.037zm-2.704-16.822c.088.051.173.108.252.17a3.3 3.3 0 01.5.488c.321.392.587.819.793 1.272.191.43.339.875.442 1.329l.089.333c.026.11.057.216.088.321.058.174.106.35.142.529v.077c.046.307.114.611.203.91.032.086.091.16.17.213a.494.494 0 00.273.084h.031a.415.415 0 00.253-.095.357.357 0 00.128-.222c.054-.346.078-.695.07-1.044v-.407a4.682 4.682 0 000-.67 6.335 6.335 0 00-.553-2.077 4.93 4.93 0 00-1.058-1.5c-.663-.63-1.252-.955-1.77-.983a.58.58 0 00-.318.065.521.521 0 00-.222.219.576.576 0 00.089.667c.118.121.252.229.398.321zM384 246c.58 0 1-1.052 1-2.5s-.42-2.5-1-2.5c-.58 0-1 1.052-1 2.5s.42 2.5 1 2.5zm-181.105 1.153a9.43 9.43 0 00-.538.682c-.317.45-.588.925-.812 1.419a5.018 5.018 0 00-.427 3.354c.021.104.079.2.164.27a.547.547 0 00.31.122h.043a.684.684 0 00.355-.1.601.601 0 00.234-.264c.167-.392.316-.839.462-1.25.203-.627.447-1.242.73-1.842.243-.496.528-.973.854-1.427.06-.082.124-.16.183-.239.341-.347.535-.794.547-1.261a2.063 2.063 0 00-.559-1.125c-.073-.094-.15-.192-.218-.29a9.5 9.5 0 01-.854-1.497 12.592 12.592 0 01-.923-3.339.375.375 0 00-.15-.273.452.452 0 00-.319-.091.595.595 0 00-.37.137.505.505 0 00-.181.325 8.193 8.193 0 00.474 3.355c.186.538.417 1.062.692 1.567.132.251.286.506.448.756.026.04.068.091.12.153.096.101.172.217.226.341 0 .071-.218.267-.312.353-.094.086-.141.117-.179.164zm-16.671 42.285c1.13.383 2.313.572 3.503.562a16.4 16.4 0 005.021-.869 23.593 23.593 0 005.057-2.395.406.406 0 00.179-.234.417.417 0 00-.025-.295.402.402 0 00-.193-.197.382.382 0 00-.272-.021c-.787.262-1.574.557-2.326.844-2.687 1.014-5.47 2.06-8.37 1.821-3.089-.254-5.718-1.906-7.033-4.443a.398.398 0 00-.222-.191.381.381 0 00-.289.018.395.395 0 00-.214.2.41.41 0 00-.022.296c.909 3.022 3.656 4.371 5.206 4.904zm8.072-32.028c.62.547 1.36.972 2.174 1.249a6.187 6.187 0 001.997.341c.247 0 .493-.016.738-.048a7.095 7.095 0 002.578-.934.398.398 0 00.202-.233.35.35 0 00-.042-.293.44.44 0 00-.265-.199.502.502 0 00-.346.025c-1.207.509-2.945.529-4.435.055a5.601 5.601 0 01-1.68-.87l-.134-.102a3.889 3.889 0 01-.596-.508l-.237-.27c-.133-.16-.275-.341-.428-.484a.437.437 0 00-.248-.132.468.468 0 00-.286.04.494.494 0 00-.234.207.417.417 0 00-.045.291 4.108 4.108 0 001.287 1.865zm-1.239-18.824a.454.454 0 00.363.411c.03.004.061.004.091 0a.418.418 0 00.354-.222.468.468 0 00.038-.078.96.96 0 00.086-.083c.07-.082.14-.164.219-.242l.045-.046a2.34 2.34 0 01.173-.172l.041-.033a.964.964 0 00.215-.082c.05-.033.102-.062.156-.087h.05l.136-.041.144-.025h.396a.444.444 0 00.103 0h.054l.177.05.169.057h-.033l.346.124.058.045.033.025c.021 0 .045.024.078.045.049.041.094.085.136.131a.775.775 0 001.299-.388.767.767 0 00-.082-.533v-.045a.789.789 0 00-.116-.185l-.078-.128-.07-.098a2.671 2.671 0 00-.503-.482 2.591 2.591 0 00-1.068-.448 2.73 2.73 0 00-1.286.045 2.912 2.912 0 00-1.08.662.747.747 0 00-.178.272 2.468 2.468 0 00-.412.679 1.858 1.858 0 00-.103.46c-.011.1-.011.201 0 .301.041.02.045.061.049.111zm31.816 56.78c.324-.287.633-.542.942-.778l.064-.047a17.03 17.03 0 0111.133-3.392c1.816.092 4.409.471 6.353 1.764a4.399 4.399 0 011.527 1.763c.225.461.391.95.493 1.452.028.12.048.248.068.376 0 .055.02.107.028.163.052.385.078.773.076 1.161v.315c0 .26-.02.507-.044.762a9.262 9.262 0 01-1.022 3.308v.032l-.04.08c-.068.127-.145.255-.225.399-.172.283-.372.574-.605.885l-.345.459c.024-.104.053-.211.077-.323v-.076c0-.06.024-.116.028-.159.022-.086.039-.172.052-.26l.064-.371a7.55 7.55 0 00.06-.423 13.533 13.533 0 00-.092-4.265c0-.084-.032-.167-.056-.283l-.056-.267a12.303 12.303 0 00-.141-.551c-.052-.18-.076-.279-.12-.399s-.132-.375-.2-.563a8.595 8.595 0 00-.702-1.448 6.172 6.172 0 00-.946-1.197c-.521-.51-1.559-1.328-2.649-1.057a.401.401 0 00-.292.371.361.361 0 00.212.375l.401.172c.573.188 1.097.5 1.535.913.189.2.36.415.513.643.301.45.543.937.721 1.448.056.156.113.315.161.475.101.317.185.639.252.965a12.356 12.356 0 01.185 4.421l-.037.271c0 .06 0 .12-.028.184l-.028.207a7.655 7.655 0 01-.176.862c-.086.39-.271.751-.537 1.049a.766.766 0 01-.545.244.352.352 0 01-.146-.038.35.35 0 01-.115-.098 1.84 1.84 0 01-.236-.926v-.067a.29.29 0 010-.072c-.036-.399-.056-.838-.076-1.261v-.359a18.613 18.613 0 00-.453-3.886c-.024-.092-.048-.188-.076-.279a6.085 6.085 0 00-.205-.587 5.258 5.258 0 00-.3-.646 4.753 4.753 0 00-.986-1.269 5.479 5.479 0 00-.89-.654l-.04-.02a6.996 6.996 0 00-1.908-.718.496.496 0 00-.585.283.512.512 0 00.193.638l.072.048.208.14c.329.215.677.443 1.05.646.504.248.964.575 1.363.97.048.051.092.095.132.147l.032.032c.156.194.291.404.401.627.096.183.178.374.244.57.024.06.044.124.065.188a8.1 8.1 0 01.248 1.165c.116.849.168 1.727.216 2.577l.049.798c0 .144 0 .291.02.447.02.155 0 .303.02.459a2.968 2.968 0 00.617 1.907c.156.168.346.302.557.394.211.091.439.137.669.136a1.863 1.863 0 001.086-.355l-.032.068.08-.104.129-.103c.048-.041.093-.085.136-.132a.498.498 0 00.549.104 5.837 5.837 0 002.136-1.963c6.14-.14 12.188-.096 17.979.127h.136c.557 0 .962.052 1.078.443.048.211.074.426.076.643v.231c.02.399.044.798.065 1.197v.068c.088 1.612.171 3.225.248 4.839.18 3.691.313 6.783.401 9.696v.167c.024.666.048 1.325.068 1.995-.629.072-1.263.172-1.896.303-1.423.304-2.893.675-3.935 1.52a.319.319 0 00-.097.399.402.402 0 00.437.24c.465-.1.921-.238 1.363-.411l.601-.2c.77-.227 1.367-.379 1.936-.494.598-.12 1.203-.208 1.811-.264.401-.04.802-.064 1.247-.076h.974c.529 0 1.078.052 1.683.12.541.064 1.03.14 1.487.232.276.047.549.107.821.175.505.124 1.018.275 1.515.419l.333.096c.313.092.621.215.922.331.341.143.69.267 1.046.371h.1a.452.452 0 00.401-.255.367.367 0 00-.1-.463c-1.175-.91-2.782-1.389-3.892-1.672a17.186 17.186 0 00-.994-.219c-.024-.918-.052-1.834-.084-2.749a766.071 766.071 0 00-.858-19.598l-.064-1.165c-.04-.766-.08-1.556-.557-2.21a2.737 2.737 0 00-2.04-1.002h-.092a42.685 42.685 0 00-6.813-1.995c-1.964-.427-7.05-.526-14.348-.279a6.08 6.08 0 00-.966-1.484c-1.27-1.429-3.423-2.326-6.581-2.753a18.233 18.233 0 00-7.29.518 17.554 17.554 0 00-7.114 3.938.477.477 0 00-.163.335.466.466 0 00.135.348.524.524 0 00.354.192.503.503 0 00.384-.121zm21.798 4.585c.101-.553.156-1.114.164-1.676a350.21 350.21 0 0119.731.18h.18c.665.019 1.146.067 1.286.55.062.262.093.529.093.798v.267l.08 1.485c.108 1.919.204 3.83.296 5.745.197 3.934.365 7.804.501 11.506.056 1.457.1 2.913.149 4.369a18.681 18.681 0 00-1.519-.088h-.862v-.466a644.32 644.32 0 00-.633-14.882l-.145-2.622a3.31 3.31 0 00-.472-1.871 2.326 2.326 0 00-1.736-.854c-.577-.063-1.166-.071-1.739-.079h-.597a338.406 338.406 0 00-14.929-.108h-.529a10.96 10.96 0 00.681-2.246v-.008z" fill="#000"/><path d="M235.755 297.015a6.005 6.005 0 00-.687-.926 4.432 4.432 0 00-1.076-.844h-.024a2.816 2.816 0 00-.55-.232.307.307 0 00-.17-.002.34.34 0 00-.15.091.41.41 0 00-.089.181.435.435 0 00.007.206.394.394 0 00.13.229l.251.201c.142.099.275.211.399.337l.072.081c.179.198.344.388.523.601.089.104.168.216.247.329.256.358.476.748.653 1.162.031.066.057.134.079.205.389 1.026.805 4.818.708 5.929-.012.099.011.2.064.281a.34.34 0 00.218.153.362.362 0 00.093 0 .381.381 0 00.241-.079.46.46 0 00.154-.223c.368-1.162 0-5.035-.395-6.228a6.8 6.8 0 00-.247-.627l-.114.066.103-.085a6.331 6.331 0 00-.44-.806zm25.402 31.754a.405.405 0 00.437.024 3.12 3.12 0 00.368-.232c.149-.113.314-.204.489-.271a3.664 3.664 0 011.058-.12c.717 0 1.43.04 1.97.08l.873.068.401.032c.881.072 1.775.175 2.672.283.364.04.749.108 1.117.172l.373.063c.467.078.94.122 1.414.132h.188a.529.529 0 00.473-.427.423.423 0 00-.249-.479 7.073 7.073 0 00-1.802-.482 30.184 30.184 0 00-1.142-.164l-.436-.06a37.746 37.746 0 00-2.612-.263l-.849-.052-.401-.024a13.43 13.43 0 00-2.583.028c-.529.08-1.779.359-1.907 1.265a.44.44 0 00.148.427zm1.905 2.415a20.64 20.64 0 011.771-.175c.267 0 .53-.026.801-.03.387 0 .774 0 1.195.019.422.018.863.052 1.311.108.449.056.847.119 1.257.198.41.078.951.205 1.431.344l.522.145c.801.243 1.586.557 2.348.86l.812.317a.39.39 0 00.143.03c.06 0 .119-.015.171-.046a.314.314 0 00.119-.126.4.4 0 00-.108-.53 11.404 11.404 0 00-3.949-1.764 16.488 16.488 0 00-1.458-.291 17.756 17.756 0 00-1.825-.209 11.13 11.13 0 00-.774-.034c-.387 0-.816 0-1.218.022a14.81 14.81 0 00-1.783.191c-.636.106-1.262.261-1.872.463a1.333 1.333 0 00-.577.285c-.164.139-.29.316-.367.515a.294.294 0 00.026.228c.039.07.105.122.183.145a.34.34 0 00.361-.094.328.328 0 00.065-.111c.12-.344.707-.4 1.137-.441l.278-.019z" fill="#000"/><path d="M270.673 334.593l-.114-.024a14.177 14.177 0 00-.733-.146c-.249-.043-.501-.087-.753-.122l-.173-.024a19.091 19.091 0 00-2.333-.173h-.142c-.394 0-.82 0-1.246.043h-.138c-.303.024-.618.063-.938.114-.725.119-2.033.489-2.668 1.644a.4.4 0 00-.048.155.405.405 0 00.214.409.392.392 0 00.453-.027.408.408 0 00.103-.123c.492-.848 1.544-1.025 2.609-1.088h.291c.024 1.679.044 3.356.059 5.029.052 5.936 0 12.219-.102 19.168l-.032 1.667-1.001.063c-4.902.303-9.966.615-14.956.788-6.337.221-11.618.221-16.623 0a138.352 138.352 0 01-8.626-.65v-.895c.118-6.893.24-14.024.429-21.031.126-4.679.276-9.602.445-14.639.048-1.379.096-2.759.146-4.138.045-1.275.091-2.545.138-3.812.111-3.007.166-6.062.221-9.018.016-.867.033-1.733.051-2.597 1.222-.111 2.432-.249 3.602-.394 1.75-.201 3.547-.395 5.399-.517h.241l-.048-.079a.368.368 0 00.15-.283 5.504 5.504 0 00-.02-.812 8.543 8.543 0 00-1.422-3.969l-.146-.217c-.091-.13-.189-.256-.284-.394l-.071-.095c-.185-.244-.394-.477-.599-.713l-.24-.249a9.877 9.877 0 00-2.179-1.686l-.028-.032h-.043l-1.577.13c-4.189.367-7.125.725-8.485 1.041l-.106.023v.115c0 .094-.063 1.612-.162 4.134-.216.213-.445.442-.705.706a50.358 50.358 0 00-1.316-2.365c-2.168-3.725-4.379-7.26-7.618-9.562.24-1.399-.13-2.759-1.159-4.288a33.266 33.266 0 00-1.08-1.494 24.265 24.265 0 01-1.639-2.397 18.62 18.62 0 01-1.789-4.442 24.099 24.099 0 01-.639-4.82c2.909-1.533 5.009-3.453 6.428-5.877a11.128 11.128 0 001.47-4.264c.143-1.65.09-3.31-.158-4.947l-.075-.69c-.429-4.055-.89-8.178-1.292-11.725v-.115c-.158-1.411-.32-2.865-.493-4.3a8.044 8.044 0 005.1-1.557 8.666 8.666 0 003.03-4.544c1.06-3.666-.035-7.713-3.003-11.103-2.735-3.13-6.699-5.491-11.157-6.653a20.7 20.7 0 00-12.8.615 19.603 19.603 0 00-5.726 3.492 17.718 17.718 0 00-2.337 2.491c-.15.193-.304.394-.453.599.181-1.261-.028-2.267-.631-2.996a2.471 2.471 0 00-1.73-.938c-1.021-.094-2.297.394-3.413 1.344a21.8 21.8 0 00-3.909 4.568 29.193 29.193 0 00-4.966 16.716c.034 2.005.289 3.999.761 5.948.252 1.036.587 2.061.91 3.05a35.968 35.968 0 011.009 3.492c1.08 5.022-1.005 9.897-2.94 13.106-1.714 2.83-3.866 5.423-5.947 7.93-.855 1.033-1.742 2.101-2.585 3.153-4.757 6.042-10.377 14.229-11.59 23.913a26.849 26.849 0 001.336 12.805c1.205 3.177 3.546 7.3 7.72 8.892a5.144 5.144 0 001.876.351c.189 0 .394 0 .583-.035.047.185.095.362.134.524a122.746 122.746 0 01-1.907 17.271 116.814 116.814 0 01-2.759 11.557c-.394 1.391-.871 2.786-1.32 4.138l-.036.114-.449 1.388c-.512 1.576-.973 3.614 0 5.565.071.146.154.292.244.442v.051c-1.229 9.357-1.994 18.919-2.731 28.169l-.142 1.774a2510.823 2510.823 0 00-1.462 19.439c-.358 4.97-.729 10.106-1.119 15.167-1.08 14.004-2.077 24.677-3.228 34.598-1.466 12.612-3.188 23.814-5.265 34.29-1.482 7.292-3.145 14.418-4.965 21.15l-.249.891a.192.192 0 00.091.22l.102.059c.401.225.815.428 1.238.607l.158.068h.035c.434.181.863.342 1.316.488.532.17 1.076.327 1.62.461a173.935 173.935 0 01-2.195 12.7.748.748 0 00.477.906c4.701 1.549 9.494 3.086 14.128 4.568l2.995.962 4.836 1.577c3.917 1.292 7.972 2.629 12.008 3.764a52.247 52.247 0 009.557 1.864h.055a.747.747 0 00.701-.694c.134-1.513-1.072-2.57-1.97-3.236-1.466-1.06-2.991-2.01-4.434-2.889a97.138 97.138 0 00-9.458-5.124 87.917 87.917 0 00-5.033-2.183l-.059-.024-.666-.26a84.123 84.123 0 00-1.765-.674l-.308-.11c-.666-.237-1.355-.481-1.785-1.001a3.126 3.126 0 01-.532-1.916v-2.479c0-1.096.032-2.199.051-3.295 2.4.272 4.793.508 7.094.709l1.257.111h.118a.201.201 0 00.19-.134l.035-.111c.11-.339.229-.674.343-1.013l.079-.228.788-2.365c1.576-4.671 3.031-9.164 4.753-14.548 3.271-10.248 6.199-19.486 8.894-29.068 1.577-5.593 2.7-10.22 3.547-14.56 1.041-5.38 1.644-10.756 2.058-14.835.603-5.912 1.075-10.918 1.485-15.624.788 3.007 1.541 5.983 2.184 8.86 1.69 7.52 3.058 15.005 4.599 23.933l.867 5.064c1.143 6.646 2.282 13.29 3.417 19.932 1.363 8.037 2.758 16.598 3.696 25.158.292 2.732.532 5.4.71 7.931 0 .264.039.528.055.788v.142c.003.05.025.097.061.132a.2.2 0 00.136.053h.693c.241 0 .481 0 .714-.035a46.586 46.586 0 004.76-.481 69.045 69.045 0 003.287-.584c1.119 5.913 1.919 11.312 2.432 16.48a.737.737 0 00.725.717c4.981.047 10.045.051 14.94.055h3.05c1.703 0 3.413 0 5.124.036 1.899 0 3.83.035 5.765.035 2.262 0 4.532-.024 6.779-.102a51.664 51.664 0 009.671-1.136.668.668 0 00.414-.295.791.791 0 00.098-.591c-.327-1.478-1.797-2.121-2.877-2.476-1.742-.571-3.547-1.024-5.099-1.407a96.481 96.481 0 00-10.586-1.97c-1.761-.229-3.602-.395-5.47-.552a98.181 98.181 0 00-2.652-.154h-.319c-.71-.024-1.443-.047-2.014-.414a3.15 3.15 0 01-1.088-1.655c-.181-.528-.339-1.072-.496-1.604l-.225-.769-1.659-5.467a133.72 133.72 0 00-.82-2.719l10.924-2.937h.028l1.356-.366.169-.055a.198.198 0 00.134-.233l-.031-.138c-.063-.272-.127-.544-.186-.816l-.031-.15v-.043l-.024-.095c-.362-1.608-.728-3.216-1.095-4.824l-.119-.508c-.808-3.548-1.639-7.197-2.427-10.8-2.562-11.781-4.804-22.466-6.85-32.714a3865.946 3865.946 0 01-6.42-32.635 5689.844 5689.844 0 01-6.163-32.686c-1.462-7.883-2.98-15.892-4.45-23.649l-1.237-6.535a23.52 23.52 0 011.34-.433l.075-.024.24-.067.154-.039.449-.111.122-.027a.093.093 0 00.057-.035.086.086 0 00.018-.064l-.067-1.182a169.2 169.2 0 00-.276-4.336 341.49 341.49 0 00-.307-3.433c-.099-1.06-.197-2.12-.288-3.181-.303-3.622-.67-8.399-.788-13.239v-.733c.516-.65 1.048-1.34 1.576-2.057l.213.626a71.433 71.433 0 001.707 4.537 65.638 65.638 0 003.704 7.603c-.15 4.73-.232 8.151-.217 9.306v.047c.287.8.695 1.551 1.21 2.227a.906.906 0 00.828.666 184.69 184.69 0 0019.799 1.056h.879c5.518 0 11.531-.181 18.877-.567 3.843-.201 7.603-.395 11.177-.631a.91.91 0 00.887-.887c.161-7.425.216-15.245.165-23.254 0-2.795-.043-5.518-.083-8.092.426.11.844.236 1.277.394.789.264 1.577.595 2.31.918.374.162.749.324 1.127.477a.34.34 0 00.138.028.429.429 0 00.366-.229.394.394 0 00-.079-.532 12.595 12.595 0 00-5.178-2.309zm-61.211 47.644a2996.036 2996.036 0 002.96 16.286c2.388 12.904 4.335 23.349 6.163 32.863 1.857 9.72 4.067 21.201 6.389 32.647 1.812 8.928 4.22 20.697 6.766 32.568.489 2.271.97 4.544 1.443 6.819.93 4.422 1.891 8.998 2.916 13.531l-6.211 1.671-11.015 2.952c-2.499.674-5.332 1.435-8.15 2.05-.303.071-.603.134-.914.197-.528.114-1.06.221-1.577.319a52.097 52.097 0 01-5.994.789c-.09-1.408-.209-2.878-.358-4.482-.856-9.065-2.255-17.811-3.512-25.186-1.336-7.883-2.758-15.848-4.118-23.605l-.264-1.49c-1.458-8.233-2.913-16.278-4.662-24.184-1.321-5.968-2.664-11.202-4.107-16.015.292-3.523.552-7.035.788-10.429.592-9.006 1.112-19.652.521-30.38l.114-.138c1.028-1.238 1.97-2.397 2.822-3.547l.145-.198a36.429 36.429 0 002.542-3.649.658.658 0 00-.201-.883.637.637 0 00-.863.09c-.658.757-1.277 1.577-1.876 2.342-.319.417-.638.835-.965 1.245-.745.946-1.454 1.821-2.16 2.68l-.027.028-.237.288c-.114.142-.228.28-.347.417l-.181.221-.394.45-.039.043a.217.217 0 00-.048.138v.059c0 .394.024.788.032 1.182v.284c.173 7.966 0 16.215-.532 25.225a522.858 522.858 0 01-.812 11.23c-.067.721-.13 1.446-.189 2.171a.279.279 0 000 .115v.102c-.394 4.706-.867 9.487-1.313 14.114l-.264 2.759c-.445 4.624-.949 9.854-1.769 14.931a148.864 148.864 0 01-3.196 14.583c-2.448 9.191-5.368 18.414-8.193 27.334l-.493 1.505c-1.344 4.253-2.727 8.537-4.059 12.68-.888 2.712-1.768 5.423-2.641 8.135l-2.412-.205a252.484 252.484 0 01-4.918-.477h-.059l-1.08-.114a346.161 346.161 0 01-5.036-.587l-1.356-.17c-2.495-.299-5.072-.607-7.567-1.131l-.926-.205-.067-.02a19.125 19.125 0 01-2.759-.851c1.372-5.025 2.688-10.543 4.024-16.869 2.215-10.441 4.028-21.548 5.604-33.968 1.261-10.086 2.317-20.751 3.429-34.582.619-7.729 1.182-15.596 1.742-23.203v-.071c.281-3.886.565-7.771.851-11.655.788-10.543 1.671-21.824 2.802-32.954a23.635 23.635 0 001.825 1.493 17.304 17.304 0 004.859 2.76c3.488 1.15 7.129.394 10.641-.347l.216-.044a38.647 38.647 0 015.482-.887 18.993 18.993 0 015.372.462c1.828.394 3.641.981 5.399 1.549 1.757.567 3.464 1.115 5.253 1.521 1.648.378 3.334.571 5.025.575a20.565 20.565 0 006.526-1.06c.934-.311 1.876-.686 2.79-1.048l.055-.028.663-.26c.394 2.235.788 4.497 1.182 6.701l.52 2.818zm.635-11.943a26.51 26.51 0 00-1.183.375s0-.02-.031-.024a.191.191 0 00-.162 0l-.165.059-.828.311-.114.044a.196.196 0 00-.126.149l-.899.355a34.463 34.463 0 01-4.516 1.549 18.88 18.88 0 01-5.837.457c-2.853-.22-5.628-1.119-8.315-1.99-.694-.225-1.482-.477-2.247-.709a32.522 32.522 0 00-5.273-1.23 19.028 19.028 0 00-2.569-.174c-.975.002-1.948.07-2.913.205-1.272.166-2.553.426-3.795.674-2.234.45-4.548.919-6.853.867a11.147 11.147 0 01-5.084-1.292 20.736 20.736 0 01-4.248-3.063 6.936 6.936 0 01-1.049-1.182v-.115a.18.18 0 00-.031-.11l-.02-.035a4.111 4.111 0 01-.654-1.802l-.079-.883a1.736 1.736 0 010-.204c.149-.847.374-1.678.674-2.484l.067-.201c.319-.949.631-1.903.918-2.833a114.107 114.107 0 002.944-11.466 115.01 115.01 0 002.014-15.037 155.25 155.25 0 004.197 12.286 147.93 147.93 0 004.205 9.798c1.313 2.759 2.857 5.605 5.238 7.603 2.38 1.998 5.359 2.968 8.946 2.968a23.549 23.549 0 009.04-1.947c5.041-2.156 9.798-5.845 14.976-11.611a82.26 82.26 0 001.856-2.137c.079 3.256.264 6.701.56 10.473l.027.374c.186 2.306.394 4.686.643 7.028.181 1.639.445 3.279.678 4.954h.008zm7.168-17.311a82.463 82.463 0 01-3.972-9.065 54.326 54.326 0 01-.71-2.117 104.217 104.217 0 005.372-8.233 3906.64 3906.64 0 00-.698 19.415h.008zm.828-23.108c-.368.714-.737 1.425-1.108 2.132a82.523 82.523 0 01-2.526 4.454 75.056 75.056 0 01-2.695 4.095l-.67.95a49.611 49.611 0 01-1.325 1.785l-.264.347c-.323.426-.658.844-.91 1.183l-.13.165-.252.315-.036.04c-4.768 5.912-8.883 9.81-13.328 12.612-6.164 3.859-12.611 4.959-17.648 3.02-2.553-.978-4.682-3.043-6.514-6.307a85.483 85.483 0 01-4.189-9.104 157.294 157.294 0 01-6.55-19.313c-.071-.261-.142-.521-.209-.789v-.035a81.491 81.491 0 01-.213-.828l-.138-.532-.087.024.083-.048c-.118-.469-.236-.954-.358-1.462l-.268-1.104a.1.1 0 00-.107-.074 152.677 152.677 0 01-2.963-16.756c-.395-3.239-.698-6.984.5-10.436a16.16 16.16 0 015.194-7.154c2.31-1.864 5.297-3.252 8.879-4.131 2.134-.47 4.299-.78 6.479-.926 1.218-.114 2.475-.229 3.713-.394 3.617-.509 6.242-1.726 8.019-3.721a7.095 7.095 0 001.396-7.437c-.789-2.038-2.255-3.713-3.662-5.337-.354-.394-.709-.82-1.052-1.234-2.199-2.656-3.358-5.336-3.547-8.19a13.41 13.41 0 01.233-3.48 5.198 5.198 0 001.521.24 4.643 4.643 0 002.215-.556 1.013 1.013 0 00.532-1.039 1.01 1.01 0 00-.138-.387 1.087 1.087 0 00-1.49-.469 2.761 2.761 0 01-2.242.118 3.18 3.18 0 01-.54-.249l-.138-.078a.182.182 0 00-.075-.026.177.177 0 00-.177.081 3.157 3.157 0 01-.934-1.037 3.961 3.961 0 011.249-4.982c.43-.298.929-.483 1.45-.536.242-.024.486-.005.722.055l.137.044a5.78 5.78 0 001.522 2.089 3.977 3.977 0 003.795.618c2.908-.977 3.858-4.268 3.771-7.019a33.668 33.668 0 00-.563-4.769 41.177 41.177 0 00-.497-2.393 16.72 16.72 0 00-.185-.705 8.64 8.64 0 01-.327-1.526c-.02-.26.024-.973.26-1.21a.19.19 0 01.154-.063c.24 0 .544.658.689.97.056.114.103.213.138.276a13.933 13.933 0 002.593 3.318c.88.822 1.893 1.488 2.996 1.971 2.51 1.939 5.336 2.759 8.173 2.416.28-.035.564-.082.847-.134l.205 2.408c-.019-.047-.039-.098-.059-.137-.019-.04-.019-.064-.027-.091a1.914 1.914 0 00-.698-1.005 3.27 3.27 0 00-1.253-.658 4.65 4.65 0 00-1.478-.103h-.087a2.129 2.129 0 00-1.391.457.566.566 0 00-.157.473.553.553 0 00.271.394c.344.163.725.233 1.104.201h.197c.063-.003.126-.003.189 0h.315c.173.028.344.066.513.115.169.043.327.098.492.157l.154.052a3.05 3.05 0 01.485.299c.124.092.256.174.394.245h.024c.163.205.287.439.366.689.031.08.085.148.156.196.07.049.153.075.238.076h.024a.363.363 0 00.335-.28c.079.864.153 1.727.236 2.594.229 2.585.481 5.21.725 7.753v.126l.324 3.358c.051.54.11 1.08.169 1.64.138 1.284.284 2.617.327 3.941a9.694 9.694 0 01-.717 4.414c-1.033 2.365-3.05 4.474-5.675 5.964a27.087 27.087 0 01-6.936 2.554l-1.845.445-2.041.489a.865.865 0 00-.559.383.862.862 0 00-.107.669.976.976 0 00.946.789.994.994 0 00.189 0 43.675 43.675 0 001.919-.394c-.355 3.413.233 6.207 1.754 8.3 1.84 2.542 4.701 3.776 7.488 4.978.603.264 1.229.532 1.824.808a16.248 16.248 0 014.864 3.256 29.654 29.654 0 014.071 5.459 69.377 69.377 0 012.735 4.903c-2.278 2.392-5.183 5.585-7.22 7.835a32.105 32.105 0 00-1.632-4.859.556.556 0 00-.129-.185.55.55 0 00-.19-.121.56.56 0 00-.441.01.613.613 0 00-.395.765 52.62 52.62 0 011.522 5.794 348.245 348.245 0 01-2.519 2.786c-.327.359-.646.71-.965 1.072a228.622 228.622 0 00-4.465 5.179 186.699 186.699 0 00-11.851 15.963c-.871 1.305-1.576 2.408-2.25 3.457a74.2 74.2 0 01-.67-1.794c-.816-2.262-1.612-4.769-2.514-7.882a459.54 459.54 0 01-1.34-4.75l-.095.024.087-.051c-1.041-3.745-2.116-7.615-3.401-11.356-.989-2.885-2.089-5.94-3.673-8.699a.507.507 0 00-.678-.22.579.579 0 00-.276.737l.485 1.135c.934 2.195 1.899 4.466 2.699 6.763.8 2.298 1.577 4.777 2.456 7.919a466.91 466.91 0 001.182 4.225c1.076 3.941 2.187 7.989 3.547 11.907.469 1.36.91 2.538 1.348 3.599.055.145.114.287.173.429.166.394.307.725.445 1.029l.115.256c.007.016.019.03.033.04a.097.097 0 00.049.015.099.099 0 00.048-.01.1.1 0 00.035-.033l.694-1.135c.729-1.206 1.493-2.44 2.27-3.666 1.675-2.644 3.547-5.38 5.517-8.127a181.373 181.373 0 0110.605-13.283c.359-.413.686-.788 1.001-1.127.252-.288.505-.571.761-.851.425-.469 1.06-1.183 1.825-2.042l.918-1.021v-.019l.031-.036c2.235-2.507 5.297-5.936 7.575-8.442l.146-.17c.244-.272.484-.532.709-.788l.181-.201.044-.047c-.229 6.207-.627 16.364-1.013 26.711h.008zm50.791 34.479l-.04 2.003-1.02.063c-5.88.366-11.957.745-17.943.953-7.394.257-13.845.257-19.705 0-3.417-.149-6.869-.394-10.266-.788v-.264c.036-2.183.074-4.37.114-6.558l.023-1.38c.123-6.85.249-12.518.395-17.835.236-8.628.528-17.646.867-26.802.023-.634.043-1.273.063-1.911.035-1.08.063-2.164.09-3.252.048-2.084.09-4.17.126-6.259l.044-2.365c3.259-.292 6.609-.54 9.962-.745a12.472 12.472 0 011.951 3.788c-2.144.13-4.358.288-6.581.469h-.174c-2.017.154-2.419.232-2.526.343-.071.197-.161 1.49-.682 11.536l-.027.54a295.245 295.245 0 00-.181 4.202c-.05 1.445-.098 2.89-.142 4.336l-.071 2.175c-.241 7.252-.449 14.856-.623 22.6l-.067 3.02c-.075 3.188-.15 6.483-.197 9.731a.763.763 0 00.737.753c5.543.598 11.115.895 16.69.891h.761c4.638 0 9.58-.15 15.89-.481 3.018-.154 6.1-.327 9.418-.528a.788.788 0 00.789-.789c.134-6.148.181-12.553.142-19.589 0-2.613-.04-4.907-.075-7.008.621.023 1.241.079 1.856.17.158 0 .315.047.477.075.031 2.044.055 4.088.071 6.133a1072.83 1072.83 0 01-.154 22.773h.008z" fill="#000"/><path d="M258.627 357.3a5.116 5.116 0 00-.359.419l-.137.178a2.032 2.032 0 00-.403.644.323.323 0 00.101.364.41.41 0 00.431.059c.197-.105.377-.238.533-.395l.052-.044c.085-.075.174-.146.262-.217.089-.071.198-.154.291-.237.375-.34.718-.629 1.049-.889a15.469 15.469 0 012.142-1.447.334.334 0 00.226-.146.494.494 0 00.182-.442.537.537 0 00-.384-.467 19.247 19.247 0 01-1.997-.695 21.305 21.305 0 01-.762-.344c-.383-.178-.779-.364-1.186-.51a.437.437 0 00-.525.218.389.389 0 00.085.533 7.407 7.407 0 001.614.909H233.42c-1.162 0-2.509 0-3.829-.087a15.262 15.262 0 01-1.706-.174v-.462c.024-1.731.043-3.46.056-5.189l.041-5.208v-1.786c.118.212.262.41.427.589a.402.402 0 00.303.122.486.486 0 00.181-.035.398.398 0 00.254-.395 7.379 7.379 0 00-.435-1.81 13.352 13.352 0 01-.299-.992 13.26 13.26 0 01-.431-2.833.532.532 0 00-.142-.354.552.552 0 00-.347-.172.541.541 0 00-.374.085.523.523 0 00-.219.31 17.167 17.167 0 01-.807 2.249c-.113.261-.25.525-.383.79s-.226.439-.331.66a.526.526 0 00-.379.502c.002.1.033.197.089.28a.389.389 0 00.185.427.443.443 0 00.525-.047c.308-.292.565-.633.758-1.008.097-.182.198-.395.295-.577v1.391c0 .88-.015 1.761-.045 2.644l-.072 5.074c-.03 1.699-.054 3.395-.073 5.089v1.221l.121.024c.307.063.609.115.916.166l.553.083.674.107c1.079.166 2.168.265 3.259.296 1.747.075 3.527.067 5.245.063h7.432c3.094 0 6.294 0 9.44.032l4.212.035h1.78c-.194.139-.404.281-.573.423-.384.304-.749.63-1.094.976z" fill="#000"/><path d="M241.259 343.935l-.024.57c-.056.784-.042 1.57.039 2.352.057.667.359 1.293.853 1.765a1.531 1.531 0 001.3.348c1.08-.201 2.094-1.433 2.51-2.212.23-.473.419-.964.566-1.466.345-1.082.707-2.204 1.787-2.673a1.39 1.39 0 011.076-.079c.137.06.26.147.359.256.1.108.174.236.219.375.07.181.125.378.18.552.105.577.398 1.106.837 1.512.829.669 1.618.257 2.357-.284.738-.54 1.261-.729 1.689-.657a.944.944 0 01.361.158.906.906 0 01.26.288c.124.204.237.415.338.631.192.513.534.962.985 1.293a1.662 1.662 0 001.234.253 1.183 1.183 0 00.75-.571.402.402 0 00-.098-.544.467.467 0 00-.605 0c-.196.166-.573-.061-.687-.136a1.826 1.826 0 01-.57-.783l-.043-.087c-.314-.642-.688-1.292-1.438-1.553-.679-.238-1.496-.083-2.357.446-.158.101-.31.211-.455.329a3.66 3.66 0 01-.535.378.434.434 0 01-.361.041 1.048 1.048 0 01-.316-.252.985.985 0 01-.191-.349c-.074-.177-.137-.378-.196-.552a2.576 2.576 0 00-.868-1.436 2.214 2.214 0 00-.914-.347 2.27 2.27 0 00-.98.078c-1.661.45-2.227 1.962-2.749 3.293l-.063.17a5.227 5.227 0 01-1.422 2.185c-.24.215-.684.612-1.006.575-.192-.027-.353-.208-.495-.564a5.568 5.568 0 01-.247-2.09v-1.225c0-.714 0-1.455-.043-2.181-.099-1.542-.374-3.258-1.678-4.279-1.025-.805-2.357-.56-3.971.733a9.432 9.432 0 00-1.681 1.818 13.086 13.086 0 00-1.355 2.204c-.315.688-.582 1.414-.837 2.113l-.122.333c-.047.132-.098.265-.149.397a5.324 5.324 0 00-.503 2.151.316.316 0 00.074.194.347.347 0 00.558-.032c.307-.512.521-1.07.633-1.651.047-.186.094-.378.149-.556.213-.738.476-1.461.786-2.166.589-1.323 1.265-2.707 2.467-3.803a5.829 5.829 0 012.117-1.387c.699-.204 1.375.106 1.811.824.411.746.638 1.574.664 2.419.055.949.055 1.901 0 2.85v.031zm-13.06-12.99c0 .08 0 .169.024.266-.006.289.053.576.171.838.246.267.576.436.932.475l.132.033c.766.194 1.55.302 2.338.322a24.127 24.127 0 004.045-.266l.873-.105c2.639-.302 5.304-.076 7.88.145.838.073 1.707.15 2.564.202 1.486.097 3.001.145 4.544.145 2.471 0 5.012-.121 7.592-.367a.55.55 0 00.282-.105.582.582 0 00.189-.241.64.64 0 00-.043-.621.48.48 0 00-.456-.193 68.809 68.809 0 01-12.186.29c-.88-.057-1.777-.137-2.642-.214a78.67 78.67 0 00-3.414-.258 34.645 34.645 0 00-5.845.351c-1.006.142-2.02.218-3.036.225a8.05 8.05 0 01-2.771-.528c-.573-3.877-.128-7.826.3-11.651.343-3.055.702-6.215.538-9.343a217.268 217.268 0 0124.699-1.209c2.109 0 4.287.081 6.625.178.05 1.459.094 2.918.133 4.377.082 2.781.164 5.642.3 8.483a.556.556 0 00.171.377.51.51 0 00.378.139.487.487 0 00.349-.156.503.503 0 00.135-.368c-.047-2.821-.152-5.69-.254-8.463a827.217 827.217 0 01-.171-4.925.56.56 0 00-.154-.38.524.524 0 00-.364-.164 201.242 201.242 0 00-25.331.374c-2.767.218-5.031.436-7.124.69a.539.539 0 00-.376.175.576.576 0 00-.15.397c.289 3.353-.109 6.751-.491 10.035-.413 3.595-.849 7.332-.386 11.04z" fill="#000"/><path d="M232.882 314.701c.345.081.696.146 1.049.195.311.041.619.063.881.085.182 0 .35.019.487.019.134.001.269-.006.402-.022a.368.368 0 00.198-.089.301.301 0 00.099-.179.256.256 0 00-.05-.184.309.309 0 00-.17-.112 2.247 2.247 0 00-.304-.063l-.158-.028-.091-.019a4.934 4.934 0 00-.308-.06l-.202-.028c-.224-.029-.445-.06-.669-.086a15.493 15.493 0 00-.853-.062c-.28-.016-.574-.032-.86-.067a.323.323 0 00-.217.058.266.266 0 00-.109.179.262.262 0 00.125.287c.033.021.07.036.11.043.21.041.423.085.64.133zm7.732 2.299h.023a.462.462 0 00.239-.062c.066-.039.107-.093.117-.152.018-.062 0-.126-.051-.18a.401.401 0 00-.222-.108 36.231 36.231 0 00-4.581-.438 42.416 42.416 0 00-4.744.013.529.529 0 00-.285.094c-.074.054-.113.126-.11.199 0 .07.042.137.116.187.074.05.175.077.279.077.589.019 1.186.029 1.76.043.936.021 1.909.042 2.861.084.732.032 1.459.074 2.19.116.732.043 1.605.095 2.408.127zm-4.13 2.996c.107.005.214.005.321 0h.136c.29-.006.576-.059.836-.157a.427.427 0 00.186-.172.29.29 0 00.026-.221.293.293 0 00-.118-.168.475.475 0 00-.225-.085 2.983 2.983 0 00-.551 0h-1.09a11.576 11.576 0 01-1.527-.184.5.5 0 00-.266.022.34.34 0 00-.182.147.222.222 0 00-.011.202.32.32 0 00.165.158 5.147 5.147 0 001.736.438c.187.014.376.021.564.02zm-1.329 3.334a1.787 1.787 0 01-.207 0h-.163a8.007 8.007 0 01-.582-.042h-.053a6.522 6.522 0 01-1.323-.247.904.904 0 00-.415-.029.61.61 0 00-.334.15.25.25 0 00-.074.128.202.202 0 00.021.135.29.29 0 00.092.116c.044.034.1.063.164.083a7.557 7.557 0 001.604.344c.207.022.417.033.626.032h.313c.085 0 .169-.006.252-.018l.061-.016h.058c.15 0 .3-.026.441-.045a.652.652 0 00.166-.044.411.411 0 00.126-.079.224.224 0 00.065-.102.16.16 0 00-.005-.108.19.19 0 00-.05-.1.353.353 0 00-.111-.08.603.603 0 00-.154-.048.724.724 0 00-.174-.009c-.115-.031-.225-.024-.344-.021zm21.774-6.748c0-.619.19-1.432-.052-2.029-.241-.596-.82-.562-1.378-.547l-8.063.236a.45.45 0 00-.307.126.413.413 0 00-.129.295c.032 2.28.067 4.59.063 6.884v3.396c0 1.117-.039 2.344.068 3.492a.471.471 0 00.147.328.513.513 0 00.344.139c1.454 0 2.896.137 4.358.087a31.97 31.97 0 003.994-.349.377.377 0 00.396-.095.452.452 0 00.103-.6c.19-2.998.258-6.007.396-9.008.024-.79.04-1.572.06-2.355zm-.896-.661c0 .437-.027.881-.043 1.318-.115 3.514-.226 7.04-.218 10.554a53.133 53.133 0 01-3.804.292c-1.283.072-2.57.054-3.851-.053.04-.995 0-2.006-.031-2.994-.024-1.162-.064-2.325-.099-3.491a377.43 377.43 0 01-.107-6.477l5.455-.144 1.375-.031.793-.023c.173-.02.349-.02.523 0 .138.092.015.851.007 1.049zM197.5 245c.828 0 1.5-1.119 1.5-2.5s-.672-2.5-1.5-2.5-1.5 1.119-1.5 2.5.672 2.5 1.5 2.5zm8 0c.828 0 1.5-1.119 1.5-2.5s-.672-2.5-1.5-2.5-1.5 1.119-1.5 2.5.672 2.5 1.5 2.5zm38 119a1.495 1.495 0 00-1.386.926 1.504 1.504 0 00.325 1.635 1.507 1.507 0 001.635.325A1.503 1.503 0 00245 365.5a1.506 1.506 0 00-1.5-1.5z" fill="#000"/></svg>