<svg width="600" height="600" fill="none" xmlns="http://www.w3.org/2000/svg"><path d="M424.847 268.683c-2.86-1.103-5.664-2.428-8.397-3.707l-1.484-.732a.68.68 0 00-.875.27.668.668 0 00.199.888c2.552 1.738 5.364 2.985 8.513 4.319 2.935 1.242 5.92 2.354 8.812 3.434 5.468 2.034 11.117 4.142 16.286 7.09 5.425 3.095 9.423 6.543 12.226 10.546 3.205 4.583 4.927 10.056 6.587 15.348l.63 1.987a891.348 891.348 0 013.392 10.895c.27.902.536 1.81.797 2.724a61.002 61.002 0 002.799 8.267.709.709 0 00.639.436.848.848 0 00.812-.959 53.907 53.907 0 00-2.16-8.365 133.22 133.22 0 01-.569-1.853c-.933-3.091-1.955-6.302-3.07-9.805l-.419-1.321c-.845-2.66-1.722-5.412-2.664-8.091a46.948 46.948 0 00-3.937-8.725c-6.004-9.893-17.004-14.972-27.99-18.999l-3.144-1.135c-2.3-.765-4.674-1.618-6.983-2.512zm21.453 57.046a1883.61 1883.61 0 00-1.588-4.919l-.355-1.093c-.161-.489-.313-.988-.474-1.491a35.312 35.312 0 00-1.526-4.303v-.032l-.033-.072a.717.717 0 00-.382-.336.759.759 0 00-.519-.009.789.789 0 00-.442.33.732.732 0 00-.103.527c.159.813.373 1.616.64 2.403.071.227.137.453.209.68l.947 3.02.166.544c.579 1.864 1.158 3.726 1.74 5.585v.077c.559 1.791 1.142 3.627 1.853 5.418a29.98 29.98 0 002.749 5.182.783.783 0 00.293.272c.12.065.256.1.394.1a.928.928 0 00.45-.122.796.796 0 00.237-.202.745.745 0 00.043-.859 30.042 30.042 0 01-2.427-5.232c-.668-1.732-1.218-3.428-1.872-5.468zm-224.438-4.199a.85.85 0 00-.588.033.75.75 0 00-.4.397 138.176 138.176 0 00-7.096 22.849 164.346 164.346 0 00-3.563 23.452 138.423 138.423 0 00-.331 6.724v.358c-.055 2.094-.109 4.266 0 6.397a.657.657 0 00.229.46.777.777 0 00.512.188.738.738 0 00.491-.179.622.622 0 00.216-.442c.084-1.129.128-2.267.173-3.387.029-.82.064-1.641.108-2.461.114-1.945.272-3.917.44-5.935.316-3.835.766-7.775 1.344-11.724a179.118 179.118 0 014.942-23.057c1.117-3.944 2.421-8.129 3.983-12.799a.654.654 0 00-.04-.521.749.749 0 00-.42-.353zm-.385 24.152a.512.512 0 00-.404.088.575.575 0 00-.228.366c-.23.989-.318 2.009-.261 3.026.095.986.306 1.955.627 2.885.648 1.919 1.813 3.594 3.349 4.817 2.012 1.531 4.442 2.316 6.916 2.235a20.104 20.104 0 006.394-1.165c2.152-.742 4.275-1.63 6.37-2.492l1.9-.782a.643.643 0 00.341-.341.695.695 0 00.02-.496.603.603 0 00-.291-.358.554.554 0 00-.445-.036l-5.8 1.932-.95.318a25.712 25.712 0 01-6.584 1.453 10.464 10.464 0 01-5.8-1.15 8.986 8.986 0 01-3.487-3.678 10.362 10.362 0 01-1.188-5.931.643.643 0 00-.109-.448.577.577 0 00-.37-.243zM389.81 215.833a.81.81 0 00-.115-.566.727.727 0 00-.454-.322.637.637 0 00-.507.086.709.709 0 00-.303.44 30.294 30.294 0 01-1.948 5.53 28.127 28.127 0 01-1.366 2.524c-.223.367-.455.733-.71 1.086a22.81 22.81 0 00-.86 1.336 5.69 5.69 0 00-.587 4.889 4.527 4.527 0 001.301 1.927 4.16 4.16 0 002.04.968h.077a.542.542 0 00.327-.113.602.602 0 00.206-.292.559.559 0 00-.013-.372.517.517 0 00-.242-.27 4.46 4.46 0 01-1.365-1.272 4.785 4.785 0 01-.761-1.749c-.314-1.486.528-2.75 1.338-3.967a24.86 24.86 0 003.942-9.863z" fill="#000"/><path d="M368.852 210.227a10.213 10.213 0 005.649 2.222c1.207.106 2.423.057 3.618-.148-.192 2.125-.385 4.276-.58 6.456a2.064 2.064 0 00-.182 2.098 2635.135 2635.135 0 00-1.611 19.597c-.274 3.569-.652 8.456 1.793 12.219 1.903 2.923 5.352 4.837 9.477 5.256.569.06 1.142.089 1.715.088.338 0 .68 0 1.022-.037 1.273 3.26 1.369 6.88 1.46 10.379.073 2.905.151 5.912.885 8.761a.663.663 0 00.653.494h.136a.628.628 0 00.525-.696c-.269-2.232-.315-4.528-.36-6.746-.032-1.642-.064-3.339-.187-5.003a23.397 23.397 0 00-1.547-7.318c3.071-.42 6.387-1.572 10.17-3.537a.672.672 0 00.305-.88.67.67 0 00-.839-.411c-.84.272-1.674.567-2.519.863-2.669.922-5.429 1.899-8.239 2.176l-.708.055c-.387 0-.743.028-1.09.023-3.801-.055-7.172-1.558-9.016-4.025-2.281-3.043-2.185-7.198-1.898-11.196.165-2.247.337-4.489.516-6.727.196-2.499.402-5.072.579-7.622.156-2.223.315-4.51.457-6.917.068-.07.143-.133.223-.189a9.44 9.44 0 011.903-1.037 3.871 3.871 0 012.167-.369c.28.051.546.166.776.337l.082.069a.754.754 0 00.027.562.996.996 0 00.94.544.907.907 0 00.527-.197.93.93 0 00.313-.471c.424-1.204-.808-2.181-1.743-2.541a4.676 4.676 0 00-3.336.134c-.591.198-1.166.443-1.72.733.11-1.663.222-3.404.338-5.224a42.3 42.3 0 006.967-2.638l.949-.419 1.579-.715a13.209 13.209 0 005.123 2.458c4.266 1.037 8.861.664 12.921.161a23.119 23.119 0 00-2.372 11.629c.072 1.487.321 2.959.743 4.385.507 1.646 1.292 2.767 2.323 3.278 1.168.605 2.226.277 3.248-.036a9.96 9.96 0 011.164-.305c1.327-.235 2.486.701 3.006 1.669.803 1.499.169 3.196-.62 4.196a4.66 4.66 0 01-1.88 1.434l-.42.171c-.862.395-1.761.704-2.682.922a.56.56 0 00-.169.056c-2.336.53-4.312 2.72-4.818 5.339-.57 2.956.912 6.068 3.782 7.917.219.143.434.272.657.392a.524.524 0 000 .148c.13 2.95.476 5.886 1.036 8.784a48.041 48.041 0 002.281 8.664.712.712 0 00.662.461.65.65 0 00.205-.032.694.694 0 00.484-.83 135.979 135.979 0 00-.94-4.33 113.725 113.725 0 01-.913-4.261c-.502-2.563-.912-5.146-1.369-7.972a9.858 9.858 0 003.263.553c4.809 0 9.709-3.292 12.738-7.511a21.607 21.607 0 003.769-9.254c.262-1.659.326-3.343.191-5.017a31.492 31.492 0 00-1.076-5.294l-.032-.11c-.534-2.006-.972-3.97-.511-5.907a16.592 16.592 0 011.921-4.251c.164-.291.328-.581.488-.872a26.086 26.086 0 003.335-10.868c.128-2.098-.032-5.994-2.564-8.47-3.08-3.021-7.373-1.568-9.435-.581a24.247 24.247 0 00-.347-1.969 22.963 22.963 0 00-1.369-4.335c-1.455-3.379-3.248-5.533-5.648-6.713a18.184 18.184 0 00-7.664-1.923 18.2 18.2 0 00-7.753 1.512 13.46 13.46 0 00-4.366 2.979 10.596 10.596 0 00-7.086-3.38c-2.601-.221-5.375.461-8.486 2.024a40.271 40.271 0 00-3.956 2.347l-.379.249c-1.017.66-2.071 1.347-2.737 2.412a4.921 4.921 0 00-.548 3.896 14.902 14.902 0 00-3.7 3.131c-2.559 3.067-3.495 7-2.491 10.527a9.152 9.152 0 002.815 4.524z" fill="#000"/><path d="M388.989 271.371a.652.652 0 00-.71.232.69.69 0 00-.12.239 25.192 25.192 0 00-.987 8.492c.106 2.311.39 4.694 1.771 6.444a4.008 4.008 0 002.57 1.538c.182.028.367.042.551.042a5.945 5.945 0 003.084-1.028 43.84 43.84 0 006.245-4.963 52.794 52.794 0 006.199-6.77.664.664 0 00-.078-.901.583.583 0 00-.83.043 88.236 88.236 0 01-10.665 9.704l-.234.179c-1.5 1.151-3.556 2.727-5.153 1.377-1.289-1.094-1.62-3.123-1.785-5.156a30.566 30.566 0 01.647-8.623.734.734 0 00-.084-.531.69.69 0 00-.421-.318zm95.288 76.275a34.798 34.798 0 00-4.576-4.938c-.466-.465-.931-.898-1.397-1.354-1.266-1.242-2.53-2.483-3.79-3.724-.307-.303-.614-.614-.931-.931-.731-.74-1.485-1.503-2.295-2.183a.664.664 0 00-.312-.586c-1.541-.931-3.436-.88-5.247-.666a21.605 21.605 0 00-5.322 1.108c-2.793 1.094-4.93 3.616-6.052 7.098-.931 2.942-1.122 6.107-1.299 9.164-.047.778-.088 1.555-.149 2.328-.037.512-.079 1.024-.121 1.536-.112 1.359-.228 2.764-.261 4.156a13.419 13.419 0 00.675 4.943c.34.931.755 1.815 1.434 2.327a1.4 1.4 0 00.852.303c.102-.001.204-.014.303-.037a1.595 1.595 0 001.015-.931c.325-.747.611-1.509.856-2.286.094-.284.182-.563.28-.837l.098-.275c.065.861.149 1.694.251 2.509.088.865.244 1.723.466 2.564.18.823.555 1.591 1.094 2.239a2.158 2.158 0 001.536.684c.165.002.33-.02.489-.065.81-.223 1.127-.959 1.397-1.545l.074-.172a26.713 26.713 0 001.397-3.919v.121l.237 1.861c.038.298.07.605.103.931.163 1.564.349 3.333 1.355 4.655a1.72 1.72 0 001.396.81c.079.005.159.005.238 0 1.122-.182 1.974-1.56 2.272-2.439.336-1.088.554-2.208.651-3.342a34 34 0 00.14-1.462c.168.68.345 1.355.54 2.011l.024.088c.27.931.605 2.1 1.601 2.663.261.15.556.23.857.232.17-.001.34-.027.503-.079a2.259 2.259 0 001.308-1.182c.572-1.154.67-2.569.759-3.812l-.396-.032.396.028c.186-2.574-.149-5.167-.466-7.676l-.126-.996-.391-3.025-.26-1.988-.07-.595a19.512 19.512 0 007.365 1.861h.466c.87 0 2.165-.181 2.365-1.61.205-1.266-.582-2.49-1.332-3.533zm-14.367 15.155c-.117.726-.214 1.452-.312 2.183-.159 1.145-.317 2.327-.54 3.491a4.909 4.909 0 01-.685 1.969c-.242.335-.437.465-.465.465-.028 0-.242-.191-.55-.963a14.474 14.474 0 01-.726-3.747 35.19 35.19 0 00-.144-1.275c-.196-1.439-.396-2.872-.596-4.31l-.228-1.62c-.377-2.709-.703-4.78-1.057-6.717a.57.57 0 00-.63-.44.57.57 0 00-.492.589c.233 2.998.586 6.023.959 9.002a.64.64 0 00-.466.419l-.465 1.359a58.825 58.825 0 01-1.565 4.189 2.596 2.596 0 00-.097.251c-.08.21-.224.601-.368.652-.256.088-.531-.33-.61-.465a7.578 7.578 0 01-.805-2.584 48.888 48.888 0 01-.596-5.953 74.03 74.03 0 01-.094-2.937v-1.14c.025-.687.013-1.376-.037-2.062a.7.7 0 00-.666-.624.607.607 0 00-.637.522 26.08 26.08 0 00-.154 5.12v.423a158.115 158.115 0 00-2.044 4.701c-.093.21-.177.424-.265.638l-.154.377-.042-.065a6.871 6.871 0 01-.838-1.96c-.61-2.327-.368-4.892-.135-7.368.051-.591.107-1.177.149-1.755.056-.73.103-1.47.144-2.21a45.1 45.1 0 01.932-7.88c.777-3.175 2.393-5.586 4.544-6.754 1.396-.777 3.086-1.033 4.697-1.285l.368-.055a11.753 11.753 0 014.656.051 23.76 23.76 0 002.081 2.234c.186.186.377.368.559.554l3.021 3.021 1.755 1.74c1.323 1.313 2.691 2.667 3.99 4.036a14.387 14.387 0 012.235 2.932c.252.392.411.836.466 1.299a.34.34 0 01-.056.223c-.135.126-.559.112-.838.102h-.107a17.614 17.614 0 01-6.56-1.498 15.63 15.63 0 01-1.434-.722c-.238-.13-.466-.265-.713-.409a17.239 17.239 0 01-1.075-.708c-.545-.391-1.066-.842-1.569-1.275a49.146 49.146 0 00-1.397-1.164.606.606 0 00-.768.051.639.639 0 00-.13.806 9.926 9.926 0 002.705 2.699c.568.419 1.158.806 1.769 1.159.084.754.177 1.504.27 2.253.093.749.2 1.573.284 2.355.07.628.14 1.261.214 1.89.223 1.889.466 3.84.526 5.762a22.414 22.414 0 01-.116 3.654 13.05 13.05 0 01-.331 1.764c-.07.27-.219.833-.465.884-.322.065-.676-.582-1.015-1.936l-.07-.27a55.939 55.939 0 01-1.634-7.875c-.053-.419-.1-.838-.14-1.257a22.803 22.803 0 00-.466-3.053.555.555 0 00-.582-.424.613.613 0 00-.568.531 16.921 16.921 0 00.196 4.426v.098c.149 1.131.34 2.276.559 3.411a.592.592 0 00-.582.475z" fill="#000"/><path d="M469.588 384.928c-1.55-1.14-3.09.825-3.923 1.882-.116.153-.222.288-.315.399a51.045 51.045 0 00-2.031 2.587c-.213.287-.407.584-.601.876.189-1.002.388-2.008.573-3.014l.102-.514c.373-1.65.57-3.334.588-5.025-.042-1.678-.37-2.717-.976-3.092a1.147 1.147 0 00-1.143 0 5.4 5.4 0 00-1.684 1.636l-.158.204a10.658 10.658 0 00-1.064 1.738c-.351-1.094-.833-1.747-1.471-1.979-1.101-.394-1.966.566-2.369 1.511-.402.946-.698 1.855-1.004 2.74-.115.348-.231.691-.351 1.034a117.576 117.576 0 00-1.314 3.977 60.553 60.553 0 00-1.231 4.469c-.051.237-.111.464-.171.723a23.08 23.08 0 00-.435 2.077c-.042-.065-.079-.139-.12-.204a33.469 33.469 0 00-2.712-3.987c-.499-.639-1.85-2.317-3.447-1.9-1.748.463-1.434 2.781-1.3 3.745.25 1.855.972 3.565 1.666 5.225.508 1.143.94 2.319 1.295 3.519.215.847.369 1.708.463 2.577.091.789.224 1.572.398 2.346.222.927.532 1.854.833 2.735.227.667.462 1.363.657 2.049a16.64 16.64 0 01.393 5.66v.167a21.777 21.777 0 000 4.761 15.952 15.952 0 01-2.031-.927c-.713-.42-1.4-.884-2.054-1.391l-.162-.12a138.223 138.223 0 00-3.794-7.325c-.925-1.687-1.957-3.37-2.938-4.993-1.388-2.285-2.813-4.635-4.039-7.06a36.779 36.779 0 01-2.313-5.748c.379-.826.768-1.651 1.161-2.467.06-.129.143-.287.245-.463 5.182-9.81 4.812-27.328-1.092-52.074-1.92-8.029-10.821-18.131-24.618-15.456-1.314.26-2.258-1.191-3.447-3.027-1.906-2.939-4.515-6.954-10.641-6.713-3.276.135-6.121 1.785-7.037 2.893-1.592-1.465-6.061-4.232-11.206-2.457-3.053 1.052-5.977 3.204-8.938 6.569-4.456 5.058-7.329 13.472-3.702 20.861a14.39 14.39 0 006.283 6.49 38.078 38.078 0 01-2.475 6.629c-1.24 2.597-2.707 5.128-4.132 7.585a.833.833 0 00.033.834.738.738 0 00.684.352 1.256 1.256 0 011.018.316c.842.797.801 2.878.778 3.996v.19c0 .83-.051 1.683-.088 2.508-.065 1.349-.13 2.749-.079 4.13.023.575.074 1.15.143 1.715-.573.371-1.156.724-1.739 1.048-3.007 1.664-5.682 2.318-8.166 2.021-3.091-.375-5.515-2.239-7-3.736-2.11-2.123-3.614-4.78-4.928-7.334-1.531-2.976-2.942-5.948-4.242-8.715-3.063-6.546-5.857-13.064-7.949-18.01l-1.554-3.704c-.963-2.318-1.851-4.46-2.702-6.523-.347-.839-.685-1.683-1.027-2.522a272.293 272.293 0 00-2.11-5.099c.157 0 .319.028.463.028a9.812 9.812 0 002.702-.515l.115-.037c.398-.111.801-.232 1.194-.362a48.639 48.639 0 003.266-1.154l1.004-.412a51.505 51.505 0 007.653-4.001l.698-.464c.081 0 .16-.024.227-.069l.463-.32a.38.38 0 00.129-.162 52.32 52.32 0 002.346-1.706l.527-.408a14.17 14.17 0 002.698-2.443c3.137 9.271 6.856 18.807 11.071 28.417l.828 1.878a.39.39 0 00.357.236h.069a.397.397 0 00.324-.362l.111-1.627c.222-3.389.43-6.202.662-8.849.541-6.319 1.235-13.013 2.123-20.468.666-5.664 1.541-12.224 3.405-18.404a41.917 41.917 0 018.243-15.66 41.811 41.811 0 0113.965-10.847.668.668 0 00.208-.153.668.668 0 00.168-.478.736.736 0 00-1.024-.621c-9.942 4.288-18.27 13.458-22.309 24.505-2.253 6.189-3.28 12.614-4.058 18.641a555.834 555.834 0 00-2.239 20.397 358.28 358.28 0 00-.699 8.344c-.49-1.131-.976-2.252-1.434-3.337a387.813 387.813 0 01-6.32-15.929l-.328-.876c-.787-2.123-1.606-4.316-2.383-6.49a3.132 3.132 0 00-1.198-3.06c-1.698-1.349-3.757-.89-5.363-.334a.665.665 0 00-.425.779.608.608 0 00.657.464l.411-.037c1.217-.116 2.596-.251 3.544.394a1.504 1.504 0 01.699 1.038 2.048 2.048 0 01-.611 1.553 18.98 18.98 0 01-2.66 2.318l-.264.241c-.559.427-1.073.798-1.582 1.15a35.27 35.27 0 01-1.943-10.361 31.865 31.865 0 011.971-12.053 29.978 29.978 0 011.388-3.185c.236-.464.499-.927.749-1.368.338-.593.69-1.205.986-1.854a.618.618 0 00-.199-.769.57.57 0 00-.389-.107 76.366 76.366 0 001.564-2.995c.384-.788.824-1.678 1.194-2.596.287-.704.615-1.752.171-2.735a2.404 2.404 0 00-1.411-1.14c.527-1.595.222-3.57-1.43-4.224-1.925-.76-3.289.802-4.386 2.059-.236.278-.463.533-.68.751 0 .023-.028.051-.046.074a3.29 3.29 0 00-2.115.964 18.718 18.718 0 00-2.063 2.383l-.375.464c-.925 1.2-1.758 2.317-2.503 3.462l-.213.325a30.35 30.35 0 00-1.041 1.655 65.178 65.178 0 00-.351-2.207 62.04 62.04 0 00-1.24-5.563 18.65 18.65 0 00-.805-2.438 5.163 5.163 0 00-1.291-2.058 1.639 1.639 0 00-1.388-.376 2.318 2.318 0 00-1.268.862 22.564 22.564 0 00-.726-1.682 18.384 18.384 0 00-1.273-2.277 3.07 3.07 0 00-1.628-1.39 1.91 1.91 0 00-2.087.788c-.22.325-.365.696-.425 1.085a24.448 24.448 0 00-2.106-2.782c-.656-.746-1.804-1.465-2.9-1.391a1.998 1.998 0 00-1.573.928c-.505.751-.389 1.636-.213 2.405l.074.297c.082.305.143.615.185.927a11.48 11.48 0 00-.514-.361c-1.439-.965-2.637-1.196-3.664-.714a2.36 2.36 0 00-1.258 1.367 2.046 2.046 0 00.161 1.646c.202.356.436.693.699 1.006.125.162.255.325.37.464.38.533.74 1.094 1.115 1.715a26.567 26.567 0 012.013 4.107c.462 1.145.782 2.351 1.11 3.514.06.209.12.413.176.621a1.969 1.969 0 00-1.064.464c-1.036.862-1.356 2.364-.986 4.594.294 1.47.723 2.911 1.282 4.302.167.464.329.927.463 1.354a95.794 95.794 0 013.322 11.436c.452 2.165.761 4.358.925 6.564 0 .306.032.612.046.928a7.518 7.518 0 00-3.937 1.256c-1.032.649-2.401 1.683-2.406 3.203v.181c0 .06-.046.134-.069.199l-.102.32c-.245.737-.463 1.479-.717 2.258-.421 1.391-.856 2.781-1.254 4.205-.8 2.827-1.55 5.734-2.313 8.882-1.388 5.924-2.568 11.909-3.456 17.778l-.07.464a89.238 89.238 0 00-1.11 9.661 1.028 1.028 0 000 .111 49.026 49.026 0 00-.333-1.173 38.392 38.392 0 00-.246-.811l-6.94-23.55c-1.101-3.737-2.2-7.471-3.298-11.205l-.639-2.397c-1.661-5.641-3.377-11.473-5.089-17.208-1.712-5.734-3.572-11.177-7.602-15.298a16.225 16.225 0 00-.814-.792c1.06-2.481 2.059-5.355.828-8.192-.721-1.664-1.994-2.944-3.238-4.172a37.854 37.854 0 01-1.185-1.219 9.653 9.653 0 01-1.943-2.949 15.848 15.848 0 01-.925-4.019c-.171-1.465-.31-2.939-.421-4.223a51.842 51.842 0 002.447-.839c2.216-.821 3.627-2.142 4.317-4.043.74-2.049.689-4.385.643-6.448-.051-2.536-.324-5.099-.583-7.283l-.171-1.391a3.482 3.482 0 001.545-.816 4.319 4.319 0 001.453-3.333 10.663 10.663 0 00-.981-3.954c-.222-.547-.888-2.216-2.355-2.35a1.846 1.846 0 00-.712.078 70.385 70.385 0 01-.121-2.906v-3.037a40.88 40.88 0 001.768-.431 11.262 11.262 0 004.33-2.039 5.788 5.788 0 002.045-4.516 23.667 23.667 0 00-.601-5.396c1.078-2.383 1.041-5.132.925-7.005-.162-2.392-.597-5.451-2.517-7.88a12.141 12.141 0 00-6.126-3.908c-5.639-1.646-11.534.38-16.609 2.401a30.22 30.22 0 00-6.857 3.616c-1.948-2.272-4.983-3.672-8.383-3.848-3.771-.199-7.866 1.196-12.219 4.172a42.148 42.148 0 00-9.439 8.808c-3.173 4.038-5.218 7.881-6.25 11.775a18.94 18.94 0 00-.643 6.662 23.88 23.88 0 001.698 6.37c.189.463.384.959.578 1.437a43.08 43.08 0 011.693 4.635c.578 1.999.717 4.099.408 6.157-.565 3.616-2.374 7.259-5.52 11.126-.675.834-1.425 1.659-2.151 2.461-2.008 2.221-4.086 4.511-5.09 7.418a8.588 8.588 0 00.107 6.026c.171.431.361.858.541 1.27.286.604.538 1.223.754 1.855.3.952.407 1.954.315 2.948-.167 1.98-.986 3.885-1.777 5.735l-.231.528a27.728 27.728 0 00-2.017 6.203 18.573 18.573 0 001.901 12.21 16.27 16.27 0 008.277 7.065 17.075 17.075 0 006.26 1.201 15.82 15.82 0 004.432-.621 16.55 16.55 0 008.791-6.49 16.92 16.92 0 003.118-10.537c0-.464-.078-.928-.134-1.391-.19-1.613-.384-3.282.708-4.506.87-.974 2.11-1.59 3.303-2.188.463-.223.926-.464 1.356-.705a25.442 25.442 0 002.313-1.47.696.696 0 000 .158 12.57 12.57 0 002.564 4.803 12.349 12.349 0 004.413 3.565c.92.413 1.917.626 2.924.626a8.398 8.398 0 006.746-3.709c1.106-1.558 1.726-3.426 2.008-6.054a.637.637 0 00-.551-.7.658.658 0 00-.777.496c-.49 2.165-1.8 6.026-5.038 7.574a5.454 5.454 0 01-4.349.195 10.887 10.887 0 01-3.891-2.781 17.484 17.484 0 01-2.943-4.474.551.551 0 00-.148-.181.548.548 0 00-.208-.106c2.373-1.855 3.789-3.857 4.289-6.073.8-3.533-1.046-6.69-2.846-9.374-.157-.241-.323-.463-.49-.728-1.559-2.276-3.322-4.858-2.776-7.612.301-1.539 1.184-2.906 2.036-4.227.226-.357.462-.71.671-1.062a13.208 13.208 0 002.045-6.017c.067-1.033.006-2.07-.181-3.088a8 8 0 00-.574-1.798 5.338 5.338 0 001.527-1.53.805.805 0 00-.203-1.08.815.815 0 00-1.111.06c-.387.41-.861.727-1.388.927a3.978 3.978 0 01-.685.199.5.5 0 00-.143.065 4.152 4.152 0 01-3.946-1.511c-1.749-2.258-.838-5.252 1.054-6.842.46-.389.998-.674 1.578-.835a3.245 3.245 0 011.791 0 .352.352 0 00.305-.046c.208-.153.463-.343.708-.543.2-.166.388-.346.564-.537.893-1.002 1.629-2.666.768-4.066-.749-1.21-2.1-1.326-3.294-1.428-.157 0-.319 0-.463-.041a1.763 1.763 0 01-1.309-.673c-.032-.055-.028-.083 0-.097.065-.222.634-.501.925-.63.116-.056.213-.102.292-.149 3.118-1.752 6.477-2.698 9.66-3.463 3.285-.792 6.427-1.683 8.759-3.88a9.988 9.988 0 001.11-1.242 23.616 23.616 0 0010.165 1.585c-.028.218-.047.441-.07.658-.023.218-.051.436-.074.654a41.73 41.73 0 00-.078.927c0 .218-.042.431-.056.649-.028.339-.051.682-.074 1.02 0 .186-.023.371-.037.561v.121a3.548 3.548 0 00-2.11-.552 4.014 4.014 0 00-2.193.802c-.293.23-.549.503-.759.811a1.622 1.622 0 00-.37 1.284.797.797 0 00.44.515.753.753 0 00.638-.023c.221-.129.407-.311.542-.529.055-.079.115-.155.18-.227a2.3 2.3 0 01.597-.44c.402-.24.872-.343 1.337-.292.425.068.813.283 1.097.607.17.186.315.395.43.621 0 .042.041.088.06.13.018.042 0 .107 0 .162v.149c-.08 4.706.172 9.412.754 14.083.069.612.148 1.224.222 1.854.486 3.927.99 7.992.685 11.975-.171 2.318-.851 3.773-2.128 4.561-.764.43-1.577.768-2.42 1.006l-.218.074-1.091.357-.958.302c-.392.129-.79.255-1.194.375a49.472 49.472 0 01-6.94 1.646.413.413 0 00-.185 0c-.324.051-.652.088-.981.125a.404.404 0 00-.166.065 26.323 26.323 0 01-6.672 0 .71.71 0 00-.791.542.647.647 0 00.463.77c1.718.53 3.508.793 5.306.779.463 0 .926 0 1.388-.051 0 .236-.037.463-.05.704l-.111 1.604c-.121 1.72-.246 3.496-.329 5.253a53.278 53.278 0 00.241 9.517l.083.603v.027c.157 1.053.37 2.096.638 3.125a.69.69 0 00.68.51c.05.004.099.004.149 0a.648.648 0 00.541-.723 57.293 57.293 0 01-.259-2.513c4.807.38 10.993 1.956 14.389 4.733.268.214.527.441.809.696l.232.218c4.066 3.866 5.903 9.239 7.435 14.412a6005.928 6005.928 0 016.685 22.78c1.49 5.112 2.986 10.224 4.488 15.336.817 2.781 1.638 5.58 2.461 8.395l.727 2.471c.521 1.771 1.041 3.545 1.559 5.322.088.297.171.593.259.89.148.505.296 1.015.463 1.516.097.334.203.667.314.997.268.792.518 1.437.787 2.03a.758.758 0 00.708.464.822.822 0 00.231-.033.96.96 0 00.675-1.038 20.623 20.623 0 00-.518-2.397.662.662 0 00.541.389h.098a.73.73 0 00.731-.579c.374-1.891.661-3.838.925-5.716.157-1.075.315-2.146.49-3.217.421-2.587.926-5.327 1.601-8.887 1.05-5.475 2.346-11.158 3.961-17.389a311.07 311.07 0 011.3-4.891l.379-1.39.079.106c.189.241.416.496.671.761l.069.078.051.047c.912.922 1.976 1.68 3.146 2.239a17.646 17.646 0 007.518 1.599h.171c.01.032.022.063.037.093.704 1.919 1.476 3.848 2.226 5.711l.823 2.072a713.206 713.206 0 003.29 8.141 477.797 477.797 0 01-3.239 10.287c-2.1 6.392-4.265 12.604-7.592 18.311-3.507 6.027-7.833 10.324-12.857 12.813-5.589 2.759-11.604 3.213-16.504 1.247-5.473-2.192-8.744-7.171-11.455-12.252l.833-3.004c.462-1.599.925-3.245 1.328-4.872 1.013-3.862 2.193-8.961 2.364-14.144a31.552 31.552 0 00-2.489-13.444c-.431-1.02-.926-2.058-1.388-3.059-1.555-3.324-3.165-6.755-3.281-10.417a.643.643 0 00-.666-.635.63.63 0 00-.634.649c.042 4.102 1.638 7.811 3.183 11.399l.301.696a39.721 39.721 0 012.212 6.165c.542 2.278.814 4.612.809 6.954.028 6.787-1.823 13.444-3.613 19.846-.21.732-.415 1.468-.615 2.206l-.287 1.039v.032a125.417 125.417 0 00-1.324 5.257 44.789 44.789 0 00-1.189 12.517 5.35 5.35 0 00-2.132 1.034 1.752 1.752 0 00-.398-.408 1.671 1.671 0 00-1.319-.241c-1.032.213-1.638 1.149-2.119 1.9-.069.102-.134.204-.199.306-.786 1.168-1.55 2.374-2.313 3.542-.602.927-1.208 1.896-1.828 2.837a74.284 74.284 0 01-2.433 3.514c-.31.422-.653.844-.981 1.252l-.393.491-.125-.538c-.16-.786-.371-1.56-.634-2.318a2.979 2.979 0 00-1.462-1.784 2.39 2.39 0 00-2.563.463 3.713 3.713 0 00-1.152 2.573 21.348 21.348 0 00-.074 2.439v2.494c0 1.631 0 3.319-.042 4.974-.088 3.973-.361 8.65-1.693 13.179a30.436 30.436 0 01-4.474 9.087 19.524 19.524 0 01-1.671-2.17c-.61-.927-1.452-2.221-1.027-3.245a1.127 1.127 0 01.833-.635.652.652 0 01.629.218.706.706 0 00.972.106.736.736 0 00.309-.457.737.737 0 00-.092-.544c-.555-.876-1.647-1.14-2.715-.663a2.626 2.626 0 00-1.453 1.66c-1.245 1.798-2.452 3.667-3.614 5.475a387.581 387.581 0 01-2.142 3.296 473.036 473.036 0 01-5.922 8.738 542.83 542.83 0 01-11.705 16.225c-.995-4.436-2.082-8.905-3.142-13.244-.462-2.003-.976-4.005-1.457-6.027l-.625-2.586c-1.557-6.49-3.115-12.965-4.672-19.424l-.408-1.697c-2.776-11.59-5.889-24.704-15.934-32.516a27.76 27.76 0 00-7.481-4.204.7.7 0 00.264-.464c.231-1.854.523-4.01.957-6.096.158-.728.324-1.432.505-2.104a25.964 25.964 0 012.04-5.355c.292-.565.625-1.131.986-1.687 1.388-2.1 3.238-3.825 5.066-5.494 1.827-1.669 3.817-3.509 5.242-5.725a13.165 13.165 0 00-.639-14.862 60 60 0 00-1.115-1.414c-.375-.459-.74-.927-1.092-1.391 1.216-4.524 2.425-9.043 3.628-13.555l.666-2.489c1.059-3.95 2.156-8.034 3.09-12.081a.8.8 0 00-.3-.837.806.806 0 00-.283-.132.782.782 0 00-.84.266.8.8 0 00-.14.276c-1.134 3.672-2.161 7.45-3.151 11.126l-.491 1.813c-1.159 4.277-2.316 8.556-3.47 12.836l-.05.19c0 .084-.042.163-.065.241a7.232 7.232 0 01-.389-1.196c-.518-2.318.264-4.673 1.013-6.953.185-.566.371-1.122.532-1.669.223-.747.398-1.539-.092-2.318a4.83 4.83 0 00-1.12-1.113 7.84 7.84 0 01-.425-.343 41.558 41.558 0 01-3.322-3.18l-.32-.348a36.833 36.833 0 01-.559-.621 46.092 46.092 0 01-2.175-2.721c1.851-.816 3.465-2.355 4.673-3.648 1.721-1.855 4.03-4.692 4.164-8.127a10.31 10.31 0 00-1.046-4.636 25.456 25.456 0 00-2.405-4.274 14.315 14.315 0 00-7.315-5.479c-7.282-2.388-14.537.968-18.215 3.184a34.273 34.273 0 00-11.567 11.678 33.886 33.886 0 00-4.483 11.905 5.077 5.077 0 00-1.462-.58 5.723 5.723 0 00-5.154 1.507.752.752 0 00-.176.839.792.792 0 00.722.514h.463c.393 0 .791 0 1.189.024a10.185 10.185 0 00-2.642 2.781.838.838 0 00.078 1.076.951.951 0 001.166.213 9.026 9.026 0 011.694-.774 19.13 19.13 0 00-6.436 11.918c-.463 3.843.463 7.418 2.619 9.847 1.207 1.39 2.822 2.188 4.242 2.906 1.421.719 3.022 1.53 3.766 2.995.847 1.655.519 3.644.074 5.711a57.722 57.722 0 00-1.138 6.643c-.199 2.003-.347 4.316.361 6.412a9.931 9.931 0 002.841 4.237 11.371 11.371 0 007.527 2.846c.778 0 1.553-.083 2.314-.245a13.886 13.886 0 008.656-6.18c4.03-6.277 3.392-14.987-1.716-23.304a24.976 24.976 0 00-.639-.978.932.932 0 00-.203-.566.847.847 0 00-.593-.334.802.802 0 00-.684.279 2.452 2.452 0 01-.338.306 3.606 3.606 0 01-3.026.662 3.799 3.799 0 01-2.905-2.517 5.573 5.573 0 01.522-4.515c.842-1.47 2.48-2.689 4.081-1.901.55.292 1.072.633 1.559 1.02.865.645 1.763 1.312 2.961 1.488a2.864 2.864 0 002.263-.565 3.06 3.06 0 001.092-2.225c.115-1.771-.801-3.542-1.499-4.72-.565-.927-1.217-1.826-1.851-2.688-.342-.464-.685-.928-1.013-1.391-.926-1.317-1.99-3.097-2.138-5.151a11.295 11.295 0 01.491-3.968c2.479.235 4.98.002 7.375-.686a36.49 36.49 0 008.693-3.468c.301.543.629 1.095.985 1.642l.315.547.051.078a41.16 41.16 0 002.521 3.301l.037.042a18.419 18.419 0 01-1.475 1.469c-.213.186-.463.376-.704.571-1.42-2.379-3.979-5.448-7.023-4.103-4.627 2.049-.43 8.938-.213 9.35a17.938 17.938 0 002.744 3.876c1.013 1.089 2.244 2.211 3.808 2.318a2.868 2.868 0 002.984-2.212c.384-1.418.069-2.976-.287-4.371a18.143 18.143 0 00-1.235-3.398l.046-.033c.338-.232.663-.481.976-.746.54-.451 1.033-.956 1.471-1.507a38.125 38.125 0 001.74 1.794c.463.436.925.877 1.467 1.354.134.116.296.237.462.362.368.219.684.517.926.871.134.302-.125.983-.297 1.428-.064.167-.124.32-.166.464l-.181.561c-.185.56-.365 1.121-.532 1.687a15.815 15.815 0 00-.754 4.325 9.383 9.383 0 001.703 5.234c.282.464.583.867.893 1.27.134.186.268.362.407.538l.333.422c.693.84 1.328 1.726 1.902 2.651a11.153 11.153 0 01.097 10.96c-1.351 2.401-3.429 4.297-5.441 6.137a36.274 36.274 0 00-4.368 4.474l-.356.463a24.878 24.878 0 00-1.106 1.697 27.988 27.988 0 00-3.701 15.261c0 .051.023.098.032.148-3.382-1.061-6.727-1.247-9.683-.463a.613.613 0 00-.435.737.574.574 0 00.643.464 21.48 21.48 0 018.282.431 23.839 23.839 0 017.634 3.662c4.455 3.176 8.11 7.96 10.858 14.213 2.522 5.735 4.007 11.965 5.441 17.992l.125.533c1.697 7.108 3.393 14.224 5.089 21.348.514 2.165 1.023 4.339 1.532 6.49 1.249 5.359 2.545 10.889 3.946 16.309l-.68.899c-1.94 2.578-3.874 5.157-5.802 7.737a.584.584 0 00.116.802c.11.089.247.138.389.139a.568.568 0 00.43-.199 217.648 217.648 0 006.533-8.08l.666-.872a353.525 353.525 0 005.825-7.825 449.845 449.845 0 0012.029-17.394l.731-1.108c1.546-2.317 3.123-4.737 4.585-7.19.344.913.811 1.774 1.388 2.559a21.429 21.429 0 001.934 2.397c.157.172.319.343.463.491l.028.028.101.107a37.448 37.448 0 006.306 5.007 85.426 85.426 0 003.776 2.317l.43.255c.981.58 1.99 1.178 3.044 1.669.172.079.343.158.542.241h.041c.451.19.915.345 1.388.464a184.12 184.12 0 01-13.162 23.295c-5.067 7.5-10.632 15.201-18.266 19.841-4.053 2.462-8.328 3.82-12.409 3.94a22.329 22.329 0 01-11.451-2.98c-5.501-3.074-10.151-8.113-14.208-15.41a65.273 65.273 0 01-.754-1.391.228.228 0 000-.037c-.463-.899-.884-1.706-1.25-2.47-2.336-4.836-4.413-9.889-6.421-14.779a998.043 998.043 0 00-2.351-5.679c-.088-.2-.171-.399-.259-.603a191.927 191.927 0 00-2.591-5.906c-.411-.899-.814-1.803-1.216-2.707l-.338-.765a.715.715 0 00-.904-.313.716.716 0 00-.401.869 724.159 724.159 0 002.776 6.801 59.471 59.471 0 00-.925-.64c-.611-.412-1.226-.811-1.874-1.228-.18-.116-.361-.223-.541-.329l-.463-.288-.176-.116a2.928 2.928 0 00-.897-.44.593.593 0 00-.639.255.544.544 0 000 .635c.206.26.454.483.736.658l.111.079.412.306c.185.139.365.278.555.403.629.464 1.267.886 1.906 1.312a74.429 74.429 0 002.776 1.762 1103.65 1103.65 0 002.207 5.266c.469 1.103.931 2.21 1.388 3.319 1.42 3.389 2.891 6.898 4.441 10.301 1.102 2.411 2.142 4.492 3.179 6.36 0 2.425.032 4.988.153 8.294a161.14 161.14 0 001.596 17.616l.111.755a81.443 81.443 0 001.688 9.063.584.584 0 00.57.427.553.553 0 00.115 0 .567.567 0 00.463-.617c-.176-1.682-.435-3.384-.68-5.034-.181-1.205-.37-2.457-.523-3.686-.352-2.781-.713-5.785-.99-8.752a225.04 225.04 0 01-.875-15.266c3.239 5.188 6.82 9.1 10.942 11.933a25.97 25.97 0 0011.368 4.492c.861.108 1.728.162 2.596.162a25.55 25.55 0 0010.396-2.318c8.415-3.764 14.509-11.209 19.834-18.691a153.943 153.943 0 0014.611-25.034c.37-.802.735-1.627 1.092-2.456a2.892 2.892 0 001.675-.506c.925-.681.55-1.794.411-2.211a17.364 17.364 0 00-1.036-2.457.638.638 0 00-.787-.32.715.715 0 00-.462.788c.092.626.225 1.246.398 1.854.032.107.069.214.106.32.064.167.117.337.157.51v.172l-.236.042a1.7 1.7 0 01-.226.027.641.641 0 00-.551 0 5.239 5.239 0 01-1.508-.38 41.767 41.767 0 011.971-6.393 23.326 23.326 0 013.086 3.598c.301.463.592.927.87 1.391a16.603 16.603 0 002.544 3.504 32.145 32.145 0 003.008 2.48c.504.381 1.004.761 1.494 1.155a62.672 62.672 0 018.069 7.816 63.115 63.115 0 012.868 3.616l-.536.268a20.623 20.623 0 01-4.627 1.73 6.61 6.61 0 01-1.485.139 3.844 3.844 0 01-.546-.047c-.981-.143-1.578-.602-1.772-1.39-.5-1.934 1.49-3.542 3.035-4.581a.606.606 0 00.167-.834.582.582 0 00-.833-.162c-1.666 1.02-3.558 2.179-3.924 4.385a3.503 3.503 0 001.245 3.343c2.41 2.359 6.773 6.995 9.198 10.036 2.581 3.245 5.394 6.49 8.355 9.735a190.591 190.591 0 008.994 9.137 111.927 111.927 0 009.309 8.127c3.762 2.851 7.093 4.589 10.489 5.466 1.649.422 3.345.632 5.047.625a28.52 28.52 0 007.843-1.205c4.293-1.238 8.439-3.087 12.274-4.9 3.734-1.762 7.532-3.755 11.608-6.101a185.742 185.742 0 004.803-2.851 24.53 24.53 0 00.083 2.615c.264 3.134 1.115 6.198 1.939 9.156.166.593.328 1.191.49 1.784a54.657 54.657 0 011.485 21.538c-.254 1.933-.671 3.871-1.073 5.749l-.042.199a39.512 39.512 0 01-1.36 4.571c-.144.417-.282.839-.421 1.252a.597.597 0 00.356.751.638.638 0 00.241.046.58.58 0 00.527-.334 37.554 37.554 0 001.851-5.002 53.56 53.56 0 001.341-5.28 51.015 51.015 0 00-.555-21.515c-.361-1.465-.791-2.93-1.207-4.348a63.396 63.396 0 01-1.694-6.62 26.733 26.733 0 01-.411-5.498 272.825 272.825 0 009.595-6.231 183.09 183.09 0 002.813-.44c1.138-.185 2.314-.38 3.479-.547.991-.139 2.004-.255 2.985-.371 1.388-.162 2.864-.329 4.284-.57a.584.584 0 00.486-.649.61.61 0 00-.616-.575 55.05 55.05 0 00-6.745.64l-.588.083c-1.143.158-2.23.32-3.294.492a236.862 236.862 0 003.313-2.318c.587-.413 1.17-.849 1.735-1.27l.856-.64a.682.682 0 00.157-.927.634.634 0 00-.399-.275.623.623 0 00-.476.094c-2.988 1.854-5.991 3.838-8.897 5.734-3.016 1.975-6.135 4.015-9.253 5.957l-.347.223-.351.218c-.926.575-1.851 1.14-2.776 1.706-8.712 5.215-16.009 8.863-22.967 11.469-3.451 1.298-8.023 2.73-12.723 2.318-3.442-.292-6.94-1.655-10.702-4.173-3.16-2.114-5.922-4.566-9.207-7.556a187.867 187.867 0 01-8.998-8.762 265.33 265.33 0 00-2.314-2.382c-4.302-4.437-6.671-6.875-10.974-12.614-.342-.464-1.934-1.98-3.623-3.598L277 465.09h.722a12.82 12.82 0 003.447-.857 35.518 35.518 0 003.831-1.706c.291-.153.578-.311.865-.464l.055-.032.616-.353a41.514 41.514 0 009.29-7.589c.282-.301.555-.602.824-.927.203-.222.393-.463.587-.672a55.136 55.136 0 004.122-5.466l.144-.213a12.192 12.192 0 001.462-2.651c.439.56.902 1.103 1.356 1.636l.717.853 6.061 7.306c1.446 1.746 2.896 3.492 4.349 5.238 4.233 5.1 8.725 10.575 12.954 16.267l.282.385c-1.508 1.79-2.706 3.329-3.752 4.826a.62.62 0 00.116.844.677.677 0 00.686.11.617.617 0 00.211-.143c1.476-1.52 2.85-3.11 4.118-4.603l.875-1.034c.616-.738 1.233-1.474 1.85-2.206a373.686 373.686 0 016.875-7.812 450.26 450.26 0 0114.181-14.941 453.877 453.877 0 0114.847-14.278c4.108-3.774 9.054-8.113 14.56-11.65a49.068 49.068 0 018.966-4.603 40.258 40.258 0 019.91-2.276.675.675 0 00.602-.724.613.613 0 00-.634-.588c-5.302.078-11.136 1.91-17.331 5.447-5.895 3.37-11.104 7.802-15.018 11.283-9.758 8.729-19.4 18.312-29.467 29.289a520.391 520.391 0 00-7.829 8.734l-.837.955-1.527 1.748c-1.781-2.346-3.659-4.636-5.487-6.889l-.13-.162c-3.701-4.511-7.504-9.022-11.205-13.384l-6.394-7.556a43.079 43.079 0 01-.926-1.131 36.383 36.383 0 00-2.799-3.139 3.531 3.531 0 00-.596-1.432 2.543 2.543 0 00-1.012-.82 2.523 2.523 0 00-1.283-.209c-1.282.046-2.489.815-3.456 1.437a14.685 14.685 0 00-3.035 2.475.665.665 0 000 .904.6.6 0 00.828.088l.62-.463c1.332-1.016 2.716-2.063 4.233-2.661.527-.209 1.481-.422 1.952.491.062.126.111.258.144.394a2.87 2.87 0 01-.236 1.817 20.173 20.173 0 01-2.438 3.848l-.403.542a63.289 63.289 0 01-2.068 2.634c-.685-.863-1.43-1.776-2.313-2.861-1.291-1.562-2.642-3.101-3.905-4.538-.689-.774-1.388-1.535-2.087-2.318a33.8 33.8 0 00-1.101-1.122 5.02 5.02 0 01-.282-.283 4.608 4.608 0 00-.662-.602c-.143-.751-.282-1.507-.425-2.263-.69-3.708-1.388-7.519-2.314-11.237-.291-1.187-.61-2.401-.925-3.611a50.534 50.534 0 01-.19-.714 20.832 20.832 0 00-.772-2.517c-.5-1.219-1.157-1.933-1.962-2.123-.879-.209-1.693.357-2.119 1.465a16.065 16.065 0 00-.87 3.657v.149c-.102.68-.163 1.366-.18 2.053-.264-.25-.537-.463-.805-.714-.269-.25-.463-.385-.653-.57-.606-.57-1.221-1.131-1.85-1.697l-.463-.463c2.522-4.015 4.904-8.224 6.94-11.868.125-.222.264-.463.403-.691.832-1.39 1.85-3.152 1.388-4.909a3.06 3.06 0 00-2.032-2.067c.181-.418.361-.84.537-1.275.421-1.043.676-2.48.116-3.398a1.884 1.884 0 00-1.536-.877c-.902-.078-1.791.357-2.633 1.294a47.276 47.276 0 00-1.587 1.891c-.231.288-.462.58-.703.863l-.611.746c.287-.76.565-1.535.819-2.346a36.31 36.31 0 001.263-5.317c.111-.723.245-1.623-.166-2.392a2.312 2.312 0 00-1.675-1.145c0-5.1 1.041-10.083 2.235-14.728a40.751 40.751 0 002.313 3.834 22.181 22.181 0 006.708 6.629 18.511 18.511 0 009.624 2.563 23.62 23.62 0 007.916-1.413c5.714-2.031 10.641-5.981 14.676-11.738 3.937-5.633 6.477-12.137 8.614-18.326a228.533 228.533 0 003.628-11.487c2.443 5.873 4.941 11.589 7.435 16.944a322.923 322.923 0 004.4 9.128c1.272 2.526 2.813 5.428 4.978 7.848a15.223 15.223 0 006.94 4.594c1.032.306 2.102.462 3.178.464a14.778 14.778 0 005.659-1.206 24.125 24.125 0 003.322-1.701 17.99 17.99 0 002.984 6.717 15.815 15.815 0 008.753 6.059c1.124.289 2.279.433 3.438.431a17.808 17.808 0 006.833-1.478 33.16 33.16 0 013.29 3.745 33.818 33.818 0 012.869 4.803 96.128 96.128 0 014.163 10.301l.204.57a.652.652 0 00.615.44.637.637 0 00.576-.33.637.637 0 00.058-.476c-1.971-7.571-4.363-12.818-7.749-17.018a20.45 20.45 0 00-2.573-2.698 54.078 54.078 0 0010.109-6.337c.648 4.38 3.743 7.491 6.737 10.5.495.5.99.992 1.462 1.488l.486.505c.883.927 1.799 1.854 2.725 2.782.319.31.638.611.962.927a3059.929 3059.929 0 00-5.51 21.788c-2.429 9.8-4.483 19.387-2.994 28.937a36.126 36.126 0 004.719 12.85 100.875 100.875 0 005.747 8.381l1.633 2.24c2.313 3.184 4.913 6.925 6.588 10.986 1.675 4.061 2.42 8.345 2.943 12.053.208 1.489.393 3.023.573 4.506.806 6.685 1.638 13.597 5.09 19.54.522.89 1.1 1.747 1.73 2.564a.992.992 0 001.129.329.799.799 0 00.527-.834v-.339c-.245-4.663-.499-9.485.25-14.144.62-3.843 1.777-7.663 2.892-11.353.278-.908.55-1.817.819-2.726l8.434-28.663c.352-1.186.708-2.378 1.069-3.565.301-1.001.597-2.007.893-3.008.088.551.176 1.126.259 1.729.699 4.858 1.171 10.143 1.434 16.17.292 6.55.287 13.119.241 18.682v1.808c0 1.35-.014 2.701-.042 4.052a1572.36 1572.36 0 00-.069 8.126c-.033 7.195.106 13.017.43 18.325a.641.641 0 00.648.603h.028a.609.609 0 00.55-.635c-.166-7.64-.051-15.409.065-22.924.042-2.902.088-5.804.116-8.701a81.339 81.339 0 0014.282-31.134c1.448-6.63 1.851-13.282 2.073-19.471l.083-2.457c.231-6.782.463-13.796 1.851-20.555a.653.653 0 000-.125c.221-.405.319-.866.282-1.326a3.397 3.397 0 00-1.388-2.42 6.523 6.523 0 00-4.627-1.312.38.38 0 00-.102.033c.103-1.806.316-3.603.639-5.382.56-2.991 1.633-5.888 2.674-8.693.68-1.826 1.388-3.708 1.939-5.623a25.278 25.278 0 001.17-8.265.73.73 0 00-.49-.645 2.337 2.337 0 00-.245-.055l.291-.724c.106-.25.222-.51.342-.774a9.08 9.08 0 00.787-2.234 2.217 2.217 0 00-.773-2.23zm-196.4-148.587c.09-.081.2-.137.319-.162.134-.023.347 0 .648.529.194.369.349.757.463 1.159l.064.19c.188.562.342 1.135.463 1.715.245 1.191.111 2.119-.398 2.754-.22.283-.508.507-.837.649h-.042a258.193 258.193 0 01-.662-6.3l-.018-.534zm-85.334 92.628c-.055 1.229-.689 2.295-2.031 2.286-1.341-.01-2.489-1.085-3.391-2.017a17.325 17.325 0 01-2.651-3.583c-.074-.139-1.416-2.981-1.522-4.344-.097-1.224.134-2.897 1.36-3.505 2.512-1.251 4.738 1.706 5.853 3.533a.376.376 0 01.032.055.344.344 0 00-.111.464c.088.153.176.301.259.464l.167.324a.345.345 0 00.208.172.394.394 0 00.097 0 .346.346 0 00.148-.042c.369.757.678 1.541.925 2.346.441 1.234.663 2.536.657 3.847zm124.054-54.841a28.434 28.434 0 014.104 5.456c.713 1.192 1.351 2.406 1.888 3.44.208.403.407.816.606 1.228.37.761.754 1.549 1.193 2.29a.645.645 0 00.829.26.644.644 0 00.37-.774 25.209 25.209 0 00-1.388-3.458l-.074-.163a38.025 38.025 0 00-1.809-3.453 29.26 29.26 0 00-4.696-6.12 23.022 23.022 0 00-1.06-.964c.269-.732.056-1.567-.125-2.271a7.603 7.603 0 01-.185-.844 1.093 1.093 0 01.181-.839.72.72 0 01.555-.218c.745 0 1.305.654 1.85 1.391a35.997 35.997 0 015.09 9.61 55.958 55.958 0 011.693 5.892.646.646 0 00.648.5h.125a.628.628 0 00.541-.695 30.5 30.5 0 00-3.886-11.71l-.171-.301a.627.627 0 00.134-.339v-.352c0-.501.037-1.423.356-1.673.055-.047.153-.093.375-.042.49.111.925.973 1.189 1.544l.166.333a28.03 28.03 0 012.055 5.039c.462 1.586.851 3.245 1.216 4.822l.264 1.14c.157.681.319 1.391.504 2.086.042.148.084.311.121.464.127.727.401 1.421.805 2.039a.58.58 0 00.62.209.704.704 0 00.499-.579c.031-.66-.06-1.32-.268-1.947a14.607 14.607 0 01-.148-.617c-.12-.561-.245-1.117-.37-1.678l-.199-.872c-.366-1.636-.768-3.379-1.259-5.071a23.739 23.739 0 00-.462-1.437c.3-.547.555-.974.953-.928.398.047.772 1.039.925 1.424l.07.18c.464 1.29.828 2.613 1.087 3.959l.037.177a72.42 72.42 0 011.17 6.74v.25a9.725 9.725 0 00-2.84 2.318c-.102.112-.199.227-.296.339a3.736 3.736 0 00-1.634-.802 7.798 7.798 0 00-2.313-.033c-.25.023-.504.056-.768.088-1.221.153-2.485.311-3.512-.204-.925-.463-1.647-1.344-2.313-2.192-.213-.265-.426-.533-.648-.784a6.565 6.565 0 00-1.698-1.488.524.524 0 000-.148 20.993 20.993 0 00-2.035-6.875 26.125 26.125 0 00-1.851-3.324c-.31-.464-.638-.927-.976-1.391l-.162-.204c-.352-.44-.569-.751-.421-1.047a.798.798 0 01.527-.464c.514-.125 1.36.199 2.314.89.895.66 1.733 1.394 2.507 2.193zm3.341 46.158h.078a.62.62 0 00.611-.463 20.47 20.47 0 00.402-5.521 42.717 42.717 0 00-.508-5.485 72.89 72.89 0 00-2.684-11.005c-.578-1.854-1.212-3.676-1.758-5.257l-.125-.357c-.555-1.59-1.129-3.245-1.027-4.895.037-.603.254-1.298.643-1.391.389-.093 1.036.612 1.365 1.006l.106.125c.246.292.463.598.717.899.589.834 1.29 1.583 2.082 2.226 1.476 1.094 3.202 1.103 4.696.969l.648-.07c1.129-.121 2.388-.255 3.35.172-3.419 4.714-4.701 11.334-3.502 18.265a41.488 41.488 0 001.758 6.573 33.854 33.854 0 002.776 6.347.608.608 0 00.527.296.628.628 0 00.574-.364.592.592 0 00.018-.428c-.342-1.006-.745-2.003-1.138-2.963a60.987 60.987 0 01-.893-2.267 45.955 45.955 0 01-1.61-5.303 27.195 27.195 0 01-.578-10.287 20.508 20.508 0 013.238-8.553 14.039 14.039 0 013.105-3.342c.191-.146.398-.272.615-.376.236-.122.491-.202.754-.236.071-.007.142-.007.213 0 .218 0 .296.079.333.13.222.287.051 1.075 0 1.367a23.474 23.474 0 01-1.263 3.644c-1.096 2.675-2.225 5.442-1.096 8.344a.71.71 0 001.28.114.671.671 0 00.061-.508c-.629-2.582.31-4.909 1.31-7.375a22.272 22.272 0 001.42-4.363c.12-.695.204-1.706-.462-2.429a1.987 1.987 0 00-.806-.514c.186-.288.361-.575.533-.863.171-.287.351-.579.532-.862a58.109 58.109 0 011.924-2.809 46.34 46.34 0 012.175-2.782l.203-.236c.565-.668 1.268-1.493 2.045-1.502a.755.755 0 01.616.278c.29.37.421.84.365 1.307-.102.844-.638 1.614-1.161 2.36l-.264.38a47.585 47.585 0 00-3.488 5.837c-.926 1.914-2.045 4.45-2.193 7.065a.653.653 0 00.564.686c.04.004.08.004.12 0a.667.667 0 00.653-.496 35.196 35.196 0 012.535-7.047 49.188 49.188 0 012.573-4.265c.462-.681.925-1.39 1.341-2.104.417-.714 1.083-1.957.838-3.245a2.942 2.942 0 00-1.152-1.855c.166-.157.337-.324.513-.5 1.027-1.039 1.823-1.743 2.679-1.391.523.227.676.89.643 1.432a5.507 5.507 0 01-.782 2.147l-.152.292c-.371.718-.75 1.437-1.129 2.151-1.24 2.364-2.526 4.802-3.577 7.32a23.285 23.285 0 00-1.707 5.855.684.684 0 00.528.769h.138a.63.63 0 00.383-.129.627.627 0 00.228-.334 61.025 61.025 0 014.668-11.242c.259-.496.532-.992.81-1.493.463-.848.925-1.724 1.365-2.619a.58.58 0 01.597.273c.356.501-.047 1.424-.292 1.975a67.666 67.666 0 01-2.063 4.265c-.838 1.604-1.851 3.245-2.809 4.831-.671 1.103-1.388 2.239-2.017 3.384a.593.593 0 00.19.779.558.558 0 00.759-.098c.259-.306.499-.621.74-.927a32.061 32.061 0 00-1.754 5.725 31.584 31.584 0 000 13.004 25.527 25.527 0 001.851 5.502l-.463.297a50.498 50.498 0 01-6.986 3.741 58.811 58.811 0 01-3.109 1.275 27.488 27.488 0 01-4.391 1.289 2.896 2.896 0 01-1.637-.047h-.042a1.113 1.113 0 01-.292-.166 1.506 1.506 0 01-.402-.464 2.352 2.352 0 01-.282-.872 3.632 3.632 0 01.398-1.979c.11-.23.233-.453.37-.668a4.45 4.45 0 00.634-1.418.569.569 0 00-.236-.57.533.533 0 00-.593 0 4.464 4.464 0 00-1.388 1.78 5.74 5.74 0 00-.694 2.262 4.07 4.07 0 00.153 1.456c-4.007-.227-6.898-1.391-8.823-3.602l-.051-.056-.291.264.259-.301a7.227 7.227 0 01-.463-.598 2.11 2.11 0 01-.463-1.099c0-.537.611-1.033 1.018-1.358a8.567 8.567 0 013.535-1.525c0 .584 0 1.163-.037 1.738a77.141 77.141 0 00-.042 2.513.644.644 0 00.519.565zm141.847 106.582c1.439 0 3.022-.093 4.891-.278l.745-.079h.074c.536-.06 1.073-.12 1.605-.19l.463-.051c.841-.065 1.672-.22 2.48-.464-1.388 6.444-1.647 13.254-1.851 18.771-.213 6.054-.463 12.92-1.698 19.507a80.967 80.967 0 01-13.038 30.99c.042-9.188-.139-19.864-1.568-30.457-.32-2.382-.704-4.742-1.134-7.004a143.76 143.76 0 001.069-4.001c1.342-5.382 1.749-9.823 1.291-13.968-.463-4-1.633-8.27-3.632-13.059a84.756 84.756 0 00-1.055-2.429 18.18 18.18 0 003.141 1.446c2.298.781 4.7 1.205 7.125 1.257.38 0 .741.009 1.092.009zm7.986-22.09l-.403 1.085a57.504 57.504 0 00-2.262 7.26 43.691 43.691 0 00-.925 8.085c-.042 1.358 0 2.698.032 3.783-3.502.338-7.541.463-11.432-.696a22.262 22.262 0 01.101-4.58c.2-1.556.237-3.128.112-4.691-.222-1.504-.6-2.98-1.129-4.404a21.757 21.757 0 01-1.074-4.502 19.49 19.49 0 00-.925-4.33c-.287-.802-.615-1.594-.925-2.359-.218-.529-.463-1.062-.653-1.595a13.96 13.96 0 01-1.027-3.982v-.079c0-.324-.065-.927.116-1.145a.225.225 0 01.171-.074c.342 0 .851.301 1.388.895a26.67 26.67 0 012.859 4.084c.495.848.926 1.747 1.388 2.614.306.617.62 1.257.953 1.855a.636.636 0 00.805.287.652.652 0 00.394-.774 15.078 15.078 0 00-.958-2.49c.263-.753.46-1.529.587-2.317.07-.395.144-.784.232-1.159.273-1.15.583-2.318.925-3.477.726-2.508 1.569-4.928 2.313-6.954.195-.552.394-1.099.593-1.65l.083-.241a2.79 2.79 0 01.541-1.062c.046-.046.074-.06.074-.065.269.102.694 1.391.801 2.244a21.12 21.12 0 01-.232 5.243c-.064.51-.125 1.015-.18 1.516-.06.57-.125 1.14-.185 1.71a61.401 61.401 0 00-.606 7.01.619.619 0 00.56.607h.069a.588.588 0 00.583-.464c.438-2.284.747-4.592.925-6.911.051-.543.107-1.09.162-1.632.056-.543.111-.992.176-1.493.236-1.91.463-3.871.19-5.781a.577.577 0 00.31-.283c.439-.813.966-1.575 1.573-2.271.263-.311.541-.617.832-.9l.088-.088c.068-.076.142-.146.222-.208.024.068.042.138.056.208v.075c.412 1.738 0 3.708-.347 5.488l-.097.464c-.398 2.03-.794 4.061-1.189 6.091l-.648 3.357c-.202.88-.325 1.777-.365 2.679a.603.603 0 00.462.612h.125a.637.637 0 00.602-.412 22.22 22.22 0 00.98-4.173c.07-.417.144-.825.218-1.228a.624.624 0 00.213-.186c.462-.653.925-1.302 1.415-1.928l.607-.793a51.53 51.53 0 013.169-3.838l.097-.112c.259-.287.694-.778.995-.681a.296.296 0 01.222.172c.199.463-.315 1.534-.532 1.998-.056.12-.107.222-.139.301-.38.885-.763 1.766-1.147 2.652-1.49 3.412-3.031 6.953-4.206 10.527a.62.62 0 00.361.765c.082.036.17.055.259.056a.597.597 0 00.541-.334c1.596-3.092 2.924-6.379 4.21-9.568-.143 4.219-1.642 8.27-3.104 12.187zm-95.429-52.917a67.846 67.846 0 001.582-7.158c.315-1.724.644-3.491 1.069-5.238l.902 1.066a45.763 45.763 0 014.895 6.55c.653 1.094 1.277 2.193 1.879 3.245 2.193 3.857 4.27 7.506 7.518 10.811a25.807 25.807 0 002.855 2.513 4.8 4.8 0 00-.278 1.882.58.58 0 00.463.542h.088a.586.586 0 00.546-.38c.069-.185.138-.371.203-.556.125-.339.245-.672.389-1.011.114-.28.242-.554.384-.82a.343.343 0 00.041-.163c.074-.129.148-.259.236-.389a6.234 6.234 0 012.411-2.146c2.452-1.183 5.237.774 6.014 1.39a10.066 10.066 0 013.304 4.659c.463 1.391 1.027 4.084-.509 6.203a8.062 8.062 0 01-3.044 2.425.343.343 0 00-.172.037 17.51 17.51 0 01-1.027.463l-.055.028c-.643.269-1.3.515-1.934.756l-.241.088a.689.689 0 00-.416.867.648.648 0 00.615.463c.064 0 .128-.01.19-.028.463-.12.833-.222 1.184-.324a20.18 20.18 0 00-.735 6.082l-1.504.927c-2.776 1.757-5.663 3.574-8.619 5.1-4.137 2.141-7.56 2.809-10.78 2.09a14.167 14.167 0 01-8.523-5.841 16.708 16.708 0 01-2.604-6.569c-.079-.426-.13-.797-.167-1.14a21.776 21.776 0 01-.153-2.749c0-.895.051-1.817.093-2.703.095-1.486.113-2.976.055-4.464-.087-1.586-.694-3.37-2.109-3.973 2.406-4.066 4.626-8.127 5.954-12.535zm-101.18 53.937c-.111.172-.226.339-.333.515a.625.625 0 00-.074.227c-.139.255-.282.515-.421.76a.645.645 0 00.204.872.694.694 0 00.375.111.685.685 0 00.569-.26 26.82 26.82 0 001.563-2.396l.408-.464c.148-.181.3-.361.462-.538.463-.547.926-1.103 1.388-1.655l.69-.825c.509-.602 1.013-1.21 1.513-1.822l.555-.667c.157-.19.319-.394.462-.594.395-.539.842-1.039 1.333-1.492a1.392 1.392 0 011.254-.325c.069.033.273.121.296.547a4.588 4.588 0 01-.56 1.971l-.125.282a64.318 64.318 0 01-2.572 5.243 90.525 90.525 0 01-2.439 4.103l-.948 1.553a.647.647 0 00.199.867c.107.08.237.123.37.125a.587.587 0 00.463-.232 42.296 42.296 0 005.496-9.146 1.357 1.357 0 01.949.575c.37.51.384 1.228.037 2.141a21.707 21.707 0 01-1.754 3.338c-.245.413-.49.821-.726 1.233-1.675 2.963-3.498 6.134-5.45 9.212l-.144.218a19.69 19.69 0 01-.25.394 98.356 98.356 0 00-1.878-1.697c-.194-.167-.38-.339-.574-.515a18.629 18.629 0 00-1.962-1.627 4.05 4.05 0 00-2.951-.672 6.929 6.929 0 00-1.55-4.594 8.429 8.429 0 00-1.994-1.854 6.522 6.522 0 00-.722-.422c-.606-.329-1.129-.612-1.388-1.187a9.298 9.298 0 01-.551-1.854 23.049 23.049 0 003.133-3.89l.277-.403c.986-1.423 1.925-2.902 2.832-4.33l.86-1.358c.537-.835 1.171-1.822 1.851-2.823l.157-.237a3.91 3.91 0 01.685-.862.676.676 0 01.518-.204c.107.028.176.102.227.399a.546.546 0 00.088.676 16.285 16.285 0 01-.875 6.138 34.53 34.53 0 01-1.911 4.715 16.997 16.997 0 00-1.059 2.499.587.587 0 00.296.718c.089.05.19.075.292.074a.663.663 0 00.527-.259 17.121 17.121 0 001.754-3.204l.189-.408c.53-1.132.994-2.294 1.388-3.481a16.291 16.291 0 00.879-7.311 5.679 5.679 0 011.712-.885c.152-.045.307-.08.463-.107a2.5 2.5 0 01.652-.032c.615.041.764.338.81.435.273.552.041 1.433-.144 2.142a28.05 28.05 0 00-.125.501c-.199.927-.462 1.854-.717 2.846a46.484 46.484 0 01-3.979 9.202zm8.125 20.477a.564.564 0 00.189.051.743.743 0 00.5.162.64.64 0 00.578-.51c.128-.624.181-1.26.158-1.896 0-.343 0-.668.032-.992.081-1.025.258-2.04.528-3.032l.046-.162c.091-.393.218-.776.379-1.145.038-.07.071-.143.097-.218.028 0 .098.051.246.218.447.608.751 1.31.888 2.053.042.144.079.283.116.422 1.207 4.2 2.23 8.345 3.035 12.345.236 1.173.462 2.351.68 3.528l.06.311a7.809 7.809 0 00.981 2.999.578.578 0 00.49.274.403.403 0 00.097-.023l.148.18c.102.121.204.241.297.362.296.375.596.737.925 1.099.416.463.828.978 1.24 1.469l.62.728c1.129 1.326 2.253 2.693 3.345 4.019l.546.663c.819.992 1.642 2.007 2.512 3.101l-.157.181a42.077 42.077 0 01-7.625 6.713c-.726.496-1.476.955-2.235 1.391a60.584 60.584 0 00-8.656-9.578 67.51 67.51 0 00-4.025-3.342l-.435-.33a20.306 20.306 0 01-3.595-3.189 18.555 18.555 0 01-1.513-2.318 20.184 20.184 0 00-1.411-2.188 29.64 29.64 0 00-3.063-3.245c-.116-.116-.231-.222-.338-.324l-.356-.344-.328-.319a28.388 28.388 0 01-2.36-2.508 11.324 11.324 0 01-1.337-2.035 8.582 8.582 0 01-.463-1.108 7.27 7.27 0 01-.148-.524v-.07a.64.64 0 01-.037-.246.377.377 0 01.046-.092c.117.055.249.07.375.041.292.334.602.673.926 1.02.55.571 1.115 1.127 1.679 1.683l.694.682c.43.431.879.876 1.342 1.293.277.246.509.464.717.612l.185.148a.573.573 0 00.572.068.584.584 0 00.196-.137.582.582 0 00.074-.77 4.35 4.35 0 00-.236-.283 14.938 14.938 0 00-.643-.76c-.708-.797-1.485-1.548-2.239-2.281a76.035 76.035 0 01-1.074-1.047 21.407 21.407 0 01-1.897-2.096c-.462-.644-1.156-1.534-1.216-2.318 0-.268.041-.352.097-.398.055-.047.115-.033.388.12l.121.065c.425.227.846.464 1.258.686a10.31 10.31 0 012.179 1.729 75.449 75.449 0 011.638 1.771c.532.589 1.12 1.238 1.703 1.855.222.227.462.463.671.676.101.102.208.204.309.297a.563.563 0 00.403.167l.028.023a.643.643 0 00.833.037.64.64 0 00.175-.811 9.93 9.93 0 00-.624-1.015l-.278-.404-.273-.403a8.153 8.153 0 01-.222-.338 29.3 29.3 0 01-1.244-2.179 50.302 50.302 0 01-2.087-4.636c-.305-.793-.611-1.59-.902-2.392-.065-.172-.134-.343-.199-.519a10.362 10.362 0 01-.565-1.734 1.714 1.714 0 01.213-1.27.538.538 0 01.435-.213c.384-.024.722.347 1.064.732l.25.269c-.173.726.057 1.508.689 2.346.514.676 1.078 1.325 1.624 1.956l.699.816.287.334c.805.959 1.619 1.919 2.438 2.864l.028.042.217.246c.134.158.269.311.407.464.782.89 1.513 1.692 2.24 2.452a.617.617 0 00.462.19.687.687 0 00.463-.176.6.6 0 00.217-.396.6.6 0 00-.124-.434 82.848 82.848 0 00-2.221-2.749 33.322 33.322 0 00-.509-.607l-.097-.116-1.18-1.391a100.66 100.66 0 00-1.615-1.854l-.592-.608c-.18-.204-.37-.408-.564-.616a8.421 8.421 0 01-1.328-1.702.93.93 0 01-.056-.852 1.097 1.097 0 01.838-.529c.777-.125 1.54.431 2.119.927 1.068.9 2.119 1.854 3.132 2.782.338.306.671.616 1.008.927l.519.463.101.098c.792.709 1.573 1.423 2.355 2.137l.107.097c.217.195.435.413.657.635a8.36 8.36 0 002.156 1.753zm-23.971-9.907c.245-3.203.255-6.462.264-9.615v-3.458c0-.848 0-1.72.365-2.374a1.172 1.172 0 01.898-.621.718.718 0 01.643.362c.339.586.557 1.234.643 1.905.037.186.074.366.111.543.167.718.338 1.441.505 2.16a.531.531 0 00.124.593l.112.492c.231.987.532 2.016 1.471 2.725.333.239.679.461 1.036.663.489.254.945.566 1.36.928a8.578 8.578 0 012.24 4.399 2.855 2.855 0 00-1.435-.7 1.882 1.882 0 00-1.688.607c-1.314 1.391-.463 3.435.148 4.919.097.236.194.463.273.672.657 1.734 1.457 3.778 2.438 5.776l.042.079-.144-.153a14.873 14.873 0 00-4.201-3.115c-1.115-.575-1.776-.167-2.137.273-.463.589-.519 1.391-.121 2.318.27.627.607 1.222 1.004 1.776a1.238 1.238 0 00-.425.324c-.616.719-.287 1.725-.065 2.415a12.438 12.438 0 002.341 4.029c.657.797 1.388 1.544 2.036 2.197l-.033.084a31.458 31.458 0 00-2.012 6.953c-1.994-1.029-3.919-2.211-5.723-3.347a39.4 39.4 0 01-6.566-4.988 31.38 31.38 0 003.836-6.768c1.453-3.375 2.29-7.218 2.66-12.053zm210.655 4.39l.518.139c.828.193 1.632.477 2.397.848.749.399 1.582 1.113 1.457 1.827-.092.57-.851.765-1.661.895-.957.153-1.947.264-2.91.371v-2.481c0-.579.042-1.126.065-1.659a.555.555 0 00.134.06z" fill="#000"/><path d="M372.904 375.224a4.617 4.617 0 001.507-.245 6.346 6.346 0 002.347-1.399 4.871 4.871 0 001.408-2.198.471.471 0 00-.031-.309.555.555 0 00-.223-.241.625.625 0 00-.319-.086.625.625 0 00-.319.086 7.375 7.375 0 00-1.408 1.08l-.296.265a6.144 6.144 0 01-1.638 1.13 3.44 3.44 0 01-1.77.249 5.955 5.955 0 01-1.788-.661l-.164-.081a.758.758 0 00-.434-.06.7.7 0 00-.383.186.504.504 0 00-.168.328.482.482 0 00.111.345c.402.498.936.904 1.557 1.184a4.891 4.891 0 002.011.427zm-1.028-24.357c.077-.008.155-.008.233 0 .086.004.173.004.26 0 .146-.013.293-.013.44 0 .314.024.623.085.92.183.564.19 1.066.511 1.457.932.375.43.664.918.854 1.441l.11.277c.079.195.158.407.224.586s.115.334.185.497c.06.136.149.261.26.366l.097.118c.06.078.139.141.231.185a.69.69 0 00.297.067.47.47 0 00.106 0 .605.605 0 00.303-.137.54.54 0 00.172-.27c.013-.048.029-.096.048-.142.065-.162.101-.332.106-.505a3.543 3.543 0 00-.075-.598 5.981 5.981 0 00-1.615-3.203 4.833 4.833 0 00-1.661-1.066 5.171 5.171 0 00-1.988-.343c-.216 0-.441.033-.639.061-.178.03-.351.081-.515.151l-.158.057a.715.715 0 00-.422.316.628.628 0 00-.067.498.719.719 0 00.311.41.824.824 0 00.526.119zm-228.603 29.834a.624.624 0 00-.85.152 64.978 64.978 0 00-5.162 8.528 95.132 95.132 0 00-4.087 8.927 92.807 92.807 0 00-5.271 18.972c-.638 3.836-1.051 7.76-1.45 11.568-.37 3.498-.751 7.117-1.304 10.643-1.023 6.478-2.52 13.493-4.581 21.406-1.567 6.016-3.285 12.105-4.969 17.991l-.859 3.114c-.239.838-.469 1.74-.723 2.652a.59.59 0 00.063.437.601.601 0 00.35.275.532.532 0 00.169 0 .564.564 0 00.54-.384c1.182-3.364 2.234-6.83 3.252-10.18l.075-.254c1.234-4.082 2.201-7.404 3.036-10.523 2.107-7.866 3.68-14.807 4.796-21.226a172.455 172.455 0 001.53-10.906c.136-1.254.263-2.513.39-3.767.234-2.351.469-4.784.788-7.168a94.244 94.244 0 014.656-19.559 92.34 92.34 0 014.303-10.148c1.319-2.661 2.858-5.252 4.341-7.76.391-.657.779-1.314 1.164-1.971a.61.61 0 00-.197-.819zm25.18 5.423c-1.045.463-2.08 1.009-3.081 1.518-1 .51-1.902.977-2.868 1.426l-.542.255c-1.602.763-3.603 1.717-5.186.967-1.478-.699-2.07-2.523-2.42-4.032-.453-1.976-.197-3.874.079-5.878v-.097a.493.493 0 00-.09-.348.544.544 0 00-.309-.208.59.59 0 00-.387.015.545.545 0 00-.283.249c-.897 1.759-.932 3.819-.804 5.24a10.18 10.18 0 001.439 4.726 4.552 4.552 0 001.678 1.642 4.93 4.93 0 002.325.64c1.809 0 3.534-.815 5.057-1.537l.379-.176a32.45 32.45 0 005.826-3.314.62.62 0 00.247-.392.597.597 0 00-.099-.446.752.752 0 00-.43-.295.801.801 0 00-.531.045zm17.544-44.034h.3c.834-.011 1.645-.334 2.324-.926.778-.65 1.316-1.651 1.497-2.784a.903.903 0 00-.096-.464.668.668 0 00-.303-.301.506.506 0 00-.387-.049.607.607 0 00-.331.25 7.518 7.518 0 00-.249.426 3.438 3.438 0 01-.305.5c-.212.256-.45.476-.709.656a2.427 2.427 0 01-1.69.518 2.952 2.952 0 01-1.666-.76 3.84 3.84 0 01-.901-1.403c-.117-.253-.235-.5-.361-.73a.6.6 0 00-.314-.277.48.48 0 00-.385.024.642.642 0 00-.289.315.861.861 0 00-.064.467c.156 1.18.626 2.265 1.336 3.085.711.821 1.622 1.331 2.593 1.453zM394.93 238.004a2.607 2.607 0 00-.943-1.113 2.874 2.874 0 00-1.432-.473c-.975 0-1.721.532-2.44 1.068a9.483 9.483 0 01-.863.601 7.333 7.333 0 01-2.034.802 8.293 8.293 0 01-1.483.165 2.693 2.693 0 00-.467.026h-.266a.553.553 0 00-.294.114 3.16 3.16 0 00-1.094.667c-.311.291-.553.64-.711 1.024a2.714 2.714 0 00.042 2.344c.42.802 1.348 1.416 2.757 1.83a8.11 8.11 0 002.258.314 7.717 7.717 0 003.985-1.084 6.999 6.999 0 002.714-2.934c.42-.871.812-2.161.271-3.351zm-4.12.34c.542-.436 1.153-.911 1.815-.819.975.126 1.358 1.189 1.316 1.904-.089 1.743-1.554 3.295-2.963 4.07a6.708 6.708 0 01-2.875.796 6.768 6.768 0 01-2.947-.517c-.704-.301-1.838-1.002-1.558-2.283a1.94 1.94 0 01.442-.857c.22-.248.5-.443.817-.568 2.021.383 4.227-.515 5.501-1.399.158-.096.303-.209.476-.327h-.024zm6.873-18.932c1.243.314 2.39 1.106 3.441 2.429a.63.63 0 00.24.181.797.797 0 00.582.025.636.636 0 00.337-.248.45.45 0 00.06-.364c-.232-.877-.764-1.686-1.536-2.336-.772-.65-1.754-1.117-2.837-1.347a6.711 6.711 0 00-3.441.188c-.98.336-2.026 1.044-2.022 2.031a.496.496 0 00.137.32.716.716 0 00.341.2c.127.04.266.049.399.023a.699.699 0 00.342-.165c.436-.444 1.019-.782 1.682-.975a4.744 4.744 0 012.275.038zm-135.929 31.272c-.79-.224-1.493-.602-2.043-1.099-.524-.551-.858-1.199-.969-1.88l-.035-.128a.573.573 0 00-.269-.307.858.858 0 00-.457-.105.76.76 0 00-.424.121.488.488 0 00-.217.31c-.367 1.915 1.079 3.745 3.594 4.553a8.264 8.264 0 002.545.388c1.912-.013 3.754-.565 5.188-1.554a.529.529 0 00.251-.342.456.456 0 00-.111-.384.828.828 0 00-.454-.266 1.023 1.023 0 00-.565.029c-1.556.556-3.892 1.259-6.034.664zm3.649-16.398c-.317-1.083-.557-2.228-.79-3.333l-.076-.36a.574.574 0 00-.196-.341.442.442 0 00-.346-.098.476.476 0 00-.316.186.623.623 0 00-.127.38c.075 2.27.549 4.5 1.393 6.554.073.189.157.382.241.579.335.776.656 1.509.324 2.228a12.068 12.068 0 01-1.626 2.505.63.63 0 00-.138.381.637.637 0 00.284.554.43.43 0 00.213.061.46.46 0 00.26-.083c.892-.55 1.651-1.346 2.209-2.316.561-1.031.565-2.132 0-3.466l-.263-.632a25.555 25.555 0 01-1.046-2.799zm-6.144-6.476a4.568 4.568 0 00-2.406-.3 3.889 3.889 0 00-2.059.952 3.645 3.645 0 00-.928 1.352c-.064.172-.106.35-.125.531-.076.418-.042.847.101 1.252l.043.139c.039.124.088.246.144.365.068.134.154.259.255.374l.092.113a.61.61 0 00.228.182.681.681 0 00.296.066.748.748 0 00.289-.061.555.555 0 00.286-.272.482.482 0 00.012-.376.522.522 0 01-.034-.165v-.174c0-.078-.024-.252-.024-.352.04-.127.071-.256.092-.387 0-.1.038-.2.067-.3.069-.228.171-.448.303-.652.213-.35.553-.624.962-.774a2.47 2.47 0 011.42 0c.25.06.489.155.707.283.083.053.162.111.235.174.185.171.413.299.664.373a.851.851 0 00.655-.104.773.773 0 00.235-.245.695.695 0 00.097-.311 1.39 1.39 0 00-.196-.618 1.567 1.567 0 00-.463-.487 3.84 3.84 0 00-.948-.578zm68.874 24.99c.042 1.378.088 2.757.119 4.135 0 1.109.052 2.568.031 4.022v.661c0 .439-.025.878 0 1.312v1.024c.001.317.03.633.089.945 0 .089.031.184.041.283a.923.923 0 00.315.538c.168.143.383.231.611.25h.057a.904.904 0 00.527-.189.765.765 0 00.281-.448 10.89 10.89 0 00.357-2.03c.067-.661.104-1.345.124-2.101a72.675 72.675 0 000-4.286 37.954 37.954 0 00-1.097-8.327.7.7 0 00-.307-.407.823.823 0 00-.526-.117.81.81 0 00-.513.22.675.675 0 00-.212.479c0 1.109.031 2.242.067 3.332l.036.704zm5.555 13.165a.65.65 0 00.165 0 .795.795 0 00.447-.144.726.726 0 00.272-.364.602.602 0 00-.018-.471.657.657 0 00-.357-.33s-.029 0-.034-.051c-.215-1.036 3.28-5.141 4.224-6.05a24.246 24.246 0 013.341-2.767 23.18 23.18 0 011.837-1.102c.265-.141.535-.268.809-.4.427-.194.842-.409 1.244-.645a.598.598 0 00.289-.326.562.562 0 00-.019-.426.606.606 0 00-.319-.301.654.654 0 00-.451-.02c-1.458.287-2.786 1.064-4.069 1.812l-.774.442a17.067 17.067 0 00-3.995 3.338 21.247 21.247 0 00-3.036 4.128c-.5.876-.999 2.095-.58 2.919.093.195.234.367.413.499.178.132.388.221.611.259zm8.421-.451c-.442.129-.889.258-1.332.397a4.53 4.53 0 00-1.855.959.55.55 0 00-.116.55.522.522 0 00.414.336c.091.007.182.007.274 0 .161-.001.322-.018.48-.05l.145-.028c.115 0 .23-.028.346-.042a5.58 5.58 0 00.692-.115l.264-.069c.582-.148 1.183-.305 1.774-.411l4.293-.766a52.803 52.803 0 018.601-.669.6.6 0 00.411-.155.58.58 0 00.043-.806.628.628 0 00-.406-.211 39.07 39.07 0 00-8.913 0c-1.454.138-2.89.412-4.288.817l-.827.263zm-160.213 56.962c-.803.342-.969 1.553-.378 2.76.487.995 1.322 1.63 2.047 1.63.154 0 .306-.029.446-.087a1.35 1.35 0 00.541-.484c.129-.204.195-.438.19-.675a3.107 3.107 0 00-.352-1.6c-.591-1.207-1.685-1.885-2.494-1.544zm76.286-86.058c1.024 0 1.788-.954 1.788-2.241 0-1.288-.764-2.237-1.788-2.237-1.023 0-1.794.954-1.794 2.237 0 1.282.771 2.241 1.794 2.241zm10.298 0c.763 0 1.341-.954 1.341-2.237 0-1.282-.578-2.241-1.341-2.241s-1.346.954-1.346 2.241c0 1.288.579 2.237 1.346 2.237zm113.284-16.119c-1.024 0-1.794.96-1.794 2.24 0 1.28.77 2.237 1.794 2.237s1.788-.961 1.788-2.237c0-1.276-.753-2.24-1.788-2.24zm12.087 6.268c.742 0 1.343-1.203 1.343-2.686 0-1.484-.601-2.687-1.343-2.687s-1.344 1.203-1.344 2.687c0 1.483.602 2.686 1.344 2.686zM371.913 360c1.019 0 1.788-1.153 1.788-2.684 0-1.531-.769-2.689-1.788-2.689-1.018 0-1.794 1.158-1.794 2.689 0 1.531.77 2.684 1.794 2.684z" fill="#000"/></svg>