<svg width="600" height="600" fill="none" xmlns="http://www.w3.org/2000/svg"><path d="M379.576 240.75a4.403 4.403 0 01-2.202-1.796c-.63-1.076-.643-2.313-.577-3.389.053-.766.132-1.55.207-2.313.257-1.887.321-3.794.189-5.693a.587.587 0 00-.192-.395.631.631 0 00-.42-.164.654.654 0 00-.421.163.598.598 0 00-.2.392 45.775 45.775 0 00-.185 2.156c-.061.847-.123 1.72-.238 2.576-.057.423-.132.847-.202 1.304a17.328 17.328 0 00-.335 3.321c.04 1.521.669 3.495 1.986 4.482a2.934 2.934 0 001.793.606c.252 0 .503-.027.749-.08a.6.6 0 00.327-.187.555.555 0 00.144-.339.635.635 0 00-.104-.387.674.674 0 00-.319-.257z" fill="#000"/><path d="M381.39 231.815l.103-.017c.099 0 .202 0 .301-.021.099-.021.194 0 .278 0l.148.028c.042 0 .088 0 .13.031l.076.028c.064.03.131.055.198.077l.069.035.087.039a.763.763 0 00.218.081h.03a.606.606 0 00.522.024.627.627 0 00.247-.164.556.556 0 00.134-.253.909.909 0 00-.065-.824 1.108 1.108 0 00-.144-.185l-.046-.046-.137-.147a1.627 1.627 0 00-.484-.274 3.929 3.929 0 00-2.054-.157 4.741 4.741 0 00-1.779.673c-.343.214-1.383.865-1.201 1.752a.674.674 0 00.25.358.769.769 0 00.432.147h.035c.348-.036.673-.183.918-.414.148-.118.306-.226.473-.322a3.024 3.024 0 011.12-.431l.141-.018zm-1.904-5.726c.259.249.545.449.851.595a4.068 4.068 0 001.66.315h.207a5.734 5.734 0 001.81-.383 7.442 7.442 0 001.37-.754l.319-.207a.651.651 0 00.256-.35.851.851 0 00.014-.472.707.707 0 00-.208-.389.472.472 0 00-.361-.128c-.224 0-.444.041-.668.057-.224.015-.564.036-.83.077l-.415.062c-.378.052-.76.109-1.141.145a4.351 4.351 0 01-1.366-.057c-.108 0-.212-.041-.315-.057-.141-.01-.28-.04-.415-.088h-.071l-.087-.031a.684.684 0 00-.097-.212.524.524 0 00-.156-.149.373.373 0 00-.305-.05.458.458 0 00-.26.205l-.058.108-.025.052a.826.826 0 00-.171.35.945.945 0 00-.003.41c.069.371.232.704.465.951zm8.049 17.737a.63.63 0 00-.189-.103.58.58 0 000-.422.506.506 0 00-.225-.237.566.566 0 00-.334-.059 4.206 4.206 0 00-1.465.498c-.411.201-.822.44-1.341.76-.917.558-1.818 1.14-2.657 1.68a.723.723 0 00-.321.501.64.64 0 00.194.517c.372.341.815.608 1.302.787a4.188 4.188 0 001.532.251 4.985 4.985 0 001.875-.357 3.52 3.52 0 001.732-1.521c.411-.76.584-1.744-.095-2.28l-.008-.015zm-1.028.874v.22a1.548 1.548 0 01-.181.605c-.226.406-.609.72-1.074.877a3.777 3.777 0 01-2.266.08l1.234-.76.448-.285c.383-.243.778-.494 1.181-.718.148-.084.3-.16.452-.232l.243-.126c-.029.107-.033.225-.037.339zm-67.744 64.317l-.285-.49a206.83 206.83 0 00-1.357-2.274l-.298-.499c-1.068-1.768-2.095-3.572-3.125-5.356l-.78-1.393-.737-1.322-.252-.449a106.8 106.8 0 01-.481-.853c-.047-.087-.093-.198-.147-.313a1.983 1.983 0 00-.662-.973 2.225 2.225 0 00-1.06-.173 3.245 3.245 0 01-.369 0c-.527-.06-1.051-.15-1.567-.272a21.518 21.518 0 01-2.246-.622 13.148 13.148 0 001.676-1.125c.8-.622 1.915-1.586 2.359-2.739.133-.31.183-.648.147-.982a1.98 1.98 0 00-.352-.93 1.485 1.485 0 00-.805-.565c.102-.171.188-.352.256-.539a2.026 2.026 0 00-.26-2.023 1.348 1.348 0 00-.184-.186c.054-.07.109-.136.159-.21a1.903 1.903 0 00.096-1.973 1.646 1.646 0 00-.557-.589c.237-.319.401-.684.481-1.071a2.705 2.705 0 00-.02-1.171 2.382 2.382 0 00-.512-.964 2.445 2.445 0 00-.892-.643c-1.529-.671-3.536-.127-4.864.235-.932.254-1.839.588-2.711.997l-.071.033c-.767.363-1.727.824-2.255 1.549a.482.482 0 000 .553.541.541 0 00.566.23c.346-.091.677-.23.985-.412.088-.049.176-.099.268-.144.369-.185.771-.375 1.257-.589a16.493 16.493 0 012.514-.861l.105-.025c.863-.218 2.882-.729 3.771-.165a.931.931 0 01.419.635c.138.729-.562 1.368-1.174 1.771-.739.484-1.509.922-2.304 1.311-.88.436-1.76.824-2.606 1.161a17.09 17.09 0 01-1.161.412l-.381.136a3.37 3.37 0 00-1.094.544.535.535 0 00-.172.573.632.632 0 00.537.412c.061.004.123.004.184 0a5.429 5.429 0 001.999-.565c.155-.065.301-.131.444-.185a34.723 34.723 0 002.422-1.055 38.625 38.625 0 002.342-1.203c.272-.152.557-.325.838-.519a.572.572 0 00.117 0h.03a.377.377 0 01.297.144.532.532 0 01.08.466c-.19.409-.505.751-.901.976-.796.581-1.701 1.236-2.636 1.797-.884.544-1.834.975-2.828 1.285-1.324.412-2.267.47-2.573-.49a.557.557 0 00-.574-.383.524.524 0 00-.498.412c-.059.343-.005.696.153 1.008.158.311.412.566.727.726.108.062.222.116.339.161a.674.674 0 00-.034.132v.156c-.045.288-.004.583.118.849.14.292.343.55.595.758.115.095.238.179.368.252a3.096 3.096 0 00.751 2.797 2.596 2.596 0 001.948.787 4.423 4.423 0 001.492-.284l.125-.054a.594.594 0 00.138.107c.942.505 1.937.907 2.967 1.199.898.222 1.813.368 2.736.437 1.257 2.373 2.69 5.105 4.228 7.758.674 1.162 1.471 2.53 2.3 3.869l.088.14c.373.601.759 1.236 1.182 1.813l.364.523c.3.472.639.918 1.014 1.335a.571.571 0 00.419.177.652.652 0 00.344-.099.558.558 0 00.239-.68 16.037 16.037 0 00-1.199-2.204zm-18.168-19.702c1.54-.341 3.005-.95 4.324-1.801.666-.411 1.31-.857 1.928-1.334l.054-.042.168-.132c.18.083.226.128.23.322-.04.395-.225.762-.519 1.034a9.814 9.814 0 01-2.439 1.772c-.872.549-1.825.966-2.824 1.236a1.79 1.79 0 01-1.32-.124 1.26 1.26 0 01-.624-.795c.345-.01.687-.055 1.022-.136zm.474 2.472h.075a6.663 6.663 0 002.363-.643c.714-.3 1.405-.651 2.066-1.05.678-.39 1.318-.841 1.911-1.348a.752.752 0 00.1.046c.154.034.29.124.38.251a.62.62 0 01.111.437c-.156.419-.42.791-.767 1.079l-.084.087a12.23 12.23 0 01-2.585 2.006c-.813.466-2.037 1.174-2.954.766a1.442 1.442 0 01-.675-.762 3.031 3.031 0 01-.188-.692c0-.066-.03-.132-.042-.198.1.009.192.021.289.021zm84.681 116.697c-.891-.614-2.102-.649-2.552-.074-.218.27-.45.871.454 1.855l.034.031c.841.658 1.105 1.158.937 1.699-.069.24-.153.476-.252.705-.336.823-.715 1.742-.13 2.178a.611.611 0 00.361.118.855.855 0 00.16 0c.656-.148 1.417-1.163 1.559-1.425 1.236-2.195.627-4.26-.571-5.087zm-9.138 13.265c-.473-.418-1.01-.18-1.502.046a.77.77 0 01-.703.084 5.343 5.343 0 01-.698-.59 1.395 1.395 0 00-.934-.286 1.424 1.424 0 00-.896.407 2.713 2.713 0 00-.648.938 2.98 2.98 0 00-.231 1.155c.05.454.199.888.434 1.264.235.375.549.681.915.891 1.149.678 2.554.284 3.527-.615a3.655 3.655 0 001.041-1.641c.146-.556.131-1.264-.305-1.653zm-.349 1.084a2.359 2.359 0 01-.575 1.255 2.792 2.792 0 01-1.146.904 2.5 2.5 0 01-1.397.159 1.757 1.757 0 01-.716-.297 1.98 1.98 0 01-.55-.59 2.097 2.097 0 01-.225-1.389c.099-.273.237-.526.409-.749a.97.97 0 01.574-.402.886.886 0 01.67.113c.375.28.616.712 1.074.837.458.126.853-.142 1.273-.305.147-.059.346-.139.489 0a.623.623 0 01.12.464zm-121.816-18.111a2.07 2.07 0 00-.497-.845 2.064 2.064 0 00-.828-.524 1.526 1.526 0 00-1.114-.037l.723-1.41c.245-.487.486-.957.715-1.398.112-.212.228-.416.349-.645.441-.742.803-1.528 1.08-2.346.229-.761.2-1.797-.569-2.429a1.47 1.47 0 00-.547-.288c-.2-.057-.41-.071-.616-.041a2.773 2.773 0 00-.084-1.805 1.404 1.404 0 00-.86-.724 1.577 1.577 0 00-1.213.204 7.796 7.796 0 00-1.836 1.734l-.32.37a63.84 63.84 0 00-1.313 1.544 1.598 1.598 0 00-.831-.786c-1.201-.458-2.157.832-2.726 1.597l-.1.137a56.496 56.496 0 00-4.712 7.758l-.536 1.032c-.054-.154-.104-.308-.162-.466-.158-.416-.457-1.215-1.246-1.368a1.457 1.457 0 00-1.592 1.035 6.594 6.594 0 00-.295 1.901c0 .163-.02.321-.033.479a28.302 28.302 0 00-.066 2.683c0 .657.045 1.248.091 1.797a52.633 52.633 0 01-5.821 8.024l-.337.371v-1.664c-.037-52.972-.095-133.024-.108-181.786a9.83 9.83 0 00-5.995-9.082 9.614 9.614 0 00-3.724-.744h-35.762c-18.224 0-37.067 0-55.599.042a9.177 9.177 0 00-6.421 2.708 9.194 9.194 0 00-2.67 6.443c-.154 31.515-.125 63.093-.096 93.63.05 52.103.1 105.977-.76 160.471-.179 11.96 1.192 13.549 2.244 13.703a.83.83 0 00.141 0c2.493 0 5.435-9.385 6.59-13.457 5.098-13.74 25.595-13.187 42.066-12.742 5.9.158 11.476.308 15.726-.195 13.052-.213 24.769-.371 35.825-.479a8.721 8.721 0 006.079-2.608 8.742 8.742 0 002.506-6.128v-21.057l.644-.636.149-.15.574-.57c1.994-1.984 4.055-4.031 6.182-5.932l.886-.782h.07c.134-.093.254-.203.357-.329.22-.248.373-.549.445-.873.025-.108.042-.218.05-.329a.695.695 0 000-.129v-.278c0-.217 0-.416-.029-.637a13.853 13.853 0 00-1.434-4.634c-.041-.096-.087-.187-.133-.279l.96-.936a47.409 47.409 0 005.493-6.214 18.233 18.233 0 001.982-3.432c.316-.805.543-1.642.677-2.496.084-.437.167-.89.283-1.336.249-.965 1.051-1.738 1.824-2.495.266-.254.536-.516.777-.778a50.378 50.378 0 002.813-3.328c1.114-1.544 3.175-4.227 2.684-6.036zm-133.822-167.53a8.587 8.587 0 01.645-3.313 8.549 8.549 0 011.873-2.806 8.36 8.36 0 015.963-2.496c18.697.033 37.707.033 56.093.033h32.916a9.155 9.155 0 016.445 2.719 9.181 9.181 0 012.651 6.478c.095 52.831.041 106.568 0 158.529l-.021 25.97a129.821 129.821 0 01-3.15 2.974l-.415.391a13.89 13.89 0 01-.416-.986 21.57 21.57 0 01-1.196-3.89c-.063-.332-.254-1.343.212-1.792a.855.855 0 01.652-.213.528.528 0 01.209.059.52.52 0 01.165.141.558.558 0 00.677.208.545.545 0 00.32-.628 1.402 1.402 0 00-.889-1.069 2.098 2.098 0 00-1.936.287 2.07 2.07 0 00-.665.799 39.39 39.39 0 00-1.704.944 272.187 272.187 0 01-1.587-4.11 341.222 341.222 0 01-5.68-16.336 565.17 565.17 0 01-1.853-5.89c-1.055-3.378-2.148-6.872-3.299-10.283-1.109-3.278-2.173-6.194-3.266-8.915a66.15 66.15 0 00-3.989-8.582.52.52 0 00-.37-.274 11.746 11.746 0 00-.585-3.141c-1.48-4.455-5.377-7.151-8.385-8.628l-.545-.257c5.959-.1 11.979-.159 17.921-.167h16.292a.511.511 0 00.515-.516.513.513 0 00-.515-.515c-8.638-.271-17.775-.342-28.761-.221-3.291.042-6.046.083-8.664.141a35.833 35.833 0 00-2.326-.719c.108-.162.216-.32.328-.479 1.317-1.809 3.154-2.995 4.778-3.918l.727-.416c1.617-.899 3.283-1.83 4.604-3.22 2.684-2.833 3.22-7.097 1.637-13.041-.461-1.731-1.009-3.461-1.541-5.137-.262-.832-.528-1.664-.781-2.496-.341-1.111-.678-2.23-1.014-3.328l4.687.253c1.617.092 3.232.174 4.844.246l1.135.058c.598.029 1.205.071 1.811.112 1.164.079 2.352.163 3.532.163h.898a.628.628 0 00.569-.603.534.534 0 00-.465-.575 39.979 39.979 0 00-4.33-.349c-.586-.029-1.168-.054-1.745-.091l-1.463-.092c-1.541-.096-3.087-.196-4.628-.283l-5.298-.312c-.283-.932-.561-1.863-.831-2.791l-.208-.699-1.662-5.503a24.598 24.598 0 004.762-3.986c2.135-2.304 3.411-4.659 3.789-7.001.262-1.63-.071-3.211-.415-4.692a11.342 11.342 0 00-1.596-3.964 8.728 8.728 0 00-6.278-3.657h-.287a14.442 14.442 0 00-.37-1.564h.869c6.012 0 11.002 0 15.706-.046a.7.7 0 00.702-.703.703.703 0 00-.702-.703c-5.697-.033-11.468-.046-17.152-.046a9.46 9.46 0 00-2.846-3.773c-2.539-1.95-5.78-2.2-8.057-2.079-4.571.262-9.291 2.329-13.276 5.823h-1.516l-12.656-.02h-15.707a.745.745 0 00-.664.374.866.866 0 000 .832.75.75 0 00.664.374h13.297l14.542-.025h.466l-.058.063c-3.208 3.328-5.548 7.342-6.607 11.323a8.443 8.443 0 00-4.097.911c-2.493 1.248-4.263 3.582-5.817 5.911-1.554 2.33-3.104 5.046-3.191 8.245a7.942 7.942 0 003.274 6.801 8.71 8.71 0 001.608.899 36.963 36.963 0 00-.631 7.25 28.053 28.053 0 002.314 11.037 22.466 22.466 0 006.145 8.265c1.633 1.348 4.193 2.983 7.201 3.257l.021.113c.174.977.353 1.992.49 2.986l.025.213v.108a32.386 32.386 0 00-4.67 1.693c-2.685.141-5.518.312-8.921.528a.555.555 0 00-.376.187.548.548 0 00-.131.4.51.51 0 00.515.495h.029c1.891-.092 3.893-.183 6.353-.287-.311.183-.631.37-.947.57-3.893 2.458-6.902 5.495-8.726 8.781a16.313 16.313 0 00-1.246 3.003.686.686 0 00-.545.229 105.268 105.268 0 00-14.231 19.631 142.327 142.327 0 00-9.781 21.415c.021-57.902-.079-115.428-.191-170.596zm116.23 200.23a.383.383 0 01-.216.367 1.307 1.307 0 01-.474.133 4.098 4.098 0 01-.565 0c-1.313-.046-2.518-.874-3.549-1.664l-.257-.2a43.925 43.925 0 003.926-3.24c.345.784.623 1.597.831 2.429.159.63.259 1.273.3 1.922.008.112.008.187.004.253zm-116.167 58.405c.078-27.297.116-54.731.128-82.091a145.74 145.74 0 019.964-23.823 122.498 122.498 0 0113.188-19.905c.279-.346.57-.691.86-1.036a12.285 12.285 0 001.043 7.072c1.521 3.12 4.637 5.578 8.776 6.918 1.971.616 4.009.987 6.07 1.106 1.059.075 2.101.112 3.129.112 1.546.005 3.09-.086 4.625-.27 1.292-.15 2.464-.3 3.581-.458a.555.555 0 00.466-.615.603.603 0 00-.599-.57c-.934 0-1.878.05-2.821.079-3.636.116-7.388.237-10.994-.37-4.13-.695-7.276-2.184-9.341-4.422-2.538-2.742-3.22-6.993-1.774-11.099 1.475-4.189 4.799-7.271 7.292-9.118a29.584 29.584 0 015.946-3.374c.544-.229 1.13-.457 1.745-.682.54-.191 1.11-.374 1.687-.545l.071.832c.052.715.098 1.431.137 2.146.079 1.402.129 2.829.174 4.21.059 1.81.121 3.678.258 5.516a.55.55 0 00.553.529.563.563 0 00.385-.15.564.564 0 00.176-.375 66.534 66.534 0 00-.142-11.938c-.02-.217-.045-.416-.07-.662v-.066c-.029-.229-.054-.462-.088-.683-.037-.337-.087-.669-.137-1.002a27.95 27.95 0 00-.689-3.328c.211 0 .415-.025.594-.046a6.978 6.978 0 004.388-2.213 6.992 6.992 0 001.844-4.559 6.658 6.658 0 00-1.807-4.63c-1.363-1.464-3.021-1.938-4.891-2.363a7.318 7.318 0 01-4.13-2.433c-1.076-1.286-1.662-2.841-1.525-4.16.075-.786.466-1.776 1.072-2.159a1.054 1.054 0 01.989-.071c.431.198.826.466 1.168.795.183.162.37.32.557.457a3.29 3.29 0 002.277.745c1.533-.146 2.97-1.523 3.324-3.212.415-1.975-.416-3.893-1.318-5.686a159.898 159.898 0 00-5.081-9.36 8.431 8.431 0 005.593-1.922 9.325 9.325 0 003.465-5.786 14.38 14.38 0 0013.392-1.988c.311-.236.611-.487.897-.753.701 2.446 1.406 4.889 2.115 7.329l.719 2.496.125.416.087.304c.867 2.978 1.728 5.957 2.584 8.935l.092.325A1136.138 1136.138 0 01193.879 329c1.246 4.388 2.285 9.355-.706 12.746-1.185 1.335-2.784 2.242-4.334 3.12-.316.178-.632.357-.943.54a15.793 15.793 0 00-4.799 4.048 14.406 14.406 0 00-1.434 2.342 4.824 4.824 0 00-.133.291c-.125.258-.233.508-.328.753-1.376 3.428-1.384 7.018-.029 9.842a.549.549 0 00.689.287.611.611 0 00.416-.707c-.723-3.328-.503-6.518.644-9.214.071-.166.154-.333.233-.495.677.175 1.363.374 2.077.616.299.095.599.195.894.303 4.462 1.598 7.524 3.636 9.365 6.24a10.826 10.826 0 01.69 11.286c-1.808 3.365-5.015 5.67-7.895 7.488l-.59.366-1.741 1.085a.634.634 0 00.333 1.161.633.633 0 00.295-.075c3.282-1.739 6.98-3.943 9.556-7.117a13.128 13.128 0 002.851-6.744l.673 1.556c.748 1.693 1.52 3.449 2.214 5.2a147.182 147.182 0 012.859 7.821c1.371 4.06 2.639 8.228 3.868 12.254.416 1.307.798 2.617 1.201 3.919 2.364 7.65 4.986 15.217 7.841 22.492-.893.55-1.787 1.124-2.655 1.664-.769.495-1.538.99-2.31 1.473-1.384.861-2.759 1.735-4.156 2.608a127.55 127.55 0 01-1.084-6.381c-.573-3.885-.997-8.029-1.384-13.436a.621.621 0 00-.216-.435.633.633 0 00-.461-.152.6.6 0 00-.228.051.595.595 0 00-.309.337.59.59 0 00-.032.232 136.12 136.12 0 002.381 20.633l-2.734 1.735c-5.402 3.419-10.33 6.368-15.918 7.816-6.083 1.581-11.842.998-16.205-1.643-4.94-2.987-7.849-7.796-9.415-11.303a43.946 43.946 0 01-2.872-9.567 60.809 60.809 0 01-.236-1.248c.095-.362.187-.72.278-1.073.191-.77.391-1.56.644-2.322a26.703 26.703 0 011.695-3.947.626.626 0 00-.697-.901.622.622 0 00-.379.272 19.789 19.789 0 00-1.957 4.094 5.56 5.56 0 00-.133.416c0-.129-.041-.258-.058-.387-.112-.832-.233-1.664-.353-2.467-.071-.507-.171-1.015-.266-1.506a25.977 25.977 0 01-.216-1.152.58.58 0 00-.24-.384.582.582 0 00-.442-.099.602.602 0 00-.552.641c.033.416.062.832.091 1.277.075 1.132.154 2.301.303 3.461.233 1.718.474 3.261.74 4.73a50.626 50.626 0 002.493 9.177c2.078 5.407 5.227 9.742 9.087 12.562 3.411 2.496 7.658 3.79 12.237 3.79a25.23 25.23 0 003.91-.308c6.257-.973 12.008-4.131 16.811-7.097a342.69 342.69 0 005.094-3.215l.777-.499 3.324-2.147c.948-.607 1.887-1.219 2.826-1.83l2.002-1.302 1.642-1.057.199-.129c.229-.145.461-.295.682-.445.415-.274.781-.524 1.126-.765.026.583.107 1.162.241 1.73.37 1.74.927 3.435 1.662 5.054l.062.134c.037.095.083.183.129.278.045.096.054.113.079.158a26.857 26.857 0 001.595 2.912 27.875 27.875 0 006.312 6.96c1.205.952 2.63 1.992 4.279 2.292-1.753 1.564-3.432 3.207-5.276 5.029l-.694.695-.212.183c-.416.416-.806.798-1.214 1.194l-.17.166c-1.442 1.406-3.365 3.232-5.435 4.913a42.38 42.38 0 01-4.986 3.477c-.311.192-.623.375-.939.554-7.005 3.985-14.9 6.156-20.995 7.608-11.547 2.737-21.407 2.987-30.154.766a40.124 40.124 0 01-12.419-5.408 36.918 36.918 0 01-9.764-9.743 56.98 56.98 0 01-6.462-12.558c-1.408-3.694-2.468-7.559-3.49-11.294-.345-1.248-.685-2.496-1.043-3.765-.145-.499-.278-1.003-.415-1.506-.204-.745-.416-1.514-.636-2.267a.5.5 0 00-.598-.362.539.539 0 00-.416.616 118.889 118.889 0 003.856 15.695 64.831 64.831 0 005.938 13.636 40.926 40.926 0 009.049 10.816 39.554 39.554 0 0012.241 6.764 50.48 50.48 0 0016.529 2.591 72.743 72.743 0 0013.516-1.339 109.802 109.802 0 0015.316-4.077 61.646 61.646 0 0010.641-4.667c.324-.179.644-.366.964-.558a33.03 33.03 0 001.94-1.248 58.385 58.385 0 007.667-6.369v17.688a8.135 8.135 0 01-2.299 5.67 8.116 8.116 0 01-5.596 2.459l-15.025.237c-15.822.249-35.949.565-47.854.765-9.739.183-23.073.416-29.334 10.462-1.068 1.514-2.331 4.876-3.536 8.116-1.018 2.691-2.269 6.011-2.834 6.502-.133-.27-.312-1.31-.012-5.308zm115.888-88.605v-.395c-.008-.462.05-.923.171-1.369.05-.133.116-.195.158-.2.041-.004.112.046.174.167.119.236.212.484.278.74l.03.096c.129.429.221.869.274 1.314-.416.774-.769 1.465-1.13 2.13-.009-.844.02-1.664.045-2.471v-.012zm10.924 6.419c-.166.174-.341.341-.515.511a7.906 7.906 0 00-1.874 2.375 5.26 5.26 0 00-.349 1.477c0 .104-.029.208-.046.308a13.223 13.223 0 01-2.065 5.133 40.93 40.93 0 01-5.077 5.866c-.524.524-.96.944-1.376 1.335l-.1.092-.054.045-.569.533-.133.116-.041.042c-1.359 1.248-2.78 2.433-4.155 3.602l-.287.242-.067-.059a27.468 27.468 0 01-6.61-8.378 33.612 33.612 0 003.536-3.103c.415-.416.831-.832 1.209-1.248.054-.054.104-.112.145-.158a55.236 55.236 0 004.812-5.849 48.548 48.548 0 002.148-3.29c.208-.345.415-.691.607-1.036a96.263 96.263 0 001.749-3.186l.154-.292c.153-.291.311-.582.461-.873l.648-1.248a166.23 166.23 0 012.078-3.902 48.42 48.42 0 012.277-3.798 33.35 33.35 0 011.396-1.926 1.3 1.3 0 01.689-.512c.142-.041.179-.025.229 0 .145.24.229.511.245.791a79.703 79.703 0 00-3.739 5.137 44.311 44.311 0 00-3.458 5.845.566.566 0 00.241.74.531.531 0 00.588-.039.53.53 0 00.135-.156c.499-.782.981-1.594 1.442-2.38a77.84 77.84 0 011.376-2.275 68.455 68.455 0 013.016-4.36 82.326 82.326 0 013.395-4.251c.17-.2.336-.416.507-.62.345-.452.722-.877 1.13-1.273a.728.728 0 01.283-.186.737.737 0 01.336-.039c.116.034.199.142.245.325.079.312-.17 1.032-.341 1.506-.062.183-.116.341-.162.487-.414.465-.797.956-1.146 1.472l-.453.628a477.012 477.012 0 00-4.263 5.782c-.345.479-.698.953-1.056 1.431a44.555 44.555 0 00-3.494 5.2.54.54 0 00.179.699.527.527 0 00.295.096.49.49 0 00.373-.179 39.608 39.608 0 002.568-3.44c.299-.416.599-.866.902-1.29a315.866 315.866 0 013.598-4.946c.585-.787 1.173-1.571 1.766-2.35.191-.254.382-.52.569-.791.384-.572.811-1.114 1.276-1.622a.926.926 0 01.627-.349.31.31 0 01.237.162c.187.262.183.645-.021 1.198a21.005 21.005 0 01-1.101 2.325l-.128.242c-.204.386-.416.794-.632 1.214-.877 1.697-1.874 3.628-2.834 5.104v.042l-.444.528c-.171.208-.337.416-.507.612a86.382 86.382 0 00-4.305 5.545.574.574 0 00-.11.28.574.574 0 00.044.298.668.668 0 00.531.383.637.637 0 00.578-.266 80.655 80.655 0 014.18-5.371c.175-.204.349-.416.524-.628a16.263 16.263 0 013.029-3.095.407.407 0 01.182-.065.44.44 0 01.466.323c.44 1.731-1.309 3.881-2.468 5.308l-.324.416a43.194 43.194 0 01-2.697 3.045v-.012z" fill="#000"/><path d="M171.383 373.477a19.466 19.466 0 01-7.851-1.62 19.405 19.405 0 01-3.519-2.022c-.887-.644-1.733-1.372-2.555-2.104l-.721-.631a.414.414 0 00-.302-.099.437.437 0 00-.285.149.58.58 0 00-.073.677c1.794 2.905 4.689 4.675 6.799 5.65a15.93 15.93 0 006.693 1.523c.622.002 1.244-.038 1.863-.119a.628.628 0 00.42-.258.788.788 0 00.146-.515.72.72 0 00-.054-.252.651.651 0 00-.136-.209.594.594 0 00-.198-.134.519.519 0 00-.227-.036zm3.728 5.278a.526.526 0 00.412.245c.1 0 .198-.028.284-.082a34.945 34.945 0 008.079-6.446c1.551-1.719 3.98-5.204 2.803-9.051a.618.618 0 00-.278-.344.572.572 0 00-.426-.06.524.524 0 00-.322.223.574.574 0 00-.09.392c.313 2.681-.782 5.359-3.255 7.955a72.576 72.576 0 01-7.092 6.339.614.614 0 00-.115.829zm5.349-65.607l.389.696c.678 1.205 1.323 2.342 1.256 3.792a8.995 8.995 0 01-.515 2.343c-.05.143-.113.303-.176.467-.26.641-.578 1.442-.322 2.107a.67.67 0 00.36.396.6.6 0 00.247.051.78.78 0 00.297-.063c.745-.325 1.072-1.294 1.314-2.002l.063-.189c.303-.851.503-1.735.595-2.634.205-2.048-.599-3.657-1.411-4.964a23.123 23.123 0 01-2.286-4.656 24.912 24.912 0 01-.946-4.18 99.445 99.445 0 00-.142-.843.55.55 0 00-.586-.467.623.623 0 00-.595.581 16.867 16.867 0 00.653 4.93 20.092 20.092 0 001.805 4.635zm-4.657 19.387a.333.333 0 00.139.092c.864 1.311 2.291 2.306 3.775 2.373a6.475 6.475 0 003.171-.944 4.129 4.129 0 001.855-2.128c.656-1.686.081-4.084-2.014-3.873-.518.055-1.035.135-1.553.206a.77.77 0 01-.771-.164 4.465 4.465 0 00-.611-.548 3.098 3.098 0 00-1.27-.51 3.048 3.048 0 00-1.359.089c-2.275.687-2.805 3.641-1.362 5.407zm.167-2.752c.089-.367.261-.706.503-.989a2.28 2.28 0 01.887-.638 2.115 2.115 0 011.064-.082c.356.064.691.218.975.449.222.233.463.446.721.636.384.18.819.21 1.223.084.408-.071.815-.16 1.223-.24.408-.08.897-.135 1.223.261a2.243 2.243 0 01.257 1.968 3.098 3.098 0 01-1.345 1.855 9.088 9.088 0 01-1.223.577 6.078 6.078 0 01-1.26.421 3.505 3.505 0 01-1.478-.12 3.579 3.579 0 01-1.306-.722 6.378 6.378 0 01-1.056-1.18c-.265-.738-.607-1.492-.408-2.28zm-2.617-20.94c.317.012.634.042.946.092.248.034.491.069.752.088a.975.975 0 00.534-.121.759.759 0 00.336-.372.622.622 0 00.059-.458.707.707 0 00-.28-.395 3.566 3.566 0 00-1.297-.535 6.246 6.246 0 00-1.352-.142h-.031a7.347 7.347 0 00-2.573.47c-.847.295-1.585.779-2.135 1.4a1.357 1.357 0 00-.306.732c-.025.262.033.526.167.763.096.178.248.331.438.443.19.112.412.178.643.192h.036a.708.708 0 00.292-.069.582.582 0 00.217-.18.488.488 0 00.089-.257.485.485 0 00-.067-.263.121.121 0 010-.038s.059-.053.081-.076l.099-.088c.162-.147.336-.283.523-.406a4.579 4.579 0 011.351-.596 5.03 5.03 0 011.478-.184z" fill="#000"/><path d="M180.768 307.876a.979.979 0 00.88-.217l.04-.034.066-.051.202-.107.084-.038.075-.025c.085-.029.172-.053.259-.073l.282-.055h.145c.213-.011.426-.011.638 0 .207 0 .418.034.66.059l.48.056c.106.012.212.03.316.055l.22.06h.053l.035.021.027.021c.089.059.185.108.286.145a.687.687 0 00.256.228c.104.053.22.081.338.079h.057a.853.853 0 00.447-.163.816.816 0 00.283-.374v-.055c.071-.171.105-.353.101-.537v-.055a1.279 1.279 0 00-.11-.55 1.982 1.982 0 00-1.104-.924 3.919 3.919 0 00-1.087-.23l-.189-.021a9.694 9.694 0 00-.911-.077 5.104 5.104 0 00-1.975.243c-.972.366-1.892 1.082-1.549 1.997a.933.933 0 00.264.4c.121.109.27.185.431.222zm117.833 105.866c12.261.272 24.711.261 36.782.256h20.872a.564.564 0 00.365-.098.789.789 0 00.27-.326c.072-.159.11-.339.11-.522 0-.184-.038-.364-.11-.523a.85.85 0 00-.267-.346.604.604 0 00-.368-.125c-13.755-.115-27.746-.037-41.275.042l-3.78.026c-3.806 0-7.825.084-12.64.188a.508.508 0 00-.396.209.817.817 0 00-.164.502c0 .189.059.37.164.503a.508.508 0 00.396.209l.041.005zm17.921 10.296c-1.004.06-2.02.15-3.004.231-1.622.141-3.299.287-4.957.304a53.714 53.714 0 01-7.94-.569.516.516 0 00-.409.128.62.62 0 00-.201.403.656.656 0 00.083.457.574.574 0 00.359.262c2.677.52 5.392.77 8.112.744h.028c2.283 0 5.259-.111 8.072-.971a.47.47 0 00.266-.219.533.533 0 00.061-.355.5.5 0 00-.162-.303.433.433 0 00-.308-.112zm35.925-.038a38.297 38.297 0 00-4.815.368c-.699.079-1.397.163-2.103.227-2.356.221-4.715.368-7.016.436-4.076.127-8.5 0-13.926-.331a.429.429 0 00-.212.03.514.514 0 00-.187.131.696.696 0 00-.131.211.832.832 0 00-.055.259.903.903 0 00.134.549.59.59 0 00.401.277c3.968.581 7.961.862 11.957.842h2.154a96.654 96.654 0 006.927-.389h.269a30.307 30.307 0 006.73-1.137.59.59 0 00.331-.294.858.858 0 00.089-.495.815.815 0 00-.168-.474.532.532 0 00-.379-.21zm-27.101-184a.77.77 0 00.462-.146.45.45 0 00.192-.354.45.45 0 00-.192-.354.77.77 0 00-.462-.146h-25.501c-1.712 0-3.45.029-5.129.054l-2.179.029a.633.633 0 00-.38.12.372.372 0 00-.157.291.37.37 0 00.157.29c.101.077.238.12.38.12 4.425.055 8.749.086 12.816.09l19.993.006zm-193.829 1.699c2.245.285 4.528.28 6.735.274h1.503l8.203.027h48.997c3.589 0 7.236 0 10.762-.048l7.582-.049a.635.635 0 00.496-.264c.131-.17.205-.399.205-.639a1.05 1.05 0 00-.205-.638.633.633 0 00-.496-.265l-8.638-.037c-7.886-.033-16.044-.065-24.068-.059h-8.805c-7.832 0-15.936 0-23.902.032l-9.051.032h-1.973a55.184 55.184 0 00-7.349.28.464.464 0 00-.363.193.77.77 0 00-.15.468c0 .175.054.343.15.467a.465.465 0 00.363.194l.004.032zM154.341 261h-.118c-6.797 0-13.827 0-20.738.198-.132.018-.255.11-.345.258-.09.149-.14.343-.14.544s.05.395.14.544c.09.148.213.24.345.258 5.942.173 11.965.198 17.853.198h3.003c.175 0 .343-.105.466-.292.124-.187.193-.441.193-.705 0-.264-.069-.518-.193-.705-.123-.187-.291-.292-.466-.292V261zm59.929 1.046a4753.65 4753.65 0 00-41.882 0h-2.004c-3.238 0-6.58.025-9.868.121a.68.68 0 00-.365.098c-.097.063-.151.149-.151.238s.054.175.151.238a.68.68 0 00.365.098c5.758.17 11.625.165 17.299.159h24.591c4.349 0 8.233 0 11.864-.025.194 0 .379-.05.516-.139.137-.089.214-.21.214-.337 0-.126-.077-.247-.214-.336a.962.962 0 00-.516-.139v.024z" fill="#000"/><path d="M452.953 388.656c-8.634-.054-20.24-.125-26.474-.129l-21.438-.025-.163-.133a20.9 20.9 0 00-10.946-4.291 18.775 18.775 0 00-10.958 2.356 18.17 18.17 0 00-2.85 2.018c-31.382-.033-63.39-.075-94.951-.133a7.456 7.456 0 00-5.15 2.146 7.411 7.411 0 00-2.207 5.112c-.088 3.975-.088 8.137-.088 12.157v4.948a1.512 1.512 0 00-.522.112 1.672 1.672 0 00-.788 1.033c-.067.216-.112.44-.134.665a.893.893 0 00-.414-.181.895.895 0 00-.45.048c-.722.225-1.093 1.141-1.335 1.748l-.033.075a6.46 6.46 0 00-.188 4.653.51.51 0 00-.075.054c-.731.799-.898 1.835-1.06 2.834v.104a27.779 27.779 0 00-.351 3.43 20.66 20.66 0 00.551 6.184 15.55 15.55 0 00-.367 2.031c-.038.304-.071.612-.109.911-.025.221-.046.442-.075.658a99.243 99.243 0 00-.392 3.945 90.569 90.569 0 00-.225 3.825c-.094 1.235 0 2.477.279 3.683.145.553.325 1.097.538 1.627.397.982.849 1.941 1.353 2.872.221.416.45.832.676 1.249l.379.699a67.031 67.031 0 004.737 7.545c-.372.216-.743.416-1.123.641l-.384.216c-.788.441-1.669.945-2.504.833-1.176-.142-1.164-2.264-1.151-2.689a5.236 5.236 0 011.297-3.229.624.624 0 00.163-.451.63.63 0 00-.208-.432.597.597 0 00-.423-.164.574.574 0 00-.412.189 6.324 6.324 0 00-1.022 1.39c-.877 1.582-1.39 3.937-.201 5.798.074.116.155.227.242.333.12.13.253.247.397.349a22.23 22.23 0 003.338 6.472c.029 5.165 0 10.587-.025 15.852-.037 7.287-.075 14.82.029 21.803-3.288 7.075-11.417 11.728-17.243 14.629a41.5 41.5 0 01-8.743 2.743.896.896 0 00-.742 1.003c.011.256.118.499.301.68.182.181.426.287.683.298 20.77.204 42.199.907 62.918 1.585 25.173.833 50.816 1.665 76.368 1.665 20.524 0 40.984-.545 61.074-2.081a10.326 10.326 0 006.534-3.118 10.277 10.277 0 002.868-6.633c.117-2.401.179-4.253.183-5.506.03-20.476.034-41.002.034-60.853 0-18.245 0-37.115.029-55.984a9.142 9.142 0 00-2.637-6.436 9.194 9.194 0 00-6.41-2.733zM279.648 508.515a.244.244 0 000-.054c.058-6.892.037-13.9 0-20.676 0-4.403-.03-8.927 0-13.421l.225.287c2.032 2.551 4.386 5.24 7.399 8.461 5.68 6.063 11.134 10.745 16.672 14.316 6.647 4.278 13.633 6.925 20.765 7.841 2.193.283 4.403.422 6.614.416a66.122 66.122 0 0017.974-2.659c1.786-.504 3.714-1.12 6.022-1.931v.628c.062 2.268.129 4.616.133 6.921 0 5.41-.15 10.713-.471 15.723a147 147 0 01-.418 5.049c-11.726-.292-23.411-.675-34.991-1.053-20.081-.662-40.826-1.345-61.011-1.507 8.213-3.175 19.568-10.163 21.087-18.341zm77.507 1.935a211.5 211.5 0 00-.267-8.785v-.067c0-.349-.038-.695-.059-1.04 1.64-.595 3.297-1.22 4.904-1.827 1.606-.608 3.271-1.249 4.916-1.827a.54.54 0 00.692 0c.176-.146.739 0 .981.079h.071c.292.075.576.171.864.262.288.092.555.183.834.258l.255.071c.517.146 1.052.295 1.586.416.146.037.292.062.417.092.125.029.326.062.484.099l.105.03c.308.085.624.143.943.174h.037a.526.526 0 00.505-.387.547.547 0 00-.246-.649 5.047 5.047 0 00-.835-.358l-.133-.046a11.025 11.025 0 01-.505-.199 9.833 9.833 0 00-.572-.221 49.455 49.455 0 00-2.132-.691l-.213-.066a84.446 84.446 0 013.029-.958l.889-.27a88.292 88.292 0 012.087-.604.597.597 0 00.471-.489.6.6 0 00-.008-.239.656.656 0 00-.772-.528c-2.001.338-3.98.79-5.93 1.352-2.015.595-4.006 1.299-5.842 1.973-1.163.424-2.325.856-3.485 1.294-1.302.487-2.604.978-3.91 1.453l-.855.303c-1.206.417-2.266.795-3.243 1.112-8.496 2.767-16.542 3.953-23.924 3.537a46.893 46.893 0 01-20.999-6.438c-5.467-3.126-10.942-7.508-16.735-13.351a170.134 170.134 0 01-7.353-7.932c-1.147-1.311-2.445-2.797-3.63-4.324a39.322 39.322 0 01-1.352-1.823 29.725 29.725 0 01-1.853-3.026c-.188-.35-.367-.707-.551-1.061h.079c.447-.005.89-.086 1.311-.237a18.922 18.922 0 003.559-1.819l.088-.054.083-.046.489-.3.087-.054a42.698 42.698 0 006.297-4.802 41.631 41.631 0 002.145-2.135c.205-.217.418-.442.606-.662l.091-.1c.067-.075.134-.146.192-.221a16.03 16.03 0 002.504-3.466 76.476 76.476 0 0013.262 16.772c5.864 5.522 11.827 8.323 17.732 8.323.313 0 .63 0 .943-.025 6.623-.337 12.557-3.537 18.295-6.634.893-.478 1.778-.961 2.662-1.423a180.632 180.632 0 0111.084-5.298l.392-.175.864-.374.58-.25a83.157 83.157 0 019.557-3.562 28.713 28.713 0 017.29-1.22h1.519a21.03 21.03 0 012.554.262h.079c.242.042.472.084.693.129l.205.042.417.087h.042a33.643 33.643 0 018.817 3.554c.747.417 1.499.87 2.296 1.391a.565.565 0 00.625.018.644.644 0 00.038-1.046 29.462 29.462 0 00-9.64-5.099 24.396 24.396 0 00-2.086-.528 36.152 36.152 0 00-4.858-11.154 9.124 9.124 0 00-.254-.37 16.424 16.424 0 00-.672-.953 11.434 11.434 0 00-.564-.72c-.221-.262-.492-.57-.834-.953-1.215-1.249-2.646-2.497-3.798-3.471-3.564-3.051-5.479-6.114-5.533-8.852a6.988 6.988 0 01.793-3.55 10.172 10.172 0 011.644-2.081c.254-.271.509-.541.755-.832 1.035-1.203 1.573-2.306 1.703-3.467a3.705 3.705 0 00-.226-1.744 5.023 5.023 0 00-.676-1.128c-.108-.15-.217-.295-.313-.449a.95.95 0 01-.187-.754c.125-.507.834-.915 1.443-1.273l.372-.221a170.331 170.331 0 003.893-2.443 151.269 151.269 0 006.919-4.748l.242-.179.322-.233c.171-.121.346-.25.517-.379l.109-.075.067-.05.054-.041.104-.079h.021l.075-.054 1.214-.912.134-.1c.376-.291.747-.591 1.114-.895l.18-.141c.369.657.788 1.286 1.252 1.881a16.664 16.664 0 008.721 5.61l.309.088c-.417.37-.834.757-1.252 1.156-1.373 1.353-2.871 3.022-3.593 5.14-.571 1.665-.672 4.066.935 5.336 1.047.832 2.258.728 3.426.628a5.546 5.546 0 012.37.125 3.674 3.674 0 012.383 4.037 3.987 3.987 0 01-1.252 2.193 5.122 5.122 0 01-2.558.995l-.463.079c-.858.105-1.699.318-2.504.632a5.595 5.595 0 00-2.349 2.04c-1.135 1.631-2.442 4.062-2.225 6.351a6.1 6.1 0 00.66 2.197c.174.346.372.68.592.999a13.12 13.12 0 001.766 2.064 14.504 14.504 0 004.54 2.955c.234.096.471.191.693.266.324 1.33.751 2.632 1.277 3.896a17.741 17.741 0 003.722 5.626 38.903 38.903 0 003.447 2.964c.785.62 1.59 1.248 2.345 1.926 4.044 3.575 7.195 7.908 9.745 11.653 2.9 4.261 5.535 8.694 7.891 13.276a130.435 130.435 0 0110.741 29.395c.802 3.379 1.515 6.95 2.133 10.621-2.88.169-5.765.322-8.655.458a272.143 272.143 0 00-4.737-20.123 276.905 276.905 0 00-3.138-10.591c-1.118-3.525-2.237-6.963-3.639-10.296a.53.53 0 00-.692-.288.577.577 0 00-.338.276.576.576 0 00-.051.432c.76 2.609 1.599 5.24 2.412 7.782 1.136 3.555 2.312 7.225 3.281 10.896 1.99 7.587 3.392 13.413 4.527 18.998.209 1.003.418 2.006.597 2.993-23.586 1.036-47.502.874-71.247.304.567-6.776.813-12.998.751-19.016zm-73.343-87.334c-.1-1.082-.217-2.16-.346-3.205-.021-.179-.038-.354-.058-.537a7.954 7.954 0 00-.418-2.081 2.471 2.471 0 00-1.886-1.515 1.48 1.48 0 00-.663.084 10.28 10.28 0 00-.835-1.765v-17.022a6.788 6.788 0 012.024-4.906 6.64 6.64 0 014.816-1.94c30.685.45 61.315.529 91.587.454a11.14 11.14 0 00-2.12 4.278.097.097 0 000 .034 8.962 8.962 0 00-.209 1.373c-.275 3.267 1.089 6.659 4.173 10.404a211.766 211.766 0 01-5.32 3.638 191.75 191.75 0 01-3.756 2.393l-1.252.749-.726.437c-.511.281-.967.65-1.348 1.09-.714.895-.647 1.973.2 3.201l.067.1c.314.373.528.82.622 1.298a3.205 3.205 0 01-.447 1.856 9.561 9.561 0 01-1.611 2.044c-.287.303-.584.62-.863.949a7.912 7.912 0 00-1.736 3.375 10.73 10.73 0 00.717 6.629c.835 1.927 3.552 4.399 5.955 6.584.564.512 1.102 1.003 1.574 1.449-9.682 0-19.369.012-29.062.037l-14.844.033h-4.644c-3.756 0-7.633-.045-11.426.192a.534.534 0 00-.378.909c.1.1.236.156.378.156 3.434.212 6.935.196 10.32.179h3.472l13.771.029c5.445 0 10.893.009 16.346.025h17.577a31.032 31.032 0 014.173 6.713 34.484 34.484 0 011.949 5.627 25.152 25.152 0 00-2.178-.179h-1.398a24.658 24.658 0 00-3.368.275c-4.031.607-7.812 2.043-11.342 3.466-1.67.679-3.339 1.378-4.912 2.081a988.393 988.393 0 00-5.154-.095c-2.449-.038-4.978-.08-7.461-.154a740.927 740.927 0 01-20.924-.929l-1.177-.07c-.459-.029-.922-.067-1.386-.104a28.57 28.57 0 00-3.689-.133.56.56 0 00-.367.163.562.562 0 00-.167.365.517.517 0 00.418.558c1.071.189 2.155.305 3.242.349l.939.063c1.486.108 2.963.208 4.449.308 2.77.179 5.683.337 8.655.47 5.917.279 11.789.445 17.447.499h2.245c-1.11.512-2.199 1.024-3.25 1.536-2.367 1.136-4.733 2.368-7.02 3.558a607.667 607.667 0 01-3.488 1.802c-3.034 1.549-6.59 3.276-10.396 4.187a19.44 19.44 0 01-10.482-.245c-2.876-.916-5.73-2.556-8.722-5.015a65.48 65.48 0 01-7.629-7.625 113.605 113.605 0 01-7.232-9.193c-.417-.595-.868-1.248-1.335-1.935.321-1.503-.392-2.302-1.064-2.701a3.597 3.597 0 00-2.12-.495 2.889 2.889 0 00-1.874.932.627.627 0 00-.075.832.652.652 0 00.86.196c.747-.416 2.086-.479 2.637.112.551.591-.442 2.152-.834 2.764a19.087 19.087 0 01-1.49 1.943 207.277 207.277 0 00-1.841-3.084 15.298 15.298 0 01-1.715-3.479c-.613-2.052-.175-4.253.251-6.384.125-.629.254-1.282.354-1.915a61.29 61.29 0 00.493-4.116c.062-.715.108-1.377.142-2.018 0-.158 0-.312.029-.474.05-.532.05-1.067 0-1.599a1.752 1.752 0 00-.835-1.348 1.678 1.678 0 00-1.54 0c-.481.23-.908.559-1.252.966v-1.132c-.004-2.04-.012-4.187-.217-6.351zm156.112 105.376a174.097 174.097 0 00-1.227-6.501 135.85 135.85 0 00-9.781-29.765 126.489 126.489 0 00-7.441-13.621c-3.288-5.223-6.064-9.002-8.989-12.257a44.159 44.159 0 00-5.642-5.277c-.234-.187-.467-.366-.705-.549-1.707-1.324-3.468-2.693-4.778-4.462a19.855 19.855 0 01-2.988-6.346c1.083.267 2.193.406 3.309.416a13.334 13.334 0 004.265-.712c.03.004.061.004.092 0 .283-.092.567-.2.905-.341 1.461-.624 3.401-1.802 4.374-3.854.171-.352.311-.718.417-1.095h5.425c11.092 0 21.199 0 30.906-.033a.77.77 0 00.768-.766.765.765 0 00-.768-.765c-12.319-.029-24.592-.034-36.043-.034a19.451 19.451 0 00-.205-3.766c-.242-1.939-.417-3.833.255-5.681a15 15 0 012.504-4.137c.467-.587.968-1.173 1.448-1.739 1.669-1.96 3.388-3.991 4.307-6.493.475-1.311 1.085-3.795-.209-5.701a5.53 5.53 0 00-4.077-2.268c.143-.924.209-1.858.196-2.793a18.955 18.955 0 00-1.052-5.976 18.567 18.567 0 00-2.854-5.282 8.514 8.514 0 00-2.27-2.114 4.79 4.79 0 00-.338-.187v-.083a8.044 8.044 0 00-.272-1.303 12.259 12.259 0 00-2.311-4.441c12.538-.066 24.992-.14 37.361-.22h.163c8.484-.054 15.19-.096 15.345 8.644 0 .15.054 43.582.058 44.011-.2 7.15-.104 17.87 0 29.219.142 15.74.3 33.582-.284 46.296a9.652 9.652 0 01-2.682 6.257 9.708 9.708 0 01-6.152 2.945c-3.684.299-7.36.557-11.03.774zM277.206 415.729a.651.651 0 00.393-.708 1.246 1.246 0 01.321-.891c.112.071.21.159.292.263.137.187.257.386.359.595l.033.07c.046.084.08.163.121.242l.038.087c.083.183.163.362.25.529.206.459.385.93.535 1.411a22.51 22.51 0 01.905 4.89c.146 1.635.159 3.329.15 4.869 0 .57-.025 1.144-.041 1.719a35.431 35.431 0 000 3.716.556.556 0 00.933.383.574.574 0 00.185-.37c.161-1.836.219-3.68.175-5.523v-1.198a35.645 35.645 0 00-.455-6.36 24.573 24.573 0 00-.53-2.326.44.44 0 01.222 0 1.226 1.226 0 01.738.749c.193.618.312 1.256.355 1.902 0 .154.033.308.054.462.221 1.819.334 3.65.417 5.198.105 2.039.138 3.696.096 5.215 0 .832-.058 1.664-.108 2.497 0 .216-.038.445-.063.674a6.195 6.195 0 000 1.96.502.502 0 00.439.416h.029a.57.57 0 00.521-.345 3.97 3.97 0 00.234-1.299v-.278c.033-.392.059-.808.084-1.249l.225-.379c.471-.832 1.064-1.839 1.857-1.897a.257.257 0 01.221.054c.175.17.155.711.146 1.003v.07a45.119 45.119 0 01-.117 2.002 59.104 59.104 0 01-1.085 7.687c-.417 2.118-.98 4.753.021 7.291.8 1.822 1.779 3.56 2.921 5.19l.764 1.178a40.668 40.668 0 01-1.965 1.923 40.319 40.319 0 01-5.426 4.245l-.555.353a81.892 81.892 0 01-4.085-6.371c-.78-1.361-1.603-2.814-2.329-4.337l-.02-.046-.151-.303c-.054-.125-.112-.25-.167-.379l-.083-.183v-.05l-.117-.267a17.103 17.103 0 01-.271-.657 8.683 8.683 0 01-.493-1.902 21.596 21.596 0 010-4.645v-.166c0-.146.025-.296.034-.475.096-1.381.225-2.821.388-4.274 0-.162.037-.324.067-.528 0-.117.029-.225.046-.337l.025-.192c.029-.224.062-.449.096-.674.033-.225.07-.474.104-.732 0-.1.029-.2.037-.288.009-.087.021-.195.034-.295a.498.498 0 00.279-.52 32.862 32.862 0 00-.229-1.499 30.4 30.4 0 01-.251-1.643 23.586 23.586 0 01-.133-3.155 23.27 23.27 0 01.284-3.28l.05-.337a6.93 6.93 0 01.455-1.847c.267.403.45.856.538 1.331a27.29 27.29 0 01.605 3.167c.121.987.2 1.986.23 2.972v1.007a8.542 8.542 0 00.079 1.989.463.463 0 00.417.387.534.534 0 00.539-.345 8.246 8.246 0 00.246-2.913v-.466a29.717 29.717 0 00-.292-3.475l-.025-.167a18.522 18.522 0 00-.614-3.084 3.522 3.522 0 00-1.031-1.664c-.479-2.081-.313-3.746.518-5.07v.038l.046.125c.2.462.392.949.571 1.444.351.961.664 1.952.927 2.942a40.428 40.428 0 011.252 12.161.5.5 0 00.119.36.506.506 0 00.34.169h.046a.549.549 0 00.542-.479 33.76 33.76 0 00-.717-11.474 37.528 37.528 0 00-1.757-5.514.64.64 0 00.162-.079zm203.716-62.284c-.054-2.547-.113-5.183-.05-7.739-.017-14.06-.029-28.121-.038-42.184-.025-31.151-.045-63.378-.174-95.067a8.907 8.907 0 00-2.586-6.263 8.877 8.877 0 00-6.24-2.623c-19.598 0-39.196.012-58.792.034h-2.252a18.204 18.204 0 00-2.123-1.726 16.063 16.063 0 00-9.674-2.869 14.421 14.421 0 00-5.453 1.251c-.833.374-1.621.841-2.348 1.392a7.82 7.82 0 00-1.457 1.518c-2.419-1.251-5.32-1.468-7.344-1.422a22.54 22.54 0 00-7.605 1.522c-.308.121-.608.242-.908.371-26.733 0-58.458.03-91.166 0a9.474 9.474 0 00-6.656 2.797 9.5 9.5 0 00-2.76 6.681c-.154 29.846-.192 60.188-.233 89.534A70514.21 70514.21 0 01273 339.79a11.083 11.083 0 003.256 7.922 10.839 10.839 0 007.722 3.211h.029c17.596-.055 35.426-.042 50.545-.021h1.157c7.593 0 15.188.015 22.784.046h1.923l13.367.025h5.128l59.725-.113h.541l22.383-.042.392.276.229.158c.208.15.416.304.607.454a25.182 25.182 0 019.234 15.157c.208 2.193 2.081 4.432 4.183 5.004.314.086.637.13.962.133a3.413 3.413 0 002.864-1.63.357.357 0 00.05-.121c1.091-5.471.962-11.233.841-16.804zm-145.816-4.244a294.164 294.164 0 01-9.442-14.006 303.2 303.2 0 01-5.973-9.807c-.737-1.251-1.461-2.573-2.165-3.836-.866-1.568-1.761-3.182-2.697-4.745a9.148 9.148 0 002.01-.584 14.333 14.333 0 003.651-2.222c2.385-1.931 4.475-4.295 6.498-6.58l.237-.271a62.698 62.698 0 006.082-7.852l.154-.237c.142-.217.292-.446.417-.688 1.298 2.435 2.672 4.841 4.013 7.184l1.336 2.331c1.944 3.431 4.03 7.03 6.377 11.008 3.256 5.504 6.17 10.274 8.913 14.593a90.898 90.898 0 00-1.299 4.233 41.268 41.268 0 00-1.061 4.865 22.6 22.6 0 00-.183 4.883.627.627 0 00.636.605.622.622 0 00.621-.617c.059-1.437.206-2.868.441-4.287.201-1.39.479-2.768.833-4.128.653-2.56 1.527-5.099 2.368-7.555l.158-.463c1.745-5.099 3.614-10.524 5.649-15.89 2.203-5.838 4.351-10.87 6.561-15.449 2.156-4.461 4.741-9.59 8.143-13.91a31.441 31.441 0 011.756-2.051c.254-.275.537-.571.87-.901.129-.129.254-.258.417-.387.312-.313.624-.605.961-.901a33.333 33.333 0 019.446-6.004.66.66 0 00.341-.859.556.556 0 00-.741-.321 33.165 33.165 0 00-10.728 6.721c-.341.313-.649.617-.945.917l-.299.305c-9.487 0-19.104 0-28.586.041-6.778.021-13.667.126-20.328.23l-2.039.029a.465.465 0 00-.301.779c.078.086.185.14.301.151l3.684.058c5.332.084 10.823.171 16.276.188 6.528.025 13.242.041 19.957.046h9.654c-3.364 3.915-5.891 8.464-8.105 12.825-5.154 10.128-8.971 20.849-12.747 31.848l-.525 1.522-.557 1.647-.633-.997-.254-.417c-4.579-7.234-8.904-14.631-13.109-21.782a488.403 488.403 0 01-2.273-3.923c-1.536-2.661-3.122-5.421-4.783-8.056a1.856 1.856 0 00-1.153-.984c-1.532-.505-3.534.196-4.579 1.167a.487.487 0 00-.075.613.478.478 0 00.566.213l.487-.175c.966-.355 2.061-.755 3.018-.546.279.062.417.15.479.271.062.121-.137.517-.258.721l-.025.042c-.3.5-.633.992-.953 1.467l-.175.259a62.556 62.556 0 01-5.05 6.475c-1.527 1.731-3.355 3.753-5.337 5.634-1.502 1.43-3.55 3.135-6.044 3.66a4.81 4.81 0 01-.978.121v-.029a.53.53 0 00-.808-.129 1.5 1.5 0 01-.204-.121 1.81 1.81 0 01-.628-1.359c-.046-.963.499-1.835 1.028-2.677.2-.321.416-.651.578-.98a.537.537 0 00-.133-.68.557.557 0 00-.712 0c-1.315 1.076-2.127 2.473-2.218 3.836-.075 1.068.291 2.552 1.561 3.224a3 3 0 00.995.312c1.211 2.635 2.68 5.212 4.1 7.702l.454.792c1.948 3.427 3.713 6.413 5.411 9.127a298.073 298.073 0 009.804 14.748h-47.531a10.402 10.402 0 01-7.314-3.078 10.436 10.436 0 01-3.023-7.346c-.033-15.482-.041-31.218-.05-46.441 0-26.919-.029-54.76-.191-82.142a8.885 8.885 0 012.585-6.363 8.685 8.685 0 016.194-2.597h86.862a37.087 37.087 0 00-7.755 6.254c-4.163 4.307-6.661 8.394-7.643 12.509a16.35 16.35 0 00-.221 1.101c-11.006 0-22.012.008-33.015.025h-6.54c-7.456 0-15.165-.021-22.738.183a.599.599 0 00-.599.601.6.6 0 00.599.6c6.449.175 13.005.171 19.358.167h6.723c5.736.016 11.472.025 17.209.025h18.82a13.774 13.774 0 003.056 9.59c2.497 3.052 7.522 5.212 12.072 5.233.079.634.158 1.251.241 1.893-5.944 0-11.888.01-17.829.029h-.575c-3.567 0-7.256 0-10.881.113a.526.526 0 00-.482.527c0 .132.049.26.138.358.09.097.212.158.344.17 5.174.129 10.444.129 15.531.129h13.933c.208 1.526.446 3.127.72 4.882l.075.484a57.57 57.57 0 001.478 7.264c1.341 4.499 3.963 7.859 7.194 9.219.588.248 1.2.434 1.827.554a7.91 7.91 0 003.243 0c.568-.133 1.124-.31 1.665-.529l.416-.163c.467-.183.949-.375 1.428-.517 1.353-.417 2.335-.229 3.172.609l.034.029c.301.319.579.659.832 1.017.278.402.532.82.762 1.251h-63.096c-6.045 0-12.089.013-18.134.038h-4.321c-4.541 0-9.237-.034-13.833.283a.512.512 0 00-.362.876c.096.096.226.15.362.15 4.059.288 8.209.275 12.222.271h4.887a3.291 3.291 0 00-.129.175 12.63 12.63 0 00-1.84 5.129 11.274 11.274 0 00.367 5.591.537.537 0 00.653.367.568.568 0 00.417-.646 18.538 18.538 0 01-.2-4.628 12.211 12.211 0 011.34-4.366l.021-.038c.133-.25.541-1.013.866-1.075.025 0 .087 0 .187.071.379.325.417 1.43.417 2.022v.3c.037.796.037 1.61.041 2.398 0 .884 0 1.793.05 2.693a28.375 28.375 0 002.082 9.494 37.51 37.51 0 004.812 8.048 191.026 191.026 0 003.255 4.14l.808 1.018c.941 1.188 1.91 2.414 2.972 3.531a.532.532 0 00.387.167.553.553 0 00.35-.129.53.53 0 00.129-.717c-1.207-1.873-2.61-3.645-3.971-5.362-.891-1.126-1.815-2.294-2.669-3.47-1.923-2.652-3.867-5.545-5.049-8.722-1.095-2.94-1.591-6.255-1.611-10.716v-.63c0-.717 0-1.459-.055-2.193a6.275 6.275 0 00-.512-2.339l-.029-.046h12.143c17.784.025 35.569.037 53.355.037h14.429a19.701 19.701 0 011.195 6.025c.083 1.522.025 3.073-.038 4.587-.042 1.08-.087 2.193-.075 3.29a.722.722 0 00.658.717h.091a.681.681 0 00.675-.538c.488-2.298.681-4.649.574-6.997a23.235 23.235 0 00-1.115-6.846 16.927 16.927 0 00-1.64-3.507 10.5 10.5 0 00-.833-1.121 8.96 8.96 0 00-1.107-1.139c-1.978-1.668-4.163-.834-6.132-.083l-.695.258a6.975 6.975 0 01-6.245-.713c-1.844-1.134-3.301-2.918-4.333-5.332-.97-2.248-1.449-4.729-1.894-7.281a272.19 272.19 0 01-1.178-7.43l-.1-.692v-.029c0-.113-.038-.23-.05-.346l-.038-.246c-.087-.655-.179-1.305-.262-1.956l-.246-1.964v-.104c0-.029 0-.063.034-.1l-.083-.042v-.021l.087.046.025-.046a.367.367 0 00.079-.083l.092-.108c.062-.071.129-.134.195-.201l.204-.179.125-.112.221-.163c.075-.054.154-.104.237-.154l.171-.088h.066l.113-.033.112-.029h.883a.798.798 0 00.72-.417.871.871 0 00-.138-1.018.932.932 0 00-.266-.25 1.2 1.2 0 00-.137-.096 1.508 1.508 0 00-.583-.188 2.876 2.876 0 00-1.078.055 3.808 3.808 0 00-1.399.717l-.067-.58c-.062-.529-.116-1.059-.175-1.593l-.062-.583c.121-.046.246-.1.379-.163a8.44 8.44 0 001.519-.917c.452-.323.85-.715 1.178-1.164.166-.232.295-.488.383-.758.029-.1.05-.202.063-.305v-.137c.025-.138.037-.278.033-.417a.6.6 0 00-.516-.58.628.628 0 00-.674.417c0 .046-.03.092-.042.142a.91.91 0 01-.046.133c0 .038-.05.079-.075.117a1.303 1.303 0 00-.075.108 3.6 3.6 0 01-.324.451 4.926 4.926 0 01-.891.834c-.35.246-.725.471-1.087.675v-.171c-.071-.73-.133-1.463-.191-2.193-.034-.396-.063-.792-.096-1.188l.416-.063a23.442 23.442 0 005.828-1.86 27.14 27.14 0 001.99-1.017 32.863 32.863 0 007.273-5.696 21.848 21.848 0 00.166 5.467c.062.367.137.709.225 1.03.075.316.175.646.287.979 1.062 3.065 3.176 5.421 5.828 6.43 2.248.867 4.392.304 6.469-.242a19.858 19.858 0 013.06-.642 4.423 4.423 0 013.867 1.326 3.968 3.968 0 01.833 3.869 4.307 4.307 0 01-3.585 2.919 8.07 8.07 0 01-1.902.054l-.291-.025a16.702 16.702 0 01-.733-.096 42.64 42.64 0 01-1.507-.258l-.882-.159a.907.907 0 00-1.05.697.847.847 0 00.093.632.834.834 0 00.511.381c.308.092.6.167.887.242a19.86 19.86 0 00-4.708 6.742 11.678 11.678 0 00.22 9.336 9.248 9.248 0 002.935 3.511c1.665 1.167 3.676 1.576 5.254 1.801.416.058.87.113 1.332.167 2.46.296 5.253.625 6.864 2.414.183.196.346.41.487.638.075.117.143.238.204.363.236.509.377 1.057.416 1.618a.17.17 0 010 .045 9.307 9.307 0 01-.358 3.153 38.112 38.112 0 01-1.819 5.157c-.241.568-.487 1.139-.737 1.706a49.916 49.916 0 00-2.701 7.172 34.29 34.29 0 00-.317 1.384 19.389 19.389 0 00-.254 1.697h-.033a42.29 42.29 0 01-4.904 2.573c-1.469.629-3.18 1.25-4.87.854-1.424-.342-2.348-1.413-3.006-3.477a13.335 13.335 0 01-.445-5.504.612.612 0 00-.525-.663.641.641 0 00-.749.471 12.112 12.112 0 00.337 6.451c.729 2.247 1.865 3.59 3.58 4.219a5.867 5.867 0 002.057.359 9.31 9.31 0 003.709-.88 22.186 22.186 0 004.762-2.96c-.054 2.697.595 5.003 1.911 6.638a5.061 5.061 0 004.225 2.005 11.233 11.233 0 002.319-.438l.595-.154a7.478 7.478 0 012.631-.212 7.272 7.272 0 014.579 2.364 21.15 21.15 0 012.061 2.793c.333.517.682 1.047 1.049 1.556 2.231 3.093 5.174 5.232 8.292 6.021 1.691.428 3.462.428 5.154 0a22.914 22.914 0 003.451-1.306c.574-.25 1.17-.512 1.761-.742a23.862 23.862 0 014.075-1.051c1.719-.337 3.493-.687 5.112-1.496a7.56 7.56 0 001.603-1.076c.158 1.73.416 3.469.691 5.153.087.58.179 1.155.266 1.727.2 1.351.416 2.706.616 4.057.2 1.351.417 2.643.604 3.965.77 5.112 1.611 10.395 2.573 16.149a1378.5 1378.5 0 002.797 16.174l-.179-.046-21.834.021a331.036 331.036 0 00-7.36-22.041 323.356 323.356 0 00-2.86-7.326v-.387c.1-2.34.246-4.854.454-7.685a.577.577 0 00-.128-.433.555.555 0 00-.401-.205.657.657 0 00-.72.584 194.013 194.013 0 00-.437 5.091 53.462 53.462 0 00-2.444-5.421.52.52 0 00-.949.417c.529 1.622 1.191 3.228 1.832 4.783.325.788.649 1.576.957 2.368.113.275.217.555.325.834l.1.267c.211.539.419 1.077.624 1.614l.084.221v.033a332.374 332.374 0 016.573 18.659 337.557 337.557 0 012.651 8.639l-58.646.034c-1.215-4.003-2.468-8.135-3.055-12.338a32.388 32.388 0 01-.283-6.717c.189-2.337.597-4.65 1.219-6.909a162.51 162.51 0 011.178-4.237c.317-1.109.646-2.251.95-3.385.686-2.594 1.311-5.137 1.361-7.702a.543.543 0 00-.5-.542.514.514 0 00-.578.417c-.417 2.06-.883 4.449-1.541 6.797-.312 1.1-.653 2.218-.982 3.294a162.517 162.517 0 00-1.024 3.452c-1.457 5.204-1.982 9.532-1.665 13.631a58.807 58.807 0 002.081 10.728h-.025a.64.64 0 00-.37.359 137.196 137.196 0 01-1.411 3.152l-39.006.017zm138.206 15.319a15.391 15.391 0 00-1.132-3.369c-1.54-3.211-4.767-8.902-9.158-11.2-1.87-10.311-3.651-20.681-5.458-31.272-.508-2.98-1.006-5.963-1.494-8.948-.134-.792-.254-1.593-.379-2.389-.325-2.131-.666-4.337-1.166-6.451.274-.368.507-.765.695-1.184a8.593 8.593 0 00.467-5.045c-.579-3.123-2.565-5.562-4.488-7.922-.416-.509-.832-1.014-1.215-1.522-1.399-1.81-2.223-3.286-2.673-4.787-.45-1.501-.416-3.202.162-5.183.134-.45.275-.905.417-1.359.77-2.427 1.561-4.933.711-7.372 3.959 0 7.356-.025 10.578-.05a.74.74 0 00.524-1.267.741.741 0 00-.524-.218c-4.454-.033-8.067-.058-11.414-.07a8.672 8.672 0 00-1.636-1.764 11.532 11.532 0 00-1.445-1.018 29.583 29.583 0 00-4.283-2.013l-.392-.159c-3.33-1.351-6.785-2.748-9.737-4.899-5.224-3.811-8.192-10.137-9.337-19.906-.116-.984-.216-1.989-.304-2.985-.083-.922-.249-1.831-.416-2.711l-.062-.337a129.542 129.542 0 00-.204-3.465l-.046-.701a181.73 181.73 0 00-.167-2.251c2.04 0 4.079-.014 6.116-.042a.736.736 0 00.681-.736.736.736 0 00-.681-.736l-6.245-.05a68.309 68.309 0 00-.362-3.036c-.666-4.586-1.807-8.451-3.488-11.762a24.887 24.887 0 00-3.351-5.045l58.363.041a8.073 8.073 0 015.786 2.431 8.25 8.25 0 012.389 5.946c-.245 20.485-.12 41.384 0 61.594.188 32.36.383 65.817-.92 98.403a2.58 2.58 0 01-2.123.029c-1.411-.713-2.031-3.123-2.581-5.208l-.008-.012zm-96.803-16.883c.125.417.246.859.371 1.288l.079.263h-1.049c.212-.5.412-1.034.599-1.551z" fill="#000"/><path d="M380.15 410.001c-.718-.021-1.418.26-1.963.789-1.033.9-1.463 2.095-1.004 2.799a.999.999 0 00.297.283.889.889 0 00.372.128h.199a2.886 2.886 0 001.76-.798c1.033-.905 1.467-2.1 1.004-2.8a.999.999 0 00-.296-.277.884.884 0 00-.369-.124zm-205.351-98.802a1.046 1.046 0 00-.399-.178 1 1 0 00-.432.005c-.787.21-1.164 1.459-.867 2.846.131.772.523 1.461 1.098 1.926.182.128.392.197.608.202a.877.877 0 00.227-.028c.783-.21 1.164-1.459.864-2.846-.129-.773-.522-1.463-1.099-1.927zm10-2a1.043 1.043 0 00-.4-.178.995.995 0 00-.431.005c-.783.21-1.164 1.459-.868 2.846a3.148 3.148 0 001.099 1.926c.182.127.392.197.608.202a.877.877 0 00.227-.028c.783-.21 1.164-1.459.864-2.846-.129-.773-.522-1.463-1.099-1.927z" fill="#000"/></svg>